<svg width="163" height="168" viewBox="0 0 163 168" fill="none" xmlns="http://www.w3.org/2000/svg">
<g clip-path="url(#clip0_1070_1368)">
<path d="M156.375 58.0056C153.904 59.4686 151.969 60.7525 149.917 61.8052C142.668 65.4948 136.587 71.1253 132.35 78.0694C129.181 83.1054 127.795 89.0611 128.417 94.9799C129.278 104.383 134.202 110.769 143.059 114.087C147.544 115.767 152.117 117.242 156.507 119.133C162.253 121.608 163.691 124.924 161.19 130.563C159.186 135.171 156.787 139.596 154.018 143.789C150.741 148.665 147.239 153.515 143.132 157.684C132.663 168.307 120.542 169.208 108.232 160.746C105.535 158.893 102.999 156.798 100.458 154.73C97.4696 152.302 94.2496 151.612 90.6955 153.244C87.7289 154.606 84.7753 156.004 81.8717 157.495C77.6055 159.688 73.4423 162.099 69.1289 164.198C62.7626 167.295 56.0916 167.414 49.2952 165.809C35.6742 162.593 25.1808 154.777 17.0613 143.649C9.62169 133.599 4.39431 122.089 1.72325 109.874C-2.19837 91.6549 0.935686 74.6341 11.4299 59.218C20.1389 46.4273 32.5396 39.4555 47.976 39.5073C57.9602 39.5408 67.9941 41.0045 77.9048 42.4891C86.0952 43.7158 93.968 43.5997 101.784 40.7729C105.889 39.2883 110.012 37.7991 114.225 36.6827C121.665 34.6598 129.566 35.1605 136.692 38.1065C143.818 41.0526 149.765 46.2775 153.605 52.9642C154.374 54.2723 155.07 55.6225 156.375 58.0056ZM149.496 128.244C144.705 126.452 140.504 125.205 136.582 123.358C122.947 116.932 115.735 103.345 117.931 88.4237C119.933 74.8139 128.342 65.7394 139.415 58.6405C141.041 57.5982 142.77 56.7158 144.797 55.562C137.37 47.4719 128.752 44.0145 118.207 46.5598C114.615 47.4948 111.1 48.7054 107.694 50.1808C96.8474 54.6623 85.8983 55.3574 74.3481 52.9033C65.8039 51.1403 57.1152 50.1709 48.3928 50.0075C35.6079 49.7062 25.8148 55.7655 18.9108 66.4594C13.5153 74.7575 10.6408 84.4417 10.6351 94.34C10.4966 113.636 17.9204 130.015 30.6744 144.119C34.9636 148.861 40.3396 152.236 46.305 154.654C54.0255 157.784 61.5511 158.042 68.9156 153.609C71.7188 151.922 74.568 150.3 77.4749 148.801C80.5433 147.145 83.6983 145.655 86.9261 144.338C94.0198 141.602 100.605 142.59 106.57 147.474C109.221 149.747 112.018 151.845 114.942 153.754C122.02 158.143 128.053 157.696 134.005 151.933C140.834 145.26 146.121 137.175 149.496 128.244Z" fill="black"/>
<path d="M114.213 9.90046C114.021 19.8204 109.736 27.5639 101.283 32.7063C97.3971 35.0691 93.1349 36.8555 88.9376 38.6578C85.3934 40.1792 81.6562 40.0232 78.0555 38.7453C74.4706 37.4733 73.6252 35.5862 74.3767 31.6567C76.477 20.6656 82.8632 12.6329 92.1169 6.89916C96.1462 4.4051 100.872 3.05934 105.122 0.880301C109.794 -1.51468 113.758 1.48688 114.198 6.6319C114.291 7.71551 114.213 8.81094 114.213 9.90046ZM81.5604 29.7553C96.6233 27.81 105.254 19.9627 104.546 9.16589C94.145 12.8099 86.3208 18.9218 81.5604 29.7553Z" fill="black"/>
</g>
<defs>
<clipPath id="clip0_1070_1368">
<rect width="162.772" height="167.366" fill="white"/>
</clipPath>
</defs>
</svg>
