<svg role="img" viewBox="0 0 24 24" xmlns="http://www.w3.org/2000/svg"><title>Procreate</title><path d="M2.344 0A2.337 2.337 0 0 0 0 2.344v19.312A2.337 2.337 0 0 0 2.344 24h19.312A2.337 2.337 0 0 0 24 21.656V2.344A2.337 2.337 0 0 0 21.656 0Zm4.57 4.078h2.618c.367 0 .663.296.663.663v14.515a.662.662 0 0 1-.663.663H6.914a.662.662 0 0 1-.663-.663V4.741c0-.367.296-.663.663-.663Zm6.492 0h2.618c.367 0 .663.296.663.663v8.515a.662.662 0 0 1-.663.663h-2.618a.662.662 0 0 1-.663-.663V4.741c0-.367.296-.663.663-.663Zm-3.246 5a.662.662 0 0 1 .663.663v9.515a.662.662 0 0 1-.663.663H7.543a.662.662 0 0 1-.663-.663V9.741c0-.367.296-.663.663-.663Zm6.492 0h2.618c.367 0 .663.296.663.663v4.515a.662.662 0 0 1-.663.663h-2.618a.662.662 0 0 1-.663-.663V9.741c0-.367.296-.663.663-.663Z"/></svg>