<svg width="200" height="200" viewBox="0 0 200 200" fill="none" xmlns="http://www.w3.org/2000/svg">
<path fill-rule="evenodd" clip-rule="evenodd" d="M122.51 9.37258C110.013 -3.12419 89.7516 -3.1242 77.2548 9.37258L9.37258 77.2548C-3.12419 89.7516 -3.1242 110.013 9.37258 122.51L77.2548 190.392C89.7516 202.889 110.013 202.889 122.51 190.392L190.392 122.51C202.889 110.013 202.889 89.7516 190.392 77.2548L122.51 9.37258ZM72.2075 106.478C72.194 108.815 72.2345 111.164 72.4775 113.5C72.519 113.88 72.571 114.26 72.6228 114.638L72.6229 114.638L72.6229 114.639C72.6724 115 72.7216 115.359 72.7611 115.715C72.5667 115.844 72.3722 115.836 72.1778 115.827C72.1659 115.826 72.1541 115.826 72.1423 115.825C72.1055 115.824 72.0687 115.823 72.0319 115.823H63.7005C63.6645 115.823 63.6285 115.821 63.5925 115.82C63.5205 115.817 63.4484 115.814 63.3764 115.823C63.0253 115.863 62.9173 115.688 62.9038 115.35C62.8796 114.656 62.8409 113.967 62.8022 113.277L62.8022 113.277L62.8022 113.276L62.8021 113.275C62.7761 112.811 62.75 112.347 62.7283 111.88C62.7195 111.696 62.7221 111.512 62.725 111.306V111.306C62.7266 111.194 62.7283 111.076 62.7283 110.948C62.3895 111.064 62.2665 111.272 62.1512 111.467C62.1194 111.521 62.0881 111.574 62.0531 111.623C60.6893 113.568 59.0149 115.107 56.7329 115.917C55.315 116.43 53.8432 116.619 52.3579 116.579C50.1974 116.525 48.0774 116.16 46.1059 115.188C43.2973 113.811 41.5554 111.637 41.0422 108.517C41.0017 108.274 40.9612 108.031 40.7452 107.869V105.439C40.984 105.314 41.0121 105.083 41.0392 104.86C41.0424 104.834 41.0455 104.809 41.0489 104.784C41.051 104.768 41.0533 104.752 41.0557 104.737C41.5418 101.887 43.1352 99.8079 45.6063 98.3901C47.5507 97.2693 49.6842 96.6887 51.8853 96.3646C55.072 95.892 58.2722 95.8515 61.4725 96.3241C62.1206 96.4186 62.1746 96.3781 62.1071 95.7165C61.9181 93.8801 61.0809 92.5027 59.366 91.7196C58.5558 91.3415 57.6916 91.1119 56.8004 91.0444C53.2896 90.7878 49.8463 91.1389 46.565 92.5027C46.2936 92.6201 46.0302 92.7454 45.7683 92.8701L45.7679 92.8702L45.7673 92.8705C45.5474 92.9752 45.3284 93.0793 45.1067 93.1779C44.9151 93.0715 44.9332 92.9147 44.9495 92.7738C44.9539 92.7359 44.9581 92.6991 44.9581 92.6648L44.954 92.5111C44.9014 90.5645 44.8491 88.6301 44.8096 86.6829C44.7962 85.9994 44.8094 85.9943 45.4168 85.7566L45.4308 85.7512C48.0909 84.7249 50.859 84.1578 53.6947 83.9147C55.7607 83.7392 57.8266 83.6717 59.9061 83.9012C62.3097 84.1713 64.6187 84.7384 66.7252 85.9942C69.7364 87.7901 71.3838 90.4773 71.9914 93.8665C72.167 94.7983 72.2075 95.7435 72.2075 96.6887V106.478ZM51.1156 106.857C51.5207 108.139 52.4929 108.842 53.7352 109.139C58.8124 110.381 61.9721 106.168 62.1341 102.347C62.1476 102.049 62.0531 101.914 61.729 101.901C61.0958 101.874 60.4658 101.844 59.8359 101.813L59.8318 101.813C59.2006 101.783 58.5693 101.752 57.9347 101.725C57.1245 101.685 56.3143 101.779 55.5176 101.887C54.4373 102.022 53.3976 102.306 52.4929 102.941C51.2236 103.818 50.6565 105.412 51.1156 106.857ZM101.415 93.3265C101.037 93.1374 100.686 92.9619 100.308 92.7998C97.877 91.7196 95.3384 91.3685 92.7323 91.9761C89.424 92.7593 87.1825 95.3519 86.7234 98.7142C86.4938 100.375 86.5478 102.009 87.2365 103.548C88.5328 106.452 90.8823 108.018 93.9475 108.517C96.5131 108.923 98.9977 108.504 101.401 107.572C101.513 107.529 101.625 107.482 101.734 107.437C101.862 107.384 101.987 107.332 102.103 107.289C102.269 107.333 102.272 107.422 102.275 107.505C102.276 107.517 102.276 107.528 102.277 107.54C102.277 107.546 102.278 107.553 102.279 107.559C102.301 108.334 102.322 109.109 102.343 109.883C102.385 111.452 102.427 113.02 102.482 114.594C102.495 115.053 102.346 115.256 101.901 115.391C100.213 115.89 98.4981 116.214 96.7562 116.417C93.4479 116.795 90.1802 116.592 86.9934 115.634C83.3746 114.54 80.3364 112.595 78.1489 109.463C76.6365 107.289 75.8398 104.858 75.5428 102.239C75.2592 99.6189 75.4888 97.0668 76.3259 94.5823C77.8383 90.1532 80.9035 87.1555 85.184 85.3866C88.4518 84.0363 91.8816 83.6177 95.4059 83.8608C97.5259 84.0093 99.5783 84.3874 101.536 85.2111C102.281 85.5246 102.28 85.5348 102.206 86.2566L102.198 86.3318C101.995 88.2898 101.806 90.2477 101.617 92.2057C101.613 92.2662 101.609 92.3275 101.606 92.3896C101.589 92.6875 101.571 93.0024 101.415 93.3265ZM116.459 89.8571C116.402 89.9836 116.336 90.1297 116.066 90.1532V85.2921C116.066 84.5494 116.066 84.5359 115.323 84.5359H106.992C106.235 84.5359 106.222 84.5359 106.222 85.2786V115.147C106.222 115.836 106.235 115.85 106.938 115.85H116.322C117.024 115.85 117.024 115.836 117.038 115.148L117.038 115.147V114.58V102.36C117.038 101.172 117.132 99.997 117.348 98.8222C117.605 97.3774 118.051 96.0001 118.942 94.7983C120.292 92.9889 122.48 92.5297 124.289 92.9213C125.747 93.2319 126.571 94.2852 127.057 95.622C127.476 96.7697 127.57 97.985 127.57 99.2003V114.823C127.57 114.886 127.572 114.949 127.573 115.012C127.576 115.138 127.579 115.265 127.57 115.391C127.543 115.755 127.732 115.863 128.056 115.836C128.146 115.827 128.237 115.83 128.327 115.833C128.372 115.835 128.417 115.836 128.462 115.836H137.522H138.008C138.278 115.85 138.4 115.715 138.386 115.445C138.377 115.319 138.38 115.193 138.383 115.066C138.385 115.003 138.386 114.94 138.386 114.877C138.386 113.554 138.388 112.231 138.389 110.91C138.392 108.267 138.395 105.627 138.386 102.981C138.386 101.82 138.413 100.659 138.575 99.5109C138.764 98.1335 139.089 96.8102 139.764 95.5815C140.412 94.4202 141.303 93.502 142.613 93.0969C145.57 92.1922 147.852 93.2049 148.608 96.3241C148.811 97.1748 148.905 98.0255 148.905 98.8897V114.837V115.485C148.905 115.701 148.986 115.836 149.229 115.836H149.716H158.857C159.325 115.836 159.542 115.849 159.641 115.748C159.742 115.645 159.721 115.422 159.721 114.945C159.721 113.153 159.72 111.363 159.718 109.573C159.715 105.994 159.712 102.418 159.721 98.8357C159.721 97.3774 159.681 95.9325 159.6 94.4742C159.532 93.0969 159.316 91.7331 158.938 90.4098C157.952 86.8989 155.67 84.7789 152.092 84.0903C150.229 83.7392 148.352 83.6447 146.461 83.9282C143.693 84.3468 141.263 85.4541 139.278 87.4931C138.779 88.0015 138.358 88.5712 137.938 89.1387C137.8 89.3248 137.662 89.5107 137.522 89.6941C137.342 89.5563 137.262 89.3768 137.183 89.2015C137.162 89.1535 137.14 89.1059 137.117 89.0594C135.983 86.7909 134.214 85.2651 131.837 84.4414C129.393 83.5907 126.909 83.5772 124.411 84.0903C120.94 84.806 118.199 86.6019 116.484 89.8021C116.476 89.8197 116.467 89.8382 116.459 89.8571Z" fill="#008080"/>
</svg>
