<svg width="350" height="351" viewBox="0 0 350 351" fill="none" xmlns="http://www.w3.org/2000/svg">
<g clip-path="url(#clip0_564_78)">
<path fill-rule="evenodd" clip-rule="evenodd" d="M198.51 9.37258C186.013 -3.12419 165.752 -3.1242 153.255 9.37258L85.3726 77.2548C72.8758 89.7516 72.8758 110.013 85.3726 122.51L153.255 190.392C165.752 202.889 186.013 202.889 198.51 190.392L266.392 122.51C278.889 110.013 278.889 89.7516 266.392 77.2548L198.51 9.37258ZM148.207 106.478C148.194 108.815 148.234 111.164 148.478 113.5C148.519 113.88 148.571 114.26 148.623 114.638L148.623 114.638L148.623 114.639C148.672 115 148.722 115.359 148.761 115.715C148.567 115.844 148.372 115.836 148.178 115.827C148.166 115.826 148.154 115.826 148.142 115.825C148.105 115.824 148.069 115.823 148.032 115.823H139.7C139.664 115.823 139.628 115.821 139.592 115.82C139.52 115.817 139.448 115.814 139.376 115.823C139.025 115.863 138.917 115.688 138.904 115.35C138.88 114.656 138.841 113.967 138.802 113.277L138.802 113.277L138.802 113.276L138.802 113.275C138.776 112.811 138.75 112.347 138.728 111.88C138.72 111.696 138.722 111.512 138.725 111.306V111.306C138.727 111.194 138.728 111.076 138.728 110.948C138.39 111.064 138.267 111.272 138.151 111.467C138.119 111.521 138.088 111.574 138.053 111.623C136.689 113.568 135.015 115.107 132.733 115.917C131.315 116.43 129.843 116.619 128.358 116.579C126.197 116.525 124.077 116.16 122.106 115.188C119.297 113.811 117.555 111.637 117.042 108.517C117.002 108.274 116.961 108.031 116.745 107.869V105.439C116.984 105.314 117.012 105.083 117.039 104.86C117.042 104.834 117.045 104.809 117.049 104.784C117.051 104.768 117.053 104.752 117.056 104.737C117.542 101.887 119.135 99.8079 121.606 98.3901C123.551 97.2693 125.684 96.6887 127.885 96.3646C131.072 95.892 134.272 95.8515 137.472 96.3241C138.121 96.4186 138.175 96.3781 138.107 95.7165C137.918 93.8801 137.081 92.5027 135.366 91.7196C134.556 91.3415 133.692 91.1119 132.8 91.0444C129.29 90.7878 125.846 91.1389 122.565 92.5027C122.294 92.6201 122.03 92.7454 121.768 92.8701L121.768 92.8702L121.767 92.8705C121.547 92.9752 121.328 93.0793 121.107 93.1779C120.915 93.0715 120.933 92.9147 120.95 92.7738C120.954 92.7359 120.958 92.6991 120.958 92.6648L120.954 92.5111C120.901 90.5645 120.849 88.6301 120.81 86.6829C120.796 85.9994 120.809 85.9943 121.417 85.7566L121.431 85.7512C124.091 84.7249 126.859 84.1578 129.695 83.9147C131.761 83.7392 133.827 83.6717 135.906 83.9012C138.31 84.1713 140.619 84.7384 142.725 85.9942C145.736 87.7901 147.384 90.4773 147.991 93.8665C148.167 94.7983 148.207 95.7435 148.207 96.6887V106.478ZM127.116 106.857C127.521 108.139 128.493 108.842 129.735 109.139C134.812 110.381 137.972 106.168 138.134 102.347C138.148 102.049 138.053 101.914 137.729 101.901C137.096 101.874 136.466 101.844 135.836 101.813L135.832 101.813C135.201 101.783 134.569 101.752 133.935 101.725C133.124 101.685 132.314 101.779 131.518 101.887C130.437 102.022 129.398 102.306 128.493 102.941C127.224 103.818 126.656 105.412 127.116 106.857ZM177.415 93.3265C177.037 93.1374 176.686 92.9619 176.308 92.7998C173.877 91.7196 171.338 91.3685 168.732 91.9761C165.424 92.7593 163.182 95.3519 162.723 98.7142C162.494 100.375 162.548 102.009 163.236 103.548C164.533 106.452 166.882 108.018 169.948 108.517C172.513 108.923 174.998 108.504 177.401 107.572C177.513 107.529 177.625 107.482 177.734 107.437C177.862 107.384 177.987 107.332 178.103 107.289C178.269 107.333 178.272 107.422 178.275 107.505C178.276 107.517 178.276 107.528 178.277 107.54C178.277 107.546 178.278 107.553 178.279 107.559C178.301 108.334 178.322 109.109 178.343 109.883C178.385 111.452 178.427 113.02 178.482 114.594C178.495 115.053 178.346 115.256 177.901 115.391C176.213 115.89 174.498 116.214 172.756 116.417C169.448 116.795 166.18 116.592 162.993 115.634C159.375 114.54 156.336 112.595 154.149 109.463C152.637 107.289 151.84 104.858 151.543 102.239C151.259 99.6189 151.489 97.0668 152.326 94.5823C153.838 90.1532 156.904 87.1555 161.184 85.3866C164.452 84.0363 167.882 83.6177 171.406 83.8608C173.526 84.0093 175.578 84.3874 177.536 85.2111C178.281 85.5246 178.28 85.5348 178.206 86.2566L178.198 86.3318C177.995 88.2898 177.806 90.2477 177.617 92.2057C177.613 92.2662 177.609 92.3275 177.606 92.3896C177.589 92.6875 177.571 93.0024 177.415 93.3265ZM192.459 89.8571C192.402 89.9836 192.336 90.1297 192.066 90.1532V85.2921C192.066 84.5494 192.066 84.5359 191.323 84.5359H182.992C182.235 84.5359 182.222 84.5359 182.222 85.2786V115.147C182.222 115.836 182.235 115.85 182.938 115.85H192.322C193.024 115.85 193.024 115.836 193.038 115.148L193.038 115.147V114.58V102.36C193.038 101.172 193.132 99.997 193.348 98.8222C193.605 97.3774 194.051 96.0001 194.942 94.7983C196.292 92.9889 198.48 92.5297 200.289 92.9213C201.747 93.2319 202.571 94.2852 203.057 95.622C203.476 96.7697 203.57 97.985 203.57 99.2003V114.823C203.57 114.886 203.572 114.949 203.573 115.012C203.576 115.138 203.579 115.265 203.57 115.391C203.543 115.755 203.732 115.863 204.056 115.836C204.146 115.827 204.237 115.83 204.327 115.833C204.372 115.835 204.417 115.836 204.462 115.836H213.522H214.008C214.278 115.85 214.4 115.715 214.386 115.445C214.377 115.319 214.38 115.193 214.383 115.066C214.385 115.003 214.386 114.94 214.386 114.877C214.386 113.554 214.388 112.231 214.389 110.91C214.392 108.267 214.395 105.627 214.386 102.981C214.386 101.82 214.413 100.659 214.575 99.5109C214.764 98.1335 215.089 96.8102 215.764 95.5815C216.412 94.4202 217.303 93.502 218.613 93.0969C221.57 92.1922 223.852 93.2049 224.608 96.3241C224.811 97.1748 224.905 98.0255 224.905 98.8897V114.837V115.485C224.905 115.701 224.986 115.836 225.229 115.836H225.716H234.857C235.325 115.836 235.542 115.849 235.641 115.748C235.742 115.645 235.721 115.422 235.721 114.945C235.721 113.153 235.72 111.363 235.718 109.573C235.715 105.994 235.712 102.418 235.721 98.8357C235.721 97.3774 235.681 95.9325 235.6 94.4742C235.532 93.0969 235.316 91.7331 234.938 90.4098C233.952 86.8989 231.67 84.7789 228.092 84.0903C226.229 83.7392 224.352 83.6447 222.461 83.9282C219.693 84.3468 217.263 85.4541 215.278 87.4931C214.779 88.0015 214.358 88.5712 213.938 89.1387C213.8 89.3248 213.662 89.5107 213.522 89.6941C213.342 89.5563 213.262 89.3768 213.183 89.2015C213.162 89.1535 213.14 89.1059 213.117 89.0594C211.983 86.7909 210.214 85.2651 207.837 84.4414C205.393 83.5907 202.909 83.5772 200.411 84.0903C196.94 84.806 194.199 86.6019 192.484 89.8021C192.476 89.8197 192.467 89.8382 192.459 89.8571Z" fill="white"/>
<path d="M57.5165 260L65.7085 237.6H70.6045L78.7645 260H74.1885L68.1405 242.528L62.0605 260H57.5165ZM61.1325 254.912L62.2845 251.552H73.6765L74.7965 254.912H61.1325ZM88.204 260.384C86.732 260.384 85.452 260.149 84.364 259.68C83.276 259.211 82.4227 258.56 81.804 257.728C81.1853 256.896 80.8333 255.957 80.748 254.912H85.036C85.1427 255.317 85.324 255.691 85.58 256.032C85.836 256.352 86.1773 256.608 86.604 256.8C87.0307 256.992 87.5427 257.088 88.14 257.088C88.716 257.088 89.1853 257.013 89.548 256.864C89.9107 256.693 90.1773 256.469 90.348 256.192C90.54 255.915 90.636 255.627 90.636 255.328C90.636 254.88 90.508 254.539 90.252 254.304C89.996 254.048 89.6227 253.845 89.132 253.696C88.6413 253.547 88.044 253.397 87.34 253.248C86.572 253.099 85.8147 252.917 85.068 252.704C84.3427 252.469 83.692 252.181 83.116 251.84C82.54 251.499 82.0813 251.061 81.74 250.528C81.3987 249.995 81.228 249.333 81.228 248.544C81.228 247.584 81.484 246.731 81.996 245.984C82.508 245.216 83.2547 244.608 84.236 244.16C85.2173 243.712 86.4013 243.488 87.788 243.488C89.7293 243.488 91.2653 243.925 92.396 244.8C93.5267 245.675 94.1987 246.88 94.412 248.416H90.348C90.22 247.925 89.932 247.541 89.484 247.264C89.0573 246.965 88.4813 246.816 87.756 246.816C86.988 246.816 86.4013 246.955 85.996 247.232C85.5907 247.509 85.388 247.872 85.388 248.32C85.388 248.619 85.516 248.885 85.772 249.12C86.0493 249.355 86.4333 249.557 86.924 249.728C87.4147 249.877 88.012 250.027 88.716 250.176C89.9533 250.432 91.0413 250.731 91.98 251.072C92.9187 251.392 93.6547 251.861 94.188 252.48C94.7213 253.077 94.988 253.952 94.988 255.104C94.988 256.128 94.7107 257.045 94.156 257.856C93.6013 258.645 92.812 259.264 91.788 259.712C90.7853 260.16 89.5907 260.384 88.204 260.384ZM105.235 260.384C103.763 260.384 102.483 260.149 101.395 259.68C100.307 259.211 99.4539 258.56 98.8353 257.728C98.2166 256.896 97.8646 255.957 97.7793 254.912H102.067C102.174 255.317 102.355 255.691 102.611 256.032C102.867 256.352 103.209 256.608 103.635 256.8C104.062 256.992 104.574 257.088 105.171 257.088C105.747 257.088 106.217 257.013 106.579 256.864C106.942 256.693 107.209 256.469 107.379 256.192C107.571 255.915 107.667 255.627 107.667 255.328C107.667 254.88 107.539 254.539 107.283 254.304C107.027 254.048 106.654 253.845 106.163 253.696C105.673 253.547 105.075 253.397 104.371 253.248C103.603 253.099 102.846 252.917 102.099 252.704C101.374 252.469 100.723 252.181 100.147 251.84C99.5713 251.499 99.1126 251.061 98.7713 250.528C98.4299 249.995 98.2593 249.333 98.2593 248.544C98.2593 247.584 98.5153 246.731 99.0273 245.984C99.5393 245.216 100.286 244.608 101.267 244.16C102.249 243.712 103.433 243.488 104.819 243.488C106.761 243.488 108.297 243.925 109.427 244.8C110.558 245.675 111.23 246.88 111.443 248.416H107.379C107.251 247.925 106.963 247.541 106.515 247.264C106.089 246.965 105.513 246.816 104.787 246.816C104.019 246.816 103.433 246.955 103.027 247.232C102.622 247.509 102.419 247.872 102.419 248.32C102.419 248.619 102.547 248.885 102.803 249.12C103.081 249.355 103.465 249.557 103.955 249.728C104.446 249.877 105.043 250.027 105.747 250.176C106.985 250.432 108.073 250.731 109.011 251.072C109.95 251.392 110.686 251.861 111.219 252.48C111.753 253.077 112.019 253.952 112.019 255.104C112.019 256.128 111.742 257.045 111.187 257.856C110.633 258.645 109.843 259.264 108.819 259.712C107.817 260.16 106.622 260.384 105.235 260.384ZM123.291 260.384C121.755 260.384 120.368 260.032 119.131 259.328C117.915 258.603 116.944 257.611 116.219 256.352C115.515 255.072 115.163 253.611 115.163 251.968C115.163 250.283 115.515 248.811 116.219 247.552C116.944 246.272 117.925 245.28 119.163 244.576C120.4 243.851 121.787 243.488 123.323 243.488C124.88 243.488 126.267 243.851 127.483 244.576C128.72 245.28 129.691 246.272 130.395 247.552C131.12 248.811 131.483 250.272 131.483 251.936C131.483 253.6 131.12 255.072 130.395 256.352C129.691 257.611 128.72 258.603 127.483 259.328C126.245 260.032 124.848 260.384 123.291 260.384ZM123.291 256.64C124.016 256.64 124.656 256.469 125.211 256.128C125.787 255.787 126.235 255.264 126.555 254.56C126.896 253.856 127.067 252.981 127.067 251.936C127.067 250.891 126.896 250.027 126.555 249.344C126.235 248.64 125.787 248.117 125.211 247.776C124.656 247.413 124.027 247.232 123.323 247.232C122.64 247.232 122.011 247.413 121.435 247.776C120.859 248.117 120.4 248.64 120.059 249.344C119.739 250.027 119.579 250.891 119.579 251.936C119.579 252.981 119.739 253.856 120.059 254.56C120.4 255.264 120.848 255.787 121.403 256.128C121.979 256.469 122.608 256.64 123.291 256.64ZM143.014 260.384C141.392 260.384 139.952 260.021 138.694 259.296C137.435 258.571 136.454 257.579 135.75 256.32C135.046 255.061 134.694 253.621 134.694 252C134.694 250.336 135.046 248.875 135.75 247.616C136.454 246.336 137.435 245.333 138.694 244.608C139.952 243.861 141.392 243.488 143.014 243.488C145.083 243.488 146.822 244.032 148.23 245.12C149.638 246.208 150.534 247.701 150.918 249.6H146.342C146.15 248.853 145.744 248.267 145.126 247.84C144.528 247.413 143.814 247.2 142.982 247.2C142.235 247.2 141.563 247.392 140.966 247.776C140.39 248.139 139.931 248.683 139.59 249.408C139.27 250.112 139.11 250.955 139.11 251.936C139.11 252.683 139.206 253.355 139.398 253.952C139.59 254.528 139.856 255.029 140.198 255.456C140.539 255.861 140.944 256.171 141.414 256.384C141.904 256.597 142.427 256.704 142.982 256.704C143.536 256.704 144.038 256.608 144.486 256.416C144.955 256.224 145.35 255.957 145.67 255.616C145.99 255.253 146.214 254.816 146.342 254.304H150.918C150.534 256.16 149.627 257.643 148.198 258.752C146.79 259.84 145.062 260.384 143.014 260.384ZM154.739 260V243.872H159.059V260H154.739ZM156.915 241.664C156.147 241.664 155.507 241.44 154.995 240.992C154.505 240.523 154.259 239.936 154.259 239.232C154.259 238.528 154.505 237.952 154.995 237.504C155.507 237.035 156.147 236.8 156.915 236.8C157.705 236.8 158.345 237.035 158.835 237.504C159.347 237.952 159.603 238.528 159.603 239.232C159.603 239.936 159.347 240.523 158.835 240.992C158.345 241.44 157.705 241.664 156.915 241.664ZM168.865 260.384C167.521 260.384 166.411 260.171 165.536 259.744C164.662 259.296 164.011 258.709 163.585 257.984C163.179 257.237 162.977 256.416 162.977 255.52C162.977 254.539 163.222 253.675 163.713 252.928C164.225 252.181 164.982 251.595 165.985 251.168C167.009 250.741 168.289 250.528 169.825 250.528H173.825C173.825 249.739 173.718 249.088 173.505 248.576C173.291 248.043 172.961 247.648 172.513 247.392C172.065 247.136 171.467 247.008 170.72 247.008C169.91 247.008 169.217 247.189 168.641 247.552C168.086 247.893 167.745 248.427 167.617 249.152H163.424C163.531 248 163.905 247.008 164.545 246.176C165.206 245.323 166.07 244.661 167.137 244.192C168.225 243.723 169.43 243.488 170.753 243.488C172.267 243.488 173.579 243.744 174.689 244.256C175.798 244.768 176.651 245.504 177.249 246.464C177.846 247.424 178.145 248.608 178.145 250.016V260H174.497L174.017 257.536C173.782 257.963 173.505 258.347 173.185 258.688C172.865 259.029 172.491 259.328 172.065 259.584C171.638 259.84 171.158 260.032 170.625 260.16C170.091 260.309 169.505 260.384 168.865 260.384ZM169.889 257.056C170.443 257.056 170.934 256.96 171.361 256.768C171.809 256.555 172.193 256.277 172.513 255.936C172.833 255.573 173.078 255.168 173.249 254.72C173.441 254.251 173.569 253.749 173.633 253.216V253.184H170.337C169.675 253.184 169.131 253.269 168.705 253.44C168.299 253.589 168.001 253.813 167.809 254.112C167.617 254.411 167.521 254.752 167.521 255.136C167.521 255.563 167.617 255.915 167.809 256.192C168.001 256.469 168.278 256.683 168.641 256.832C169.003 256.981 169.419 257.056 169.889 257.056ZM189.251 260C188.12 260 187.128 259.829 186.275 259.488C185.443 259.125 184.792 258.539 184.323 257.728C183.854 256.896 183.619 255.765 183.619 254.336V247.488H180.867V243.872H183.619L184.099 239.488H187.939V243.872H192.195V247.488H187.939V254.4C187.939 255.125 188.099 255.627 188.419 255.904C188.739 256.181 189.283 256.32 190.051 256.32H192.163V260H189.251ZM195.927 260V243.872H200.247V260H195.927ZM198.103 241.664C197.335 241.664 196.695 241.44 196.183 240.992C195.692 240.523 195.447 239.936 195.447 239.232C195.447 238.528 195.692 237.952 196.183 237.504C196.695 237.035 197.335 236.8 198.103 236.8C198.892 236.8 199.532 237.035 200.023 237.504C200.535 237.952 200.791 238.528 200.791 239.232C200.791 239.936 200.535 240.523 200.023 240.992C199.532 241.44 198.892 241.664 198.103 241.664ZM212.228 260.384C210.692 260.384 209.305 260.032 208.068 259.328C206.852 258.603 205.881 257.611 205.156 256.352C204.452 255.072 204.1 253.611 204.1 251.968C204.1 250.283 204.452 248.811 205.156 247.552C205.881 246.272 206.863 245.28 208.1 244.576C209.337 243.851 210.724 243.488 212.26 243.488C213.817 243.488 215.204 243.851 216.42 244.576C217.657 245.28 218.628 246.272 219.332 247.552C220.057 248.811 220.42 250.272 220.42 251.936C220.42 253.6 220.057 255.072 219.332 256.352C218.628 257.611 217.657 258.603 216.42 259.328C215.183 260.032 213.785 260.384 212.228 260.384ZM212.228 256.64C212.953 256.64 213.593 256.469 214.148 256.128C214.724 255.787 215.172 255.264 215.492 254.56C215.833 253.856 216.004 252.981 216.004 251.936C216.004 250.891 215.833 250.027 215.492 249.344C215.172 248.64 214.724 248.117 214.148 247.776C213.593 247.413 212.964 247.232 212.26 247.232C211.577 247.232 210.948 247.413 210.372 247.776C209.796 248.117 209.337 248.64 208.996 249.344C208.676 250.027 208.516 250.891 208.516 251.936C208.516 252.981 208.676 253.856 208.996 254.56C209.337 255.264 209.785 255.787 210.34 256.128C210.916 256.469 211.545 256.64 212.228 256.64ZM224.143 260V243.872H227.951L228.271 246.496C228.762 245.6 229.455 244.875 230.351 244.32C231.269 243.765 232.357 243.488 233.615 243.488C234.959 243.488 236.09 243.765 237.007 244.32C237.925 244.875 238.618 245.685 239.087 246.752C239.578 247.819 239.823 249.131 239.823 250.688V260H235.535V251.104C235.535 249.824 235.258 248.843 234.703 248.16C234.17 247.477 233.338 247.136 232.207 247.136C231.482 247.136 230.831 247.307 230.255 247.648C229.701 247.989 229.263 248.48 228.943 249.12C228.623 249.739 228.463 250.496 228.463 251.392V260H224.143ZM252.161 260V242.432C252.161 241.088 252.385 240.021 252.833 239.232C253.281 238.443 253.921 237.867 254.753 237.504C255.606 237.141 256.598 236.96 257.729 236.96H259.713V240.64H258.369C257.686 240.64 257.195 240.779 256.897 241.056C256.619 241.312 256.481 241.771 256.481 242.432V260H252.161ZM249.953 247.488V243.872H259.969V247.488H249.953ZM270.291 260.384C268.755 260.384 267.368 260.032 266.131 259.328C264.915 258.603 263.944 257.611 263.219 256.352C262.515 255.072 262.163 253.611 262.163 251.968C262.163 250.283 262.515 248.811 263.219 247.552C263.944 246.272 264.925 245.28 266.163 244.576C267.4 243.851 268.787 243.488 270.323 243.488C271.88 243.488 273.267 243.851 274.483 244.576C275.72 245.28 276.691 246.272 277.395 247.552C278.12 248.811 278.483 250.272 278.483 251.936C278.483 253.6 278.12 255.072 277.395 256.352C276.691 257.611 275.72 258.603 274.483 259.328C273.245 260.032 271.848 260.384 270.291 260.384ZM270.291 256.64C271.016 256.64 271.656 256.469 272.211 256.128C272.787 255.787 273.235 255.264 273.555 254.56C273.896 253.856 274.067 252.981 274.067 251.936C274.067 250.891 273.896 250.027 273.555 249.344C273.235 248.64 272.787 248.117 272.211 247.776C271.656 247.413 271.027 247.232 270.323 247.232C269.64 247.232 269.011 247.413 268.435 247.776C267.859 248.117 267.4 248.64 267.059 249.344C266.739 250.027 266.579 250.891 266.579 251.936C266.579 252.981 266.739 253.856 267.059 254.56C267.4 255.264 267.848 255.787 268.403 256.128C268.979 256.469 269.608 256.64 270.291 256.64ZM282.206 260V243.872H286.046L286.462 246.848C286.846 246.144 287.326 245.547 287.902 245.056C288.499 244.565 289.171 244.181 289.918 243.904C290.686 243.627 291.528 243.488 292.446 243.488V248.064H290.974C290.334 248.064 289.736 248.139 289.182 248.288C288.648 248.437 288.179 248.683 287.774 249.024C287.368 249.344 287.059 249.792 286.846 250.368C286.632 250.944 286.526 251.669 286.526 252.544V260H282.206ZM12.5373 302.384C10.2973 302.384 8.36658 301.904 6.74525 300.944C5.14525 299.963 3.90792 298.608 3.03325 296.88C2.17992 295.131 1.75325 293.115 1.75325 290.832C1.75325 288.549 2.17992 286.533 3.03325 284.784C3.90792 283.035 5.14525 281.669 6.74525 280.688C8.36658 279.707 10.2973 279.216 12.5373 279.216C15.2466 279.216 17.4653 279.888 19.1933 281.232C20.9213 282.576 21.9986 284.475 22.4253 286.928H17.7213C17.4439 285.733 16.8573 284.805 15.9613 284.144C15.0866 283.461 13.9346 283.12 12.5053 283.12C11.1826 283.12 10.0413 283.44 9.08125 284.08C8.14258 284.699 7.41725 285.584 6.90525 286.736C6.39325 287.867 6.13725 289.232 6.13725 290.832C6.13725 292.411 6.39325 293.776 6.90525 294.928C7.41725 296.08 8.14258 296.965 9.08125 297.584C10.0413 298.203 11.1826 298.512 12.5053 298.512C13.9346 298.512 15.0866 298.203 15.9613 297.584C16.8359 296.944 17.4119 296.059 17.6893 294.928H22.4253C21.9986 297.253 20.9213 299.077 19.1933 300.4C17.4653 301.723 15.2466 302.384 12.5373 302.384ZM33.6343 302.384C32.0983 302.384 30.7116 302.032 29.4743 301.328C28.2583 300.603 27.2876 299.611 26.5623 298.352C25.8583 297.072 25.5063 295.611 25.5063 293.968C25.5063 292.283 25.8583 290.811 26.5623 289.552C27.2876 288.272 28.2689 287.28 29.5063 286.576C30.7436 285.851 32.1303 285.488 33.6663 285.488C35.2236 285.488 36.6103 285.851 37.8263 286.576C39.0636 287.28 40.0343 288.272 40.7383 289.552C41.4636 290.811 41.8263 292.272 41.8263 293.936C41.8263 295.6 41.4636 297.072 40.7383 298.352C40.0343 299.611 39.0636 300.603 37.8263 301.328C36.5889 302.032 35.1916 302.384 33.6343 302.384ZM33.6343 298.64C34.3596 298.64 34.9996 298.469 35.5543 298.128C36.1303 297.787 36.5783 297.264 36.8983 296.56C37.2396 295.856 37.4103 294.981 37.4103 293.936C37.4103 292.891 37.2396 292.027 36.8983 291.344C36.5783 290.64 36.1303 290.117 35.5543 289.776C34.9996 289.413 34.3703 289.232 33.6663 289.232C32.9836 289.232 32.3543 289.413 31.7783 289.776C31.2023 290.117 30.7436 290.64 30.4023 291.344C30.0823 292.027 29.9223 292.891 29.9223 293.936C29.9223 294.981 30.0823 295.856 30.4023 296.56C30.7436 297.264 31.1916 297.787 31.7463 298.128C32.3223 298.469 32.9516 298.64 33.6343 298.64ZM45.5495 302V285.872H49.3575L49.7095 288.016C50.2215 287.248 50.8935 286.64 51.7255 286.192C52.5788 285.723 53.5495 285.488 54.6375 285.488C55.4482 285.488 56.1735 285.595 56.8135 285.808C57.4535 286.021 58.0188 286.331 58.5095 286.736C59.0215 287.141 59.4375 287.653 59.7575 288.272C60.3548 287.397 61.1335 286.715 62.0935 286.224C63.0535 285.733 64.0988 285.488 65.2295 285.488C66.6375 285.488 67.8108 285.776 68.7495 286.352C69.6882 286.907 70.3922 287.717 70.8615 288.784C71.3522 289.851 71.5975 291.163 71.5975 292.72V302H67.3095V293.104C67.3095 291.824 67.0535 290.843 66.5415 290.16C66.0508 289.477 65.2828 289.136 64.2375 289.136C63.5548 289.136 62.9468 289.307 62.4135 289.648C61.8802 289.989 61.4642 290.48 61.1655 291.12C60.8882 291.76 60.7495 292.528 60.7495 293.424V302H56.4295V293.104C56.4295 291.824 56.1735 290.843 55.6615 290.16C55.1495 289.477 54.3602 289.136 53.2935 289.136C52.6322 289.136 52.0348 289.307 51.5015 289.648C50.9895 289.989 50.5842 290.48 50.2855 291.12C50.0082 291.76 49.8695 292.528 49.8695 293.424V302H45.5495ZM75.6745 309.04V285.872H79.5145L79.9945 288.112C80.3358 287.643 80.7412 287.216 81.2105 286.832C81.6798 286.427 82.2345 286.107 82.8745 285.872C83.5358 285.616 84.3038 285.488 85.1785 285.488C86.6932 285.488 88.0265 285.861 89.1785 286.608C90.3305 287.355 91.2372 288.368 91.8985 289.648C92.5812 290.907 92.9225 292.347 92.9225 293.968C92.9225 295.589 92.5812 297.04 91.8985 298.32C91.2158 299.579 90.2985 300.571 89.1465 301.296C87.9945 302.021 86.6825 302.384 85.2105 302.384C84.0158 302.384 82.9812 302.171 82.1065 301.744C81.2532 301.296 80.5492 300.688 79.9945 299.92V309.04H75.6745ZM84.1865 298.608C85.0398 298.608 85.7865 298.416 86.4265 298.032C87.0878 297.648 87.5998 297.104 87.9625 296.4C88.3252 295.696 88.5065 294.885 88.5065 293.968C88.5065 293.051 88.3252 292.24 87.9625 291.536C87.5998 290.811 87.0878 290.256 86.4265 289.872C85.7865 289.467 85.0398 289.264 84.1865 289.264C83.3545 289.264 82.6078 289.467 81.9465 289.872C81.3065 290.256 80.7945 290.8 80.4105 291.504C80.0478 292.208 79.8665 293.019 79.8665 293.936C79.8665 294.853 80.0478 295.675 80.4105 296.4C80.7945 297.104 81.3065 297.648 81.9465 298.032C82.6078 298.416 83.3545 298.608 84.1865 298.608ZM102.659 302.384C101.358 302.384 100.238 302.117 99.2993 301.584C98.3819 301.029 97.6779 300.229 97.1873 299.184C96.6966 298.117 96.4513 296.805 96.4513 295.248V285.872H100.771V294.8C100.771 296.101 101.038 297.083 101.571 297.744C102.126 298.405 102.969 298.736 104.099 298.736C104.825 298.736 105.465 298.576 106.019 298.256C106.574 297.915 107.011 297.435 107.331 296.816C107.673 296.176 107.843 295.397 107.843 294.48V285.872H112.131V302H108.355L108.003 299.376C107.534 300.293 106.841 301.029 105.923 301.584C105.006 302.117 103.918 302.384 102.659 302.384ZM123.626 302C122.495 302 121.503 301.829 120.65 301.488C119.818 301.125 119.167 300.539 118.698 299.728C118.229 298.896 117.994 297.765 117.994 296.336V289.488H115.242V285.872H117.994L118.474 281.488H122.314V285.872H126.57V289.488H122.314V296.4C122.314 297.125 122.474 297.627 122.794 297.904C123.114 298.181 123.658 298.32 124.426 298.32H126.538V302H123.626ZM130.302 302V285.872H134.622V302H130.302ZM132.478 283.664C131.71 283.664 131.07 283.44 130.558 282.992C130.067 282.523 129.822 281.936 129.822 281.232C129.822 280.528 130.067 279.952 130.558 279.504C131.07 279.035 131.71 278.8 132.478 278.8C133.267 278.8 133.907 279.035 134.398 279.504C134.91 279.952 135.166 280.528 135.166 281.232C135.166 281.936 134.91 282.523 134.398 282.992C133.907 283.44 133.267 283.664 132.478 283.664ZM138.987 302V285.872H142.795L143.115 288.496C143.606 287.6 144.299 286.875 145.195 286.32C146.112 285.765 147.2 285.488 148.459 285.488C149.803 285.488 150.934 285.765 151.851 286.32C152.768 286.875 153.462 287.685 153.931 288.752C154.422 289.819 154.667 291.131 154.667 292.688V302H150.379V293.104C150.379 291.824 150.102 290.843 149.547 290.16C149.014 289.477 148.182 289.136 147.051 289.136C146.326 289.136 145.675 289.307 145.099 289.648C144.544 289.989 144.107 290.48 143.787 291.12C143.467 291.739 143.307 292.496 143.307 293.392V302H138.987ZM165.681 309.424C164.145 309.424 162.801 309.232 161.649 308.848C160.497 308.485 159.601 307.92 158.961 307.152C158.342 306.405 158.033 305.477 158.033 304.368C158.033 303.621 158.225 302.917 158.609 302.256C158.993 301.595 159.548 300.997 160.273 300.464C161.02 299.909 161.948 299.44 163.057 299.056L164.689 301.168C163.708 301.488 162.993 301.883 162.545 302.352C162.118 302.843 161.905 303.365 161.905 303.92C161.905 304.411 162.065 304.827 162.385 305.168C162.726 305.509 163.174 305.755 163.729 305.904C164.305 306.075 164.945 306.16 165.649 306.16C166.332 306.16 166.918 306.075 167.409 305.904C167.921 305.733 168.316 305.477 168.593 305.136C168.892 304.816 169.041 304.432 169.041 303.984C169.041 303.408 168.838 302.939 168.433 302.576C168.028 302.213 167.217 301.989 166.001 301.904C164.913 301.819 163.942 301.701 163.089 301.552C162.257 301.381 161.521 301.189 160.881 300.976C160.241 300.741 159.697 300.485 159.249 300.208C158.822 299.931 158.47 299.653 158.193 299.376V298.64L161.617 294.96L164.721 295.952L160.689 299.92L161.905 297.808C162.14 297.936 162.364 298.064 162.577 298.192C162.812 298.299 163.1 298.405 163.441 298.512C163.782 298.597 164.23 298.683 164.785 298.768C165.34 298.853 166.044 298.928 166.897 298.992C168.305 299.12 169.457 299.387 170.353 299.792C171.27 300.197 171.942 300.741 172.369 301.424C172.796 302.085 173.009 302.907 173.009 303.888C173.009 304.848 172.742 305.744 172.209 306.576C171.697 307.429 170.897 308.112 169.809 308.624C168.721 309.157 167.345 309.424 165.681 309.424ZM165.681 297.232C164.337 297.232 163.174 296.976 162.193 296.464C161.233 295.931 160.486 295.227 159.953 294.352C159.441 293.456 159.185 292.464 159.185 291.376C159.185 290.288 159.441 289.307 159.953 288.432C160.486 287.536 161.233 286.821 162.193 286.288C163.174 285.755 164.337 285.488 165.681 285.488C167.046 285.488 168.209 285.755 169.169 286.288C170.15 286.821 170.897 287.536 171.409 288.432C171.921 289.307 172.177 290.288 172.177 291.376C172.177 292.464 171.921 293.456 171.409 294.352C170.897 295.227 170.15 295.931 169.169 296.464C168.209 296.976 167.046 297.232 165.681 297.232ZM165.681 293.936C166.513 293.936 167.185 293.723 167.697 293.296C168.209 292.869 168.465 292.24 168.465 291.408C168.465 290.576 168.209 289.947 167.697 289.52C167.185 289.072 166.513 288.848 165.681 288.848C164.87 288.848 164.198 289.072 163.665 289.52C163.153 289.947 162.897 290.576 162.897 291.408C162.897 292.24 163.153 292.869 163.665 293.296C164.198 293.723 164.87 293.936 165.681 293.936ZM168.369 288.944L167.665 285.872H174.289V288.432L168.369 288.944ZM185.427 302V279.6H190.579L197.427 293.584L204.211 279.6H209.363V302H205.043V286.96L199.123 298.864H195.699L189.747 286.96V302H185.427ZM219.115 302.384C217.771 302.384 216.661 302.171 215.786 301.744C214.912 301.296 214.261 300.709 213.835 299.984C213.429 299.237 213.227 298.416 213.227 297.52C213.227 296.539 213.472 295.675 213.963 294.928C214.475 294.181 215.232 293.595 216.235 293.168C217.259 292.741 218.539 292.528 220.075 292.528H224.075C224.075 291.739 223.968 291.088 223.755 290.576C223.541 290.043 223.211 289.648 222.763 289.392C222.315 289.136 221.717 289.008 220.97 289.008C220.16 289.008 219.467 289.189 218.891 289.552C218.336 289.893 217.995 290.427 217.867 291.152H213.674C213.781 290 214.155 289.008 214.795 288.176C215.456 287.323 216.32 286.661 217.387 286.192C218.475 285.723 219.68 285.488 221.003 285.488C222.517 285.488 223.829 285.744 224.939 286.256C226.048 286.768 226.901 287.504 227.499 288.464C228.096 289.424 228.395 290.608 228.395 292.016V302H224.747L224.267 299.536C224.032 299.963 223.755 300.347 223.435 300.688C223.115 301.029 222.741 301.328 222.315 301.584C221.888 301.84 221.408 302.032 220.875 302.16C220.341 302.309 219.755 302.384 219.115 302.384ZM220.139 299.056C220.693 299.056 221.184 298.96 221.611 298.768C222.059 298.555 222.443 298.277 222.763 297.936C223.083 297.573 223.328 297.168 223.499 296.72C223.691 296.251 223.819 295.749 223.883 295.216V295.184H220.587C219.925 295.184 219.381 295.269 218.955 295.44C218.549 295.589 218.251 295.813 218.059 296.112C217.867 296.411 217.771 296.752 217.771 297.136C217.771 297.563 217.867 297.915 218.059 298.192C218.251 298.469 218.528 298.683 218.891 298.832C219.253 298.981 219.669 299.056 220.139 299.056ZM240.233 302.384C238.611 302.384 237.171 302.021 235.913 301.296C234.654 300.571 233.673 299.579 232.969 298.32C232.265 297.061 231.913 295.621 231.913 294C231.913 292.336 232.265 290.875 232.969 289.616C233.673 288.336 234.654 287.333 235.913 286.608C237.171 285.861 238.611 285.488 240.233 285.488C242.302 285.488 244.041 286.032 245.449 287.12C246.857 288.208 247.753 289.701 248.137 291.6H243.561C243.369 290.853 242.963 290.267 242.345 289.84C241.747 289.413 241.033 289.2 240.201 289.2C239.454 289.2 238.782 289.392 238.185 289.776C237.609 290.139 237.15 290.683 236.809 291.408C236.489 292.112 236.329 292.955 236.329 293.936C236.329 294.683 236.425 295.355 236.617 295.952C236.809 296.528 237.075 297.029 237.417 297.456C237.758 297.861 238.163 298.171 238.633 298.384C239.123 298.597 239.646 298.704 240.201 298.704C240.755 298.704 241.257 298.608 241.705 298.416C242.174 298.224 242.569 297.957 242.889 297.616C243.209 297.253 243.433 296.816 243.561 296.304H248.137C247.753 298.16 246.846 299.643 245.417 300.752C244.009 301.84 242.281 302.384 240.233 302.384ZM251.862 302V278.96H256.182V288.272C256.715 287.44 257.419 286.768 258.294 286.256C259.19 285.744 260.225 285.488 261.398 285.488C262.742 285.488 263.873 285.776 264.79 286.352C265.707 286.907 266.401 287.717 266.87 288.784C267.339 289.851 267.574 291.173 267.574 292.752V302H263.286V293.136C263.286 291.856 263.019 290.875 262.486 290.192C261.953 289.488 261.11 289.136 259.958 289.136C259.254 289.136 258.614 289.307 258.038 289.648C257.462 289.989 257.003 290.491 256.662 291.152C256.342 291.792 256.182 292.56 256.182 293.456V302H251.862ZM271.739 302V285.872H276.059V302H271.739ZM273.915 283.664C273.147 283.664 272.507 283.44 271.995 282.992C271.505 282.523 271.259 281.936 271.259 281.232C271.259 280.528 271.505 279.952 271.995 279.504C272.507 279.035 273.147 278.8 273.915 278.8C274.705 278.8 275.345 279.035 275.835 279.504C276.347 279.952 276.603 280.528 276.603 281.232C276.603 281.936 276.347 282.523 275.835 282.992C275.345 283.44 274.705 283.664 273.915 283.664ZM280.424 302V285.872H284.233L284.553 288.496C285.043 287.6 285.737 286.875 286.633 286.32C287.55 285.765 288.638 285.488 289.897 285.488C291.241 285.488 292.371 285.765 293.289 286.32C294.206 286.875 294.899 287.685 295.369 288.752C295.859 289.819 296.105 291.131 296.105 292.688V302H291.817V293.104C291.817 291.824 291.539 290.843 290.985 290.16C290.451 289.477 289.619 289.136 288.489 289.136C287.763 289.136 287.113 289.307 286.536 289.648C285.982 289.989 285.545 290.48 285.225 291.12C284.905 291.739 284.745 292.496 284.745 293.392V302H280.424ZM307.919 302.384C306.297 302.384 304.857 302.043 303.599 301.36C302.361 300.656 301.391 299.685 300.687 298.448C300.004 297.189 299.663 295.739 299.663 294.096C299.663 292.411 300.004 290.928 300.687 289.648C301.369 288.347 302.329 287.333 303.567 286.608C304.825 285.861 306.276 285.488 307.919 285.488C309.519 285.488 310.916 285.84 312.111 286.544C313.305 287.248 314.233 288.197 314.895 289.392C315.556 290.587 315.887 291.941 315.887 293.456C315.887 293.669 315.887 293.915 315.887 294.192C315.887 294.448 315.865 294.715 315.823 294.992H302.735V292.368H311.535C311.471 291.323 311.097 290.501 310.415 289.904C309.753 289.307 308.921 289.008 307.919 289.008C307.193 289.008 306.521 289.179 305.903 289.52C305.284 289.84 304.793 290.341 304.431 291.024C304.089 291.707 303.919 292.571 303.919 293.616V294.544C303.919 295.419 304.079 296.187 304.399 296.848C304.74 297.488 305.209 297.989 305.807 298.352C306.404 298.693 307.097 298.864 307.887 298.864C308.676 298.864 309.327 298.693 309.839 298.352C310.372 298.011 310.767 297.573 311.023 297.04H315.439C315.14 298.043 314.639 298.949 313.935 299.76C313.231 300.571 312.367 301.211 311.343 301.68C310.319 302.149 309.177 302.384 307.919 302.384ZM319.424 302V285.872H323.265L323.681 288.848C324.065 288.144 324.545 287.547 325.121 287.056C325.718 286.565 326.39 286.181 327.137 285.904C327.905 285.627 328.747 285.488 329.665 285.488V290.064H328.193C327.553 290.064 326.955 290.139 326.401 290.288C325.867 290.437 325.398 290.683 324.993 291.024C324.587 291.344 324.278 291.792 324.065 292.368C323.851 292.944 323.745 293.669 323.745 294.544V302H319.424ZM334.566 309.04L338.47 300.208H337.51L331.046 285.872H335.75L340.358 296.272L344.518 285.872H349.094L339.142 309.04H334.566Z" fill="white"/>
<path d="M67.84 344L61.528 327.2H63.712L69.016 341.864L74.368 327.2H76.504L70.192 344H67.84ZM78.8073 344V327.2H80.8233V344H78.8073ZM88.3214 344V328.856H83.3054V327.2H95.3534V328.856H90.3374V344H88.3214ZM109.519 344.288C108.287 344.288 107.215 344.064 106.303 343.616C105.391 343.168 104.687 342.544 104.191 341.744C103.695 340.944 103.447 340.016 103.447 338.96H105.559C105.559 339.616 105.711 340.224 106.015 340.784C106.319 341.328 106.759 341.768 107.335 342.104C107.927 342.424 108.655 342.584 109.519 342.584C110.655 342.584 111.535 342.312 112.159 341.768C112.783 341.224 113.095 340.544 113.095 339.728C113.095 339.056 112.951 338.52 112.663 338.12C112.375 337.704 111.983 337.368 111.487 337.112C111.007 336.856 110.447 336.632 109.807 336.44C109.183 336.248 108.527 336.032 107.839 335.792C106.543 335.344 105.583 334.792 104.959 334.136C104.335 333.464 104.023 332.592 104.023 331.52C104.007 330.624 104.215 329.832 104.647 329.144C105.079 328.44 105.687 327.896 106.471 327.512C107.271 327.112 108.215 326.912 109.303 326.912C110.375 326.912 111.303 327.112 112.087 327.512C112.887 327.912 113.503 328.464 113.935 329.168C114.383 329.872 114.615 330.672 114.631 331.568H112.519C112.519 331.104 112.399 330.648 112.159 330.2C111.919 329.736 111.551 329.36 111.055 329.072C110.575 328.784 109.967 328.64 109.231 328.64C108.319 328.624 107.567 328.856 106.975 329.336C106.399 329.816 106.111 330.48 106.111 331.328C106.111 332.048 106.311 332.6 106.711 332.984C107.127 333.368 107.703 333.688 108.439 333.944C109.175 334.184 110.023 334.464 110.983 334.784C111.783 335.072 112.503 335.408 113.143 335.792C113.783 336.176 114.279 336.672 114.631 337.28C114.999 337.888 115.183 338.664 115.183 339.608C115.183 340.408 114.975 341.168 114.559 341.888C114.143 342.592 113.511 343.168 112.663 343.616C111.831 344.064 110.783 344.288 109.519 344.288ZM122.626 344C121.538 344 120.682 343.736 120.058 343.208C119.434 342.68 119.122 341.728 119.122 340.352V333.8H117.058V332.096H119.122L119.386 329.24H121.138V332.096H124.642V333.8H121.138V340.352C121.138 341.104 121.29 341.616 121.594 341.888C121.898 342.144 122.434 342.272 123.202 342.272H124.45V344H122.626ZM131.547 344.288C130.139 344.288 129.019 343.864 128.187 343.016C127.355 342.152 126.939 340.832 126.939 339.056V332.096H128.955V338.84C128.955 341.32 129.971 342.56 132.003 342.56C133.043 342.56 133.899 342.192 134.571 341.456C135.259 340.704 135.603 339.64 135.603 338.264V332.096H137.619V344H135.795L135.651 341.864C135.283 342.616 134.731 343.208 133.995 343.64C133.275 344.072 132.459 344.288 131.547 344.288ZM146.337 344.288C145.153 344.288 144.113 344.016 143.217 343.472C142.337 342.928 141.649 342.184 141.153 341.24C140.673 340.296 140.433 339.224 140.433 338.024C140.433 336.824 140.681 335.76 141.177 334.832C141.673 333.888 142.361 333.152 143.241 332.624C144.121 332.08 145.161 331.808 146.361 331.808C147.337 331.808 148.201 332.008 148.953 332.408C149.705 332.808 150.289 333.368 150.705 334.088V326.72H152.721V344H150.897L150.705 342.032C150.321 342.608 149.769 343.128 149.049 343.592C148.329 344.056 147.425 344.288 146.337 344.288ZM146.553 342.536C147.353 342.536 148.057 342.352 148.665 341.984C149.289 341.6 149.769 341.072 150.105 340.4C150.457 339.728 150.633 338.944 150.633 338.048C150.633 337.152 150.457 336.368 150.105 335.696C149.769 335.024 149.289 334.504 148.665 334.136C148.057 333.752 147.353 333.56 146.553 333.56C145.769 333.56 145.065 333.752 144.441 334.136C143.833 334.504 143.353 335.024 143.001 335.696C142.665 336.368 142.497 337.152 142.497 338.048C142.497 338.944 142.665 339.728 143.001 340.4C143.353 341.072 143.833 341.6 144.441 341.984C145.065 342.352 145.769 342.536 146.553 342.536ZM161.36 344.288C160.224 344.288 159.216 344.032 158.336 343.52C157.456 342.992 156.76 342.264 156.248 341.336C155.752 340.408 155.504 339.312 155.504 338.048C155.504 336.8 155.752 335.712 156.248 334.784C156.744 333.84 157.432 333.112 158.312 332.6C159.208 332.072 160.24 331.808 161.408 331.808C162.56 331.808 163.552 332.072 164.384 332.6C165.232 333.112 165.88 333.792 166.328 334.64C166.776 335.488 167 336.4 167 337.376C167 337.552 166.992 337.728 166.976 337.904C166.976 338.08 166.976 338.28 166.976 338.504H157.496C157.544 339.416 157.752 340.176 158.12 340.784C158.504 341.376 158.976 341.824 159.536 342.128C160.112 342.432 160.72 342.584 161.36 342.584C162.192 342.584 162.888 342.392 163.448 342.008C164.008 341.624 164.416 341.104 164.672 340.448H166.664C166.344 341.552 165.728 342.472 164.816 343.208C163.92 343.928 162.768 344.288 161.36 344.288ZM161.36 333.512C160.4 333.512 159.544 333.808 158.792 334.4C158.056 334.976 157.632 335.824 157.52 336.944H165.008C164.96 335.872 164.592 335.032 163.904 334.424C163.216 333.816 162.368 333.512 161.36 333.512ZM169.672 344V332.096H171.496L171.616 334.232C172 333.48 172.552 332.888 173.272 332.456C173.992 332.024 174.808 331.808 175.72 331.808C177.128 331.808 178.248 332.24 179.08 333.104C179.928 333.952 180.352 335.264 180.352 337.04V344H178.336V337.256C178.336 334.776 177.312 333.536 175.264 333.536C174.24 333.536 173.384 333.912 172.696 334.664C172.024 335.4 171.688 336.456 171.688 337.832V344H169.672ZM188.11 344C187.022 344 186.166 343.736 185.542 343.208C184.918 342.68 184.606 341.728 184.606 340.352V333.8H182.542V332.096H184.606L184.87 329.24H186.622V332.096H190.126V333.8H186.622V340.352C186.622 341.104 186.774 341.616 187.078 341.888C187.382 342.144 187.918 342.272 188.686 342.272H189.934V344H188.11ZM206.527 344.288C204.879 344.288 203.455 343.928 202.255 343.208C201.071 342.472 200.151 341.456 199.495 340.16C198.839 338.848 198.511 337.328 198.511 335.6C198.511 333.888 198.839 332.384 199.495 331.088C200.151 329.776 201.071 328.752 202.255 328.016C203.455 327.28 204.879 326.912 206.527 326.912C208.447 326.912 210.007 327.376 211.207 328.304C212.423 329.216 213.199 330.496 213.535 332.144H211.303C211.047 331.104 210.519 330.272 209.719 329.648C208.935 329.008 207.871 328.688 206.527 328.688C205.327 328.688 204.279 328.968 203.383 329.528C202.487 330.072 201.791 330.864 201.295 331.904C200.815 332.928 200.575 334.16 200.575 335.6C200.575 337.04 200.815 338.28 201.295 339.32C201.791 340.344 202.487 341.136 203.383 341.696C204.279 342.24 205.327 342.512 206.527 342.512C207.871 342.512 208.935 342.208 209.719 341.6C210.519 340.976 211.047 340.152 211.303 339.128H213.535C213.199 340.744 212.423 342.008 211.207 342.92C210.007 343.832 208.447 344.288 206.527 344.288ZM216.312 344V326.72H218.328V334.136C218.728 333.4 219.296 332.832 220.032 332.432C220.768 332.016 221.568 331.808 222.432 331.808C223.808 331.808 224.912 332.24 225.744 333.104C226.576 333.952 226.992 335.264 226.992 337.04V344H225V337.256C225 334.776 224 333.536 222 333.536C220.96 333.536 220.088 333.912 219.384 334.664C218.68 335.4 218.328 336.456 218.328 337.832V344H216.312ZM234.007 344.288C233.015 344.288 232.191 344.12 231.535 343.784C230.879 343.448 230.391 343 230.071 342.44C229.751 341.88 229.591 341.272 229.591 340.616C229.591 339.4 230.055 338.464 230.983 337.808C231.911 337.152 233.175 336.824 234.775 336.824H237.991V336.68C237.991 335.64 237.719 334.856 237.175 334.328C236.631 333.784 235.903 333.512 234.991 333.512C234.207 333.512 233.527 333.712 232.951 334.112C232.391 334.496 232.039 335.064 231.895 335.816H229.831C229.911 334.952 230.199 334.224 230.695 333.632C231.207 333.04 231.839 332.592 232.591 332.288C233.343 331.968 234.143 331.808 234.991 331.808C236.655 331.808 237.903 332.256 238.735 333.152C239.583 334.032 240.007 335.208 240.007 336.68V344H238.207L238.087 341.864C237.751 342.536 237.255 343.112 236.599 343.592C235.959 344.056 235.095 344.288 234.007 344.288ZM234.319 342.584C235.087 342.584 235.743 342.384 236.287 341.984C236.847 341.584 237.271 341.064 237.559 340.424C237.847 339.784 237.991 339.112 237.991 338.408V338.384H234.943C233.759 338.384 232.919 338.592 232.423 339.008C231.943 339.408 231.703 339.912 231.703 340.52C231.703 341.144 231.927 341.648 232.375 342.032C232.839 342.4 233.487 342.584 234.319 342.584ZM243.031 349.28V332.096H244.855L245.047 334.064C245.431 333.488 245.975 332.968 246.679 332.504C247.399 332.04 248.311 331.808 249.415 331.808C250.599 331.808 251.631 332.08 252.511 332.624C253.391 333.168 254.071 333.912 254.551 334.856C255.047 335.8 255.295 336.872 255.295 338.072C255.295 339.272 255.047 340.344 254.551 341.288C254.071 342.216 253.383 342.952 252.487 343.496C251.607 344.024 250.575 344.288 249.391 344.288C248.415 344.288 247.543 344.088 246.775 343.688C246.023 343.288 245.447 342.728 245.047 342.008V349.28H243.031ZM249.175 342.536C249.975 342.536 250.679 342.352 251.287 341.984C251.895 341.6 252.375 341.072 252.727 340.4C253.079 339.728 253.255 338.944 253.255 338.048C253.255 337.152 253.079 336.368 252.727 335.696C252.375 335.024 251.895 334.504 251.287 334.136C250.679 333.752 249.975 333.56 249.175 333.56C248.375 333.56 247.671 333.752 247.063 334.136C246.455 334.504 245.975 335.024 245.623 335.696C245.271 336.368 245.095 337.152 245.095 338.048C245.095 338.944 245.271 339.728 245.623 340.4C245.975 341.072 246.455 341.6 247.063 341.984C247.671 342.352 248.375 342.536 249.175 342.536ZM262.337 344C261.249 344 260.393 343.736 259.769 343.208C259.145 342.68 258.833 341.728 258.833 340.352V333.8H256.769V332.096H258.833L259.097 329.24H260.849V332.096H264.353V333.8H260.849V340.352C260.849 341.104 261.001 341.616 261.305 341.888C261.609 342.144 262.145 342.272 262.913 342.272H264.161V344H262.337ZM271.938 344.288C270.802 344.288 269.794 344.032 268.914 343.52C268.034 342.992 267.338 342.264 266.826 341.336C266.33 340.408 266.082 339.312 266.082 338.048C266.082 336.8 266.33 335.712 266.826 334.784C267.322 333.84 268.01 333.112 268.89 332.6C269.786 332.072 270.818 331.808 271.986 331.808C273.138 331.808 274.13 332.072 274.962 332.6C275.81 333.112 276.458 333.792 276.906 334.64C277.354 335.488 277.578 336.4 277.578 337.376C277.578 337.552 277.57 337.728 277.554 337.904C277.554 338.08 277.554 338.28 277.554 338.504H268.074C268.122 339.416 268.33 340.176 268.698 340.784C269.082 341.376 269.554 341.824 270.114 342.128C270.69 342.432 271.298 342.584 271.938 342.584C272.77 342.584 273.466 342.392 274.026 342.008C274.586 341.624 274.994 341.104 275.25 340.448H277.242C276.922 341.552 276.306 342.472 275.394 343.208C274.498 343.928 273.346 344.288 271.938 344.288ZM271.938 333.512C270.978 333.512 270.122 333.808 269.37 334.4C268.634 334.976 268.21 335.824 268.098 336.944H275.586C275.538 335.872 275.17 335.032 274.482 334.424C273.794 333.816 272.946 333.512 271.938 333.512ZM280.25 344V332.096H282.074L282.242 334.376C282.61 333.592 283.17 332.968 283.922 332.504C284.674 332.04 285.602 331.808 286.706 331.808V333.92H286.154C285.45 333.92 284.802 334.048 284.21 334.304C283.618 334.544 283.146 334.96 282.794 335.552C282.442 336.144 282.266 336.96 282.266 338V344H280.25Z" fill="white"/>
</g>
<defs>
<clipPath id="clip0_564_78">
<rect width="350" height="351" fill="white"/>
</clipPath>
</defs>
</svg>
