<svg width="560" height="200" viewBox="0 0 560 200" fill="none" xmlns="http://www.w3.org/2000/svg">
<g clip-path="url(#clip0_564_80)">
<path fill-rule="evenodd" clip-rule="evenodd" d="M122.51 9.37258C110.013 -3.12419 89.7516 -3.1242 77.2548 9.37258L9.37258 77.2548C-3.12419 89.7516 -3.1242 110.013 9.37258 122.51L77.2548 190.392C89.7516 202.889 110.013 202.889 122.51 190.392L190.392 122.51C202.889 110.013 202.889 89.7516 190.392 77.2548L122.51 9.37258ZM71.4718 106.604C71.4584 108.943 71.4985 111.295 71.7391 113.634C71.78 114.014 71.8315 114.394 71.8827 114.772L71.8828 114.773L71.8829 114.773L71.8829 114.774L71.883 114.774C71.9319 115.135 71.9806 115.495 72.0197 115.851C71.8273 115.981 71.6348 115.972 71.4424 115.964C71.3942 115.961 71.3461 115.959 71.298 115.959H63.0515C63.03 115.959 63.0085 115.959 62.987 115.958C62.9728 115.957 62.9587 115.957 62.9445 115.956C62.8732 115.953 62.802 115.95 62.7307 115.959C62.3832 116 62.2763 115.824 62.2629 115.486C62.2389 114.791 62.2006 114.101 62.1623 113.41L62.1623 113.41C62.1365 112.945 62.1106 112.479 62.0891 112.012C62.0805 111.828 62.083 111.643 62.0859 111.437C62.0875 111.325 62.0891 111.207 62.0891 111.079C61.7538 111.195 61.6321 111.403 61.5179 111.599C61.4864 111.652 61.4555 111.705 61.4209 111.755C60.0709 113.702 58.4136 115.243 56.1548 116.054C54.7514 116.568 53.2946 116.757 51.8244 116.716C49.6859 116.662 47.5875 116.297 45.6361 115.324C42.8561 113.945 41.1319 111.768 40.6241 108.645C40.584 108.402 40.5439 108.159 40.33 107.996V105.563C40.5665 105.438 40.5942 105.207 40.6211 104.984L40.6282 104.926C40.6311 104.903 40.6341 104.882 40.6374 104.86C41.1186 102.008 42.6957 99.9256 45.1416 98.5061C47.0663 97.384 49.178 96.8027 51.3566 96.4782C54.5109 96.0051 57.6785 95.9645 60.8461 96.4377C61.4877 96.5323 61.5411 96.4917 61.4743 95.8293C61.2872 93.9907 60.4585 92.6118 58.7611 91.8277C57.9592 91.4491 57.1038 91.2193 56.2217 91.1517C52.7466 90.8949 49.3384 91.2464 46.0906 92.6118C45.8216 92.7294 45.5606 92.855 45.301 92.98C45.0833 93.0848 44.8666 93.1891 44.6471 93.2877C44.4575 93.1812 44.4754 93.0243 44.4915 92.8832C44.4959 92.8452 44.5001 92.8084 44.5001 92.774L44.4959 92.6185C44.4438 90.6702 44.3921 88.734 44.353 86.7851C44.3398 86.1008 44.3528 86.0956 44.954 85.8577L44.9679 85.8522C47.6009 84.8248 50.3408 84.257 53.1476 84.0137C55.1925 83.8379 57.2374 83.7703 59.2957 84.0001C61.6748 84.2705 63.9603 84.8383 66.0453 86.0956C69.0259 87.8936 70.6565 90.5839 71.2579 93.9772C71.4317 94.91 71.4718 95.8564 71.4718 96.8027V106.604ZM50.5948 106.983C50.9957 108.267 51.958 108.97 53.1877 109.267C58.2131 110.511 61.3407 106.293 61.5011 102.467C61.5144 102.17 61.4209 102.035 61.1001 102.021C60.4719 101.994 59.8471 101.964 59.2222 101.933C58.5974 101.903 57.9725 101.872 57.3444 101.845C56.5424 101.805 55.7405 101.899 54.9519 102.008C53.8827 102.143 52.8535 102.427 51.958 103.062C50.7017 103.941 50.1403 105.536 50.5948 106.983ZM100.381 93.4365L100.381 93.4363L100.381 93.4361C100.007 93.247 99.6595 93.0714 99.2855 92.9092C96.8797 91.8277 94.367 91.4762 91.7874 92.0846C88.5129 92.8687 86.2942 95.4643 85.8397 98.8306C85.6125 100.493 85.666 102.129 86.3476 103.67C87.6307 106.577 89.9563 108.145 92.9903 108.645C95.5298 109.051 97.989 108.632 100.368 107.699C100.434 107.673 100.499 107.646 100.564 107.619C100.609 107.601 100.654 107.582 100.698 107.564C100.825 107.511 100.948 107.459 101.063 107.415C101.227 107.459 101.23 107.549 101.233 107.631C101.234 107.65 101.234 107.668 101.237 107.686C101.259 108.462 101.28 109.238 101.3 110.012C101.342 111.584 101.384 113.153 101.437 114.729C101.451 115.189 101.304 115.391 100.863 115.527C99.1919 116.027 97.4945 116.351 95.7703 116.554C92.4958 116.933 89.2613 116.73 86.1071 115.77C82.5251 114.675 79.5178 112.728 77.3526 109.592C75.8557 107.415 75.0671 104.982 74.7731 102.359C74.4924 99.7364 74.7196 97.1813 75.5483 94.6938C77.0452 90.2595 80.0792 87.2583 84.3161 85.4873C87.5505 84.1354 90.9454 83.7163 94.4338 83.9596C96.5322 84.1083 98.5638 84.4869 100.502 85.3115C101.239 85.6254 101.238 85.6356 101.164 86.3582L101.157 86.4336C100.956 88.3925 100.769 90.3515 100.582 92.3104L100.582 92.3107L100.582 92.3144C100.58 92.3408 100.578 92.3674 100.576 92.3942C100.574 92.4287 100.572 92.4635 100.57 92.4985C100.554 92.7968 100.536 93.112 100.381 93.4365ZM115.272 89.963C115.216 90.0897 115.15 90.236 114.883 90.2595V85.3926C114.883 84.6491 114.883 84.6355 114.148 84.6355H105.901C105.153 84.6355 105.14 84.6355 105.14 85.3791V115.283C105.14 115.973 105.153 115.986 105.848 115.986H115.137C115.832 115.986 115.832 115.973 115.845 115.284L115.845 115.283V114.715V102.481C115.845 101.291 115.939 100.115 116.153 98.9387C116.407 97.4922 116.848 96.1132 117.73 94.91C119.067 93.0985 121.232 92.6388 123.023 93.0309C124.466 93.3418 125.282 94.3963 125.763 95.7347C126.177 96.8838 126.271 98.1005 126.271 99.3172V114.959C126.271 115.022 126.272 115.085 126.274 115.148C126.277 115.274 126.279 115.4 126.271 115.527C126.244 115.892 126.431 116 126.752 115.973C126.841 115.964 126.93 115.967 127.019 115.97C127.064 115.971 127.108 115.973 127.153 115.973H136.121H136.602C136.869 115.986 136.99 115.851 136.976 115.581C136.967 115.454 136.97 115.328 136.973 115.202C136.975 115.139 136.976 115.076 136.976 115.013C136.976 113.688 136.978 112.364 136.979 111.04C136.982 108.395 136.985 105.752 136.976 103.103C136.976 101.94 137.003 100.777 137.163 99.6282C137.351 98.2492 137.671 96.9244 138.34 95.6941C138.981 94.5315 139.863 93.6122 141.16 93.2066C144.087 92.3008 146.346 93.3148 147.094 96.4377C147.295 97.2894 147.388 98.1411 147.388 99.0063V114.972V115.621C147.388 115.838 147.468 115.973 147.709 115.973H148.19H157.239C157.7 115.973 157.915 115.986 158.013 115.885C158.115 115.782 158.094 115.56 158.094 115.08C158.094 113.286 158.092 111.494 158.091 109.702C158.088 106.119 158.085 102.539 158.094 98.9522C158.094 97.4922 158.054 96.0456 157.974 94.5856C157.907 93.2066 157.693 91.8412 157.319 90.5163C156.343 87.0014 154.084 84.8789 150.542 84.1894C148.698 83.8379 146.84 83.7433 144.969 84.0272C142.229 84.4463 139.823 85.5548 137.859 87.5962C137.365 88.1053 136.948 88.6756 136.532 89.2438C136.396 89.4301 136.26 89.6162 136.121 89.7998C135.943 89.6618 135.863 89.4822 135.785 89.3066C135.764 89.2586 135.743 89.2109 135.72 89.1644C134.597 86.8932 132.846 85.3656 130.494 84.5409C128.075 83.6892 125.616 83.6757 123.143 84.1894C119.708 84.9059 116.995 86.704 115.297 89.908C115.289 89.9256 115.28 89.9441 115.272 89.963Z" fill="white"/>
<path d="M246.501 66.0001L254.693 43.6001H259.301L267.493 66.0001H263.141L261.349 60.8161H252.613L250.789 66.0001H246.501ZM253.733 57.6161H260.229L256.965 48.3041L253.733 57.6161ZM276.842 66.3841C275.434 66.3841 274.197 66.1601 273.13 65.7121C272.063 65.2427 271.21 64.6027 270.57 63.7921C269.93 62.9814 269.546 62.0427 269.418 60.9761H273.546C273.674 61.5947 274.015 62.1281 274.57 62.5761C275.146 63.0027 275.882 63.2161 276.778 63.2161C277.674 63.2161 278.325 63.0347 278.73 62.6721C279.157 62.3094 279.37 61.8934 279.37 61.4241C279.37 60.7414 279.071 60.2827 278.474 60.0481C277.877 59.7921 277.045 59.5467 275.978 59.3121C275.295 59.1627 274.602 58.9814 273.898 58.7681C273.194 58.5547 272.543 58.2881 271.946 57.9681C271.37 57.6267 270.901 57.2001 270.538 56.6881C270.175 56.1547 269.994 55.5041 269.994 54.7361C269.994 53.3281 270.549 52.1441 271.658 51.1841C272.789 50.2241 274.367 49.7441 276.394 49.7441C278.271 49.7441 279.765 50.1814 280.874 51.0561C282.005 51.9307 282.677 53.1361 282.89 54.6721H279.018C278.783 53.4987 277.898 52.9121 276.362 52.9121C275.594 52.9121 274.997 53.0614 274.57 53.3601C274.165 53.6587 273.962 54.0321 273.962 54.4801C273.962 54.9494 274.271 55.3227 274.89 55.6001C275.509 55.8774 276.33 56.1334 277.354 56.3681C278.463 56.6241 279.477 56.9121 280.394 57.2321C281.333 57.5307 282.079 57.9894 282.634 58.6081C283.189 59.2054 283.466 60.0694 283.466 61.2001C283.487 62.1814 283.231 63.0667 282.698 63.8561C282.165 64.6454 281.397 65.2641 280.394 65.7121C279.391 66.1601 278.207 66.3841 276.842 66.3841ZM293.655 66.3841C292.247 66.3841 291.009 66.1601 289.943 65.7121C288.876 65.2427 288.023 64.6027 287.383 63.7921C286.743 62.9814 286.359 62.0427 286.231 60.9761H290.359C290.487 61.5947 290.828 62.1281 291.383 62.5761C291.959 63.0027 292.695 63.2161 293.591 63.2161C294.487 63.2161 295.137 63.0347 295.543 62.6721C295.969 62.3094 296.183 61.8934 296.183 61.4241C296.183 60.7414 295.884 60.2827 295.287 60.0481C294.689 59.7921 293.857 59.5467 292.791 59.3121C292.108 59.1627 291.415 58.9814 290.711 58.7681C290.007 58.5547 289.356 58.2881 288.759 57.9681C288.183 57.6267 287.713 57.2001 287.351 56.6881C286.988 56.1547 286.807 55.5041 286.807 54.7361C286.807 53.3281 287.361 52.1441 288.471 51.1841C289.601 50.2241 291.18 49.7441 293.207 49.7441C295.084 49.7441 296.577 50.1814 297.687 51.0561C298.817 51.9307 299.489 53.1361 299.703 54.6721H295.831C295.596 53.4987 294.711 52.9121 293.175 52.9121C292.407 52.9121 291.809 53.0614 291.383 53.3601C290.977 53.6587 290.775 54.0321 290.775 54.4801C290.775 54.9494 291.084 55.3227 291.703 55.6001C292.321 55.8774 293.143 56.1334 294.167 56.3681C295.276 56.6241 296.289 56.9121 297.207 57.2321C298.145 57.5307 298.892 57.9894 299.447 58.6081C300.001 59.2054 300.279 60.0694 300.279 61.2001C300.3 62.1814 300.044 63.0667 299.511 63.8561C298.977 64.6454 298.209 65.2641 297.207 65.7121C296.204 66.1601 295.02 66.3841 293.655 66.3841ZM311.523 66.3841C309.987 66.3841 308.6 66.0321 307.363 65.3281C306.147 64.6241 305.176 63.6534 304.451 62.4161C303.747 61.1574 303.395 59.7067 303.395 58.0641C303.395 56.4214 303.758 54.9814 304.483 53.7441C305.208 52.4854 306.179 51.5041 307.395 50.8001C308.632 50.0961 310.019 49.7441 311.555 49.7441C313.07 49.7441 314.435 50.0961 315.651 50.8001C316.888 51.5041 317.859 52.4854 318.563 53.7441C319.288 54.9814 319.651 56.4214 319.651 58.0641C319.651 59.7067 319.288 61.1574 318.563 62.4161C317.859 63.6534 316.888 64.6241 315.651 65.3281C314.414 66.0321 313.038 66.3841 311.523 66.3841ZM311.523 62.8321C312.59 62.8321 313.518 62.4374 314.307 61.6481C315.096 60.8374 315.491 59.6427 315.491 58.0641C315.491 56.4854 315.096 55.3014 314.307 54.5121C313.518 53.7014 312.6 53.2961 311.555 53.2961C310.467 53.2961 309.528 53.7014 308.739 54.5121C307.971 55.3014 307.587 56.4854 307.587 58.0641C307.587 59.6427 307.971 60.8374 308.739 61.6481C309.528 62.4374 310.456 62.8321 311.523 62.8321ZM331.089 66.3841C329.468 66.3841 328.039 66.0321 326.801 65.3281C325.564 64.6241 324.583 63.6427 323.857 62.3841C323.153 61.1254 322.801 59.6854 322.801 58.0641C322.801 56.4427 323.153 55.0027 323.857 53.7441C324.583 52.4854 325.564 51.5041 326.801 50.8001C328.039 50.0961 329.468 49.7441 331.089 49.7441C333.116 49.7441 334.823 50.2774 336.209 51.3441C337.596 52.3894 338.481 53.8401 338.865 55.6961H334.545C334.332 54.9281 333.905 54.3307 333.265 53.9041C332.647 53.4561 331.911 53.2321 331.057 53.2321C329.927 53.2321 328.967 53.6587 328.177 54.5121C327.388 55.3654 326.993 56.5494 326.993 58.0641C326.993 59.5787 327.388 60.7627 328.177 61.6161C328.967 62.4694 329.927 62.8961 331.057 62.8961C331.911 62.8961 332.647 62.6827 333.265 62.2561C333.905 61.8294 334.332 61.2214 334.545 60.4321H338.865C338.481 62.2241 337.596 63.6641 336.209 64.7521C334.823 65.8401 333.116 66.3841 331.089 66.3841ZM344.709 47.6641C343.962 47.6641 343.344 47.4401 342.853 46.9921C342.384 46.5441 342.149 45.9787 342.149 45.2961C342.149 44.6134 342.384 44.0587 342.853 43.6321C343.344 43.1841 343.962 42.9601 344.709 42.9601C345.456 42.9601 346.064 43.1841 346.533 43.6321C347.024 44.0587 347.269 44.6134 347.269 45.2961C347.269 45.9787 347.024 46.5441 346.533 46.9921C346.064 47.4401 345.456 47.6641 344.709 47.6641ZM342.661 66.0001V50.1281H346.757V66.0001H342.661ZM356.504 66.3841C355.139 66.3841 354.019 66.1707 353.144 65.7441C352.269 65.2961 351.619 64.7094 351.192 63.9841C350.765 63.2587 350.552 62.4587 350.552 61.5841C350.552 60.1121 351.128 58.9174 352.28 58.0001C353.432 57.0827 355.16 56.6241 357.464 56.6241H361.496V56.2401C361.496 55.1521 361.187 54.3521 360.568 53.8401C359.949 53.3281 359.181 53.0721 358.264 53.0721C357.432 53.0721 356.707 53.2747 356.088 53.6801C355.469 54.0641 355.085 54.6401 354.936 55.4081H350.936C351.043 54.2561 351.427 53.2534 352.088 52.4001C352.771 51.5467 353.645 50.8961 354.712 50.4481C355.779 49.9787 356.973 49.7441 358.296 49.7441C360.557 49.7441 362.339 50.3094 363.64 51.4401C364.941 52.5707 365.592 54.1707 365.592 56.2401V66.0001H362.104L361.72 63.4401C361.251 64.2934 360.589 64.9974 359.736 65.5521C358.904 66.1067 357.827 66.3841 356.504 66.3841ZM357.432 63.1841C358.605 63.1841 359.512 62.8001 360.152 62.0321C360.813 61.2641 361.229 60.3147 361.4 59.1841H357.912C356.824 59.1841 356.045 59.3867 355.576 59.7921C355.107 60.1761 354.872 60.6561 354.872 61.2321C354.872 61.8507 355.107 62.3307 355.576 62.6721C356.045 63.0134 356.664 63.1841 357.432 63.1841ZM376.354 66.0001C374.69 66.0001 373.357 65.5947 372.354 64.7841C371.351 63.9734 370.85 62.5334 370.85 60.4641V53.5521H368.13V50.1281H370.85L371.33 45.8721H374.946V50.1281H379.234V53.5521H374.946V60.4961C374.946 61.2641 375.106 61.7974 375.426 62.0961C375.767 62.3734 376.343 62.5121 377.154 62.5121H379.138V66.0001H376.354ZM384.959 47.6641C384.212 47.6641 383.594 47.4401 383.103 46.9921C382.634 46.5441 382.399 45.9787 382.399 45.2961C382.399 44.6134 382.634 44.0587 383.103 43.6321C383.594 43.1841 384.212 42.9601 384.959 42.9601C385.706 42.9601 386.314 43.1841 386.783 43.6321C387.274 44.0587 387.519 44.6134 387.519 45.2961C387.519 45.9787 387.274 46.5441 386.783 46.9921C386.314 47.4401 385.706 47.6641 384.959 47.6641ZM382.911 66.0001V50.1281H387.007V66.0001H382.911ZM398.898 66.3841C397.362 66.3841 395.975 66.0321 394.738 65.3281C393.522 64.6241 392.551 63.6534 391.826 62.4161C391.122 61.1574 390.77 59.7067 390.77 58.0641C390.77 56.4214 391.133 54.9814 391.858 53.7441C392.583 52.4854 393.554 51.5041 394.77 50.8001C396.007 50.0961 397.394 49.7441 398.93 49.7441C400.445 49.7441 401.81 50.0961 403.026 50.8001C404.263 51.5041 405.234 52.4854 405.938 53.7441C406.663 54.9814 407.026 56.4214 407.026 58.0641C407.026 59.7067 406.663 61.1574 405.938 62.4161C405.234 63.6534 404.263 64.6241 403.026 65.3281C401.789 66.0321 400.413 66.3841 398.898 66.3841ZM398.898 62.8321C399.965 62.8321 400.893 62.4374 401.682 61.6481C402.471 60.8374 402.866 59.6427 402.866 58.0641C402.866 56.4854 402.471 55.3014 401.682 54.5121C400.893 53.7014 399.975 53.2961 398.93 53.2961C397.842 53.2961 396.903 53.7014 396.114 54.5121C395.346 55.3014 394.962 56.4854 394.962 58.0641C394.962 59.6427 395.346 60.8374 396.114 61.6481C396.903 62.4374 397.831 62.8321 398.898 62.8321ZM410.688 66.0001V50.1281H414.304L414.624 52.8161C415.115 51.8774 415.819 51.1307 416.736 50.5761C417.675 50.0214 418.774 49.7441 420.032 49.7441C421.995 49.7441 423.52 50.3627 424.608 51.6001C425.696 52.8374 426.24 54.6507 426.24 57.0401V66.0001H422.144V57.4241C422.144 56.0587 421.867 55.0134 421.312 54.2881C420.758 53.5627 419.894 53.2001 418.72 53.2001C417.568 53.2001 416.619 53.6054 415.872 54.4161C415.147 55.2267 414.784 56.3574 414.784 57.8081V66.0001H410.688ZM438.518 66.0001V53.5521H436.342V50.1281H438.518V48.2721C438.518 46.3521 438.998 44.9867 439.958 44.1761C440.939 43.3654 442.262 42.9601 443.926 42.9601H445.686V46.4481H444.566C443.862 46.4481 443.361 46.5867 443.062 46.8641C442.763 47.1414 442.614 47.6107 442.614 48.2721V50.1281H446.038V53.5521H442.614V66.0001H438.518ZM456.273 66.3841C454.737 66.3841 453.35 66.0321 452.113 65.3281C450.897 64.6241 449.926 63.6534 449.201 62.4161C448.497 61.1574 448.145 59.7067 448.145 58.0641C448.145 56.4214 448.508 54.9814 449.233 53.7441C449.958 52.4854 450.929 51.5041 452.145 50.8001C453.382 50.0961 454.769 49.7441 456.305 49.7441C457.82 49.7441 459.185 50.0961 460.401 50.8001C461.638 51.5041 462.609 52.4854 463.313 53.7441C464.038 54.9814 464.401 56.4214 464.401 58.0641C464.401 59.7067 464.038 61.1574 463.313 62.4161C462.609 63.6534 461.638 64.6241 460.401 65.3281C459.164 66.0321 457.788 66.3841 456.273 66.3841ZM456.273 62.8321C457.34 62.8321 458.268 62.4374 459.057 61.6481C459.846 60.8374 460.241 59.6427 460.241 58.0641C460.241 56.4854 459.846 55.3014 459.057 54.5121C458.268 53.7014 457.35 53.2961 456.305 53.2961C455.217 53.2961 454.278 53.7014 453.489 54.5121C452.721 55.3014 452.337 56.4854 452.337 58.0641C452.337 59.6427 452.721 60.8374 453.489 61.6481C454.278 62.4374 455.206 62.8321 456.273 62.8321ZM468.063 66.0001V50.1281H471.711L472.095 53.1041C472.671 52.0801 473.45 51.2694 474.431 50.6721C475.434 50.0534 476.607 49.7441 477.951 49.7441V54.0641H476.799C475.903 54.0641 475.103 54.2027 474.399 54.4801C473.695 54.7574 473.141 55.2374 472.735 55.9201C472.351 56.6027 472.159 57.5521 472.159 58.7681V66.0001H468.063ZM258.085 108.384C255.823 108.384 253.882 107.904 252.261 106.944C250.639 105.963 249.391 104.608 248.517 102.88C247.642 101.131 247.205 99.1147 247.205 96.8321C247.205 94.5494 247.642 92.5334 248.517 90.7841C249.391 89.0347 250.639 87.6694 252.261 86.6881C253.882 85.7067 255.823 85.2161 258.085 85.2161C260.773 85.2161 262.97 85.8881 264.677 87.2321C266.405 88.5547 267.482 90.4214 267.909 92.8321H263.397C263.119 91.6161 262.522 90.6667 261.605 89.9841C260.709 89.2801 259.514 88.9281 258.021 88.9281C255.951 88.9281 254.33 89.6321 253.157 91.0401C251.983 92.4481 251.397 94.3787 251.397 96.8321C251.397 99.2854 251.983 101.216 253.157 102.624C254.33 104.011 255.951 104.704 258.021 104.704C259.514 104.704 260.709 104.384 261.605 103.744C262.522 103.083 263.119 102.176 263.397 101.024H267.909C267.482 103.328 266.405 105.131 264.677 106.432C262.97 107.733 260.773 108.384 258.085 108.384ZM279.054 108.384C277.518 108.384 276.132 108.032 274.894 107.328C273.678 106.624 272.708 105.653 271.982 104.416C271.278 103.157 270.926 101.707 270.926 100.064C270.926 98.4214 271.289 96.9814 272.014 95.7441C272.74 94.4854 273.71 93.5041 274.926 92.8001C276.164 92.0961 277.55 91.7441 279.086 91.7441C280.601 91.7441 281.966 92.0961 283.182 92.8001C284.42 93.5041 285.39 94.4854 286.094 95.7441C286.82 96.9814 287.182 98.4214 287.182 100.064C287.182 101.707 286.82 103.157 286.094 104.416C285.39 105.653 284.42 106.624 283.182 107.328C281.945 108.032 280.569 108.384 279.054 108.384ZM279.054 104.832C280.121 104.832 281.049 104.437 281.838 103.648C282.628 102.837 283.022 101.643 283.022 100.064C283.022 98.4854 282.628 97.3014 281.838 96.5121C281.049 95.7014 280.132 95.2961 279.086 95.2961C277.998 95.2961 277.06 95.7014 276.27 96.5121C275.502 97.3014 275.118 98.4854 275.118 100.064C275.118 101.643 275.502 102.837 276.27 103.648C277.06 104.437 277.988 104.832 279.054 104.832ZM290.845 108V92.1281H294.461L294.813 94.2721C295.325 93.5041 295.997 92.8961 296.829 92.4481C297.682 91.9787 298.663 91.7441 299.773 91.7441C302.226 91.7441 303.965 92.6934 304.989 94.5921C305.565 93.7174 306.333 93.0241 307.293 92.5121C308.274 92.0001 309.341 91.7441 310.493 91.7441C312.562 91.7441 314.151 92.3627 315.261 93.6001C316.37 94.8374 316.925 96.6507 316.925 99.0401V108H312.829V99.4241C312.829 98.0587 312.562 97.0134 312.029 96.2881C311.517 95.5627 310.717 95.2001 309.629 95.2001C308.519 95.2001 307.623 95.6054 306.941 96.4161C306.279 97.2267 305.949 98.3574 305.949 99.8081V108H301.853V99.4241C301.853 98.0587 301.586 97.0134 301.053 96.2881C300.519 95.5627 299.698 95.2001 298.589 95.2001C297.501 95.2001 296.615 95.6054 295.933 96.4161C295.271 97.2267 294.941 98.3574 294.941 99.8081V108H290.845ZM320.813 115.04V92.1281H324.461L324.909 94.4001C325.421 93.6961 326.093 93.0774 326.925 92.5441C327.779 92.0107 328.877 91.7441 330.221 91.7441C331.715 91.7441 333.048 92.1067 334.221 92.8321C335.395 93.5574 336.323 94.5494 337.005 95.8081C337.688 97.0667 338.029 98.4961 338.029 100.096C338.029 101.696 337.688 103.125 337.005 104.384C336.323 105.621 335.395 106.603 334.221 107.328C333.048 108.032 331.715 108.384 330.221 108.384C329.027 108.384 327.981 108.16 327.085 107.712C326.189 107.264 325.464 106.635 324.909 105.824V115.04H320.813ZM329.357 104.8C330.659 104.8 331.736 104.363 332.589 103.488C333.443 102.613 333.869 101.483 333.869 100.096C333.869 98.7094 333.443 97.5681 332.589 96.6721C331.736 95.7761 330.659 95.3281 329.357 95.3281C328.035 95.3281 326.947 95.7761 326.093 96.6721C325.261 97.5467 324.845 98.6774 324.845 100.064C324.845 101.451 325.261 102.592 326.093 103.488C326.947 104.363 328.035 104.8 329.357 104.8ZM347.64 108.384C345.656 108.384 344.12 107.765 343.032 106.528C341.966 105.291 341.432 103.477 341.432 101.088V92.1281H345.496V100.704C345.496 102.069 345.774 103.115 346.328 103.84C346.883 104.565 347.758 104.928 348.952 104.928C350.083 104.928 351.011 104.523 351.736 103.712C352.483 102.901 352.856 101.771 352.856 100.32V92.1281H356.952V108H353.336L353.016 105.312C352.526 106.251 351.811 106.997 350.872 107.552C349.955 108.107 348.878 108.384 347.64 108.384ZM368.229 108C366.565 108 365.232 107.595 364.229 106.784C363.226 105.973 362.725 104.533 362.725 102.464V95.5521H360.005V92.1281H362.725L363.205 87.8721H366.821V92.1281H371.109V95.5521H366.821V102.496C366.821 103.264 366.981 103.797 367.301 104.096C367.642 104.373 368.218 104.512 369.029 104.512H371.013V108H368.229ZM376.834 89.6641C376.087 89.6641 375.469 89.4401 374.978 88.9921C374.509 88.5441 374.274 87.9787 374.274 87.2961C374.274 86.6134 374.509 86.0587 374.978 85.6321C375.469 85.1841 376.087 84.9601 376.834 84.9601C377.581 84.9601 378.189 85.1841 378.658 85.6321C379.149 86.0587 379.394 86.6134 379.394 87.2961C379.394 87.9787 379.149 88.5441 378.658 88.9921C378.189 89.4401 377.581 89.6641 376.834 89.6641ZM374.786 108V92.1281H378.882V108H374.786ZM383.157 108V92.1281H386.773L387.093 94.8161C387.584 93.8774 388.288 93.1307 389.205 92.5761C390.144 92.0214 391.242 91.7441 392.501 91.7441C394.464 91.7441 395.989 92.3627 397.077 93.6001C398.165 94.8374 398.709 96.6507 398.709 99.0401V108H394.613V99.4241C394.613 98.0587 394.336 97.0134 393.781 96.2881C393.226 95.5627 392.362 95.2001 391.189 95.2001C390.037 95.2001 389.088 95.6054 388.341 96.4161C387.616 97.2267 387.253 98.3574 387.253 99.8081V108H383.157ZM409.346 103.264C408.578 103.264 407.863 103.179 407.202 103.008L406.018 104.192C406.381 104.384 406.871 104.544 407.49 104.672C408.109 104.8 409.111 104.928 410.498 105.056C412.61 105.248 414.146 105.749 415.106 106.56C416.066 107.371 416.546 108.491 416.546 109.92C416.546 110.859 416.29 111.744 415.778 112.576C415.266 113.429 414.477 114.112 413.41 114.624C412.343 115.157 410.978 115.424 409.314 115.424C407.053 115.424 405.229 114.997 403.842 114.144C402.455 113.312 401.762 112.053 401.762 110.368C401.762 108.939 402.455 107.701 403.842 106.656C403.415 106.464 403.042 106.261 402.722 106.048C402.423 105.835 402.157 105.611 401.922 105.376V104.64L404.706 101.696C403.469 100.608 402.85 99.2107 402.85 97.5041C402.85 96.4374 403.106 95.4667 403.618 94.5921C404.151 93.7174 404.898 93.0241 405.858 92.5121C406.818 92.0001 407.981 91.7441 409.346 91.7441C410.242 91.7441 411.074 91.8721 411.842 92.1281H417.858V94.6241L415.138 94.8161C415.565 95.6267 415.778 96.5227 415.778 97.5041C415.778 98.5707 415.522 99.5414 415.01 100.416C414.498 101.291 413.751 101.984 412.77 102.496C411.81 103.008 410.669 103.264 409.346 103.264ZM409.346 100.128C410.178 100.128 410.861 99.9041 411.394 99.4561C411.949 99.0081 412.226 98.3681 412.226 97.5361C412.226 96.7041 411.949 96.0641 411.394 95.6161C410.861 95.1681 410.178 94.9441 409.346 94.9441C408.471 94.9441 407.767 95.1681 407.234 95.6161C406.701 96.0641 406.434 96.7041 406.434 97.5361C406.434 98.3681 406.701 99.0081 407.234 99.4561C407.767 99.9041 408.471 100.128 409.346 100.128ZM405.506 109.952C405.506 110.741 405.869 111.328 406.594 111.712C407.341 112.117 408.247 112.32 409.314 112.32C410.338 112.32 411.17 112.107 411.81 111.68C412.45 111.275 412.77 110.72 412.77 110.016C412.77 109.44 412.557 108.96 412.13 108.576C411.725 108.192 410.903 107.957 409.666 107.872C408.791 107.808 407.981 107.712 407.234 107.584C406.615 107.925 406.167 108.299 405.89 108.704C405.634 109.109 405.506 109.525 405.506 109.952ZM428.566 108V85.6001H433.43L440.566 99.8081L447.606 85.6001H452.47V108H448.374V92.5441L442.134 104.8H438.902L432.662 92.5441V108H428.566ZM462.192 108.384C460.826 108.384 459.706 108.171 458.832 107.744C457.957 107.296 457.306 106.709 456.88 105.984C456.453 105.259 456.24 104.459 456.24 103.584C456.24 102.112 456.816 100.917 457.968 100C459.12 99.0827 460.848 98.6241 463.152 98.6241H467.184V98.2401C467.184 97.1521 466.874 96.3521 466.256 95.8401C465.637 95.3281 464.869 95.0721 463.952 95.0721C463.12 95.0721 462.394 95.2747 461.776 95.6801C461.157 96.0641 460.773 96.6401 460.624 97.4081H456.624C456.73 96.2561 457.114 95.2534 457.776 94.4001C458.458 93.5467 459.333 92.8961 460.4 92.4481C461.466 91.9787 462.661 91.7441 463.984 91.7441C466.245 91.7441 468.026 92.3094 469.328 93.4401C470.629 94.5707 471.28 96.1707 471.28 98.2401V108H467.792L467.408 105.44C466.938 106.293 466.277 106.997 465.424 107.552C464.592 108.107 463.514 108.384 462.192 108.384ZM463.12 105.184C464.293 105.184 465.2 104.8 465.84 104.032C466.501 103.264 466.917 102.315 467.088 101.184H463.6C462.512 101.184 461.733 101.387 461.264 101.792C460.794 102.176 460.56 102.656 460.56 103.232C460.56 103.851 460.794 104.331 461.264 104.672C461.733 105.013 462.352 105.184 463.12 105.184ZM482.964 108.384C481.343 108.384 479.914 108.032 478.676 107.328C477.439 106.624 476.458 105.643 475.732 104.384C475.028 103.125 474.676 101.685 474.676 100.064C474.676 98.4427 475.028 97.0027 475.732 95.7441C476.458 94.4854 477.439 93.5041 478.676 92.8001C479.914 92.0961 481.343 91.7441 482.964 91.7441C484.991 91.7441 486.698 92.2774 488.084 93.3441C489.471 94.3894 490.356 95.8401 490.74 97.6961H486.42C486.207 96.9281 485.78 96.3307 485.14 95.9041C484.522 95.4561 483.786 95.2321 482.932 95.2321C481.802 95.2321 480.842 95.6587 480.052 96.5121C479.263 97.3654 478.868 98.5494 478.868 100.064C478.868 101.579 479.263 102.763 480.052 103.616C480.842 104.469 481.802 104.896 482.932 104.896C483.786 104.896 484.522 104.683 485.14 104.256C485.78 103.829 486.207 103.221 486.42 102.432H490.74C490.356 104.224 489.471 105.664 488.084 106.752C486.698 107.84 484.991 108.384 482.964 108.384ZM494.376 108V84.9601H498.472V94.5601C499.005 93.6854 499.72 93.0027 500.616 92.5121C501.533 92.0001 502.579 91.7441 503.752 91.7441C505.715 91.7441 507.229 92.3627 508.296 93.6001C509.384 94.8374 509.928 96.6507 509.928 99.0401V108H505.864V99.4241C505.864 98.0587 505.587 97.0134 505.032 96.2881C504.499 95.5627 503.645 95.2001 502.472 95.2001C501.32 95.2001 500.36 95.6054 499.592 96.4161C498.845 97.2267 498.472 98.3574 498.472 99.8081V108H494.376ZM516.053 89.6641C515.306 89.6641 514.687 89.4401 514.197 88.9921C513.727 88.5441 513.493 87.9787 513.493 87.2961C513.493 86.6134 513.727 86.0587 514.197 85.6321C514.687 85.1841 515.306 84.9601 516.053 84.9601C516.799 84.9601 517.407 85.1841 517.877 85.6321C518.367 86.0587 518.613 86.6134 518.613 87.2961C518.613 87.9787 518.367 88.5441 517.877 88.9921C517.407 89.4401 516.799 89.6641 516.053 89.6641ZM514.005 108V92.1281H518.101V108H514.005ZM522.376 108V92.1281H525.992L526.312 94.8161C526.803 93.8774 527.507 93.1307 528.424 92.5761C529.363 92.0214 530.461 91.7441 531.72 91.7441C533.683 91.7441 535.208 92.3627 536.296 93.6001C537.384 94.8374 537.928 96.6507 537.928 99.0401V108H533.832V99.4241C533.832 98.0587 533.555 97.0134 533 96.2881C532.445 95.5627 531.581 95.2001 530.408 95.2001C529.256 95.2001 528.307 95.6054 527.56 96.4161C526.835 97.2267 526.472 98.3574 526.472 99.8081V108H522.376ZM549.557 108.384C547.957 108.384 546.538 108.043 545.301 107.36C544.063 106.677 543.093 105.717 542.389 104.48C541.685 103.243 541.333 101.813 541.333 100.192C541.333 98.5494 541.674 97.0881 542.357 95.8081C543.061 94.5281 544.021 93.5361 545.237 92.8321C546.474 92.1067 547.925 91.7441 549.589 91.7441C551.146 91.7441 552.522 92.0854 553.717 92.7681C554.911 93.4507 555.839 94.3894 556.501 95.5841C557.183 96.7574 557.525 98.0694 557.525 99.5201C557.525 99.7547 557.514 100 557.493 100.256C557.493 100.512 557.482 100.779 557.461 101.056H545.397C545.482 102.293 545.909 103.264 546.677 103.968C547.466 104.672 548.415 105.024 549.525 105.024C550.357 105.024 551.05 104.843 551.605 104.48C552.181 104.096 552.607 103.605 552.885 103.008H557.045C556.746 104.011 556.245 104.928 555.541 105.76C554.858 106.571 554.005 107.211 552.981 107.68C551.978 108.149 550.837 108.384 549.557 108.384ZM549.589 95.0721C548.586 95.0721 547.701 95.3601 546.933 95.9361C546.165 96.4907 545.674 97.3441 545.461 98.4961H553.365C553.301 97.4507 552.917 96.6187 552.213 96.0001C551.509 95.3814 550.634 95.0721 549.589 95.0721ZM560.97 108V92.1281H564.618L565.002 95.1041C565.578 94.0801 566.356 93.2694 567.338 92.6721C568.34 92.0534 569.514 91.7441 570.858 91.7441V96.0641H569.706C568.81 96.0641 568.01 96.2027 567.306 96.4801C566.602 96.7574 566.047 97.2374 565.642 97.9201C565.258 98.6027 565.066 99.5521 565.066 100.768V108H560.97ZM575.641 115.04L579.321 106.944H578.361L572.185 92.1281H576.633L581.081 103.296L585.721 92.1281H590.073L579.993 115.04H575.641Z" fill="white"/>
<path d="M252.605 158L246.293 141.2H248.477L253.781 155.864L259.133 141.2H261.269L254.957 158H252.605ZM263.572 158V141.2H265.588V158H263.572ZM273.086 158V142.856H268.07V141.2H280.118V142.856H275.102V158H273.086ZM294.283 158.288C293.051 158.288 291.979 158.064 291.067 157.616C290.155 157.168 289.451 156.544 288.955 155.744C288.459 154.944 288.211 154.016 288.211 152.96H290.323C290.323 153.616 290.475 154.224 290.779 154.784C291.083 155.328 291.523 155.768 292.099 156.104C292.691 156.424 293.419 156.584 294.283 156.584C295.419 156.584 296.299 156.312 296.923 155.768C297.547 155.224 297.859 154.544 297.859 153.728C297.859 153.056 297.715 152.52 297.427 152.12C297.139 151.704 296.747 151.368 296.251 151.112C295.771 150.856 295.211 150.632 294.571 150.44C293.947 150.248 293.291 150.032 292.603 149.792C291.307 149.344 290.347 148.792 289.723 148.136C289.099 147.464 288.787 146.592 288.787 145.52C288.771 144.624 288.979 143.832 289.411 143.144C289.843 142.44 290.451 141.896 291.235 141.512C292.035 141.112 292.979 140.912 294.067 140.912C295.139 140.912 296.067 141.112 296.851 141.512C297.651 141.912 298.267 142.464 298.699 143.168C299.147 143.872 299.379 144.672 299.395 145.568H297.283C297.283 145.104 297.163 144.648 296.923 144.2C296.683 143.736 296.315 143.36 295.819 143.072C295.339 142.784 294.731 142.64 293.995 142.64C293.083 142.624 292.331 142.856 291.739 143.336C291.163 143.816 290.875 144.48 290.875 145.328C290.875 146.048 291.075 146.6 291.475 146.984C291.891 147.368 292.467 147.688 293.203 147.944C293.939 148.184 294.787 148.464 295.747 148.784C296.547 149.072 297.267 149.408 297.907 149.792C298.547 150.176 299.043 150.672 299.395 151.28C299.763 151.888 299.947 152.664 299.947 153.608C299.947 154.408 299.739 155.168 299.323 155.888C298.907 156.592 298.275 157.168 297.427 157.616C296.595 158.064 295.547 158.288 294.283 158.288ZM307.39 158C306.302 158 305.446 157.736 304.822 157.208C304.198 156.68 303.886 155.728 303.886 154.352V147.8H301.822V146.096H303.886L304.15 143.24H305.902V146.096H309.406V147.8H305.902V154.352C305.902 155.104 306.054 155.616 306.358 155.888C306.662 156.144 307.198 156.272 307.966 156.272H309.214V158H307.39ZM316.312 158.288C314.904 158.288 313.784 157.864 312.952 157.016C312.12 156.152 311.704 154.832 311.704 153.056V146.096H313.72V152.84C313.72 155.32 314.736 156.56 316.768 156.56C317.808 156.56 318.664 156.192 319.336 155.456C320.024 154.704 320.368 153.64 320.368 152.264V146.096H322.384V158H320.56L320.416 155.864C320.048 156.616 319.496 157.208 318.76 157.64C318.04 158.072 317.224 158.288 316.312 158.288ZM331.102 158.288C329.918 158.288 328.878 158.016 327.982 157.472C327.102 156.928 326.414 156.184 325.918 155.24C325.438 154.296 325.198 153.224 325.198 152.024C325.198 150.824 325.446 149.76 325.942 148.832C326.438 147.888 327.126 147.152 328.006 146.624C328.886 146.08 329.926 145.808 331.126 145.808C332.102 145.808 332.966 146.008 333.718 146.408C334.47 146.808 335.054 147.368 335.47 148.088V140.72H337.486V158H335.662L335.47 156.032C335.086 156.608 334.534 157.128 333.814 157.592C333.094 158.056 332.19 158.288 331.102 158.288ZM331.318 156.536C332.118 156.536 332.822 156.352 333.43 155.984C334.054 155.6 334.534 155.072 334.87 154.4C335.222 153.728 335.398 152.944 335.398 152.048C335.398 151.152 335.222 150.368 334.87 149.696C334.534 149.024 334.054 148.504 333.43 148.136C332.822 147.752 332.118 147.56 331.318 147.56C330.534 147.56 329.83 147.752 329.206 148.136C328.598 148.504 328.118 149.024 327.766 149.696C327.43 150.368 327.262 151.152 327.262 152.048C327.262 152.944 327.43 153.728 327.766 154.4C328.118 155.072 328.598 155.6 329.206 155.984C329.83 156.352 330.534 156.536 331.318 156.536ZM346.124 158.288C344.988 158.288 343.98 158.032 343.1 157.52C342.22 156.992 341.524 156.264 341.012 155.336C340.516 154.408 340.268 153.312 340.268 152.048C340.268 150.8 340.516 149.712 341.012 148.784C341.508 147.84 342.196 147.112 343.076 146.6C343.972 146.072 345.004 145.808 346.172 145.808C347.324 145.808 348.316 146.072 349.148 146.6C349.996 147.112 350.644 147.792 351.092 148.64C351.54 149.488 351.764 150.4 351.764 151.376C351.764 151.552 351.756 151.728 351.74 151.904C351.74 152.08 351.74 152.28 351.74 152.504H342.26C342.308 153.416 342.516 154.176 342.884 154.784C343.268 155.376 343.74 155.824 344.3 156.128C344.876 156.432 345.484 156.584 346.124 156.584C346.956 156.584 347.652 156.392 348.212 156.008C348.772 155.624 349.18 155.104 349.436 154.448H351.428C351.108 155.552 350.492 156.472 349.58 157.208C348.684 157.928 347.532 158.288 346.124 158.288ZM346.124 147.512C345.164 147.512 344.308 147.808 343.556 148.4C342.82 148.976 342.396 149.824 342.284 150.944H349.772C349.724 149.872 349.356 149.032 348.668 148.424C347.98 147.816 347.132 147.512 346.124 147.512ZM354.436 158V146.096H356.26L356.38 148.232C356.764 147.48 357.316 146.888 358.036 146.456C358.756 146.024 359.572 145.808 360.484 145.808C361.892 145.808 363.012 146.24 363.844 147.104C364.692 147.952 365.116 149.264 365.116 151.04V158H363.1V151.256C363.1 148.776 362.076 147.536 360.028 147.536C359.004 147.536 358.148 147.912 357.46 148.664C356.788 149.4 356.452 150.456 356.452 151.832V158H354.436ZM372.875 158C371.787 158 370.931 157.736 370.307 157.208C369.683 156.68 369.371 155.728 369.371 154.352V147.8H367.307V146.096H369.371L369.635 143.24H371.387V146.096H374.891V147.8H371.387V154.352C371.387 155.104 371.539 155.616 371.843 155.888C372.147 156.144 372.683 156.272 373.451 156.272H374.699V158H372.875ZM391.291 158.288C389.643 158.288 388.219 157.928 387.019 157.208C385.835 156.472 384.915 155.456 384.259 154.16C383.603 152.848 383.275 151.328 383.275 149.6C383.275 147.888 383.603 146.384 384.259 145.088C384.915 143.776 385.835 142.752 387.019 142.016C388.219 141.28 389.643 140.912 391.291 140.912C393.211 140.912 394.771 141.376 395.971 142.304C397.187 143.216 397.963 144.496 398.299 146.144H396.067C395.811 145.104 395.283 144.272 394.483 143.648C393.699 143.008 392.635 142.688 391.291 142.688C390.091 142.688 389.043 142.968 388.147 143.528C387.251 144.072 386.555 144.864 386.059 145.904C385.579 146.928 385.339 148.16 385.339 149.6C385.339 151.04 385.579 152.28 386.059 153.32C386.555 154.344 387.251 155.136 388.147 155.696C389.043 156.24 390.091 156.512 391.291 156.512C392.635 156.512 393.699 156.208 394.483 155.6C395.283 154.976 395.811 154.152 396.067 153.128H398.299C397.963 154.744 397.187 156.008 395.971 156.92C394.771 157.832 393.211 158.288 391.291 158.288ZM401.077 158V140.72H403.093V148.136C403.493 147.4 404.061 146.832 404.797 146.432C405.533 146.016 406.333 145.808 407.197 145.808C408.573 145.808 409.677 146.24 410.509 147.104C411.341 147.952 411.757 149.264 411.757 151.04V158H409.765V151.256C409.765 148.776 408.765 147.536 406.765 147.536C405.725 147.536 404.853 147.912 404.149 148.664C403.445 149.4 403.093 150.456 403.093 151.832V158H401.077ZM418.771 158.288C417.779 158.288 416.955 158.12 416.299 157.784C415.643 157.448 415.155 157 414.835 156.44C414.515 155.88 414.355 155.272 414.355 154.616C414.355 153.4 414.819 152.464 415.747 151.808C416.675 151.152 417.939 150.824 419.539 150.824H422.755V150.68C422.755 149.64 422.483 148.856 421.939 148.328C421.395 147.784 420.667 147.512 419.755 147.512C418.971 147.512 418.291 147.712 417.715 148.112C417.155 148.496 416.803 149.064 416.659 149.816H414.595C414.675 148.952 414.963 148.224 415.459 147.632C415.971 147.04 416.603 146.592 417.355 146.288C418.107 145.968 418.907 145.808 419.755 145.808C421.419 145.808 422.667 146.256 423.499 147.152C424.347 148.032 424.771 149.208 424.771 150.68V158H422.971L422.851 155.864C422.515 156.536 422.019 157.112 421.363 157.592C420.723 158.056 419.859 158.288 418.771 158.288ZM419.083 156.584C419.851 156.584 420.507 156.384 421.051 155.984C421.611 155.584 422.035 155.064 422.323 154.424C422.611 153.784 422.755 153.112 422.755 152.408V152.384H419.707C418.523 152.384 417.683 152.592 417.187 153.008C416.707 153.408 416.467 153.912 416.467 154.52C416.467 155.144 416.691 155.648 417.139 156.032C417.603 156.4 418.251 156.584 419.083 156.584ZM427.796 163.28V146.096H429.62L429.812 148.064C430.196 147.488 430.74 146.968 431.444 146.504C432.164 146.04 433.076 145.808 434.18 145.808C435.364 145.808 436.396 146.08 437.276 146.624C438.156 147.168 438.836 147.912 439.316 148.856C439.812 149.8 440.06 150.872 440.06 152.072C440.06 153.272 439.812 154.344 439.316 155.288C438.836 156.216 438.148 156.952 437.252 157.496C436.372 158.024 435.34 158.288 434.156 158.288C433.18 158.288 432.308 158.088 431.54 157.688C430.788 157.288 430.212 156.728 429.812 156.008V163.28H427.796ZM433.94 156.536C434.74 156.536 435.444 156.352 436.052 155.984C436.66 155.6 437.14 155.072 437.492 154.4C437.844 153.728 438.02 152.944 438.02 152.048C438.02 151.152 437.844 150.368 437.492 149.696C437.14 149.024 436.66 148.504 436.052 148.136C435.444 147.752 434.74 147.56 433.94 147.56C433.14 147.56 432.436 147.752 431.828 148.136C431.22 148.504 430.74 149.024 430.388 149.696C430.036 150.368 429.86 151.152 429.86 152.048C429.86 152.944 430.036 153.728 430.388 154.4C430.74 155.072 431.22 155.6 431.828 155.984C432.436 156.352 433.14 156.536 433.94 156.536ZM447.101 158C446.013 158 445.157 157.736 444.533 157.208C443.909 156.68 443.597 155.728 443.597 154.352V147.8H441.533V146.096H443.597L443.861 143.24H445.613V146.096H449.117V147.8H445.613V154.352C445.613 155.104 445.765 155.616 446.069 155.888C446.373 156.144 446.909 156.272 447.677 156.272H448.925V158H447.101ZM456.702 158.288C455.566 158.288 454.558 158.032 453.678 157.52C452.798 156.992 452.102 156.264 451.59 155.336C451.094 154.408 450.846 153.312 450.846 152.048C450.846 150.8 451.094 149.712 451.59 148.784C452.086 147.84 452.774 147.112 453.654 146.6C454.55 146.072 455.582 145.808 456.75 145.808C457.902 145.808 458.894 146.072 459.726 146.6C460.574 147.112 461.222 147.792 461.67 148.64C462.118 149.488 462.342 150.4 462.342 151.376C462.342 151.552 462.334 151.728 462.318 151.904C462.318 152.08 462.318 152.28 462.318 152.504H452.838C452.886 153.416 453.094 154.176 453.462 154.784C453.846 155.376 454.318 155.824 454.878 156.128C455.454 156.432 456.062 156.584 456.702 156.584C457.534 156.584 458.23 156.392 458.79 156.008C459.35 155.624 459.758 155.104 460.014 154.448H462.006C461.686 155.552 461.07 156.472 460.158 157.208C459.262 157.928 458.11 158.288 456.702 158.288ZM456.702 147.512C455.742 147.512 454.886 147.808 454.134 148.4C453.398 148.976 452.974 149.824 452.862 150.944H460.35C460.302 149.872 459.934 149.032 459.246 148.424C458.558 147.816 457.71 147.512 456.702 147.512ZM465.014 158V146.096H466.838L467.006 148.376C467.374 147.592 467.934 146.968 468.686 146.504C469.438 146.04 470.366 145.808 471.47 145.808V147.92H470.918C470.214 147.92 469.566 148.048 468.974 148.304C468.382 148.544 467.91 148.96 467.558 149.552C467.206 150.144 467.03 150.96 467.03 152V158H465.014Z" fill="white"/>
</g>
<defs>
<clipPath id="clip0_564_80">
<rect width="560" height="200" fill="white"/>
</clipPath>
</defs>
</svg>
