<svg width="350" height="351" viewBox="0 0 350 351" fill="none" xmlns="http://www.w3.org/2000/svg">
<g clip-path="url(#clip0_564_82)">
<path fill-rule="evenodd" clip-rule="evenodd" d="M198.51 9.37258C186.013 -3.12419 165.752 -3.1242 153.255 9.37258L85.3726 77.2548C72.8758 89.7516 72.8758 110.013 85.3726 122.51L153.255 190.392C165.752 202.889 186.013 202.889 198.51 190.392L266.392 122.51C278.889 110.013 278.889 89.7516 266.392 77.2548L198.51 9.37258ZM148.207 106.478C148.194 108.815 148.234 111.164 148.478 113.5C148.519 113.88 148.571 114.26 148.623 114.638L148.623 114.638L148.623 114.639C148.672 115 148.722 115.359 148.761 115.715C148.567 115.844 148.372 115.836 148.178 115.827C148.166 115.826 148.154 115.826 148.142 115.825C148.105 115.824 148.069 115.823 148.032 115.823H139.7C139.664 115.823 139.628 115.821 139.592 115.82C139.52 115.817 139.448 115.814 139.376 115.823C139.025 115.863 138.917 115.688 138.904 115.35C138.88 114.656 138.841 113.967 138.802 113.277L138.802 113.277L138.802 113.276L138.802 113.275C138.776 112.811 138.75 112.347 138.728 111.88C138.72 111.696 138.722 111.512 138.725 111.306V111.306C138.727 111.194 138.728 111.076 138.728 110.948C138.39 111.064 138.267 111.272 138.151 111.467C138.119 111.521 138.088 111.574 138.053 111.623C136.689 113.568 135.015 115.107 132.733 115.917C131.315 116.43 129.843 116.619 128.358 116.579C126.197 116.525 124.077 116.16 122.106 115.188C119.297 113.811 117.555 111.637 117.042 108.517C117.002 108.274 116.961 108.031 116.745 107.869V105.439C116.984 105.314 117.012 105.083 117.039 104.86C117.042 104.834 117.045 104.809 117.049 104.784C117.051 104.768 117.053 104.752 117.056 104.737C117.542 101.887 119.135 99.8079 121.606 98.3901C123.551 97.2693 125.684 96.6887 127.885 96.3646C131.072 95.892 134.272 95.8515 137.472 96.3241C138.121 96.4186 138.175 96.3781 138.107 95.7165C137.918 93.8801 137.081 92.5027 135.366 91.7196C134.556 91.3415 133.692 91.1119 132.8 91.0444C129.29 90.7878 125.846 91.1389 122.565 92.5027C122.294 92.6201 122.03 92.7454 121.768 92.8701L121.768 92.8702L121.767 92.8705C121.547 92.9752 121.328 93.0793 121.107 93.1779C120.915 93.0715 120.933 92.9147 120.95 92.7738C120.954 92.7359 120.958 92.6991 120.958 92.6648L120.954 92.5111C120.901 90.5645 120.849 88.6301 120.81 86.6829C120.796 85.9994 120.809 85.9943 121.417 85.7566L121.431 85.7512C124.091 84.7249 126.859 84.1578 129.695 83.9147C131.761 83.7392 133.827 83.6717 135.906 83.9012C138.31 84.1713 140.619 84.7384 142.725 85.9942C145.736 87.7901 147.384 90.4773 147.991 93.8665C148.167 94.7983 148.207 95.7435 148.207 96.6887V106.478ZM127.116 106.857C127.521 108.139 128.493 108.842 129.735 109.139C134.812 110.381 137.972 106.168 138.134 102.347C138.148 102.049 138.053 101.914 137.729 101.901C137.096 101.874 136.466 101.844 135.836 101.813L135.832 101.813C135.201 101.783 134.569 101.752 133.935 101.725C133.124 101.685 132.314 101.779 131.518 101.887C130.437 102.022 129.398 102.306 128.493 102.941C127.224 103.818 126.656 105.412 127.116 106.857ZM177.415 93.3265C177.037 93.1374 176.686 92.9619 176.308 92.7998C173.877 91.7196 171.338 91.3685 168.732 91.9761C165.424 92.7593 163.182 95.3519 162.723 98.7142C162.494 100.375 162.548 102.009 163.236 103.548C164.533 106.452 166.882 108.018 169.948 108.517C172.513 108.923 174.998 108.504 177.401 107.572C177.513 107.529 177.625 107.482 177.734 107.437C177.862 107.384 177.987 107.332 178.103 107.289C178.269 107.333 178.272 107.422 178.275 107.505C178.276 107.517 178.276 107.528 178.277 107.54C178.277 107.546 178.278 107.553 178.279 107.559C178.301 108.334 178.322 109.109 178.343 109.883C178.385 111.452 178.427 113.02 178.482 114.594C178.495 115.053 178.346 115.256 177.901 115.391C176.213 115.89 174.498 116.214 172.756 116.417C169.448 116.795 166.18 116.592 162.993 115.634C159.375 114.54 156.336 112.595 154.149 109.463C152.637 107.289 151.84 104.858 151.543 102.239C151.259 99.6189 151.489 97.0668 152.326 94.5823C153.838 90.1532 156.904 87.1555 161.184 85.3866C164.452 84.0363 167.882 83.6177 171.406 83.8608C173.526 84.0093 175.578 84.3874 177.536 85.2111C178.281 85.5246 178.28 85.5348 178.206 86.2566L178.198 86.3318C177.995 88.2898 177.806 90.2477 177.617 92.2057C177.613 92.2662 177.609 92.3275 177.606 92.3896C177.589 92.6875 177.571 93.0024 177.415 93.3265ZM192.459 89.8571C192.402 89.9836 192.336 90.1297 192.066 90.1532V85.2921C192.066 84.5494 192.066 84.5359 191.323 84.5359H182.992C182.235 84.5359 182.222 84.5359 182.222 85.2786V115.147C182.222 115.836 182.235 115.85 182.938 115.85H192.322C193.024 115.85 193.024 115.836 193.038 115.148L193.038 115.147V114.58V102.36C193.038 101.172 193.132 99.997 193.348 98.8222C193.605 97.3774 194.051 96.0001 194.942 94.7983C196.292 92.9889 198.48 92.5297 200.289 92.9213C201.747 93.2319 202.571 94.2852 203.057 95.622C203.476 96.7697 203.57 97.985 203.57 99.2003V114.823C203.57 114.886 203.572 114.949 203.573 115.012C203.576 115.138 203.579 115.265 203.57 115.391C203.543 115.755 203.732 115.863 204.056 115.836C204.146 115.827 204.237 115.83 204.327 115.833C204.372 115.835 204.417 115.836 204.462 115.836H213.522H214.008C214.278 115.85 214.4 115.715 214.386 115.445C214.377 115.319 214.38 115.193 214.383 115.066C214.385 115.003 214.386 114.94 214.386 114.877C214.386 113.554 214.388 112.231 214.389 110.91C214.392 108.267 214.395 105.627 214.386 102.981C214.386 101.82 214.413 100.659 214.575 99.5109C214.764 98.1335 215.089 96.8102 215.764 95.5815C216.412 94.4202 217.303 93.502 218.613 93.0969C221.57 92.1922 223.852 93.2049 224.608 96.3241C224.811 97.1748 224.905 98.0255 224.905 98.8897V114.837V115.485C224.905 115.701 224.986 115.836 225.229 115.836H225.716H234.857C235.325 115.836 235.542 115.849 235.641 115.748C235.742 115.645 235.721 115.422 235.721 114.945C235.721 113.153 235.72 111.363 235.718 109.573C235.715 105.994 235.712 102.418 235.721 98.8357C235.721 97.3774 235.681 95.9325 235.6 94.4742C235.532 93.0969 235.316 91.7331 234.938 90.4098C233.952 86.8989 231.67 84.7789 228.092 84.0903C226.229 83.7392 224.352 83.6447 222.461 83.9282C219.693 84.3468 217.263 85.4541 215.278 87.4931C214.779 88.0015 214.358 88.5712 213.938 89.1387C213.8 89.3248 213.662 89.5107 213.522 89.6941C213.342 89.5563 213.262 89.3768 213.183 89.2015C213.162 89.1535 213.14 89.1059 213.117 89.0594C211.983 86.7909 210.214 85.2651 207.837 84.4414C205.393 83.5907 202.909 83.5772 200.411 84.0903C196.94 84.806 194.199 86.6019 192.484 89.8021C192.476 89.8197 192.467 89.8382 192.459 89.8571Z" fill="#333333"/>
<path d="M59.2829 260L67.4749 237.6H72.0829L80.2749 260H75.9229L74.1309 254.816H65.3949L63.5709 260H59.2829ZM66.5149 251.616H73.0109L69.7469 242.304L66.5149 251.616ZM89.6244 260.384C88.2164 260.384 86.979 260.16 85.9124 259.712C84.8457 259.243 83.9924 258.603 83.3524 257.792C82.7124 256.981 82.3284 256.043 82.2004 254.976H86.3284C86.4564 255.595 86.7977 256.128 87.3524 256.576C87.9284 257.003 88.6644 257.216 89.5604 257.216C90.4564 257.216 91.107 257.035 91.5124 256.672C91.939 256.309 92.1524 255.893 92.1524 255.424C92.1524 254.741 91.8537 254.283 91.2564 254.048C90.659 253.792 89.827 253.547 88.7604 253.312C88.0777 253.163 87.3844 252.981 86.6804 252.768C85.9764 252.555 85.3257 252.288 84.7284 251.968C84.1524 251.627 83.683 251.2 83.3204 250.688C82.9577 250.155 82.7764 249.504 82.7764 248.736C82.7764 247.328 83.331 246.144 84.4404 245.184C85.571 244.224 87.1497 243.744 89.1764 243.744C91.0537 243.744 92.547 244.181 93.6564 245.056C94.787 245.931 95.459 247.136 95.6724 248.672H91.8004C91.5657 247.499 90.6804 246.912 89.1444 246.912C88.3764 246.912 87.779 247.061 87.3524 247.36C86.947 247.659 86.7444 248.032 86.7444 248.48C86.7444 248.949 87.0537 249.323 87.6724 249.6C88.291 249.877 89.1124 250.133 90.1364 250.368C91.2457 250.624 92.259 250.912 93.1764 251.232C94.115 251.531 94.8617 251.989 95.4164 252.608C95.971 253.205 96.2484 254.069 96.2484 255.2C96.2697 256.181 96.0137 257.067 95.4804 257.856C94.947 258.645 94.179 259.264 93.1764 259.712C92.1737 260.16 90.9897 260.384 89.6244 260.384ZM106.437 260.384C105.029 260.384 103.792 260.16 102.725 259.712C101.658 259.243 100.805 258.603 100.165 257.792C99.5249 256.981 99.1409 256.043 99.0129 254.976H103.141C103.269 255.595 103.61 256.128 104.165 256.576C104.741 257.003 105.477 257.216 106.373 257.216C107.269 257.216 107.92 257.035 108.325 256.672C108.752 256.309 108.965 255.893 108.965 255.424C108.965 254.741 108.666 254.283 108.069 254.048C107.472 253.792 106.64 253.547 105.573 253.312C104.89 253.163 104.197 252.981 103.493 252.768C102.789 252.555 102.138 252.288 101.541 251.968C100.965 251.627 100.496 251.2 100.133 250.688C99.7702 250.155 99.5889 249.504 99.5889 248.736C99.5889 247.328 100.144 246.144 101.253 245.184C102.384 244.224 103.962 243.744 105.989 243.744C107.866 243.744 109.36 244.181 110.469 245.056C111.6 245.931 112.272 247.136 112.485 248.672H108.613C108.378 247.499 107.493 246.912 105.957 246.912C105.189 246.912 104.592 247.061 104.165 247.36C103.76 247.659 103.557 248.032 103.557 248.48C103.557 248.949 103.866 249.323 104.485 249.6C105.104 249.877 105.925 250.133 106.949 250.368C108.058 250.624 109.072 250.912 109.989 251.232C110.928 251.531 111.674 251.989 112.229 252.608C112.784 253.205 113.061 254.069 113.061 255.2C113.082 256.181 112.826 257.067 112.293 257.856C111.76 258.645 110.992 259.264 109.989 259.712C108.986 260.16 107.802 260.384 106.437 260.384ZM124.305 260.384C122.769 260.384 121.383 260.032 120.145 259.328C118.929 258.624 117.959 257.653 117.233 256.416C116.529 255.157 116.177 253.707 116.177 252.064C116.177 250.421 116.54 248.981 117.265 247.744C117.991 246.485 118.961 245.504 120.177 244.8C121.415 244.096 122.801 243.744 124.337 243.744C125.852 243.744 127.217 244.096 128.433 244.8C129.671 245.504 130.641 246.485 131.345 247.744C132.071 248.981 132.433 250.421 132.433 252.064C132.433 253.707 132.071 255.157 131.345 256.416C130.641 257.653 129.671 258.624 128.433 259.328C127.196 260.032 125.82 260.384 124.305 260.384ZM124.305 256.832C125.372 256.832 126.3 256.437 127.089 255.648C127.879 254.837 128.273 253.643 128.273 252.064C128.273 250.485 127.879 249.301 127.089 248.512C126.3 247.701 125.383 247.296 124.337 247.296C123.249 247.296 122.311 247.701 121.521 248.512C120.753 249.301 120.369 250.485 120.369 252.064C120.369 253.643 120.753 254.837 121.521 255.648C122.311 256.437 123.239 256.832 124.305 256.832ZM143.872 260.384C142.25 260.384 140.821 260.032 139.584 259.328C138.346 258.624 137.365 257.643 136.64 256.384C135.936 255.125 135.584 253.685 135.584 252.064C135.584 250.443 135.936 249.003 136.64 247.744C137.365 246.485 138.346 245.504 139.584 244.8C140.821 244.096 142.25 243.744 143.872 243.744C145.898 243.744 147.605 244.277 148.992 245.344C150.378 246.389 151.264 247.84 151.648 249.696H147.328C147.114 248.928 146.688 248.331 146.048 247.904C145.429 247.456 144.693 247.232 143.84 247.232C142.709 247.232 141.749 247.659 140.96 248.512C140.17 249.365 139.776 250.549 139.776 252.064C139.776 253.579 140.17 254.763 140.96 255.616C141.749 256.469 142.709 256.896 143.84 256.896C144.693 256.896 145.429 256.683 146.048 256.256C146.688 255.829 147.114 255.221 147.328 254.432H151.648C151.264 256.224 150.378 257.664 148.992 258.752C147.605 259.84 145.898 260.384 143.872 260.384ZM157.491 241.664C156.744 241.664 156.126 241.44 155.635 240.992C155.166 240.544 154.931 239.979 154.931 239.296C154.931 238.613 155.166 238.059 155.635 237.632C156.126 237.184 156.744 236.96 157.491 236.96C158.238 236.96 158.846 237.184 159.315 237.632C159.806 238.059 160.051 238.613 160.051 239.296C160.051 239.979 159.806 240.544 159.315 240.992C158.846 241.44 158.238 241.664 157.491 241.664ZM155.443 260V244.128H159.539V260H155.443ZM169.286 260.384C167.921 260.384 166.801 260.171 165.926 259.744C165.052 259.296 164.401 258.709 163.974 257.984C163.548 257.259 163.334 256.459 163.334 255.584C163.334 254.112 163.91 252.917 165.062 252C166.214 251.083 167.942 250.624 170.246 250.624H174.278V250.24C174.278 249.152 173.969 248.352 173.35 247.84C172.732 247.328 171.964 247.072 171.046 247.072C170.214 247.072 169.489 247.275 168.87 247.68C168.252 248.064 167.868 248.64 167.718 249.408H163.718C163.825 248.256 164.209 247.253 164.87 246.4C165.553 245.547 166.428 244.896 167.494 244.448C168.561 243.979 169.756 243.744 171.078 243.744C173.34 243.744 175.121 244.309 176.422 245.44C177.724 246.571 178.374 248.171 178.374 250.24V260H174.886L174.502 257.44C174.033 258.293 173.372 258.997 172.518 259.552C171.686 260.107 170.609 260.384 169.286 260.384ZM170.214 257.184C171.388 257.184 172.294 256.8 172.934 256.032C173.596 255.264 174.012 254.315 174.182 253.184H170.694C169.606 253.184 168.828 253.387 168.358 253.792C167.889 254.176 167.654 254.656 167.654 255.232C167.654 255.851 167.889 256.331 168.358 256.672C168.828 257.013 169.446 257.184 170.214 257.184ZM189.136 260C187.472 260 186.139 259.595 185.136 258.784C184.134 257.973 183.632 256.533 183.632 254.464V247.552H180.912V244.128H183.632L184.112 239.872H187.728V244.128H192.016V247.552H187.728V254.496C187.728 255.264 187.888 255.797 188.208 256.096C188.55 256.373 189.126 256.512 189.936 256.512H191.92V260H189.136ZM197.741 241.664C196.994 241.664 196.376 241.44 195.885 240.992C195.416 240.544 195.181 239.979 195.181 239.296C195.181 238.613 195.416 238.059 195.885 237.632C196.376 237.184 196.994 236.96 197.741 236.96C198.488 236.96 199.096 237.184 199.565 237.632C200.056 238.059 200.301 238.613 200.301 239.296C200.301 239.979 200.056 240.544 199.565 240.992C199.096 241.44 198.488 241.664 197.741 241.664ZM195.693 260V244.128H199.789V260H195.693ZM211.68 260.384C210.144 260.384 208.758 260.032 207.52 259.328C206.304 258.624 205.334 257.653 204.608 256.416C203.904 255.157 203.552 253.707 203.552 252.064C203.552 250.421 203.915 248.981 204.64 247.744C205.366 246.485 206.336 245.504 207.552 244.8C208.79 244.096 210.176 243.744 211.712 243.744C213.227 243.744 214.592 244.096 215.808 244.8C217.046 245.504 218.016 246.485 218.72 247.744C219.446 248.981 219.808 250.421 219.808 252.064C219.808 253.707 219.446 255.157 218.72 256.416C218.016 257.653 217.046 258.624 215.808 259.328C214.571 260.032 213.195 260.384 211.68 260.384ZM211.68 256.832C212.747 256.832 213.675 256.437 214.464 255.648C215.254 254.837 215.648 253.643 215.648 252.064C215.648 250.485 215.254 249.301 214.464 248.512C213.675 247.701 212.758 247.296 211.712 247.296C210.624 247.296 209.686 247.701 208.896 248.512C208.128 249.301 207.744 250.485 207.744 252.064C207.744 253.643 208.128 254.837 208.896 255.648C209.686 256.437 210.614 256.832 211.68 256.832ZM223.471 260V244.128H227.087L227.407 246.816C227.897 245.877 228.601 245.131 229.519 244.576C230.457 244.021 231.556 243.744 232.815 243.744C234.777 243.744 236.303 244.363 237.391 245.6C238.479 246.837 239.023 248.651 239.023 251.04V260H234.927V251.424C234.927 250.059 234.649 249.013 234.095 248.288C233.54 247.563 232.676 247.2 231.503 247.2C230.351 247.2 229.401 247.605 228.655 248.416C227.929 249.227 227.567 250.357 227.567 251.808V260H223.471ZM251.3 260V247.552H249.124V244.128H251.3V242.272C251.3 240.352 251.78 238.987 252.74 238.176C253.722 237.365 255.044 236.96 256.708 236.96H258.468V240.448H257.348C256.644 240.448 256.143 240.587 255.844 240.864C255.546 241.141 255.396 241.611 255.396 242.272V244.128H258.82V247.552H255.396V260H251.3ZM269.055 260.384C267.519 260.384 266.133 260.032 264.895 259.328C263.679 258.624 262.709 257.653 261.983 256.416C261.279 255.157 260.927 253.707 260.927 252.064C260.927 250.421 261.29 248.981 262.015 247.744C262.741 246.485 263.711 245.504 264.927 244.8C266.165 244.096 267.551 243.744 269.087 243.744C270.602 243.744 271.967 244.096 273.183 244.8C274.421 245.504 275.391 246.485 276.095 247.744C276.821 248.981 277.183 250.421 277.183 252.064C277.183 253.707 276.821 255.157 276.095 256.416C275.391 257.653 274.421 258.624 273.183 259.328C271.946 260.032 270.57 260.384 269.055 260.384ZM269.055 256.832C270.122 256.832 271.05 256.437 271.839 255.648C272.629 254.837 273.023 253.643 273.023 252.064C273.023 250.485 272.629 249.301 271.839 248.512C271.05 247.701 270.133 247.296 269.087 247.296C267.999 247.296 267.061 247.701 266.271 248.512C265.503 249.301 265.119 250.485 265.119 252.064C265.119 253.643 265.503 254.837 266.271 255.648C267.061 256.437 267.989 256.832 269.055 256.832ZM280.846 260V244.128H284.494L284.878 247.104C285.454 246.08 286.232 245.269 287.214 244.672C288.216 244.053 289.39 243.744 290.734 243.744V248.064H289.582C288.686 248.064 287.886 248.203 287.182 248.48C286.478 248.757 285.923 249.237 285.518 249.92C285.134 250.603 284.942 251.552 284.942 252.768V260H280.846ZM14.8669 302.384C12.6055 302.384 10.6642 301.904 9.04288 300.944C7.42154 299.963 6.17354 298.608 5.29888 296.88C4.42421 295.131 3.98688 293.115 3.98688 290.832C3.98688 288.549 4.42421 286.533 5.29888 284.784C6.17354 283.035 7.42154 281.669 9.04288 280.688C10.6642 279.707 12.6055 279.216 14.8669 279.216C17.5549 279.216 19.7522 279.888 21.4589 281.232C23.1869 282.555 24.2642 284.421 24.6909 286.832H20.1789C19.9015 285.616 19.3042 284.667 18.3869 283.984C17.4909 283.28 16.2962 282.928 14.8029 282.928C12.7335 282.928 11.1122 283.632 9.93888 285.04C8.76554 286.448 8.17888 288.379 8.17888 290.832C8.17888 293.285 8.76554 295.216 9.93888 296.624C11.1122 298.011 12.7335 298.704 14.8029 298.704C16.2962 298.704 17.4909 298.384 18.3869 297.744C19.3042 297.083 19.9015 296.176 20.1789 295.024H24.6909C24.2642 297.328 23.1869 299.131 21.4589 300.432C19.7522 301.733 17.5549 302.384 14.8669 302.384ZM35.8366 302.384C34.3006 302.384 32.914 302.032 31.6766 301.328C30.4606 300.624 29.49 299.653 28.7646 298.416C28.0606 297.157 27.7086 295.707 27.7086 294.064C27.7086 292.421 28.0713 290.981 28.7966 289.744C29.522 288.485 30.4926 287.504 31.7086 286.8C32.946 286.096 34.3326 285.744 35.8686 285.744C37.3833 285.744 38.7486 286.096 39.9646 286.8C41.202 287.504 42.1726 288.485 42.8766 289.744C43.602 290.981 43.9646 292.421 43.9646 294.064C43.9646 295.707 43.602 297.157 42.8766 298.416C42.1726 299.653 41.202 300.624 39.9646 301.328C38.7273 302.032 37.3513 302.384 35.8366 302.384ZM35.8366 298.832C36.9033 298.832 37.8313 298.437 38.6206 297.648C39.41 296.837 39.8046 295.643 39.8046 294.064C39.8046 292.485 39.41 291.301 38.6206 290.512C37.8313 289.701 36.914 289.296 35.8686 289.296C34.7806 289.296 33.842 289.701 33.0526 290.512C32.2846 291.301 31.9006 292.485 31.9006 294.064C31.9006 295.643 32.2846 296.837 33.0526 297.648C33.842 298.437 34.77 298.832 35.8366 298.832ZM47.6269 302V286.128H51.2429L51.5949 288.272C52.1069 287.504 52.7789 286.896 53.6109 286.448C54.4642 285.979 55.4455 285.744 56.5549 285.744C59.0082 285.744 60.7469 286.693 61.7709 288.592C62.3469 287.717 63.1149 287.024 64.0749 286.512C65.0562 286 66.1229 285.744 67.2749 285.744C69.3442 285.744 70.9335 286.363 72.0429 287.6C73.1522 288.837 73.7069 290.651 73.7069 293.04V302H69.6109V293.424C69.6109 292.059 69.3442 291.013 68.8109 290.288C68.2989 289.563 67.4989 289.2 66.4109 289.2C65.3015 289.2 64.4055 289.605 63.7229 290.416C63.0615 291.227 62.7309 292.357 62.7309 293.808V302H58.6349V293.424C58.6349 292.059 58.3682 291.013 57.8349 290.288C57.3015 289.563 56.4802 289.2 55.3709 289.2C54.2829 289.2 53.3975 289.605 52.7149 290.416C52.0535 291.227 51.7229 292.357 51.7229 293.808V302H47.6269ZM77.5956 309.04V286.128H81.2436L81.6916 288.4C82.2036 287.696 82.8756 287.077 83.7076 286.544C84.561 286.011 85.6596 285.744 87.0036 285.744C88.497 285.744 89.8303 286.107 91.0036 286.832C92.177 287.557 93.105 288.549 93.7876 289.808C94.4703 291.067 94.8116 292.496 94.8116 294.096C94.8116 295.696 94.4703 297.125 93.7876 298.384C93.105 299.621 92.177 300.603 91.0036 301.328C89.8303 302.032 88.497 302.384 87.0036 302.384C85.809 302.384 84.7636 302.16 83.8676 301.712C82.9716 301.264 82.2463 300.635 81.6916 299.824V309.04H77.5956ZM86.1396 298.8C87.441 298.8 88.5183 298.363 89.3716 297.488C90.225 296.613 90.6516 295.483 90.6516 294.096C90.6516 292.709 90.225 291.568 89.3716 290.672C88.5183 289.776 87.441 289.328 86.1396 289.328C84.817 289.328 83.729 289.776 82.8756 290.672C82.0436 291.547 81.6276 292.677 81.6276 294.064C81.6276 295.451 82.0436 296.592 82.8756 297.488C83.729 298.363 84.817 298.8 86.1396 298.8ZM104.423 302.384C102.439 302.384 100.903 301.765 99.8146 300.528C98.748 299.291 98.2146 297.477 98.2146 295.088V286.128H102.279V294.704C102.279 296.069 102.556 297.115 103.111 297.84C103.665 298.565 104.54 298.928 105.735 298.928C106.865 298.928 107.793 298.523 108.519 297.712C109.265 296.901 109.639 295.771 109.639 294.32V286.128H113.735V302H110.119L109.799 299.312C109.308 300.251 108.593 300.997 107.655 301.552C106.737 302.107 105.66 302.384 104.423 302.384ZM125.011 302C123.347 302 122.014 301.595 121.011 300.784C120.009 299.973 119.507 298.533 119.507 296.464V289.552H116.787V286.128H119.507L119.987 281.872H123.603V286.128H127.891V289.552H123.603V296.496C123.603 297.264 123.763 297.797 124.083 298.096C124.425 298.373 125.001 298.512 125.811 298.512H127.795V302H125.011ZM133.616 283.664C132.869 283.664 132.251 283.44 131.76 282.992C131.291 282.544 131.056 281.979 131.056 281.296C131.056 280.613 131.291 280.059 131.76 279.632C132.251 279.184 132.869 278.96 133.616 278.96C134.363 278.96 134.971 279.184 135.44 279.632C135.931 280.059 136.176 280.613 136.176 281.296C136.176 281.979 135.931 282.544 135.44 282.992C134.971 283.44 134.363 283.664 133.616 283.664ZM131.568 302V286.128H135.664V302H131.568ZM139.939 302V286.128H143.555L143.875 288.816C144.366 287.877 145.07 287.131 145.987 286.576C146.926 286.021 148.025 285.744 149.283 285.744C151.246 285.744 152.771 286.363 153.859 287.6C154.947 288.837 155.491 290.651 155.491 293.04V302H151.395V293.424C151.395 292.059 151.118 291.013 150.563 290.288C150.009 289.563 149.145 289.2 147.971 289.2C146.819 289.2 145.87 289.605 145.123 290.416C144.398 291.227 144.035 292.357 144.035 293.808V302H139.939ZM166.128 297.264C165.36 297.264 164.645 297.179 163.984 297.008L162.8 298.192C163.163 298.384 163.653 298.544 164.272 298.672C164.891 298.8 165.893 298.928 167.28 299.056C169.392 299.248 170.928 299.749 171.888 300.56C172.848 301.371 173.328 302.491 173.328 303.92C173.328 304.859 173.072 305.744 172.56 306.576C172.048 307.429 171.259 308.112 170.192 308.624C169.125 309.157 167.76 309.424 166.096 309.424C163.835 309.424 162.011 308.997 160.624 308.144C159.237 307.312 158.544 306.053 158.544 304.368C158.544 302.939 159.237 301.701 160.624 300.656C160.197 300.464 159.824 300.261 159.504 300.048C159.205 299.835 158.939 299.611 158.704 299.376V298.64L161.488 295.696C160.251 294.608 159.632 293.211 159.632 291.504C159.632 290.437 159.888 289.467 160.4 288.592C160.933 287.717 161.68 287.024 162.64 286.512C163.6 286 164.763 285.744 166.128 285.744C167.024 285.744 167.856 285.872 168.624 286.128H174.64V288.624L171.92 288.816C172.347 289.627 172.56 290.523 172.56 291.504C172.56 292.571 172.304 293.541 171.792 294.416C171.28 295.291 170.533 295.984 169.552 296.496C168.592 297.008 167.451 297.264 166.128 297.264ZM166.128 294.128C166.96 294.128 167.643 293.904 168.176 293.456C168.731 293.008 169.008 292.368 169.008 291.536C169.008 290.704 168.731 290.064 168.176 289.616C167.643 289.168 166.96 288.944 166.128 288.944C165.253 288.944 164.549 289.168 164.016 289.616C163.483 290.064 163.216 290.704 163.216 291.536C163.216 292.368 163.483 293.008 164.016 293.456C164.549 293.904 165.253 294.128 166.128 294.128ZM162.288 303.952C162.288 304.741 162.651 305.328 163.376 305.712C164.123 306.117 165.029 306.32 166.096 306.32C167.12 306.32 167.952 306.107 168.592 305.68C169.232 305.275 169.552 304.72 169.552 304.016C169.552 303.44 169.339 302.96 168.912 302.576C168.507 302.192 167.685 301.957 166.448 301.872C165.573 301.808 164.763 301.712 164.016 301.584C163.397 301.925 162.949 302.299 162.672 302.704C162.416 303.109 162.288 303.525 162.288 303.952ZM185.348 302V279.6H190.212L197.348 293.808L204.388 279.6H209.252V302H205.156V286.544L198.916 298.8H195.684L189.444 286.544V302H185.348ZM218.974 302.384C217.609 302.384 216.489 302.171 215.614 301.744C214.739 301.296 214.089 300.709 213.662 299.984C213.235 299.259 213.022 298.459 213.022 297.584C213.022 296.112 213.598 294.917 214.75 294C215.902 293.083 217.63 292.624 219.934 292.624H223.966V292.24C223.966 291.152 223.657 290.352 223.038 289.84C222.419 289.328 221.651 289.072 220.734 289.072C219.902 289.072 219.177 289.275 218.558 289.68C217.939 290.064 217.555 290.64 217.406 291.408H213.406C213.513 290.256 213.897 289.253 214.558 288.4C215.241 287.547 216.115 286.896 217.182 286.448C218.249 285.979 219.443 285.744 220.766 285.744C223.027 285.744 224.809 286.309 226.11 287.44C227.411 288.571 228.062 290.171 228.062 292.24V302H224.574L224.19 299.44C223.721 300.293 223.059 300.997 222.206 301.552C221.374 302.107 220.297 302.384 218.974 302.384ZM219.902 299.184C221.075 299.184 221.982 298.8 222.622 298.032C223.283 297.264 223.699 296.315 223.87 295.184H220.382C219.294 295.184 218.515 295.387 218.046 295.792C217.577 296.176 217.342 296.656 217.342 297.232C217.342 297.851 217.577 298.331 218.046 298.672C218.515 299.013 219.134 299.184 219.902 299.184ZM239.747 302.384C238.125 302.384 236.696 302.032 235.459 301.328C234.221 300.624 233.24 299.643 232.515 298.384C231.811 297.125 231.459 295.685 231.459 294.064C231.459 292.443 231.811 291.003 232.515 289.744C233.24 288.485 234.221 287.504 235.459 286.8C236.696 286.096 238.125 285.744 239.747 285.744C241.773 285.744 243.48 286.277 244.867 287.344C246.253 288.389 247.139 289.84 247.523 291.696H243.203C242.989 290.928 242.563 290.331 241.923 289.904C241.304 289.456 240.568 289.232 239.715 289.232C238.584 289.232 237.624 289.659 236.835 290.512C236.045 291.365 235.651 292.549 235.651 294.064C235.651 295.579 236.045 296.763 236.835 297.616C237.624 298.469 238.584 298.896 239.715 298.896C240.568 298.896 241.304 298.683 241.923 298.256C242.563 297.829 242.989 297.221 243.203 296.432H247.523C247.139 298.224 246.253 299.664 244.867 300.752C243.48 301.84 241.773 302.384 239.747 302.384ZM251.158 302V278.96H255.254V288.56C255.787 287.685 256.502 287.003 257.398 286.512C258.315 286 259.361 285.744 260.534 285.744C262.497 285.744 264.011 286.363 265.078 287.6C266.166 288.837 266.71 290.651 266.71 293.04V302H262.646V293.424C262.646 292.059 262.369 291.013 261.814 290.288C261.281 289.563 260.427 289.2 259.254 289.2C258.102 289.2 257.142 289.605 256.374 290.416C255.627 291.227 255.254 292.357 255.254 293.808V302H251.158ZM272.835 283.664C272.088 283.664 271.47 283.44 270.979 282.992C270.51 282.544 270.275 281.979 270.275 281.296C270.275 280.613 270.51 280.059 270.979 279.632C271.47 279.184 272.088 278.96 272.835 278.96C273.582 278.96 274.19 279.184 274.659 279.632C275.15 280.059 275.395 280.613 275.395 281.296C275.395 281.979 275.15 282.544 274.659 282.992C274.19 283.44 273.582 283.664 272.835 283.664ZM270.787 302V286.128H274.883V302H270.787ZM279.158 302V286.128H282.774L283.094 288.816C283.585 287.877 284.289 287.131 285.206 286.576C286.145 286.021 287.243 285.744 288.502 285.744C290.465 285.744 291.99 286.363 293.078 287.6C294.166 288.837 294.71 290.651 294.71 293.04V302H290.614V293.424C290.614 292.059 290.337 291.013 289.782 290.288C289.227 289.563 288.363 289.2 287.19 289.2C286.038 289.2 285.089 289.605 284.342 290.416C283.617 291.227 283.254 292.357 283.254 293.808V302H279.158ZM306.339 302.384C304.739 302.384 303.32 302.043 302.083 301.36C300.846 300.677 299.875 299.717 299.171 298.48C298.467 297.243 298.115 295.813 298.115 294.192C298.115 292.549 298.456 291.088 299.139 289.808C299.843 288.528 300.803 287.536 302.019 286.832C303.256 286.107 304.707 285.744 306.371 285.744C307.928 285.744 309.304 286.085 310.499 286.768C311.694 287.451 312.622 288.389 313.283 289.584C313.966 290.757 314.307 292.069 314.307 293.52C314.307 293.755 314.296 294 314.275 294.256C314.275 294.512 314.264 294.779 314.243 295.056H302.179C302.264 296.293 302.691 297.264 303.459 297.968C304.248 298.672 305.198 299.024 306.307 299.024C307.139 299.024 307.832 298.843 308.387 298.48C308.963 298.096 309.39 297.605 309.667 297.008H313.827C313.528 298.011 313.027 298.928 312.323 299.76C311.64 300.571 310.787 301.211 309.763 301.68C308.76 302.149 307.619 302.384 306.339 302.384ZM306.371 289.072C305.368 289.072 304.483 289.36 303.715 289.936C302.947 290.491 302.456 291.344 302.243 292.496H310.147C310.083 291.451 309.699 290.619 308.995 290C308.291 289.381 307.416 289.072 306.371 289.072ZM317.752 302V286.128H321.4L321.784 289.104C322.36 288.08 323.139 287.269 324.12 286.672C325.123 286.053 326.296 285.744 327.64 285.744V290.064H326.488C325.592 290.064 324.792 290.203 324.088 290.48C323.384 290.757 322.829 291.237 322.424 291.92C322.04 292.603 321.848 293.552 321.848 294.768V302H317.752ZM332.423 309.04L336.103 300.944H335.143L328.967 286.128H333.415L337.863 297.296L342.503 286.128H346.855L336.775 309.04H332.423Z" fill="#333333"/>
<path d="M67.84 344L61.528 327.2H63.712L69.016 341.864L74.368 327.2H76.504L70.192 344H67.84ZM78.8073 344V327.2H80.8233V344H78.8073ZM88.3214 344V328.856H83.3054V327.2H95.3534V328.856H90.3374V344H88.3214ZM109.519 344.288C108.287 344.288 107.215 344.064 106.303 343.616C105.391 343.168 104.687 342.544 104.191 341.744C103.695 340.944 103.447 340.016 103.447 338.96H105.559C105.559 339.616 105.711 340.224 106.015 340.784C106.319 341.328 106.759 341.768 107.335 342.104C107.927 342.424 108.655 342.584 109.519 342.584C110.655 342.584 111.535 342.312 112.159 341.768C112.783 341.224 113.095 340.544 113.095 339.728C113.095 339.056 112.951 338.52 112.663 338.12C112.375 337.704 111.983 337.368 111.487 337.112C111.007 336.856 110.447 336.632 109.807 336.44C109.183 336.248 108.527 336.032 107.839 335.792C106.543 335.344 105.583 334.792 104.959 334.136C104.335 333.464 104.023 332.592 104.023 331.52C104.007 330.624 104.215 329.832 104.647 329.144C105.079 328.44 105.687 327.896 106.471 327.512C107.271 327.112 108.215 326.912 109.303 326.912C110.375 326.912 111.303 327.112 112.087 327.512C112.887 327.912 113.503 328.464 113.935 329.168C114.383 329.872 114.615 330.672 114.631 331.568H112.519C112.519 331.104 112.399 330.648 112.159 330.2C111.919 329.736 111.551 329.36 111.055 329.072C110.575 328.784 109.967 328.64 109.231 328.64C108.319 328.624 107.567 328.856 106.975 329.336C106.399 329.816 106.111 330.48 106.111 331.328C106.111 332.048 106.311 332.6 106.711 332.984C107.127 333.368 107.703 333.688 108.439 333.944C109.175 334.184 110.023 334.464 110.983 334.784C111.783 335.072 112.503 335.408 113.143 335.792C113.783 336.176 114.279 336.672 114.631 337.28C114.999 337.888 115.183 338.664 115.183 339.608C115.183 340.408 114.975 341.168 114.559 341.888C114.143 342.592 113.511 343.168 112.663 343.616C111.831 344.064 110.783 344.288 109.519 344.288ZM122.626 344C121.538 344 120.682 343.736 120.058 343.208C119.434 342.68 119.122 341.728 119.122 340.352V333.8H117.058V332.096H119.122L119.386 329.24H121.138V332.096H124.642V333.8H121.138V340.352C121.138 341.104 121.29 341.616 121.594 341.888C121.898 342.144 122.434 342.272 123.202 342.272H124.45V344H122.626ZM131.547 344.288C130.139 344.288 129.019 343.864 128.187 343.016C127.355 342.152 126.939 340.832 126.939 339.056V332.096H128.955V338.84C128.955 341.32 129.971 342.56 132.003 342.56C133.043 342.56 133.899 342.192 134.571 341.456C135.259 340.704 135.603 339.64 135.603 338.264V332.096H137.619V344H135.795L135.651 341.864C135.283 342.616 134.731 343.208 133.995 343.64C133.275 344.072 132.459 344.288 131.547 344.288ZM146.337 344.288C145.153 344.288 144.113 344.016 143.217 343.472C142.337 342.928 141.649 342.184 141.153 341.24C140.673 340.296 140.433 339.224 140.433 338.024C140.433 336.824 140.681 335.76 141.177 334.832C141.673 333.888 142.361 333.152 143.241 332.624C144.121 332.08 145.161 331.808 146.361 331.808C147.337 331.808 148.201 332.008 148.953 332.408C149.705 332.808 150.289 333.368 150.705 334.088V326.72H152.721V344H150.897L150.705 342.032C150.321 342.608 149.769 343.128 149.049 343.592C148.329 344.056 147.425 344.288 146.337 344.288ZM146.553 342.536C147.353 342.536 148.057 342.352 148.665 341.984C149.289 341.6 149.769 341.072 150.105 340.4C150.457 339.728 150.633 338.944 150.633 338.048C150.633 337.152 150.457 336.368 150.105 335.696C149.769 335.024 149.289 334.504 148.665 334.136C148.057 333.752 147.353 333.56 146.553 333.56C145.769 333.56 145.065 333.752 144.441 334.136C143.833 334.504 143.353 335.024 143.001 335.696C142.665 336.368 142.497 337.152 142.497 338.048C142.497 338.944 142.665 339.728 143.001 340.4C143.353 341.072 143.833 341.6 144.441 341.984C145.065 342.352 145.769 342.536 146.553 342.536ZM161.36 344.288C160.224 344.288 159.216 344.032 158.336 343.52C157.456 342.992 156.76 342.264 156.248 341.336C155.752 340.408 155.504 339.312 155.504 338.048C155.504 336.8 155.752 335.712 156.248 334.784C156.744 333.84 157.432 333.112 158.312 332.6C159.208 332.072 160.24 331.808 161.408 331.808C162.56 331.808 163.552 332.072 164.384 332.6C165.232 333.112 165.88 333.792 166.328 334.64C166.776 335.488 167 336.4 167 337.376C167 337.552 166.992 337.728 166.976 337.904C166.976 338.08 166.976 338.28 166.976 338.504H157.496C157.544 339.416 157.752 340.176 158.12 340.784C158.504 341.376 158.976 341.824 159.536 342.128C160.112 342.432 160.72 342.584 161.36 342.584C162.192 342.584 162.888 342.392 163.448 342.008C164.008 341.624 164.416 341.104 164.672 340.448H166.664C166.344 341.552 165.728 342.472 164.816 343.208C163.92 343.928 162.768 344.288 161.36 344.288ZM161.36 333.512C160.4 333.512 159.544 333.808 158.792 334.4C158.056 334.976 157.632 335.824 157.52 336.944H165.008C164.96 335.872 164.592 335.032 163.904 334.424C163.216 333.816 162.368 333.512 161.36 333.512ZM169.672 344V332.096H171.496L171.616 334.232C172 333.48 172.552 332.888 173.272 332.456C173.992 332.024 174.808 331.808 175.72 331.808C177.128 331.808 178.248 332.24 179.08 333.104C179.928 333.952 180.352 335.264 180.352 337.04V344H178.336V337.256C178.336 334.776 177.312 333.536 175.264 333.536C174.24 333.536 173.384 333.912 172.696 334.664C172.024 335.4 171.688 336.456 171.688 337.832V344H169.672ZM188.11 344C187.022 344 186.166 343.736 185.542 343.208C184.918 342.68 184.606 341.728 184.606 340.352V333.8H182.542V332.096H184.606L184.87 329.24H186.622V332.096H190.126V333.8H186.622V340.352C186.622 341.104 186.774 341.616 187.078 341.888C187.382 342.144 187.918 342.272 188.686 342.272H189.934V344H188.11ZM206.527 344.288C204.879 344.288 203.455 343.928 202.255 343.208C201.071 342.472 200.151 341.456 199.495 340.16C198.839 338.848 198.511 337.328 198.511 335.6C198.511 333.888 198.839 332.384 199.495 331.088C200.151 329.776 201.071 328.752 202.255 328.016C203.455 327.28 204.879 326.912 206.527 326.912C208.447 326.912 210.007 327.376 211.207 328.304C212.423 329.216 213.199 330.496 213.535 332.144H211.303C211.047 331.104 210.519 330.272 209.719 329.648C208.935 329.008 207.871 328.688 206.527 328.688C205.327 328.688 204.279 328.968 203.383 329.528C202.487 330.072 201.791 330.864 201.295 331.904C200.815 332.928 200.575 334.16 200.575 335.6C200.575 337.04 200.815 338.28 201.295 339.32C201.791 340.344 202.487 341.136 203.383 341.696C204.279 342.24 205.327 342.512 206.527 342.512C207.871 342.512 208.935 342.208 209.719 341.6C210.519 340.976 211.047 340.152 211.303 339.128H213.535C213.199 340.744 212.423 342.008 211.207 342.92C210.007 343.832 208.447 344.288 206.527 344.288ZM216.312 344V326.72H218.328V334.136C218.728 333.4 219.296 332.832 220.032 332.432C220.768 332.016 221.568 331.808 222.432 331.808C223.808 331.808 224.912 332.24 225.744 333.104C226.576 333.952 226.992 335.264 226.992 337.04V344H225V337.256C225 334.776 224 333.536 222 333.536C220.96 333.536 220.088 333.912 219.384 334.664C218.68 335.4 218.328 336.456 218.328 337.832V344H216.312ZM234.007 344.288C233.015 344.288 232.191 344.12 231.535 343.784C230.879 343.448 230.391 343 230.071 342.44C229.751 341.88 229.591 341.272 229.591 340.616C229.591 339.4 230.055 338.464 230.983 337.808C231.911 337.152 233.175 336.824 234.775 336.824H237.991V336.68C237.991 335.64 237.719 334.856 237.175 334.328C236.631 333.784 235.903 333.512 234.991 333.512C234.207 333.512 233.527 333.712 232.951 334.112C232.391 334.496 232.039 335.064 231.895 335.816H229.831C229.911 334.952 230.199 334.224 230.695 333.632C231.207 333.04 231.839 332.592 232.591 332.288C233.343 331.968 234.143 331.808 234.991 331.808C236.655 331.808 237.903 332.256 238.735 333.152C239.583 334.032 240.007 335.208 240.007 336.68V344H238.207L238.087 341.864C237.751 342.536 237.255 343.112 236.599 343.592C235.959 344.056 235.095 344.288 234.007 344.288ZM234.319 342.584C235.087 342.584 235.743 342.384 236.287 341.984C236.847 341.584 237.271 341.064 237.559 340.424C237.847 339.784 237.991 339.112 237.991 338.408V338.384H234.943C233.759 338.384 232.919 338.592 232.423 339.008C231.943 339.408 231.703 339.912 231.703 340.52C231.703 341.144 231.927 341.648 232.375 342.032C232.839 342.4 233.487 342.584 234.319 342.584ZM243.031 349.28V332.096H244.855L245.047 334.064C245.431 333.488 245.975 332.968 246.679 332.504C247.399 332.04 248.311 331.808 249.415 331.808C250.599 331.808 251.631 332.08 252.511 332.624C253.391 333.168 254.071 333.912 254.551 334.856C255.047 335.8 255.295 336.872 255.295 338.072C255.295 339.272 255.047 340.344 254.551 341.288C254.071 342.216 253.383 342.952 252.487 343.496C251.607 344.024 250.575 344.288 249.391 344.288C248.415 344.288 247.543 344.088 246.775 343.688C246.023 343.288 245.447 342.728 245.047 342.008V349.28H243.031ZM249.175 342.536C249.975 342.536 250.679 342.352 251.287 341.984C251.895 341.6 252.375 341.072 252.727 340.4C253.079 339.728 253.255 338.944 253.255 338.048C253.255 337.152 253.079 336.368 252.727 335.696C252.375 335.024 251.895 334.504 251.287 334.136C250.679 333.752 249.975 333.56 249.175 333.56C248.375 333.56 247.671 333.752 247.063 334.136C246.455 334.504 245.975 335.024 245.623 335.696C245.271 336.368 245.095 337.152 245.095 338.048C245.095 338.944 245.271 339.728 245.623 340.4C245.975 341.072 246.455 341.6 247.063 341.984C247.671 342.352 248.375 342.536 249.175 342.536ZM262.337 344C261.249 344 260.393 343.736 259.769 343.208C259.145 342.68 258.833 341.728 258.833 340.352V333.8H256.769V332.096H258.833L259.097 329.24H260.849V332.096H264.353V333.8H260.849V340.352C260.849 341.104 261.001 341.616 261.305 341.888C261.609 342.144 262.145 342.272 262.913 342.272H264.161V344H262.337ZM271.938 344.288C270.802 344.288 269.794 344.032 268.914 343.52C268.034 342.992 267.338 342.264 266.826 341.336C266.33 340.408 266.082 339.312 266.082 338.048C266.082 336.8 266.33 335.712 266.826 334.784C267.322 333.84 268.01 333.112 268.89 332.6C269.786 332.072 270.818 331.808 271.986 331.808C273.138 331.808 274.13 332.072 274.962 332.6C275.81 333.112 276.458 333.792 276.906 334.64C277.354 335.488 277.578 336.4 277.578 337.376C277.578 337.552 277.57 337.728 277.554 337.904C277.554 338.08 277.554 338.28 277.554 338.504H268.074C268.122 339.416 268.33 340.176 268.698 340.784C269.082 341.376 269.554 341.824 270.114 342.128C270.69 342.432 271.298 342.584 271.938 342.584C272.77 342.584 273.466 342.392 274.026 342.008C274.586 341.624 274.994 341.104 275.25 340.448H277.242C276.922 341.552 276.306 342.472 275.394 343.208C274.498 343.928 273.346 344.288 271.938 344.288ZM271.938 333.512C270.978 333.512 270.122 333.808 269.37 334.4C268.634 334.976 268.21 335.824 268.098 336.944H275.586C275.538 335.872 275.17 335.032 274.482 334.424C273.794 333.816 272.946 333.512 271.938 333.512ZM280.25 344V332.096H282.074L282.242 334.376C282.61 333.592 283.17 332.968 283.922 332.504C284.674 332.04 285.602 331.808 286.706 331.808V333.92H286.154C285.45 333.92 284.802 334.048 284.21 334.304C283.618 334.544 283.146 334.96 282.794 335.552C282.442 336.144 282.266 336.96 282.266 338V344H280.25Z" fill="#333333"/>
</g>
<defs>
<clipPath id="clip0_564_82">
<rect width="350" height="351" fill="white"/>
</clipPath>
</defs>
</svg>
