<svg width="577" height="200" viewBox="0 0 577 200" fill="none" xmlns="http://www.w3.org/2000/svg">
<path fill-rule="evenodd" clip-rule="evenodd" d="M122.51 9.37258C110.013 -3.12419 89.7516 -3.1242 77.2548 9.37258L9.37258 77.2548C-3.12419 89.7516 -3.1242 110.013 9.37258 122.51L77.2548 190.392C89.7516 202.889 110.013 202.889 122.51 190.392L190.392 122.51C202.889 110.013 202.889 89.7516 190.392 77.2548L122.51 9.37258ZM72.2075 106.478C72.194 108.815 72.2345 111.164 72.4775 113.5C72.519 113.88 72.571 114.26 72.6228 114.638C72.6722 114.999 72.7216 115.359 72.7611 115.715C72.5667 115.844 72.3722 115.836 72.1778 115.827C72.1659 115.826 72.1541 115.826 72.1423 115.825C72.1055 115.824 72.0687 115.823 72.0319 115.823H63.7005C63.6645 115.823 63.6285 115.821 63.5925 115.82C63.5205 115.817 63.4484 115.814 63.3764 115.823C63.0253 115.863 62.9173 115.688 62.9038 115.35C62.8796 114.656 62.8409 113.967 62.8022 113.277L62.8021 113.275C62.7761 112.811 62.75 112.347 62.7283 111.88C62.7195 111.696 62.7221 111.512 62.725 111.306C62.7266 111.195 62.7283 111.076 62.7283 110.948C62.3895 111.064 62.2665 111.272 62.1512 111.467C62.1194 111.521 62.0881 111.574 62.0531 111.623C60.6893 113.568 59.0149 115.107 56.7329 115.917C55.315 116.43 53.8432 116.619 52.3579 116.579C50.1974 116.525 48.0774 116.16 46.1059 115.188C43.2973 113.811 41.5554 111.637 41.0422 108.517C41.0017 108.274 40.9612 108.031 40.7452 107.869V105.439C40.984 105.314 41.0121 105.083 41.0392 104.86C41.0424 104.834 41.0455 104.809 41.0489 104.784C41.051 104.768 41.0533 104.752 41.0557 104.737C41.5418 101.887 43.1352 99.8079 45.6063 98.3901C47.5507 97.2693 49.6842 96.6887 51.8853 96.3646C55.072 95.892 58.2722 95.8515 61.4725 96.3241C62.1206 96.4186 62.1746 96.3781 62.1071 95.7165C61.9181 93.8801 61.0809 92.5027 59.366 91.7196C58.5558 91.3415 57.6916 91.1119 56.8004 91.0444C53.2896 90.7878 49.8463 91.1389 46.565 92.5027C46.2936 92.6201 46.0302 92.7454 45.7683 92.8701L45.7673 92.8705C45.5474 92.9752 45.3284 93.0793 45.1067 93.1779C44.9151 93.0715 44.9332 92.9147 44.9495 92.7738C44.9539 92.7359 44.9581 92.6991 44.9581 92.6648L44.954 92.5111C44.9014 90.5645 44.8491 88.6301 44.8096 86.6829C44.7962 85.9994 44.8094 85.9943 45.4168 85.7566L45.4308 85.7512C48.0909 84.7249 50.859 84.1578 53.6947 83.9147C55.7607 83.7392 57.8266 83.6717 59.9061 83.9012C62.3097 84.1713 64.6187 84.7384 66.7252 85.9942C69.7364 87.7901 71.3838 90.4773 71.9914 93.8665C72.167 94.7983 72.2075 95.7435 72.2075 96.6887V106.478ZM51.1156 106.857C51.5207 108.139 52.4929 108.842 53.7352 109.139C58.8124 110.381 61.9721 106.168 62.1341 102.347C62.1476 102.049 62.0531 101.914 61.729 101.901C61.0958 101.874 60.4658 101.844 59.8359 101.813L59.8318 101.813C59.2006 101.783 58.5693 101.752 57.9347 101.725C57.1245 101.685 56.3143 101.779 55.5176 101.887C54.4373 102.022 53.3976 102.306 52.4929 102.941C51.2236 103.818 50.6565 105.412 51.1156 106.857ZM101.415 93.3265C101.037 93.1374 100.686 92.9619 100.308 92.7998C97.877 91.7196 95.3384 91.3685 92.7323 91.9761C89.424 92.7593 87.1825 95.3519 86.7234 98.7142C86.4938 100.375 86.5478 102.009 87.2365 103.548C88.5328 106.452 90.8823 108.018 93.9475 108.517C96.5131 108.923 98.9977 108.504 101.401 107.572C101.513 107.529 101.625 107.482 101.734 107.437C101.862 107.384 101.987 107.332 102.103 107.289C102.269 107.333 102.272 107.422 102.275 107.505C102.276 107.517 102.276 107.528 102.277 107.54C102.277 107.546 102.278 107.553 102.279 107.559C102.301 108.334 102.322 109.109 102.343 109.883C102.385 111.452 102.427 113.02 102.482 114.594C102.495 115.053 102.346 115.256 101.901 115.391C100.213 115.89 98.4981 116.214 96.7562 116.417C93.4479 116.795 90.1802 116.592 86.9934 115.634C83.3746 114.54 80.3364 112.595 78.1489 109.463C76.6365 107.289 75.8398 104.858 75.5428 102.239C75.2592 99.6189 75.4888 97.0668 76.3259 94.5823C77.8383 90.1532 80.9035 87.1555 85.184 85.3866C88.4518 84.0363 91.8816 83.6177 95.4059 83.8608C97.5259 84.0093 99.5783 84.3874 101.536 85.2111C102.281 85.5246 102.28 85.5348 102.206 86.2566L102.198 86.3318C101.995 88.2898 101.806 90.2477 101.617 92.2057C101.613 92.2662 101.609 92.3275 101.606 92.3896C101.589 92.6875 101.571 93.0024 101.415 93.3265ZM116.459 89.8571C116.402 89.9836 116.336 90.1297 116.066 90.1532V85.2921C116.066 84.5494 116.066 84.5359 115.323 84.5359H106.992C106.235 84.5359 106.222 84.5359 106.222 85.2786V115.147C106.222 115.836 106.235 115.85 106.938 115.85H116.322C117.024 115.85 117.024 115.836 117.038 115.148L117.038 102.36C117.038 101.172 117.132 99.997 117.348 98.8222C117.605 97.3774 118.051 96.0001 118.942 94.7983C120.292 92.9889 122.48 92.5297 124.289 92.9213C125.747 93.2319 126.571 94.2852 127.057 95.622C127.476 96.7697 127.57 97.985 127.57 99.2003V114.823C127.57 114.886 127.572 114.949 127.573 115.012C127.576 115.138 127.579 115.265 127.57 115.391C127.543 115.755 127.732 115.863 128.056 115.836C128.146 115.827 128.237 115.83 128.327 115.833C128.372 115.835 128.417 115.836 128.462 115.836H138.008C138.278 115.85 138.4 115.715 138.386 115.445C138.377 115.319 138.38 115.193 138.383 115.066C138.385 115.003 138.386 114.94 138.386 114.877C138.386 113.554 138.388 112.231 138.389 110.91C138.392 108.267 138.395 105.627 138.386 102.981C138.386 101.82 138.413 100.659 138.575 99.5109C138.764 98.1335 139.089 96.8102 139.764 95.5815C140.412 94.4202 141.303 93.502 142.613 93.0969C145.57 92.1922 147.852 93.2049 148.608 96.3241C148.811 97.1748 148.905 98.0255 148.905 98.8897V115.485C148.905 115.701 148.986 115.836 149.229 115.836H158.857C159.325 115.836 159.542 115.849 159.641 115.748C159.742 115.645 159.721 115.422 159.721 114.945C159.721 113.153 159.72 111.363 159.718 109.573C159.715 105.994 159.712 102.418 159.721 98.8357C159.721 97.3774 159.681 95.9325 159.6 94.4742C159.532 93.0969 159.316 91.7331 158.938 90.4098C157.952 86.8989 155.67 84.7789 152.092 84.0903C150.229 83.7392 148.352 83.6447 146.461 83.9282C143.693 84.3468 141.263 85.4541 139.278 87.4931C138.779 88.0015 138.358 88.5712 137.938 89.1387C137.8 89.3248 137.662 89.5107 137.522 89.6941C137.342 89.5563 137.262 89.3768 137.183 89.2015C137.162 89.1535 137.14 89.1059 137.117 89.0594C135.983 86.7909 134.214 85.2651 131.837 84.4414C129.393 83.5907 126.909 83.5772 124.411 84.0903C120.94 84.806 118.199 86.6019 116.484 89.8021C116.476 89.8197 116.467 89.8382 116.459 89.8571Z" fill="#135DE2"/>
<path d="M216.481 66L224.673 43.6H229.281L237.473 66H233.121L231.329 60.816H222.593L220.769 66H216.481ZM223.713 57.616H230.209L226.945 48.304L223.713 57.616Z" fill="#135DE2"/>
<path d="M246.823 66.384C245.415 66.384 244.177 66.16 243.111 65.712C242.044 65.2427 241.191 64.6027 240.551 63.792C239.911 62.9813 239.527 62.0427 239.399 60.976H243.527C243.655 61.5947 243.996 62.128 244.551 62.576C245.127 63.0027 245.863 63.216 246.759 63.216C247.655 63.216 248.305 63.0347 248.711 62.672C249.137 62.3093 249.351 61.8933 249.351 61.424C249.351 60.7413 249.052 60.2827 248.455 60.048C247.857 59.792 247.025 59.5467 245.959 59.312C245.276 59.1627 244.583 58.9813 243.879 58.768C243.175 58.5547 242.524 58.288 241.927 57.968C241.351 57.6267 240.881 57.2 240.519 56.688C240.156 56.1547 239.975 55.504 239.975 54.736C239.975 53.328 240.529 52.144 241.639 51.184C242.769 50.224 244.348 49.744 246.375 49.744C248.252 49.744 249.745 50.1813 250.855 51.056C251.985 51.9307 252.657 53.136 252.871 54.672H248.999C248.764 53.4987 247.879 52.912 246.343 52.912C245.575 52.912 244.977 53.0613 244.551 53.36C244.145 53.6587 243.943 54.032 243.943 54.48C243.943 54.9493 244.252 55.3227 244.871 55.6C245.489 55.8773 246.311 56.1333 247.335 56.368C248.444 56.624 249.457 56.912 250.375 57.232C251.313 57.5307 252.06 57.9893 252.615 58.608C253.169 59.2053 253.447 60.0693 253.447 61.2C253.468 62.1813 253.212 63.0667 252.679 63.856C252.145 64.6453 251.377 65.264 250.375 65.712C249.372 66.16 248.188 66.384 246.823 66.384Z" fill="#135DE2"/>
<path d="M263.635 66.384C262.227 66.384 260.99 66.16 259.923 65.712C258.856 65.2427 258.003 64.6027 257.363 63.792C256.723 62.9813 256.339 62.0427 256.211 60.976H260.339C260.467 61.5947 260.808 62.128 261.363 62.576C261.939 63.0027 262.675 63.216 263.571 63.216C264.467 63.216 265.118 63.0347 265.523 62.672C265.95 62.3093 266.163 61.8933 266.163 61.424C266.163 60.7413 265.864 60.2827 265.267 60.048C264.67 59.792 263.838 59.5467 262.771 59.312C262.088 59.1627 261.395 58.9813 260.691 58.768C259.987 58.5547 259.336 58.288 258.739 57.968C258.163 57.6267 257.694 57.2 257.331 56.688C256.968 56.1547 256.787 55.504 256.787 54.736C256.787 53.328 257.342 52.144 258.451 51.184C259.582 50.224 261.16 49.744 263.187 49.744C265.064 49.744 266.558 50.1813 267.667 51.056C268.798 51.9307 269.47 53.136 269.683 54.672H265.811C265.576 53.4987 264.691 52.912 263.155 52.912C262.387 52.912 261.79 53.0613 261.363 53.36C260.958 53.6587 260.755 54.032 260.755 54.48C260.755 54.9493 261.064 55.3227 261.683 55.6C262.302 55.8773 263.123 56.1333 264.147 56.368C265.256 56.624 266.27 56.912 267.187 57.232C268.126 57.5307 268.872 57.9893 269.427 58.608C269.982 59.2053 270.259 60.0693 270.259 61.2C270.28 62.1813 270.024 63.0667 269.491 63.856C268.958 64.6453 268.19 65.264 267.187 65.712C266.184 66.16 265 66.384 263.635 66.384Z" fill="#135DE2"/>
<path d="M281.504 66.384C279.968 66.384 278.581 66.032 277.344 65.328C276.128 64.624 275.157 63.6533 274.432 62.416C273.728 61.1573 273.376 59.7067 273.376 58.064C273.376 56.4213 273.738 54.9813 274.464 53.744C275.189 52.4853 276.16 51.504 277.376 50.8C278.613 50.096 280 49.744 281.536 49.744C283.05 49.744 284.416 50.096 285.632 50.8C286.869 51.504 287.84 52.4853 288.544 53.744C289.269 54.9813 289.632 56.4213 289.632 58.064C289.632 59.7067 289.269 61.1573 288.544 62.416C287.84 63.6533 286.869 64.624 285.632 65.328C284.394 66.032 283.018 66.384 281.504 66.384ZM281.504 62.832C282.57 62.832 283.498 62.4373 284.288 61.648C285.077 60.8373 285.472 59.6427 285.472 58.064C285.472 56.4853 285.077 55.3013 284.288 54.512C283.498 53.7013 282.581 53.296 281.536 53.296C280.448 53.296 279.509 53.7013 278.72 54.512C277.952 55.3013 277.568 56.4853 277.568 58.064C277.568 59.6427 277.952 60.8373 278.72 61.648C279.509 62.4373 280.437 62.832 281.504 62.832Z" fill="#135DE2"/>
<path d="M301.07 66.384C299.449 66.384 298.019 66.032 296.782 65.328C295.545 64.624 294.563 63.6427 293.838 62.384C293.134 61.1253 292.782 59.6853 292.782 58.064C292.782 56.4427 293.134 55.0027 293.838 53.744C294.563 52.4853 295.545 51.504 296.782 50.8C298.019 50.096 299.449 49.744 301.07 49.744C303.097 49.744 304.803 50.2773 306.19 51.344C307.577 52.3893 308.462 53.84 308.846 55.696H304.526C304.313 54.928 303.886 54.3307 303.246 53.904C302.627 53.456 301.891 53.232 301.038 53.232C299.907 53.232 298.947 53.6587 298.158 54.512C297.369 55.3653 296.974 56.5493 296.974 58.064C296.974 59.5787 297.369 60.7627 298.158 61.616C298.947 62.4693 299.907 62.896 301.038 62.896C301.891 62.896 302.627 62.6827 303.246 62.256C303.886 61.8293 304.313 61.2213 304.526 60.432H308.846C308.462 62.224 307.577 63.664 306.19 64.752C304.803 65.84 303.097 66.384 301.07 66.384Z" fill="#135DE2"/>
<path d="M314.689 47.664C313.943 47.664 313.324 47.44 312.833 46.992C312.364 46.544 312.129 45.9787 312.129 45.296C312.129 44.6133 312.364 44.0587 312.833 43.632C313.324 43.184 313.943 42.96 314.689 42.96C315.436 42.96 316.044 43.184 316.513 43.632C317.004 44.0587 317.249 44.6133 317.249 45.296C317.249 45.9787 317.004 46.544 316.513 46.992C316.044 47.44 315.436 47.664 314.689 47.664ZM312.641 66V50.128H316.737V66H312.641Z" fill="#135DE2"/>
<path d="M326.485 66.384C325.119 66.384 323.999 66.1707 323.125 65.744C322.25 65.296 321.599 64.7093 321.173 63.984C320.746 63.2587 320.533 62.4587 320.533 61.584C320.533 60.112 321.109 58.9173 322.261 58C323.413 57.0827 325.141 56.624 327.445 56.624H331.477V56.24C331.477 55.152 331.167 54.352 330.549 53.84C329.93 53.328 329.162 53.072 328.245 53.072C327.413 53.072 326.687 53.2747 326.069 53.68C325.45 54.064 325.066 54.64 324.917 55.408H320.917C321.023 54.256 321.407 53.2533 322.069 52.4C322.751 51.5467 323.626 50.896 324.693 50.448C325.759 49.9787 326.954 49.744 328.277 49.744C330.538 49.744 332.319 50.3093 333.621 51.44C334.922 52.5707 335.573 54.1707 335.573 56.24V66H332.085L331.701 63.44C331.231 64.2933 330.57 64.9973 329.717 65.552C328.885 66.1067 327.807 66.384 326.485 66.384ZM327.413 63.184C328.586 63.184 329.493 62.8 330.133 62.032C330.794 61.264 331.21 60.3147 331.381 59.184H327.893C326.805 59.184 326.026 59.3867 325.557 59.792C325.087 60.176 324.853 60.656 324.853 61.232C324.853 61.8507 325.087 62.3307 325.557 62.672C326.026 63.0133 326.645 63.184 327.413 63.184Z" fill="#135DE2"/>
<path d="M346.335 66C344.671 66 343.337 65.5947 342.335 64.784C341.332 63.9733 340.831 62.5333 340.831 60.464V53.552H338.111V50.128H340.831L341.311 45.872H344.927V50.128H349.215V53.552H344.927V60.496C344.927 61.264 345.087 61.7973 345.407 62.096C345.748 62.3733 346.324 62.512 347.135 62.512H349.119V66H346.335Z" fill="#135DE2"/>
<path d="M354.939 47.664C354.193 47.664 353.574 47.44 353.083 46.992C352.614 46.544 352.379 45.9787 352.379 45.296C352.379 44.6133 352.614 44.0587 353.083 43.632C353.574 43.184 354.193 42.96 354.939 42.96C355.686 42.96 356.294 43.184 356.763 43.632C357.254 44.0587 357.499 44.6133 357.499 45.296C357.499 45.9787 357.254 46.544 356.763 46.992C356.294 47.44 355.686 47.664 354.939 47.664ZM352.891 66V50.128H356.987V66H352.891Z" fill="#135DE2"/>
<path d="M368.879 66.384C367.343 66.384 365.956 66.032 364.719 65.328C363.503 64.624 362.532 63.6533 361.807 62.416C361.103 61.1573 360.751 59.7067 360.751 58.064C360.751 56.4213 361.113 54.9813 361.839 53.744C362.564 52.4853 363.535 51.504 364.751 50.8C365.988 50.096 367.375 49.744 368.911 49.744C370.425 49.744 371.791 50.096 373.007 50.8C374.244 51.504 375.215 52.4853 375.919 53.744C376.644 54.9813 377.007 56.4213 377.007 58.064C377.007 59.7067 376.644 61.1573 375.919 62.416C375.215 63.6533 374.244 64.624 373.007 65.328C371.769 66.032 370.393 66.384 368.879 66.384ZM368.879 62.832C369.945 62.832 370.873 62.4373 371.663 61.648C372.452 60.8373 372.847 59.6427 372.847 58.064C372.847 56.4853 372.452 55.3013 371.663 54.512C370.873 53.7013 369.956 53.296 368.911 53.296C367.823 53.296 366.884 53.7013 366.095 54.512C365.327 55.3013 364.943 56.4853 364.943 58.064C364.943 59.6427 365.327 60.8373 366.095 61.648C366.884 62.4373 367.812 62.832 368.879 62.832Z" fill="#135DE2"/>
<path d="M380.669 66V50.128H384.285L384.605 52.816C385.096 51.8773 385.8 51.1307 386.717 50.576C387.656 50.0213 388.754 49.744 390.013 49.744C391.976 49.744 393.501 50.3627 394.589 51.6C395.677 52.8373 396.221 54.6507 396.221 57.04V66H392.125V57.424C392.125 56.0587 391.848 55.0133 391.293 54.288C390.738 53.5627 389.874 53.2 388.701 53.2C387.549 53.2 386.6 53.6053 385.853 54.416C385.128 55.2267 384.765 56.3573 384.765 57.808V66H380.669Z" fill="#135DE2"/>
<path d="M408.499 66V53.552H406.323V50.128H408.499V48.272C408.499 46.352 408.979 44.9867 409.939 44.176C410.92 43.3653 412.243 42.96 413.907 42.96H415.667V46.448H414.547C413.843 46.448 413.341 46.5867 413.043 46.864C412.744 47.1413 412.595 47.6107 412.595 48.272V50.128H416.019V53.552H412.595V66H408.499Z" fill="#135DE2"/>
<path d="M426.254 66.384C424.718 66.384 423.331 66.032 422.094 65.328C420.878 64.624 419.907 63.6533 419.182 62.416C418.478 61.1573 418.126 59.7067 418.126 58.064C418.126 56.4213 418.488 54.9813 419.214 53.744C419.939 52.4853 420.91 51.504 422.126 50.8C423.363 50.096 424.75 49.744 426.286 49.744C427.8 49.744 429.166 50.096 430.382 50.8C431.619 51.504 432.59 52.4853 433.294 53.744C434.019 54.9813 434.382 56.4213 434.382 58.064C434.382 59.7067 434.019 61.1573 433.294 62.416C432.59 63.6533 431.619 64.624 430.382 65.328C429.144 66.032 427.768 66.384 426.254 66.384ZM426.254 62.832C427.32 62.832 428.248 62.4373 429.038 61.648C429.827 60.8373 430.222 59.6427 430.222 58.064C430.222 56.4853 429.827 55.3013 429.038 54.512C428.248 53.7013 427.331 53.296 426.286 53.296C425.198 53.296 424.259 53.7013 423.47 54.512C422.702 55.3013 422.318 56.4853 422.318 58.064C422.318 59.6427 422.702 60.8373 423.47 61.648C424.259 62.4373 425.187 62.832 426.254 62.832Z" fill="#135DE2"/>
<path d="M438.044 66V50.128H441.692L442.076 53.104C442.652 52.08 443.431 51.2693 444.412 50.672C445.415 50.0533 446.588 49.744 447.932 49.744V54.064H446.78C445.884 54.064 445.084 54.2027 444.38 54.48C443.676 54.7573 443.121 55.2373 442.716 55.92C442.332 56.6027 442.14 57.552 442.14 58.768V66H438.044Z" fill="#135DE2"/>
<path d="M228.065 108.384C225.804 108.384 223.862 107.904 222.241 106.944C220.62 105.963 219.372 104.608 218.497 102.88C217.622 101.131 217.185 99.1147 217.185 96.832C217.185 94.5493 217.622 92.5333 218.497 90.784C219.372 89.0347 220.62 87.6693 222.241 86.688C223.862 85.7067 225.804 85.216 228.065 85.216C230.753 85.216 232.95 85.888 234.657 87.232C236.385 88.5547 237.462 90.4213 237.889 92.832H233.377C233.1 91.616 232.502 90.6667 231.585 89.984C230.689 89.28 229.494 88.928 228.001 88.928C225.932 88.928 224.31 89.632 223.137 91.04C221.964 92.448 221.377 94.3787 221.377 96.832C221.377 99.2853 221.964 101.216 223.137 102.624C224.31 104.011 225.932 104.704 228.001 104.704C229.494 104.704 230.689 104.384 231.585 103.744C232.502 103.083 233.1 102.176 233.377 101.024H237.889C237.462 103.328 236.385 105.131 234.657 106.432C232.95 107.733 230.753 108.384 228.065 108.384Z" fill="#135DE2"/>
<path d="M249.035 108.384C247.499 108.384 246.112 108.032 244.875 107.328C243.659 106.624 242.688 105.653 241.963 104.416C241.259 103.157 240.907 101.707 240.907 100.064C240.907 98.4213 241.27 96.9813 241.995 95.744C242.72 94.4853 243.691 93.504 244.907 92.8C246.144 92.096 247.531 91.744 249.067 91.744C250.582 91.744 251.947 92.096 253.163 92.8C254.4 93.504 255.371 94.4853 256.075 95.744C256.8 96.9813 257.163 98.4213 257.163 100.064C257.163 101.707 256.8 103.157 256.075 104.416C255.371 105.653 254.4 106.624 253.163 107.328C251.926 108.032 250.55 108.384 249.035 108.384ZM249.035 104.832C250.102 104.832 251.03 104.437 251.819 103.648C252.608 102.837 253.003 101.643 253.003 100.064C253.003 98.4853 252.608 97.3013 251.819 96.512C251.03 95.7013 250.112 95.296 249.067 95.296C247.979 95.296 247.04 95.7013 246.251 96.512C245.483 97.3013 245.099 98.4853 245.099 100.064C245.099 101.643 245.483 102.837 246.251 103.648C247.04 104.437 247.968 104.832 249.035 104.832Z" fill="#135DE2"/>
<path d="M260.825 108V92.128H264.441L264.793 94.272C265.305 93.504 265.977 92.896 266.809 92.448C267.662 91.9787 268.644 91.744 269.753 91.744C272.206 91.744 273.945 92.6933 274.969 94.592C275.545 93.7173 276.313 93.024 277.273 92.512C278.254 92 279.321 91.744 280.473 91.744C282.542 91.744 284.132 92.3627 285.241 93.6C286.35 94.8373 286.905 96.6507 286.905 99.04V108H282.809V99.424C282.809 98.0587 282.542 97.0133 282.009 96.288C281.497 95.5627 280.697 95.2 279.609 95.2C278.5 95.2 277.604 95.6053 276.921 96.416C276.26 97.2267 275.929 98.3573 275.929 99.808V108H271.833V99.424C271.833 98.0587 271.566 97.0133 271.033 96.288C270.5 95.5627 269.678 95.2 268.569 95.2C267.481 95.2 266.596 95.6053 265.913 96.416C265.252 97.2267 264.921 98.3573 264.921 99.808V108H260.825Z" fill="#135DE2"/>
<path d="M290.794 115.04V92.128H294.442L294.89 94.4C295.402 93.696 296.074 93.0773 296.906 92.544C297.759 92.0107 298.858 91.744 300.202 91.744C301.695 91.744 303.029 92.1067 304.202 92.832C305.375 93.5573 306.303 94.5493 306.986 95.808C307.669 97.0667 308.01 98.496 308.01 100.096C308.01 101.696 307.669 103.125 306.986 104.384C306.303 105.621 305.375 106.603 304.202 107.328C303.029 108.032 301.695 108.384 300.202 108.384C299.007 108.384 297.962 108.16 297.066 107.712C296.17 107.264 295.445 106.635 294.89 105.824V115.04H290.794ZM299.338 104.8C300.639 104.8 301.717 104.363 302.57 103.488C303.423 102.613 303.85 101.483 303.85 100.096C303.85 98.7093 303.423 97.568 302.57 96.672C301.717 95.776 300.639 95.328 299.338 95.328C298.015 95.328 296.927 95.776 296.074 96.672C295.242 97.5467 294.826 98.6773 294.826 100.064C294.826 101.451 295.242 102.592 296.074 103.488C296.927 104.363 298.015 104.8 299.338 104.8Z" fill="#135DE2"/>
<path d="M317.621 108.384C315.637 108.384 314.101 107.765 313.013 106.528C311.946 105.291 311.413 103.477 311.413 101.088V92.128H315.477V100.704C315.477 102.069 315.754 103.115 316.309 103.84C316.864 104.565 317.738 104.928 318.933 104.928C320.064 104.928 320.992 104.523 321.717 103.712C322.464 102.901 322.837 101.771 322.837 100.32V92.128H326.933V108H323.317L322.997 105.312C322.506 106.251 321.792 106.997 320.853 107.552C319.936 108.107 318.858 108.384 317.621 108.384Z" fill="#135DE2"/>
<path d="M338.21 108C336.546 108 335.212 107.595 334.21 106.784C333.207 105.973 332.706 104.533 332.706 102.464V95.552H329.986V92.128H332.706L333.186 87.872H336.802V92.128H341.09V95.552H336.802V102.496C336.802 103.264 336.962 103.797 337.282 104.096C337.623 104.373 338.199 104.512 339.01 104.512H340.994V108H338.21Z" fill="#135DE2"/>
<path d="M346.814 89.664C346.068 89.664 345.449 89.44 344.958 88.992C344.489 88.544 344.254 87.9787 344.254 87.296C344.254 86.6133 344.489 86.0587 344.958 85.632C345.449 85.184 346.068 84.96 346.814 84.96C347.561 84.96 348.169 85.184 348.638 85.632C349.129 86.0587 349.374 86.6133 349.374 87.296C349.374 87.9787 349.129 88.544 348.638 88.992C348.169 89.44 347.561 89.664 346.814 89.664ZM344.766 108V92.128H348.862V108H344.766Z" fill="#135DE2"/>
<path d="M353.138 108V92.128H356.754L357.074 94.816C357.564 93.8773 358.268 93.1307 359.186 92.576C360.124 92.0213 361.223 91.744 362.482 91.744C364.444 91.744 365.97 92.3627 367.058 93.6C368.146 94.8373 368.69 96.6507 368.69 99.04V108H364.594V99.424C364.594 98.0587 364.316 97.0133 363.762 96.288C363.207 95.5627 362.343 95.2 361.17 95.2C360.018 95.2 359.068 95.6053 358.322 96.416C357.596 97.2267 357.234 98.3573 357.234 99.808V108H353.138Z" fill="#135DE2"/>
<path d="M379.326 103.264C378.558 103.264 377.844 103.179 377.182 103.008L375.998 104.192C376.361 104.384 376.852 104.544 377.47 104.672C378.089 104.8 379.092 104.928 380.478 105.056C382.59 105.248 384.126 105.749 385.086 106.56C386.046 107.371 386.526 108.491 386.526 109.92C386.526 110.859 386.27 111.744 385.758 112.576C385.246 113.429 384.457 114.112 383.39 114.624C382.324 115.157 380.958 115.424 379.294 115.424C377.033 115.424 375.209 114.997 373.822 114.144C372.436 113.312 371.742 112.053 371.742 110.368C371.742 108.939 372.436 107.701 373.822 106.656C373.396 106.464 373.022 106.261 372.702 106.048C372.404 105.835 372.137 105.611 371.902 105.376V104.64L374.686 101.696C373.449 100.608 372.83 99.2107 372.83 97.504C372.83 96.4373 373.086 95.4667 373.598 94.592C374.132 93.7173 374.878 93.024 375.838 92.512C376.798 92 377.961 91.744 379.326 91.744C380.222 91.744 381.054 91.872 381.822 92.128H387.838V94.624L385.118 94.816C385.545 95.6267 385.758 96.5227 385.758 97.504C385.758 98.5707 385.502 99.5413 384.99 100.416C384.478 101.291 383.732 101.984 382.75 102.496C381.79 103.008 380.649 103.264 379.326 103.264ZM379.326 100.128C380.158 100.128 380.841 99.904 381.374 99.456C381.929 99.008 382.206 98.368 382.206 97.536C382.206 96.704 381.929 96.064 381.374 95.616C380.841 95.168 380.158 94.944 379.326 94.944C378.452 94.944 377.748 95.168 377.214 95.616C376.681 96.064 376.414 96.704 376.414 97.536C376.414 98.368 376.681 99.008 377.214 99.456C377.748 99.904 378.452 100.128 379.326 100.128ZM375.486 109.952C375.486 110.741 375.849 111.328 376.574 111.712C377.321 112.117 378.228 112.32 379.294 112.32C380.318 112.32 381.15 112.107 381.79 111.68C382.43 111.275 382.75 110.72 382.75 110.016C382.75 109.44 382.537 108.96 382.11 108.576C381.705 108.192 380.884 107.957 379.646 107.872C378.772 107.808 377.961 107.712 377.214 107.584C376.596 107.925 376.148 108.299 375.87 108.704C375.614 109.109 375.486 109.525 375.486 109.952Z" fill="#135DE2"/>
<path d="M398.546 108V85.6H403.41L410.546 99.808L417.586 85.6H422.45V108H418.354V92.544L412.114 104.8H408.882L402.642 92.544V108H398.546Z" fill="#135DE2"/>
<path d="M432.172 108.384C430.807 108.384 429.687 108.171 428.812 107.744C427.937 107.296 427.287 106.709 426.86 105.984C426.433 105.259 426.22 104.459 426.22 103.584C426.22 102.112 426.796 100.917 427.948 100C429.1 99.0827 430.828 98.624 433.132 98.624H437.164V98.24C437.164 97.152 436.855 96.352 436.236 95.84C435.617 95.328 434.849 95.072 433.932 95.072C433.1 95.072 432.375 95.2747 431.756 95.68C431.137 96.064 430.753 96.64 430.604 97.408H426.604C426.711 96.256 427.095 95.2533 427.756 94.4C428.439 93.5467 429.313 92.896 430.38 92.448C431.447 91.9787 432.641 91.744 433.964 91.744C436.225 91.744 438.007 92.3093 439.308 93.44C440.609 94.5707 441.26 96.1707 441.26 98.24V108H437.772L437.388 105.44C436.919 106.293 436.257 106.997 435.404 107.552C434.572 108.107 433.495 108.384 432.172 108.384ZM433.1 105.184C434.273 105.184 435.18 104.8 435.82 104.032C436.481 103.264 436.897 102.315 437.068 101.184H433.58C432.492 101.184 431.713 101.387 431.244 101.792C430.775 102.176 430.54 102.656 430.54 103.232C430.54 103.851 430.775 104.331 431.244 104.672C431.713 105.013 432.332 105.184 433.1 105.184Z" fill="#135DE2"/>
<path d="M452.945 108.384C451.324 108.384 449.894 108.032 448.657 107.328C447.42 106.624 446.438 105.643 445.713 104.384C445.009 103.125 444.657 101.685 444.657 100.064C444.657 98.4427 445.009 97.0027 445.713 95.744C446.438 94.4853 447.42 93.504 448.657 92.8C449.894 92.096 451.324 91.744 452.945 91.744C454.972 91.744 456.678 92.2773 458.065 93.344C459.452 94.3893 460.337 95.84 460.721 97.696H456.401C456.188 96.928 455.761 96.3307 455.121 95.904C454.502 95.456 453.766 95.232 452.913 95.232C451.782 95.232 450.822 95.6587 450.033 96.512C449.244 97.3653 448.849 98.5493 448.849 100.064C448.849 101.579 449.244 102.763 450.033 103.616C450.822 104.469 451.782 104.896 452.913 104.896C453.766 104.896 454.502 104.683 455.121 104.256C455.761 103.829 456.188 103.221 456.401 102.432H460.721C460.337 104.224 459.452 105.664 458.065 106.752C456.678 107.84 454.972 108.384 452.945 108.384Z" fill="#135DE2"/>
<path d="M464.356 108V84.96H468.452V94.56C468.986 93.6853 469.7 93.0027 470.596 92.512C471.514 92 472.559 91.744 473.732 91.744C475.695 91.744 477.21 92.3627 478.276 93.6C479.364 94.8373 479.908 96.6507 479.908 99.04V108H475.844V99.424C475.844 98.0587 475.567 97.0133 475.012 96.288C474.479 95.5627 473.626 95.2 472.452 95.2C471.3 95.2 470.34 95.6053 469.572 96.416C468.826 97.2267 468.452 98.3573 468.452 99.808V108H464.356Z" fill="#135DE2"/>
<path d="M486.033 89.664C485.286 89.664 484.668 89.44 484.177 88.992C483.708 88.544 483.473 87.9787 483.473 87.296C483.473 86.6133 483.708 86.0587 484.177 85.632C484.668 85.184 485.286 84.96 486.033 84.96C486.78 84.96 487.388 85.184 487.857 85.632C488.348 86.0587 488.593 86.6133 488.593 87.296C488.593 87.9787 488.348 88.544 487.857 88.992C487.388 89.44 486.78 89.664 486.033 89.664ZM483.985 108V92.128H488.081V108H483.985Z" fill="#135DE2"/>
<path d="M492.356 108V92.128H495.972L496.292 94.816C496.783 93.8773 497.487 93.1307 498.404 92.576C499.343 92.0213 500.442 91.744 501.7 91.744C503.663 91.744 505.188 92.3627 506.276 93.6C507.364 94.8373 507.908 96.6507 507.908 99.04V108H503.812V99.424C503.812 98.0587 503.535 97.0133 502.98 96.288C502.426 95.5627 501.562 95.2 500.388 95.2C499.236 95.2 498.287 95.6053 497.54 96.416C496.815 97.2267 496.452 98.3573 496.452 99.808V108H492.356Z" fill="#135DE2"/>
<path d="M519.537 108.384C517.937 108.384 516.518 108.043 515.281 107.36C514.044 106.677 513.073 105.717 512.369 104.48C511.665 103.243 511.313 101.813 511.313 100.192C511.313 98.5493 511.654 97.088 512.337 95.808C513.041 94.528 514.001 93.536 515.217 92.832C516.454 92.1067 517.905 91.744 519.569 91.744C521.126 91.744 522.503 92.0853 523.697 92.768C524.892 93.4507 525.82 94.3893 526.481 95.584C527.164 96.7573 527.505 98.0693 527.505 99.52C527.505 99.7547 527.495 100 527.473 100.256C527.473 100.512 527.462 100.779 527.441 101.056H515.377C515.462 102.293 515.889 103.264 516.657 103.968C517.446 104.672 518.396 105.024 519.505 105.024C520.337 105.024 521.03 104.843 521.585 104.48C522.161 104.096 522.588 103.605 522.865 103.008H527.025C526.727 104.011 526.225 104.928 525.521 105.76C524.838 106.571 523.985 107.211 522.961 107.68C521.958 108.149 520.817 108.384 519.537 108.384ZM519.569 95.072C518.566 95.072 517.681 95.36 516.913 95.936C516.145 96.4907 515.654 97.344 515.441 98.496H523.345C523.281 97.4507 522.897 96.6187 522.193 96C521.489 95.3813 520.614 95.072 519.569 95.072Z" fill="#135DE2"/>
<path d="M530.95 108V92.128H534.598L534.982 95.104C535.558 94.08 536.337 93.2693 537.318 92.672C538.321 92.0533 539.494 91.744 540.838 91.744V96.064H539.686C538.79 96.064 537.99 96.2027 537.286 96.48C536.582 96.7573 536.027 97.2373 535.622 97.92C535.238 98.6027 535.046 99.552 535.046 100.768V108H530.95Z" fill="#135DE2"/>
<path d="M545.622 115.04L549.302 106.944H548.342L542.166 92.128H546.614L551.062 103.296L555.702 92.128H560.054L549.974 115.04H545.622Z" fill="#135DE2"/>
<path d="M222.585 158L216.273 141.2H218.457L223.761 155.864L229.113 141.2H231.249L224.937 158H222.585Z" fill="#135DE2"/>
<path d="M233.552 158V141.2H235.568V158H233.552Z" fill="#135DE2"/>
<path d="M243.066 158V142.856H238.05V141.2H250.098V142.856H245.082V158H243.066Z" fill="#135DE2"/>
<path d="M264.264 158.288C263.032 158.288 261.96 158.064 261.048 157.616C260.136 157.168 259.432 156.544 258.936 155.744C258.44 154.944 258.192 154.016 258.192 152.96H260.304C260.304 153.616 260.456 154.224 260.76 154.784C261.064 155.328 261.504 155.768 262.08 156.104C262.672 156.424 263.4 156.584 264.264 156.584C265.4 156.584 266.28 156.312 266.904 155.768C267.528 155.224 267.84 154.544 267.84 153.728C267.84 153.056 267.696 152.52 267.408 152.12C267.12 151.704 266.728 151.368 266.232 151.112C265.752 150.856 265.192 150.632 264.552 150.44C263.928 150.248 263.272 150.032 262.584 149.792C261.288 149.344 260.328 148.792 259.704 148.136C259.08 147.464 258.768 146.592 258.768 145.52C258.752 144.624 258.96 143.832 259.392 143.144C259.824 142.44 260.432 141.896 261.216 141.512C262.016 141.112 262.96 140.912 264.048 140.912C265.12 140.912 266.048 141.112 266.832 141.512C267.632 141.912 268.248 142.464 268.68 143.168C269.128 143.872 269.36 144.672 269.376 145.568H267.264C267.264 145.104 267.144 144.648 266.904 144.2C266.664 143.736 266.296 143.36 265.8 143.072C265.32 142.784 264.712 142.64 263.976 142.64C263.064 142.624 262.312 142.856 261.72 143.336C261.144 143.816 260.856 144.48 260.856 145.328C260.856 146.048 261.056 146.6 261.456 146.984C261.872 147.368 262.448 147.688 263.184 147.944C263.92 148.184 264.768 148.464 265.728 148.784C266.528 149.072 267.248 149.408 267.888 149.792C268.528 150.176 269.024 150.672 269.376 151.28C269.744 151.888 269.928 152.664 269.928 153.608C269.928 154.408 269.72 155.168 269.304 155.888C268.888 156.592 268.256 157.168 267.408 157.616C266.576 158.064 265.528 158.288 264.264 158.288Z" fill="#135DE2"/>
<path d="M277.371 158C276.283 158 275.427 157.736 274.803 157.208C274.179 156.68 273.867 155.728 273.867 154.352V147.8H271.803V146.096H273.867L274.131 143.24H275.883V146.096H279.387V147.8H275.883V154.352C275.883 155.104 276.035 155.616 276.339 155.888C276.643 156.144 277.179 156.272 277.947 156.272H279.195V158H277.371Z" fill="#135DE2"/>
<path d="M286.292 158.288C284.884 158.288 283.764 157.864 282.932 157.016C282.1 156.152 281.684 154.832 281.684 153.056V146.096H283.7V152.84C283.7 155.32 284.716 156.56 286.748 156.56C287.788 156.56 288.644 156.192 289.316 155.456C290.004 154.704 290.348 153.64 290.348 152.264V146.096H292.364V158H290.54L290.396 155.864C290.028 156.616 289.476 157.208 288.74 157.64C288.02 158.072 287.204 158.288 286.292 158.288Z" fill="#135DE2"/>
<path d="M301.082 158.288C299.898 158.288 298.858 158.016 297.962 157.472C297.082 156.928 296.394 156.184 295.898 155.24C295.418 154.296 295.178 153.224 295.178 152.024C295.178 150.824 295.426 149.76 295.922 148.832C296.418 147.888 297.106 147.152 297.986 146.624C298.866 146.08 299.906 145.808 301.106 145.808C302.082 145.808 302.946 146.008 303.698 146.408C304.45 146.808 305.034 147.368 305.45 148.088V140.72H307.466V158H305.642L305.45 156.032C305.066 156.608 304.514 157.128 303.794 157.592C303.074 158.056 302.17 158.288 301.082 158.288ZM301.298 156.536C302.098 156.536 302.802 156.352 303.41 155.984C304.034 155.6 304.514 155.072 304.85 154.4C305.202 153.728 305.378 152.944 305.378 152.048C305.378 151.152 305.202 150.368 304.85 149.696C304.514 149.024 304.034 148.504 303.41 148.136C302.802 147.752 302.098 147.56 301.298 147.56C300.514 147.56 299.81 147.752 299.186 148.136C298.578 148.504 298.098 149.024 297.746 149.696C297.41 150.368 297.242 151.152 297.242 152.048C297.242 152.944 297.41 153.728 297.746 154.4C298.098 155.072 298.578 155.6 299.186 155.984C299.81 156.352 300.514 156.536 301.298 156.536Z" fill="#135DE2"/>
<path d="M316.105 158.288C314.969 158.288 313.961 158.032 313.081 157.52C312.201 156.992 311.505 156.264 310.993 155.336C310.497 154.408 310.249 153.312 310.249 152.048C310.249 150.8 310.497 149.712 310.993 148.784C311.489 147.84 312.177 147.112 313.057 146.6C313.953 146.072 314.985 145.808 316.153 145.808C317.305 145.808 318.297 146.072 319.129 146.6C319.977 147.112 320.625 147.792 321.073 148.64C321.521 149.488 321.745 150.4 321.745 151.376C321.745 151.552 321.737 151.728 321.721 151.904C321.721 152.08 321.721 152.28 321.721 152.504H312.241C312.289 153.416 312.497 154.176 312.865 154.784C313.249 155.376 313.721 155.824 314.281 156.128C314.857 156.432 315.465 156.584 316.105 156.584C316.937 156.584 317.633 156.392 318.193 156.008C318.753 155.624 319.161 155.104 319.417 154.448H321.409C321.089 155.552 320.473 156.472 319.561 157.208C318.665 157.928 317.513 158.288 316.105 158.288ZM316.105 147.512C315.145 147.512 314.289 147.808 313.537 148.4C312.801 148.976 312.377 149.824 312.265 150.944H319.753C319.705 149.872 319.337 149.032 318.649 148.424C317.961 147.816 317.113 147.512 316.105 147.512Z" fill="#135DE2"/>
<path d="M324.417 158V146.096H326.241L326.361 148.232C326.745 147.48 327.297 146.888 328.017 146.456C328.737 146.024 329.553 145.808 330.465 145.808C331.873 145.808 332.993 146.24 333.825 147.104C334.673 147.952 335.097 149.264 335.097 151.04V158H333.081V151.256C333.081 148.776 332.057 147.536 330.009 147.536C328.985 147.536 328.129 147.912 327.441 148.664C326.769 149.4 326.433 150.456 326.433 151.832V158H324.417Z" fill="#135DE2"/>
<path d="M342.855 158C341.767 158 340.911 157.736 340.287 157.208C339.663 156.68 339.351 155.728 339.351 154.352V147.8H337.287V146.096H339.351L339.615 143.24H341.367V146.096H344.871V147.8H341.367V154.352C341.367 155.104 341.519 155.616 341.823 155.888C342.127 156.144 342.663 156.272 343.431 156.272H344.679V158H342.855Z" fill="#135DE2"/>
<path d="M361.272 158.288C359.624 158.288 358.2 157.928 357 157.208C355.816 156.472 354.896 155.456 354.24 154.16C353.584 152.848 353.256 151.328 353.256 149.6C353.256 147.888 353.584 146.384 354.24 145.088C354.896 143.776 355.816 142.752 357 142.016C358.2 141.28 359.624 140.912 361.272 140.912C363.192 140.912 364.752 141.376 365.952 142.304C367.168 143.216 367.944 144.496 368.28 146.144H366.048C365.792 145.104 365.264 144.272 364.464 143.648C363.68 143.008 362.616 142.688 361.272 142.688C360.072 142.688 359.024 142.968 358.128 143.528C357.232 144.072 356.536 144.864 356.04 145.904C355.56 146.928 355.32 148.16 355.32 149.6C355.32 151.04 355.56 152.28 356.04 153.32C356.536 154.344 357.232 155.136 358.128 155.696C359.024 156.24 360.072 156.512 361.272 156.512C362.616 156.512 363.68 156.208 364.464 155.6C365.264 154.976 365.792 154.152 366.048 153.128H368.28C367.944 154.744 367.168 156.008 365.952 156.92C364.752 157.832 363.192 158.288 361.272 158.288Z" fill="#135DE2"/>
<path d="M371.057 158V140.72H373.073V148.136C373.473 147.4 374.041 146.832 374.777 146.432C375.513 146.016 376.313 145.808 377.177 145.808C378.553 145.808 379.657 146.24 380.489 147.104C381.321 147.952 381.737 149.264 381.737 151.04V158H379.745V151.256C379.745 148.776 378.745 147.536 376.745 147.536C375.705 147.536 374.833 147.912 374.129 148.664C373.425 149.4 373.073 150.456 373.073 151.832V158H371.057Z" fill="#135DE2"/>
<path d="M388.752 158.288C387.76 158.288 386.936 158.12 386.28 157.784C385.624 157.448 385.136 157 384.816 156.44C384.496 155.88 384.336 155.272 384.336 154.616C384.336 153.4 384.8 152.464 385.728 151.808C386.656 151.152 387.92 150.824 389.52 150.824H392.736V150.68C392.736 149.64 392.464 148.856 391.92 148.328C391.376 147.784 390.648 147.512 389.736 147.512C388.952 147.512 388.272 147.712 387.696 148.112C387.136 148.496 386.784 149.064 386.64 149.816H384.576C384.656 148.952 384.944 148.224 385.44 147.632C385.952 147.04 386.584 146.592 387.336 146.288C388.088 145.968 388.888 145.808 389.736 145.808C391.4 145.808 392.648 146.256 393.48 147.152C394.328 148.032 394.752 149.208 394.752 150.68V158H392.952L392.832 155.864C392.496 156.536 392 157.112 391.344 157.592C390.704 158.056 389.84 158.288 388.752 158.288ZM389.064 156.584C389.832 156.584 390.488 156.384 391.032 155.984C391.592 155.584 392.016 155.064 392.304 154.424C392.592 153.784 392.736 153.112 392.736 152.408V152.384H389.688C388.504 152.384 387.664 152.592 387.168 153.008C386.688 153.408 386.448 153.912 386.448 154.52C386.448 155.144 386.672 155.648 387.12 156.032C387.584 156.4 388.232 156.584 389.064 156.584Z" fill="#135DE2"/>
<path d="M397.776 163.28V146.096H399.6L399.792 148.064C400.176 147.488 400.72 146.968 401.424 146.504C402.144 146.04 403.056 145.808 404.16 145.808C405.344 145.808 406.376 146.08 407.256 146.624C408.136 147.168 408.816 147.912 409.296 148.856C409.792 149.8 410.04 150.872 410.04 152.072C410.04 153.272 409.792 154.344 409.296 155.288C408.816 156.216 408.128 156.952 407.232 157.496C406.352 158.024 405.32 158.288 404.136 158.288C403.16 158.288 402.288 158.088 401.52 157.688C400.768 157.288 400.192 156.728 399.792 156.008V163.28H397.776ZM403.92 156.536C404.72 156.536 405.424 156.352 406.032 155.984C406.64 155.6 407.12 155.072 407.472 154.4C407.824 153.728 408 152.944 408 152.048C408 151.152 407.824 150.368 407.472 149.696C407.12 149.024 406.64 148.504 406.032 148.136C405.424 147.752 404.72 147.56 403.92 147.56C403.12 147.56 402.416 147.752 401.808 148.136C401.2 148.504 400.72 149.024 400.368 149.696C400.016 150.368 399.84 151.152 399.84 152.048C399.84 152.944 400.016 153.728 400.368 154.4C400.72 155.072 401.2 155.6 401.808 155.984C402.416 156.352 403.12 156.536 403.92 156.536Z" fill="#135DE2"/>
<path d="M417.082 158C415.994 158 415.138 157.736 414.514 157.208C413.89 156.68 413.578 155.728 413.578 154.352V147.8H411.514V146.096H413.578L413.842 143.24H415.594V146.096H419.098V147.8H415.594V154.352C415.594 155.104 415.746 155.616 416.05 155.888C416.354 156.144 416.89 156.272 417.658 156.272H418.906V158H417.082Z" fill="#135DE2"/>
<path d="M426.683 158.288C425.547 158.288 424.539 158.032 423.659 157.52C422.779 156.992 422.083 156.264 421.571 155.336C421.075 154.408 420.827 153.312 420.827 152.048C420.827 150.8 421.075 149.712 421.571 148.784C422.067 147.84 422.755 147.112 423.635 146.6C424.531 146.072 425.563 145.808 426.731 145.808C427.883 145.808 428.875 146.072 429.707 146.6C430.555 147.112 431.203 147.792 431.651 148.64C432.099 149.488 432.323 150.4 432.323 151.376C432.323 151.552 432.315 151.728 432.299 151.904C432.299 152.08 432.299 152.28 432.299 152.504H422.819C422.867 153.416 423.075 154.176 423.443 154.784C423.827 155.376 424.299 155.824 424.859 156.128C425.435 156.432 426.043 156.584 426.683 156.584C427.515 156.584 428.211 156.392 428.771 156.008C429.331 155.624 429.739 155.104 429.995 154.448H431.987C431.667 155.552 431.051 156.472 430.139 157.208C429.243 157.928 428.091 158.288 426.683 158.288ZM426.683 147.512C425.723 147.512 424.867 147.808 424.115 148.4C423.379 148.976 422.955 149.824 422.843 150.944H430.331C430.283 149.872 429.915 149.032 429.227 148.424C428.539 147.816 427.691 147.512 426.683 147.512Z" fill="#135DE2"/>
<path d="M434.995 158V146.096H436.819L436.987 148.376C437.355 147.592 437.915 146.968 438.667 146.504C439.419 146.04 440.347 145.808 441.451 145.808V147.92H440.899C440.195 147.92 439.547 148.048 438.955 148.304C438.363 148.544 437.891 148.96 437.539 149.552C437.187 150.144 437.011 150.96 437.011 152V158H434.995Z" fill="#135DE2"/>
</svg>
