<svg width="232" height="200" viewBox="0 0 232 200" fill="none" xmlns="http://www.w3.org/2000/svg">
<path fill-rule="evenodd" clip-rule="evenodd" d="M77.2548 9.37258C89.7516 -3.1242 110.013 -3.12419 122.51 9.37258L190.392 77.2548C202.889 89.7516 202.889 110.013 190.392 122.51L122.51 190.392C110.013 202.889 89.7516 202.889 77.2548 190.392L9.37258 122.51C-3.1242 110.013 -3.12419 89.7516 9.37258 77.2548L77.2548 9.37258ZM82.8162 92.2715C82.7739 92.3652 82.7252 92.4733 82.5251 92.4907V88.8907C82.5251 88.3407 82.5252 88.3307 81.9752 88.3307H75.8052C75.2452 88.3307 75.2352 88.3307 75.2352 88.8807V111.001C75.2352 111.511 75.2452 111.521 75.7652 111.521H82.7151C83.235 111.521 83.2352 111.511 83.2451 111.001V111.001V110.581V101.531C83.2451 100.651 83.3151 99.7807 83.4752 98.9107C83.6652 97.8407 83.9951 96.8207 84.6552 95.9307C85.6552 94.5907 87.2752 94.2507 88.6152 94.5407C89.6952 94.7707 90.3052 95.5507 90.6651 96.5407C90.9752 97.3907 91.0452 98.2907 91.0452 99.1907V110.761C91.0452 110.807 91.0463 110.854 91.0474 110.901C91.0496 110.994 91.0518 111.087 91.0452 111.181C91.0252 111.451 91.1652 111.531 91.4052 111.511C91.4718 111.504 91.5385 111.506 91.6052 111.509L91.6436 111.51C91.6641 111.51 91.6846 111.511 91.7052 111.511H98.4151H98.7751C98.9752 111.521 99.0651 111.421 99.0551 111.221C99.0485 111.127 99.0507 111.034 99.0529 110.941L99.0529 110.94C99.0535 110.915 99.0541 110.89 99.0546 110.865C99.0549 110.843 99.0551 110.822 99.0551 110.801C99.0551 109.82 99.0563 108.841 99.0574 107.862V107.861V107.86C99.0596 105.904 99.0618 103.95 99.0551 101.991C99.0551 101.131 99.0751 100.271 99.1951 99.4207C99.3352 98.4007 99.5751 97.4207 100.075 96.5107C100.555 95.6507 101.215 94.9707 102.185 94.6707C104.375 94.0007 106.065 94.7507 106.625 97.0607C106.775 97.6907 106.845 98.3207 106.845 98.9607V110.771V111.251C106.845 111.411 106.905 111.511 107.085 111.511H107.445H114.215L114.323 111.511C114.596 111.512 114.73 111.512 114.796 111.445C114.859 111.381 114.858 111.254 114.856 111.004C114.856 110.957 114.855 110.906 114.855 110.851C114.855 109.532 114.854 108.215 114.853 106.898L114.853 106.872V106.871V106.87C114.851 104.221 114.848 101.573 114.855 98.9207C114.855 97.8407 114.825 96.7707 114.765 95.6907C114.715 94.6707 114.555 93.6607 114.275 92.6807C113.545 90.0807 111.855 88.5107 109.205 88.0007C107.825 87.7407 106.435 87.6707 105.035 87.8807C102.985 88.1907 101.185 89.0107 99.7151 90.5207C99.3462 90.8972 99.0339 91.3191 98.7228 91.7394L98.7228 91.7394L98.7228 91.7395C98.6207 91.8773 98.5189 92.0149 98.4151 92.1507C98.2817 92.0487 98.2222 91.9158 98.164 91.7859L98.1439 91.7413C98.1384 91.7292 98.1328 91.7172 98.1271 91.7052C98.1232 91.697 98.1192 91.6888 98.1152 91.6807C97.2752 90.0007 95.9651 88.8707 94.2052 88.2607C92.3951 87.6307 90.5552 87.6207 88.7052 88.0007C86.1351 88.5307 84.1051 89.8607 82.8352 92.2307L82.8285 92.2445C82.8244 92.2533 82.8203 92.2623 82.8162 92.2715ZM50.2452 109.781C50.0652 108.051 50.0352 106.311 50.0452 104.581V97.3307C50.0452 96.6307 50.0152 95.9307 49.8852 95.2407C49.4352 92.7307 48.2152 90.7407 45.9852 89.4107C44.4252 88.4807 42.7152 88.0607 40.9352 87.8607C39.3952 87.6907 37.8652 87.7407 36.3352 87.8707C34.2352 88.0507 32.1852 88.4707 30.2152 89.2307L30.2048 89.2348C29.755 89.4108 29.7452 89.4146 29.7552 89.9207C29.7844 91.3628 29.8231 92.7954 29.8621 94.2369L29.8652 94.3507C29.8652 94.3762 29.862 94.4034 29.8588 94.4315C29.8467 94.5359 29.8333 94.6519 29.9752 94.7307C30.1389 94.658 30.3005 94.5811 30.4629 94.5038L30.4633 94.5036L30.4638 94.5034L30.4644 94.5031C30.6586 94.4107 30.8539 94.3178 31.0552 94.2307C33.4852 93.2207 36.0352 92.9607 38.6352 93.1507C39.2952 93.2007 39.9352 93.3707 40.5352 93.6507C41.8052 94.2307 42.4252 95.2507 42.5652 96.6107C42.6152 97.1007 42.5752 97.1307 42.0952 97.0607C39.7252 96.7107 37.3552 96.7407 34.9952 97.0907C33.3652 97.3307 31.7852 97.7607 30.3452 98.5907C28.5152 99.6407 27.3352 101.181 26.9752 103.291C26.9733 103.302 26.9716 103.314 26.97 103.326L26.9661 103.357L26.9629 103.382C26.9429 103.547 26.9221 103.718 26.7452 103.811V105.611C26.9052 105.731 26.9352 105.911 26.9652 106.091C27.3452 108.401 28.6352 110.011 30.7152 111.031C32.1752 111.751 33.7452 112.021 35.3452 112.061C36.4452 112.091 37.5352 111.951 38.5852 111.571C40.2752 110.971 41.5152 109.831 42.5252 108.391C42.5511 108.354 42.5742 108.315 42.5978 108.275C42.6832 108.131 42.7743 107.977 43.0252 107.891C43.0252 107.945 43.0248 107.997 43.0242 108.047L43.0228 108.156C43.0206 108.308 43.0187 108.445 43.0252 108.581C43.0412 108.927 43.0606 109.271 43.0799 109.615C43.1086 110.126 43.1372 110.637 43.1552 111.151C43.1652 111.401 43.2452 111.531 43.5052 111.501C43.5585 111.494 43.6118 111.496 43.6652 111.499C43.6918 111.5 43.7185 111.501 43.7452 111.501H49.9152C49.9512 111.501 49.9872 111.502 50.0232 111.504C50.1672 111.51 50.3112 111.517 50.4552 111.421C50.4259 111.157 50.3894 110.891 50.3528 110.624C50.3144 110.344 50.2759 110.062 50.2452 109.781ZM36.3652 106.551C35.4452 106.331 34.7252 105.811 34.4252 104.861C34.0852 103.791 34.5052 102.611 35.4452 101.961C36.1152 101.491 36.8852 101.281 37.6852 101.181C38.2752 101.101 38.8752 101.031 39.4752 101.061C39.9452 101.081 40.4127 101.103 40.8801 101.126C41.3477 101.148 41.8152 101.171 42.2852 101.191C42.5252 101.201 42.5952 101.301 42.5852 101.521C42.4652 104.351 40.1252 107.471 36.3652 106.551ZM123.935 96.6007H129.445C129.975 96.6007 129.975 96.6107 129.985 97.1102V97.1107V101.961C129.985 102.451 129.975 102.461 129.495 102.461H118.415C117.915 102.461 117.905 102.451 117.905 101.971V97.0607C117.905 96.6107 117.915 96.6007 118.365 96.6007H123.935ZM71.6747 94.8405L71.6751 94.8407C71.791 94.6007 71.8041 94.3676 71.8165 94.1469C71.8191 94.101 71.8217 94.0556 71.8251 94.0107L71.8257 94.0041C71.9655 92.5563 72.1053 91.1085 72.2551 89.6607L72.2608 89.605C72.3158 89.0705 72.3166 89.0629 71.7651 88.8307C70.3151 88.2207 68.7951 87.9407 67.2251 87.8307C64.6151 87.6507 62.0751 87.9607 59.6551 88.9607C56.4851 90.2707 54.2151 92.4907 53.0951 95.7707C52.4751 97.6107 52.3051 99.5007 52.5151 101.441C52.7351 103.381 53.3251 105.181 54.4451 106.791C56.0651 109.111 58.3151 110.551 60.9951 111.361C63.3551 112.071 65.7751 112.221 68.2251 111.941C69.5151 111.791 70.7851 111.551 72.0351 111.181C72.3651 111.081 72.4751 110.931 72.4651 110.591C72.4249 109.425 72.3937 108.264 72.3624 107.102L72.3623 107.098L72.3622 107.094L72.3621 107.09L72.362 107.086C72.3467 106.518 72.3315 105.95 72.3151 105.381C72.3133 105.368 72.3128 105.355 72.3123 105.341V105.341C72.3101 105.279 72.3077 105.213 72.1851 105.181C72.0995 105.213 72.0082 105.251 71.9143 105.29L71.9138 105.29L71.9122 105.29L71.9118 105.291L71.9114 105.291L71.9083 105.292C71.8739 105.306 71.839 105.321 71.804 105.335C71.7579 105.354 71.7115 105.373 71.6651 105.391C69.8851 106.081 68.0451 106.391 66.1451 106.091C63.8751 105.721 62.1351 104.561 61.1751 102.411C60.6651 101.271 60.6251 100.061 60.7951 98.8307C61.1351 96.3407 62.7951 94.4207 65.2451 93.8407C67.1751 93.3907 69.0551 93.6507 70.8551 94.4507C71.135 94.5707 71.3948 94.7006 71.6747 94.8405ZM143.375 105.041C143.546 104.797 143.584 104.593 143.619 104.408C143.628 104.364 143.636 104.322 143.645 104.281C144.865 99.2007 146.085 94.1107 147.295 89.0207L147.315 88.9406C147.348 88.8099 147.38 88.6838 147.405 88.5507C147.445 88.3707 147.565 88.2807 147.755 88.2907C147.822 88.2974 147.888 88.2952 147.955 88.293C147.988 88.2919 148.022 88.2907 148.055 88.2907H156.505C157.095 88.2907 157.095 88.2907 157.235 88.8907C157.852 91.5133 158.469 94.1333 159.085 96.7534C159.699 99.3583 160.312 101.963 160.925 104.571C160.93 104.591 160.934 104.612 160.938 104.633C160.96 104.748 160.983 104.873 161.135 104.991L161.201 104.695C161.397 103.813 161.585 102.967 161.765 102.121C162.06 100.772 162.355 99.4251 162.649 98.0781L162.651 98.0671C163.323 94.992 163.994 91.9188 164.675 88.8407C164.694 88.7588 164.708 88.6893 164.719 88.6303C164.749 88.4808 164.765 88.3989 164.815 88.354C164.875 88.2997 164.984 88.3 165.227 88.3006L165.315 88.3007H172.025C172.058 88.3007 172.091 88.2985 172.124 88.2963L172.124 88.2963C172.231 88.2891 172.336 88.282 172.435 88.3507C172.481 88.5109 172.428 88.6478 172.373 88.788C172.356 88.8316 172.339 88.8756 172.325 88.9207L172.315 88.9543C170.078 96.2931 167.842 103.632 165.595 110.971C165.581 111.018 165.568 111.061 165.556 111.101L165.555 111.104C165.49 111.32 165.46 111.421 165.392 111.468C165.332 111.509 165.242 111.507 165.071 111.503H165.071C165.013 111.502 164.945 111.501 164.865 111.501H156.655C156.125 111.501 156.125 111.501 156.005 110.971C154.765 105.681 153.535 100.401 152.305 95.1107C152.299 95.0871 152.294 95.0626 152.289 95.0373C152.272 94.9449 152.253 94.8428 152.135 94.7407L152.107 94.816C152.057 94.9482 152.009 95.0745 151.975 95.2007C150.605 100.431 149.235 105.661 147.855 110.901C147.845 110.943 147.832 110.983 147.819 111.023L147.819 111.024C147.795 111.099 147.772 111.173 147.765 111.251C147.735 111.451 147.615 111.511 147.425 111.501H147.125H138.915L138.828 111.501C138.595 111.502 138.483 111.502 138.414 111.448C138.35 111.398 138.322 111.303 138.267 111.121L138.267 111.121L138.255 111.078C138.246 111.048 138.236 111.016 138.225 110.981L136.927 106.747C135.089 100.755 133.25 94.7598 131.405 88.7707C131.397 88.7442 131.388 88.7177 131.378 88.691C131.341 88.5869 131.303 88.4802 131.335 88.3607C131.457 88.2766 131.597 88.2861 131.732 88.2952C131.757 88.2968 131.781 88.2985 131.805 88.2995L131.824 88.3002C131.828 88.3004 131.831 88.3004 131.835 88.3005C131.842 88.3007 131.848 88.3007 131.855 88.3007H139.045C139.321 88.3007 139.461 88.3007 139.547 88.3687C139.637 88.4389 139.669 88.5813 139.735 88.8707C140.252 91.1807 140.771 93.4907 141.29 95.8016L141.29 95.8019L141.29 95.8023L141.29 95.8027C141.926 98.6334 142.562 101.466 143.195 104.301C143.245 104.511 143.295 104.721 143.375 105.041ZM43.352 124.545L47.56 135.745H49.128L53.336 124.545H51.912L48.344 134.321L44.808 124.545H43.352ZM54.8715 124.545V135.745H56.2155V124.545H54.8715ZM61.2142 125.649V135.745H62.5583V125.649H65.9023V124.545H57.8703V125.649H61.2142ZM73.8418 135.217C74.6418 135.697 75.5911 135.937 76.6898 135.937C77.9697 135.937 79.0098 135.633 79.8098 135.025C80.6204 134.417 81.1377 133.574 81.3617 132.497H79.8737C79.7031 133.18 79.3511 133.729 78.8177 134.145C78.2951 134.55 77.5857 134.753 76.6898 134.753C75.8897 134.753 75.1911 134.572 74.5938 134.209C73.9964 133.836 73.5324 133.308 73.2018 132.625C72.8818 131.932 72.7217 131.105 72.7217 130.145C72.7217 129.185 72.8818 128.364 73.2018 127.681C73.5324 126.988 73.9964 126.46 74.5938 126.097C75.1911 125.724 75.8897 125.537 76.6898 125.537C77.5857 125.537 78.2951 125.75 78.8177 126.177C79.3511 126.593 79.7031 127.148 79.8737 127.841H81.3617C81.1377 126.742 80.6204 125.889 79.8098 125.281C79.0098 124.662 77.9697 124.353 76.6898 124.353C75.5911 124.353 74.6418 124.598 73.8418 125.089C73.0524 125.58 72.4391 126.262 72.0017 127.137C71.5644 128.001 71.3457 129.004 71.3457 130.145C71.3457 131.297 71.5644 132.311 72.0017 133.185C72.4391 134.049 73.0524 134.727 73.8418 135.217ZM84.8134 135.425C85.4107 135.766 86.0827 135.937 86.8294 135.937C87.576 135.937 88.248 135.766 88.8454 135.425C89.4534 135.084 89.9334 134.604 90.2854 133.985C90.6374 133.356 90.8134 132.62 90.8134 131.777C90.8134 130.934 90.6374 130.204 90.2854 129.585C89.944 128.956 89.4747 128.47 88.8774 128.129C88.28 127.788 87.608 127.617 86.8614 127.617C86.1147 127.617 85.4374 127.788 84.8294 128.129C84.232 128.47 83.7574 128.956 83.4054 129.585C83.0534 130.204 82.8774 130.934 82.8774 131.777C82.8774 132.62 83.048 133.356 83.3894 133.985C83.7414 134.604 84.216 135.084 84.8134 135.425ZM88.1094 134.449C87.7147 134.673 87.288 134.785 86.8294 134.785C86.3814 134.785 85.96 134.673 85.5654 134.449C85.1814 134.225 84.8667 133.889 84.6214 133.441C84.376 132.993 84.2534 132.438 84.2534 131.777C84.2534 131.116 84.376 130.561 84.6214 130.113C84.8667 129.665 85.1867 129.329 85.5814 129.105C85.976 128.881 86.4027 128.769 86.8614 128.769C87.3094 128.769 87.7307 128.881 88.1254 129.105C88.52 129.329 88.8347 129.665 89.0694 130.113C89.3147 130.561 89.4374 131.116 89.4374 131.777C89.4374 132.438 89.3147 132.993 89.0694 133.441C88.824 133.889 88.504 134.225 88.1094 134.449ZM93.8981 127.809H92.6821V135.745H94.0261V131.633C94.0261 130.716 94.2341 130.012 94.6501 129.521C95.0768 129.02 95.6048 128.769 96.2341 128.769C96.8528 128.769 97.3275 128.977 97.6581 129.393C97.9888 129.809 98.1541 130.428 98.1541 131.249V135.745H99.4981V131.633C99.4981 130.716 99.7061 130.012 100.122 129.521C100.549 129.02 101.082 128.769 101.722 128.769C102.341 128.769 102.815 128.977 103.146 129.393C103.477 129.809 103.642 130.428 103.642 131.249V135.745H104.97V131.105C104.97 129.921 104.687 129.046 104.122 128.481C103.557 127.905 102.799 127.617 101.85 127.617C101.285 127.617 100.757 127.756 100.266 128.033C99.7861 128.311 99.4075 128.689 99.1301 129.169C98.8848 128.646 98.5328 128.257 98.0741 128.001C97.6261 127.745 97.0875 127.617 96.4581 127.617C95.9248 127.617 95.4448 127.734 95.0181 127.969C94.5915 128.204 94.2501 128.535 93.9941 128.961L93.8981 127.809ZM108.211 127.809H106.995V135.745H108.339V131.633C108.339 130.716 108.547 130.012 108.963 129.521C109.389 129.02 109.917 128.769 110.547 128.769C111.165 128.769 111.64 128.977 111.971 129.393C112.301 129.809 112.467 130.428 112.467 131.249V135.745H113.811V131.633C113.811 130.716 114.019 130.012 114.435 129.521C114.861 129.02 115.395 128.769 116.035 128.769C116.653 128.769 117.128 128.977 117.459 129.393C117.789 129.809 117.955 130.428 117.955 131.249V135.745H119.283V131.105C119.283 129.921 119 129.046 118.435 128.481C117.869 127.905 117.112 127.617 116.163 127.617C115.597 127.617 115.069 127.756 114.579 128.033C114.099 128.311 113.72 128.689 113.443 129.169C113.197 128.646 112.845 128.257 112.387 128.001C111.939 127.745 111.4 127.617 110.771 127.617C110.237 127.617 109.757 127.734 109.331 127.969C108.904 128.204 108.563 128.535 108.307 128.961L108.211 127.809ZM121.963 135.089C122.518 135.654 123.264 135.937 124.203 135.937C124.811 135.937 125.355 135.793 125.835 135.505C126.326 135.217 126.694 134.822 126.939 134.321L127.035 135.745H128.251V127.809H126.907V131.921C126.907 132.839 126.678 133.548 126.219 134.049C125.771 134.54 125.2 134.785 124.507 134.785C123.152 134.785 122.475 133.958 122.475 132.305V127.809H121.131V132.449C121.131 133.633 121.408 134.513 121.963 135.089ZM131.679 127.809H130.463V135.745H131.807V131.633C131.807 130.716 132.031 130.012 132.479 129.521C132.938 129.02 133.509 128.769 134.191 128.769C135.557 128.769 136.239 129.596 136.239 131.249V135.745H137.583V131.105C137.583 129.921 137.301 129.046 136.735 128.481C136.181 127.905 135.434 127.617 134.495 127.617C133.887 127.617 133.343 127.761 132.863 128.049C132.383 128.337 132.015 128.732 131.759 129.233L131.679 127.809ZM139.764 125.793C139.945 125.964 140.169 126.049 140.436 126.049C140.692 126.049 140.91 125.964 141.092 125.793C141.273 125.612 141.364 125.388 141.364 125.121C141.364 124.865 141.273 124.652 141.092 124.481C140.91 124.31 140.692 124.225 140.436 124.225C140.169 124.225 139.945 124.31 139.764 124.481C139.593 124.652 139.508 124.865 139.508 125.121C139.508 125.388 139.593 125.612 139.764 125.793ZM144.872 135.217C145.288 135.569 145.858 135.745 146.584 135.745H147.8V134.593H146.968C146.456 134.593 146.098 134.508 145.896 134.337C145.693 134.156 145.592 133.814 145.592 133.313V128.945H147.928V127.809H145.592V125.905H144.424L144.248 127.809H142.872V128.945H144.248V133.313C144.248 134.23 144.456 134.865 144.872 135.217ZM152.467 134.977L150.499 139.265H151.907L157.107 127.809H155.715L152.931 133.985L150.307 127.809H148.851L152.003 134.977H152.467ZM139.764 127.809V135.745H141.108V127.809H139.764Z" fill="#333333"/>
<path fill-rule="evenodd" clip-rule="evenodd" d="M124.196 194.978C137.754 198.916 152.986 195.541 163.674 184.853L220.242 128.284C235.863 112.663 235.863 87.3367 220.242 71.7157L163.674 15.1472C152.908 4.38149 137.532 1.03532 123.901 5.10867C125.915 6.36935 127.819 7.8756 129.571 9.62742L197.454 77.5097C209.95 90.0064 209.95 110.268 197.454 122.765L129.571 190.647C127.905 192.313 126.101 193.757 124.196 194.978Z" fill="#333333"/>
</svg>
