<svg width="50" height="50" viewBox="0 0 50 50" fill="none" xmlns="http://www.w3.org/2000/svg">
<g clip-path="url(#clip0_681_14902)">
<g clip-path="url(#clip1_681_14902)">
<path d="M22.8902 21.2452C23.7936 21.6092 25.1841 26.5734 25.4367 27.7865C25.4959 28.0708 25.677 29.0945 25.7889 29.2619C25.9253 29.25 26.0161 29.2225 26.1519 29.1884C28.3488 28.6362 30.6043 28.1209 32.827 27.9398C33.0809 27.9191 33.4181 28.1458 33.6196 28.2844C33.8562 29.1598 33.4348 29.5148 32.9915 30.2445C32.4461 31.1423 31.8022 31.9702 31.2188 32.8391L27.7339 37.9401C26.7187 39.4386 25.7075 40.9552 24.6133 42.392C24.4626 42.5755 24.2065 42.9361 23.9858 43.0092C23.2912 43.2393 22.4727 42.319 21.9221 41.977C20.4081 41.0162 18.8563 40.121 17.27 39.2934C16.1332 38.836 14.9934 38.1887 13.8144 37.8317C11.8472 37.2438 9.7804 36.9525 7.8212 36.3345C7.10377 36.1081 7.45157 34.7152 7.55049 34.1348C8.26389 29.9494 9.01491 25.7278 10.1129 21.6026C10.3018 20.8927 10.4491 19.756 11.3727 19.8785C11.8087 19.935 11.9308 20.3021 12.1954 20.6053C13.425 21.9953 14.3842 23.6426 15.3131 25.2856C15.4102 25.2861 16.729 24.405 16.9207 24.2822C18.1768 23.476 19.4567 22.7191 20.7575 22.0131C21.2988 21.7202 21.7704 21.5393 22.3592 21.2092C22.5422 21.2261 22.705 21.2393 22.8902 21.2452ZM11.5425 22.8464C11.4549 23.3802 11.2708 24.0458 11.1543 24.5945L10.3185 28.6556C10.2355 29.0594 10.1127 29.4788 10.0434 29.8806C9.87655 30.8468 9.7212 31.8314 9.5557 32.7977C9.47159 33.2887 9.37353 34.3468 9.23955 34.7731C9.80078 34.8673 10.4613 34.9791 11.0104 35.1197C11.9327 35.356 12.8692 35.5881 13.7948 35.8136C14.7019 36.0345 15.5878 36.4337 16.445 36.7871C16.7006 36.9008 17.288 37.1483 17.4934 37.3071C19.1736 38.0333 20.9946 39.1405 22.5704 40.1105C22.7596 40.227 23.4486 40.789 23.6197 40.7316C23.933 40.403 24.2231 39.9158 24.5021 39.5418C25.0936 38.749 25.6578 37.9719 26.1884 37.1315C26.618 36.4856 27.0944 35.8582 27.5133 35.2061C27.8983 34.6069 28.387 34.0317 28.7598 33.4332C29.3 32.566 29.8402 31.7299 30.4409 30.9051C30.6207 30.6583 30.7659 30.3706 30.9502 30.1223C29.6377 30.2087 28.3212 30.6306 27.0168 30.8945C26.1278 31.0743 25.5009 31.4963 24.5776 31.3701C24.4592 31.2408 24.2228 30.996 24.1286 30.8635C24.0523 30.3494 24.0033 29.7504 23.9031 29.2445C23.5518 27.4709 23.0149 25.7144 22.343 24.0791C22.2396 23.8274 22.2762 23.5237 22.0431 23.3905C21.5297 23.7415 21.1601 23.8878 20.6405 24.1791C19.0558 25.0678 17.4914 26.0243 15.9946 27.0962C14.5287 28.1459 14.3917 27.6663 13.6948 26.3514C13.1141 25.2557 12.3135 23.7734 11.5425 22.8464Z" fill="#CE307D"/>
<path d="M36.3115 10.7688C36.5739 10.8583 36.6702 10.9439 36.8839 11.1142C36.9785 11.4933 37.0181 11.9939 36.7159 12.322C36.2714 12.7841 35.7852 13.1658 35.2992 13.5829C34.1832 14.5407 33.0906 15.569 31.9339 16.4617C31.7517 16.6022 31.4003 16.6382 31.1871 16.6544C30.7559 16.5329 30.5763 16.0139 30.6122 15.5394C30.6196 15.4417 30.6994 15.2468 30.7713 15.1793C32.1707 13.8665 33.6591 12.6567 35.0942 11.389C35.3444 11.1681 35.7035 10.9006 35.9878 10.7587C36.0261 10.7396 36.2589 10.7631 36.3115 10.7688Z" fill="#CE307D"/>
<path d="M45.594 30.3889C45.9801 30.5178 46.1211 30.5663 46.333 30.947C46.3132 31.182 46.3154 31.2953 46.3251 31.5247C46.1264 31.9147 46.0403 31.9799 45.7398 32.2775C45.5503 32.3331 45.0894 32.3636 44.8467 32.3987C43.1286 32.6473 41.368 32.7366 39.6436 32.8673C39.4401 32.7991 39.2551 32.7325 39.1255 32.551C38.8315 32.1395 38.8971 31.462 39.3157 31.1046C39.3906 31.033 39.4723 30.9802 39.5723 30.971C40.5451 30.8808 41.5189 30.783 42.4919 30.7123C42.799 30.6901 43.1102 30.6848 43.416 30.6539C43.8496 30.6103 44.2854 30.5409 44.7188 30.4888C44.9919 30.4586 45.3276 30.3826 45.594 30.3889Z" fill="#CE307D"/>
<path d="M19.2043 5.08511C19.4336 5.17484 19.8826 5.3976 19.8679 5.73544C19.797 7.35559 19.8211 8.97545 19.6485 10.5981C19.5827 11.2169 19.0556 11.5539 18.5256 11.5247C18.2808 11.4438 17.9657 11.1428 17.9564 10.8553C17.9074 9.34499 18.0475 7.69361 18.1117 6.17403C18.1425 5.44584 18.5432 5.06055 19.2043 5.08511Z" fill="#CE307D"/>
<path d="M3.55854 14.1586C3.81909 14.3918 4.06386 14.6824 4.30667 14.9407L5.54176 16.2486C5.85905 16.5902 6.31942 16.8972 6.52338 17.3317C6.67552 17.7268 6.35297 18.4384 5.99908 18.6347C5.74971 18.7729 5.49654 18.7177 5.26663 18.6374C5.20625 18.6007 5.10164 18.5441 5.04942 18.4964C4.09692 17.6258 3.2831 16.5909 2.35572 15.6901C2.16501 15.5049 2.24942 15.0473 2.27152 14.7815C2.73664 14.1265 2.84302 14.0036 3.55854 14.1586Z" fill="#CE307D"/>
</g>
</g>
<defs>
<clipPath id="clip0_681_14902">
<rect width="50" height="50" fill="white"/>
</clipPath>
<clipPath id="clip1_681_14902">
<rect width="49.9069" height="40" fill="white" transform="translate(9.47266 -6) rotate(22.7567)"/>
</clipPath>
</defs>
</svg>
