<svg width="28" height="21" viewBox="0 0 28 21" fill="none" xmlns="http://www.w3.org/2000/svg">
<path d="M14.9179 17.5758L16.9455 18.5619L17.665 20.1182M17.6569 18.4078L17.665 20.1182L17.0437 20.0565L15.7519 19.9179L14.084 16.7283V15.4186M16.9455 18.5619L17.0437 20.0565M16.9455 18.5619L15.3835 18.2621M17.0437 20.0565L15.9808 19.733M14.9179 17.5758L15.3835 18.2621L17.0437 20.0565M15.9808 19.733L15.7519 19.9179M15.9808 19.733L14.084 16.7283M14.084 16.7283L14.9179 17.5758M14.084 16.7283L14.9833 16.6513M14.9179 17.5758L15.2123 17.1289M14.084 15.4186L14.7544 16.0504M14.084 15.4186L15.6047 16.4202M14.084 15.4186L15.8336 15.8192M14.084 15.4186L15.1632 15.3108M6.75838 13.9548L7.15082 14.8947L7.77219 15.0488L9.45642 15.4186L10.7482 15.696L14.084 15.4186M14.7544 16.0504L14.9833 16.6513M14.7544 16.0504L15.1305 16.2969M14.9833 16.6513V17.0519L15.2123 17.1289M14.9833 16.6513L15.1305 16.2969M17.6569 18.4078L17.1418 18.3616L16.6349 18.1305L15.2123 17.1289M15.2123 17.1289L15.6047 16.4202M15.2123 17.1289L16.9455 17.6374M16.6349 18.1305L16.9455 17.6374M16.9455 17.6374L18.5807 18.4541M16.9455 17.6374L16.5204 16.4202M18.5807 18.4541H18.1719L17.6569 18.4078M18.5807 18.4541L18.4009 17.4371M23.4045 17.283L22.6033 17.7607L21.5731 18.2621L20.8536 18.4541H18.5807M18.5807 18.4541L20.8536 17.9148M15.6047 16.4202L15.1305 16.2969M15.6047 16.4202L15.8336 15.8192M15.6047 16.4202H16.5204M15.8336 15.8192L16.5204 16.4202M15.8336 15.8192L17.9267 15.28M15.8336 15.8192L15.8663 15.8148M16.5204 16.4202L18.4009 17.4371M16.5204 16.4202L18.1065 15.5111M16.2424 15.2029L17.9267 15.28M16.2424 15.2029L15.1632 15.3108M16.2424 15.2029L17.9267 14.9718M17.9267 15.28L18.1065 15.5111M17.9267 15.28V14.9718M17.9267 15.28L18.6952 15.3108C18.6992 15.3086 18.7032 15.3064 18.7073 15.3042M18.1065 15.5111L18.4009 17.4371M18.1065 15.5111L15.8663 15.8148M18.1065 15.5111L20.0033 15.6035M20.0033 15.6035L18.7933 16.1428L18.4009 17.4371M18.4009 17.4371L20.8536 17.9148M15.8663 15.8148L15.1632 15.3108M10.7482 15.696L12.0073 13.8162M10.7482 15.696L9.7344 15.2029M12.0073 13.8162L17.9267 14.9718M14.084 13.8162H12.0073L9.7344 15.2029M17.9267 14.9718L15.3835 13.3693M17.9267 14.9718L14.084 13.8162M17.9267 14.9718L17.3053 13.5696M17.9267 14.9718L21.0662 14.0165M15.3835 13.3693L14.084 13.8162M15.3835 13.3693L14.084 11.9518M14.084 13.8162V11.9518M14.084 13.8162L10.5356 13.169M14.084 11.9518L10.5356 13.169M14.084 11.9518L13.7569 11.1197M10.5356 13.169L6.75838 13.9548M10.5356 13.169L9.7344 15.2029M10.5356 13.169L9.60359 12.2291M10.5356 13.169L10.6992 11.6744M9.7344 15.2029L8.16463 14.5446L6.75838 13.9548M6.75838 13.9548L8.26274 12.1058L9.60359 12.2291M6.75838 13.9548L9.60359 12.2291M6.75838 13.9548L7.31434 11.7823M6.75838 13.9548L5.89173 11.243M4.86157 10.9348L5.28672 12.3061L5.43388 12.6914L6.75838 13.9548M7.15082 14.8947L8.16463 14.5446M7.77219 15.0488L9.7344 15.2029M9.45642 15.4186L9.7344 15.2029M9.60359 12.2291L7.31434 11.7823M9.60359 12.2291L10.6992 11.6744M7.31434 11.7823L5.89173 11.243M7.31434 11.7823L11.9419 10.4417M5.89173 11.243L5.43388 12.6914M5.89173 11.243L4.86157 10.6112M5.89173 11.243L8.55707 9.14744M5.89173 11.243L11.9419 10.4417M4.86157 10.6112V10.9348M4.86157 10.6112H4.79616M4.86157 10.6112L6.33323 9.97949M0.986191 9.50183L1.14971 9.96408L1.86919 11.1197L3.11193 11.6436L4.02763 11.8439L4.86157 10.9348M1.82013 9.17826L3.2918 10.1336L3.73329 10.3589L4.86157 10.9348M4.02763 11.8439V10.7191M4.79616 10.6112L4.02763 10.7191L1.86919 11.1197M1.86919 11.1197L1.82013 9.17826M1.86919 11.1197L3.73329 10.3589M4.79616 10.6112L3.21004 9.59428M1.14971 9.96408L1.82013 9.17826M1.83649 4.21678L0.675509 5.34158L0.119547 7.99181L0.299416 8.31539L0.986191 9.50183M0.986191 9.50183L1.82013 9.17826M0.986191 9.50183L0.577395 7.60661M0.299416 8.31539L0.577395 7.60661M0.119547 7.99181L0.577395 7.60661M0.675509 5.34158L2.11447 7.06732M0.675509 5.34158L0.577395 7.60661M0.675509 5.34158L2.11447 5.41863M0.675509 5.34158L2.39245 4.15514M2.11447 7.06732L4.09303 7.72987M2.11447 7.06732L0.577395 7.60661M2.11447 7.06732V5.41863M2.11447 7.06732L4.15844 6.71292M2.11447 7.06732L3.09557 6.00414M3.2918 10.1336L3.21004 9.59428L4.09303 7.72987M4.09303 7.72987L1.82013 9.17826M4.09303 7.72987L0.577395 7.60661M4.09303 7.72987L6.72567 7.57579M1.82013 9.17826L0.577395 7.60661M1.83649 4.21678L2.39245 4.15514M9.99603 0.757503L7.51056 0.61123L5.31942 1.1197L3.70059 2.0442L1.83649 4.21678M2.39245 4.15514L2.11447 5.41863M2.39245 4.15514L3.21004 3.36932M2.39245 4.15514L3.33267 4.83739M2.11447 5.41863L3.27544 5.11902M3.70059 2.0442L3.21004 3.36932M3.70059 2.0442L3.96222 3.23064M3.70059 2.0442L7.51056 0.61123M3.21004 3.36932L3.38991 4.55576M3.38991 4.55576L3.33267 4.83739M3.38991 4.55576L5.36847 5.54189M3.38991 4.55576L5.31942 4.12433M4.48548 3.73912L3.74965 4.28761L3.38991 4.55576M3.09557 6.00414L4.15844 6.71292M3.33267 4.83739L3.27544 5.11902L3.09557 6.00414M4.15844 6.71292L6.72567 7.57579M4.15844 6.71292L5.36847 5.54189M4.15844 6.71292L6.39864 5.29536M6.72567 7.57579L7.77219 5.11902M6.72567 7.57579L6.5458 9.37856M6.72567 7.57579L8.73694 8.94713M13.7569 11.1197L10.6992 11.6744M13.7569 11.1197L15.016 9.19366M10.6992 11.6744L11.9419 10.4417M10.6992 11.6744L15.016 9.19366M11.9419 10.4417L8.55707 9.14744M11.9419 10.4417L15.016 9.19366M11.9419 10.4417L12.9067 8.31539M11.9419 10.4417L11.3696 9.42479M8.55707 9.14744L6.5458 9.37856M8.55707 9.14744L7.23258 9.59428L6.33323 9.97949M8.55707 9.14744L11.3696 9.42479M9.88157 7.08272L8.73694 8.94713L8.55707 9.14744M8.55707 9.14744L12.0073 8.31539M6.5458 9.37856L6.33323 9.97949M15.016 9.19366L12.9067 8.31539M15.016 9.19366L17.4034 10.2722M15.016 9.19366L17.5342 9.31693M13.5934 8.30786L12.9067 8.31539L12.3507 8.71666L11.3696 9.42479M8.73694 8.94713L7.77219 5.11902M9.48913 5.04883L7.77219 5.11902L6.39864 5.29536M7.77219 5.11902L9.88157 7.08272M5.36847 5.54189L6.39864 5.29536M5.36847 5.54189L5.31942 4.12433M6.39864 5.29536L6.26782 2.84544M6.39864 5.29536L5.31942 4.12433M6.39864 5.29536L7.69043 3.06115M6.39864 5.29536L9.71805 3.41554M7.51056 0.61123L3.96222 3.23064M7.51056 0.61123L9.61994 1.00674M7.51056 0.61123L10.4212 1.79767M10.4212 1.79767L10.7155 1.21215L9.61994 1.00674M10.4212 1.79767L9.71805 3.41554M12.3997 1.25838L11.157 1.59711L10.4212 1.79767M3.96222 3.23064L7.02001 1.98257L10.4212 1.79767M9.71805 3.41554L7.69043 3.06115M9.71805 3.41554L9.48913 5.04883M9.71805 3.41554L9.88157 7.08272M9.71805 3.41554L12.4488 4.03188M12.3997 1.25838L11.0425 2.25992L9.71805 3.41554M7.69043 3.06115L7.02001 1.98257M7.02001 1.98257L6.26782 2.84544M4.48548 3.73912L5.58105 2.92248L6.26782 2.84544M6.26782 2.84544L5.31942 4.12433M5.58105 2.92248L5.31942 4.12433M3.96222 3.23064L4.48548 3.73912M3.96222 3.23064L3.74965 4.28761M9.48913 5.04883L9.88157 7.08272M9.88157 7.08272L10.9608 6.60507M9.88157 7.08272L12.4488 4.03188M9.88157 7.08272L12.3507 5.52648M12.3507 8.71666L12.0073 8.31539M12.0073 8.31539L10.9608 6.60507M10.9608 6.60507L12.3507 5.52648M10.9608 6.60507L13.1356 7.51416M12.4488 4.03188L13.2173 2.56809M12.4488 4.03188L11.0425 2.25992M12.4488 4.03188L14.6072 2.52186M12.4488 4.03188L13.9368 2.56809M12.4488 4.03188L12.3507 5.52648M12.3997 1.25838L12.4488 0.333881M12.3997 1.25838L13.2173 2.56809M12.3997 1.25838L13.9368 2.56809M16.0298 1.08889L14.133 0.410922L12.4488 0.333881M12.4488 0.333881L14.1657 2.47564M12.4488 0.333881L14.084 1.95175M12.4488 0.333881L15.0651 1.41246M9.99603 0.757503L10.9608 0.118164L12.4488 0.333881M14.133 0.410922L15.0651 1.41246M20.5756 2.12125L18.6298 1.25838L16.8965 0.919397L16.0298 1.08889M16.0298 1.08889L15.0651 1.41246M16.8965 0.919397L15.6701 1.70522M15.6701 1.70522L15.0651 1.41246M15.6701 1.70522L15.6538 1.73604M15.0651 1.41246L14.084 1.95175M15.0651 1.41246L14.1657 2.47564M14.084 1.95175L14.1657 2.47564M15.6538 1.73604L14.1657 2.47564L13.9368 2.56809M13.9368 2.56809H13.2173M13.9368 2.56809L14.6072 2.52186M15.6538 1.73604L15.3594 2.29074M15.6538 1.73604L18.6298 1.25838M15.6538 1.73604L18.9241 1.95175M15.6538 1.73604L16.8965 2.12125M15.3594 2.29074L14.6072 2.52186M15.3594 2.29074L16.3732 2.99952M14.6072 2.52186L12.3507 5.52648M14.6072 2.52186L15.0651 4.47872M14.6072 2.52186L16.3732 2.99952M20.8536 18.4541V17.9148M22.6033 17.7607L22.2926 15.434M22.6033 17.7607L22.0964 17.0827M22.6033 17.7607L20.8536 17.9148M22.6033 17.7607L19.8235 17.4371M24.0422 15.9425L24.4183 16.4202L23.8951 17.283H23.4045M23.4045 17.283L24.0422 15.9425M23.4045 17.283L22.2926 15.434M23.8951 17.283L24.0422 15.9425M26.6912 9.23989L27.2635 10.1952L27.5742 11.9672L27.051 13.7083L25.5302 15.0026L24.1567 15.6652L24.0422 15.9425M24.0422 15.9425L23.1102 15.5111M25.5302 15.0026L23.3718 15.1105M27.051 13.7083L25.8978 13.8008M27.5742 11.9672L26.7893 11.0427M26.0699 13.4618L26.6912 12.8608L27.5742 11.9672M27.2635 10.1952L26.7403 10.1413M26.7893 11.0427L26.7403 10.1413L26.6912 9.23989V8.73141L26.0862 8.20753M26.6912 8.73141H26.2334M24.3529 5.31077L25.5629 6.38935L26.0862 8.20753M26.0862 8.20753L26.2334 8.73141M26.0862 8.20753L24.8598 7.51416M26.0862 8.20753L25.3177 7.08272M25.5629 6.38935L25.0397 6.49721M24.3529 5.31077L24.2221 4.98719M24.3529 5.31077L25.0397 6.49721M24.3529 5.31077L21.3769 4.01647M20.5756 2.12125L21.0171 2.29074L22.0473 2.83003L22.5052 3.18442L24.2221 4.0781V4.98719M24.2221 4.98719L21.3769 4.01647M24.2221 4.98719L21.7203 3.5234M24.2221 4.0781L21.7203 3.5234M21.0171 2.29074L21.7203 3.5234M16.3732 2.99952L17.6487 2.76839L21.0171 2.29074M16.8965 2.12125L19.2184 2.25992L21.0171 2.29074M20.5756 2.12125L18.9241 1.95175M18.6298 1.25838L18.9241 1.95175M18.7933 16.1428L21.4913 16.6667M18.7933 16.1428L19.8235 17.3755M20.0033 15.6035L21.5731 15.5111M20.0033 15.6035L21.4913 16.6667M20.0033 15.6035L19.8235 15.2029M23.1102 15.5111L22.2926 15.434L21.5731 15.5111M21.5731 15.5111L22.0964 17.0827M21.5731 15.5111L20.5593 15.2029M23.1102 15.5111L23.3718 15.1105M22.0964 17.0827L21.4913 16.6667M22.0964 17.0827L19.8235 17.3755M20.8536 17.9148L19.8235 17.4371V17.3755M17.4034 10.2722L15.9481 11.2738L17.3053 13.5696M17.3053 13.5696L18.7933 13.9394L21.0662 14.0165M17.3053 13.5696L18.2864 11.6744M15.9481 11.2738L18.2864 11.6744M17.4034 10.2722L19.6599 10.4109M17.4034 10.2722L18.2864 11.6744M17.4034 10.2722L17.5342 9.31693M19.6599 10.4109L21.4586 9.56346M19.6599 10.4109L18.2864 11.6744M19.6599 10.4109L17.5342 9.31693M21.4586 9.56346L21.9328 8.54651M21.4586 9.56346L18.2864 11.6744M21.0662 14.0165L20.5593 12.9841L21.4586 9.56346M21.4586 9.56346L22.6687 10.5342M21.4586 9.56346L20.4612 7.7761M21.4586 9.56346L17.5342 9.31693M21.9328 8.54651L24.402 8.99336M21.9328 8.54651L22.4725 7.42171M21.9328 8.54651L20.4612 7.7761M24.402 8.99336H24.9743M24.402 8.99336L22.6687 10.5342M24.402 8.99336L22.4725 7.42171M24.9743 8.99336L25.4321 9.87163M24.9743 8.99336L23.2083 10.2722M24.9743 8.99336L25.4321 11.6744M24.9743 8.99336L26.2334 8.73141M24.9743 8.99336L24.8598 7.51416M25.4321 9.87163L26.2334 11.4587M25.4321 9.87163L26.2334 8.73141M26.2334 11.4587L26.6912 12.8608M26.2334 11.4587L26.7893 11.0427M26.2334 11.4587V8.73141M26.6912 12.8608L26.7893 11.0427M26.0699 13.4618L25.4321 11.6744M26.0699 13.4618H24.6636M23.3718 15.1105L25.5302 14.5249L25.8978 13.8008L26.0699 13.4618M25.5302 14.5249L24.6636 13.4618M25.5302 14.5249L22.2108 13.8008M24.6636 13.4618L25.4321 11.6744M24.6636 13.4618L22.2108 13.8008M24.6636 13.4618L23.3718 10.8115M25.4321 11.6744L23.3718 10.8115M23.3718 10.8115L23.2083 10.2722M22.2108 13.8008L23.3718 13.1536V10.8115M23.2083 10.2722L22.6687 10.5342M22.6687 10.5342L20.5593 12.9841M21.0662 14.0165L23.3718 13.1536M21.0662 14.0165L22.2108 13.8008M21.0662 14.0165C20.9361 14.09 19.4474 14.9012 18.7073 15.3042M22.2108 13.8008L23.3718 15.1105M23.3718 15.1105L20.5593 15.2029M18.7073 15.3042L19.8235 15.2029H20.5593M26.2334 8.73141L24.8598 7.51416M24.8598 7.51416L22.4725 7.42171M24.8598 7.51416L25.3177 7.08272M24.8598 7.51416L24.3529 6.49721M24.8598 7.51416L20.9354 5.09505M22.4725 7.42171L20.4612 7.7761M22.4725 7.42171L20.9354 5.09505M22.4725 7.42171L20.2159 5.88088M20.4612 7.7761L17.5342 9.31693M20.4612 7.7761L20.2159 5.88088M20.4612 7.7761L19.0876 6.49721M20.4612 7.7761L18.27 4.61739M20.4612 7.7761L17.1254 8.26916M17.5342 9.31693L17.1254 8.26916M17.1254 8.26916L14.689 7.08272M17.1254 8.26916L19.0876 6.49721M13.5934 8.30786L14.0186 8.30321L15.016 8.29228L17.1254 8.26916M14.689 7.08272L13.1356 7.51416M14.689 7.08272L15.0651 6.25068M14.689 7.08272L15.016 8.29228M14.689 7.08272L14.0186 8.30321M13.1356 7.51416L12.3507 5.52648M13.1356 7.51416L15.0651 6.25068M13.1356 7.51416L13.5934 8.30786M12.3507 5.52648L15.0651 6.25068M15.0651 4.47872V6.25068M15.0651 4.47872L16.3732 2.99952M15.0651 4.47872L18.826 3.24605M15.0651 6.25068L19.0876 6.49721M15.0651 6.25068L18.27 4.61739M15.0651 6.25068L18.826 3.24605M19.0876 6.49721L18.27 4.61739M18.27 4.61739L20.2159 5.88088M18.27 4.61739L20.9354 5.09505M18.27 4.61739L18.826 3.24605M20.2159 5.88088L20.9354 5.09505M20.9354 5.09505L24.3529 6.49721M20.9354 5.09505L18.826 3.24605M24.3529 6.49721L21.0171 3.93943L21.3769 4.01647M24.3529 6.49721L25.3177 7.08272M21.3769 4.01647L21.7203 3.5234M21.7203 3.5234L20.0033 3.40014L18.826 3.24605M18.826 3.24605L17.6487 2.76839M16.3732 2.99952L16.8965 2.12125M19.2184 2.25992L18.9241 1.95175M25.3177 7.08272L25.0397 6.49721M11.157 1.59711L10.9608 0.118164M9.61994 1.00674L9.99603 0.757503" stroke="white" stroke-width="0.226415"/>
</svg>
