<svg width="50" height="50" viewBox="0 0 50 50" fill="none" xmlns="http://www.w3.org/2000/svg">
<path d="M17.5725 19.954V30.643C16.4803 30.8783 15.5138 31.5096 14.8589 32.4153C14.204 33.3209 13.9072 34.437 14.0254 35.5486C14.1437 36.6601 14.6687 37.6886 15.4995 38.4361C16.3302 39.1835 17.408 39.597 18.5252 39.597C19.6424 39.597 20.7201 39.1835 21.5509 38.4361C22.3816 37.6886 22.9067 36.6601 23.0249 35.5486C23.1432 34.437 22.8463 33.3209 22.1914 32.4153C21.5366 31.5096 20.57 30.8783 19.4778 30.643V26.8475H28.5282C29.7911 26.846 31.0018 26.3434 31.8948 25.4499C32.7878 24.5564 33.2901 23.345 33.2915 22.0814V19.8956C34.3689 19.6013 35.2994 18.9186 35.9039 17.979C36.5083 17.0393 36.7441 15.9092 36.5658 14.8061C36.3875 13.703 35.8077 12.7048 34.938 12.0037C34.0683 11.3027 32.9702 10.9483 31.855 11.0087C30.7399 11.0691 29.6864 11.5401 28.8975 12.3311C28.1086 13.122 27.6399 14.177 27.5817 15.2929C27.5235 16.4088 27.8799 17.5069 28.5823 18.3757C29.2846 19.2445 30.2833 19.8227 31.3862 19.9989V22.0814C31.3853 22.8396 31.0839 23.5664 30.5481 24.1025C30.0123 24.6386 29.2859 24.9402 28.5282 24.9411H19.4778V19.954C20.57 19.7187 21.5366 19.0874 22.1914 18.1817C22.8463 17.2761 23.1432 16.16 23.0249 15.0485C22.9067 13.9369 22.3816 12.9084 21.5509 12.161C20.7201 11.4135 19.6424 11 18.5252 11C17.408 11 16.3302 11.4135 15.4995 12.161C14.6687 12.9084 14.1437 13.9369 14.0254 15.0485C13.9072 16.16 14.204 17.2761 14.8589 18.1817C15.5138 19.0874 16.4803 19.7187 17.5725 19.954ZM29.4809 15.5281C29.4809 15.0096 29.6345 14.5028 29.9224 14.0718C30.2102 13.6407 30.6194 13.3047 31.0981 13.1063C31.5768 12.9079 32.1036 12.856 32.6118 12.9571C33.12 13.0583 33.5868 13.3079 33.9532 13.6745C34.3196 14.0411 34.5691 14.5082 34.6702 15.0167C34.7713 15.5252 34.7194 16.0522 34.5211 16.5312C34.3228 17.0102 33.987 17.4196 33.5562 17.7076C33.1254 17.9957 32.6188 18.1494 32.1007 18.1494C31.4061 18.1487 30.7402 17.8722 30.249 17.3808C29.7579 16.8894 29.4816 16.2231 29.4809 15.5281ZM21.145 35.0689C21.145 35.5874 20.9914 36.0942 20.7035 36.5253C20.4156 36.9563 20.0065 37.2923 19.5277 37.4907C19.049 37.6891 18.5223 37.741 18.0141 37.6399C17.5059 37.5387 17.0391 37.2891 16.6727 36.9225C16.3063 36.5559 16.0568 36.0888 15.9557 35.5803C15.8546 35.0718 15.9065 34.5448 16.1048 34.0658C16.3031 33.5868 16.6388 33.1774 17.0697 32.8894C17.5005 32.6013 18.007 32.4476 18.5252 32.4476C19.2198 32.4484 19.8857 32.7248 20.3768 33.2162C20.868 33.7076 21.1442 34.3739 21.145 35.0689ZM18.5252 12.9068C19.0433 12.9068 19.5499 13.0605 19.9807 13.3485C20.4115 13.6366 20.7473 14.046 20.9456 14.525C21.1439 15.0039 21.1958 15.531 21.0947 16.0395C20.9936 16.548 20.7441 17.0151 20.3777 17.3817C20.0113 17.7483 19.5445 17.9979 19.0363 18.0991C18.5281 18.2002 18.0013 18.1483 17.5226 17.9499C17.0439 17.7515 16.6347 17.4155 16.3469 16.9844C16.059 16.5534 15.9053 16.0465 15.9053 15.5281C15.9061 14.8331 16.1824 14.1668 16.6735 13.6754C17.1647 13.184 17.8306 12.9075 18.5252 12.9068Z" fill="white"/>
</svg>
