<svg width="588" height="360" viewBox="0 0 588 360" fill="none" xmlns="http://www.w3.org/2000/svg">
<rect x="1.02024" y="1.02024" width="585.271" height="357.96" rx="23.4655" stroke="url(#paint0_linear_559_18380)" stroke-width="2.04048"/>
<path d="M68.7912 148.457C63.1144 193.46 41.0233 300.648 46.767 335.255M63.6251 349.394C101.42 349.937 519.607 349.394 523.686 349.394M445.105 140.844C464.359 169.376 526.309 283.469 540.244 327.913" stroke="white" stroke-width="0.543807"/>
<path d="M63.6246 314.863C73.2354 314.863 81.027 322.654 81.027 332.265C81.027 341.875 73.2354 349.666 63.6246 349.666C54.0141 349.666 46.2233 341.875 46.2233 332.265C46.2233 322.654 54.0141 314.864 63.6246 314.863ZM63.6246 324.939C59.5782 324.94 56.2976 328.22 56.2975 332.267C56.2975 336.313 59.5781 339.594 63.6246 339.594C67.6713 339.594 70.9518 336.313 70.9518 332.267C70.9517 328.22 67.6712 324.939 63.6246 324.939Z" fill="white"/>
<path d="M523.686 314.863C533.297 314.863 541.087 322.654 541.087 332.265C541.087 341.875 533.297 349.666 523.686 349.666C514.075 349.666 506.284 341.875 506.284 332.265C506.284 322.654 514.075 314.863 523.686 314.863ZM523.686 324.939C519.639 324.939 516.359 328.22 516.359 332.267C516.359 336.313 519.639 339.594 523.686 339.594C527.733 339.594 531.013 336.313 531.013 332.267C531.013 328.22 527.732 324.94 523.686 324.939Z" fill="white"/>
<path d="M132.353 278.698H459.3C466.88 278.698 473.497 283.838 475.371 291.183L492.726 359.182H95.1857L116.51 290.375C118.662 283.432 125.084 278.698 132.353 278.698Z" stroke="white" stroke-width="1.63142"/>
<circle cx="154.985" cy="334.438" r="14.4109" stroke="white" stroke-width="1.63142"/>
<circle cx="432.87" cy="334.438" r="14.4109" stroke="white" stroke-width="1.63142"/>
<rect x="201.481" y="320.027" width="19.0332" height="19.0332" rx="2.44713" stroke="white" stroke-width="1.63142"/>
<path d="M283.324 339.876C283.324 338.074 284.784 336.613 286.586 336.613H300.725C302.527 336.613 303.988 338.074 303.988 339.876V349.665H283.324V339.876Z" fill="white"/>
<rect x="367.342" y="320.027" width="19.0332" height="19.0332" rx="2.44713" stroke="white" stroke-width="1.63142"/>
<g clip-path="url(#clip0_559_18380)">
<path d="M293.655 284.953C299.061 284.953 303.443 289.335 303.444 294.741C303.444 300.147 299.061 304.53 293.655 304.53C288.249 304.53 283.867 300.147 283.867 294.741C283.867 289.336 288.249 284.953 293.655 284.953ZM294.454 288.884C294.277 288.013 293.033 288.013 292.856 288.884L292.109 292.559C292.043 292.879 291.793 293.13 291.472 293.195L287.797 293.942C286.926 294.119 286.926 295.364 287.797 295.541L291.472 296.288C291.793 296.353 292.043 296.604 292.109 296.925L292.856 300.6C293.033 301.47 294.277 301.47 294.454 300.6L295.202 296.925C295.267 296.604 295.518 296.353 295.838 296.288L299.513 295.541C300.384 295.364 300.384 294.12 299.513 293.942L295.838 293.195C295.518 293.13 295.267 292.879 295.202 292.559L294.454 288.884Z" fill="white"/>
</g>
<g clip-path="url(#clip1_559_18380)">
<path d="M24.4705 14.6816C29.8764 14.6816 34.2593 19.0639 34.2595 24.4697C34.2595 29.8758 29.8765 34.2588 24.4705 34.2588C19.0646 34.2586 14.6824 29.8756 14.6824 24.4697C14.6826 19.064 19.0648 14.6819 24.4705 14.6816ZM25.2703 18.6123C25.0932 17.7414 23.8487 17.7414 23.6716 18.6123L22.9246 22.2871C22.8592 22.6077 22.6084 22.8585 22.2878 22.9238L18.613 23.6709C17.7422 23.848 17.7422 25.0924 18.613 25.2695L22.2878 26.0166C22.6084 26.0819 22.8593 26.3327 22.9246 26.6533L23.6716 30.3281C23.8488 31.199 25.0932 31.199 25.2703 30.3281L26.0173 26.6533C26.0826 26.3327 26.3334 26.0819 26.6541 26.0166L30.3289 25.2695C31.1997 25.0924 31.1997 23.848 30.3289 23.6709L26.6541 22.9238C26.3334 22.8585 26.0827 22.6077 26.0173 22.2871L25.2703 18.6123Z" fill="white"/>
</g>
<g clip-path="url(#clip2_559_18380)">
<path d="M24.4702 325.738C29.8761 325.738 34.259 330.121 34.2593 335.526C34.2593 340.932 29.8763 345.315 24.4702 345.315C19.0644 345.315 14.6821 340.932 14.6821 335.526C14.6824 330.121 19.0645 325.739 24.4702 325.738ZM25.27 329.669C25.0929 328.798 23.8485 328.798 23.6714 329.669L22.9243 333.344C22.859 333.664 22.6082 333.915 22.2876 333.98L18.6128 334.728C17.7419 334.905 17.7419 336.149 18.6128 336.326L22.2876 337.073C22.6082 337.139 22.859 337.389 22.9243 337.71L23.6714 341.385C23.8485 342.256 25.0929 342.256 25.27 341.385L26.0171 337.71C26.0824 337.389 26.3332 337.139 26.6538 337.073L30.3286 336.326C31.1995 336.149 31.1995 334.905 30.3286 334.728L26.6538 333.98C26.3332 333.915 26.0824 333.664 26.0171 333.344L25.27 329.669Z" fill="white"/>
</g>
<g clip-path="url(#clip3_559_18380)">
<path d="M562.838 14.6816C568.244 14.6816 572.627 19.0639 572.627 24.4697C572.627 29.8758 568.244 34.2588 562.838 34.2588C557.432 34.2586 553.05 29.8756 553.05 24.4697C553.05 19.064 557.432 14.6819 562.838 14.6816ZM563.638 18.6123C563.461 17.7414 562.216 17.7414 562.039 18.6123L561.292 22.2871C561.227 22.6077 560.976 22.8585 560.655 22.9238L556.98 23.6709C556.11 23.848 556.11 25.0924 556.98 25.2695L560.655 26.0166C560.976 26.0819 561.227 26.3327 561.292 26.6533L562.039 30.3281C562.216 31.199 563.461 31.199 563.638 30.3281L564.385 26.6533C564.45 26.3327 564.701 26.0819 565.021 26.0166L568.696 25.2695C569.567 25.0924 569.567 23.848 568.696 23.6709L565.021 22.9238C564.701 22.8585 564.45 22.6077 564.385 22.2871L563.638 18.6123Z" fill="white"/>
</g>
<g clip-path="url(#clip4_559_18380)">
<path d="M562.838 325.738C568.244 325.738 572.627 330.121 572.627 335.526C572.627 340.932 568.244 345.315 562.838 345.315C557.432 345.315 553.05 340.932 553.05 335.526C553.05 330.121 557.432 325.739 562.838 325.738ZM563.638 329.669C563.461 328.798 562.216 328.798 562.039 329.669L561.292 333.344C561.227 333.664 560.976 333.915 560.655 333.98L556.98 334.728C556.11 334.905 556.11 336.149 556.98 336.326L560.655 337.073C560.976 337.139 561.227 337.389 561.292 337.71L562.039 341.385C562.216 342.256 563.461 342.256 563.638 341.385L564.385 337.71C564.45 337.389 564.701 337.139 565.021 337.073L568.696 336.326C569.567 336.149 569.567 334.905 568.696 334.728L565.021 333.98C564.701 333.915 564.45 333.664 564.385 333.344L563.638 329.669Z" fill="url(#paint1_linear_559_18380)"/>
</g>
<path d="M190.346 166.231C194.993 166.231 198.621 167.71 201.233 170.667C203.882 173.585 205.207 177.521 205.207 182.474C205.207 187.62 203.901 191.633 201.29 194.513C198.679 197.393 195.031 198.833 190.346 198.833C185.662 198.833 182.014 197.412 179.402 194.57C176.791 191.69 175.486 187.678 175.486 182.532C175.486 179.268 176.062 176.426 177.214 174.007C178.404 171.55 180.113 169.649 182.34 168.305C184.606 166.923 187.274 166.231 190.346 166.231ZM190.346 172.971C188.465 172.971 187.082 173.739 186.199 175.274C185.316 176.772 184.874 179.191 184.874 182.532C184.874 185.911 185.316 188.369 186.199 189.905C187.082 191.402 188.465 192.151 190.346 192.151C192.228 192.151 193.61 191.383 194.493 189.847C195.377 188.311 195.818 185.854 195.818 182.474C195.818 179.172 195.377 176.772 194.493 175.274C193.61 173.739 192.228 172.971 190.346 172.971ZM227.879 191.633C229.031 191.633 230.144 191.422 231.219 190.999C232.295 190.538 233.447 189.886 234.675 189.041L238.707 194.801C237.248 196.03 235.559 197.009 233.639 197.738C231.719 198.468 229.626 198.833 227.36 198.833C224.096 198.833 221.274 198.161 218.893 196.817C216.551 195.473 214.746 193.591 213.479 191.172C212.212 188.753 211.578 185.95 211.578 182.762C211.578 179.575 212.231 176.734 213.536 174.238C214.842 171.742 216.685 169.783 219.066 168.363C221.485 166.942 224.307 166.231 227.533 166.231C229.799 166.231 231.834 166.558 233.639 167.211C235.443 167.825 237.133 168.785 238.707 170.091L234.791 175.562C232.563 174.027 230.279 173.259 227.936 173.259C223.367 173.259 221.082 176.426 221.082 182.762C221.082 185.95 221.677 188.234 222.867 189.617C224.058 190.961 225.728 191.633 227.879 191.633ZM258.442 192.324C260.016 192.324 261.245 192.094 262.128 191.633C263.049 191.134 263.51 190.404 263.51 189.444C263.51 188.753 263.318 188.196 262.934 187.774C262.589 187.351 261.917 186.948 260.918 186.564C259.92 186.142 258.365 185.642 256.253 185.066C253.181 184.26 250.838 183.146 249.226 181.726C247.613 180.266 246.806 178.27 246.806 175.735C246.806 172.932 247.958 170.647 250.262 168.881C252.605 167.115 255.869 166.231 260.054 166.231C264.893 166.231 269.021 167.479 272.438 169.975L268.809 175.332C266.006 173.604 263.184 172.74 260.342 172.74C258.845 172.74 257.731 172.932 257.002 173.316C256.31 173.7 255.965 174.295 255.965 175.102C255.965 175.639 256.138 176.1 256.483 176.484C256.867 176.83 257.558 177.194 258.557 177.578C259.593 177.962 261.129 178.442 263.165 179.018C265.353 179.633 267.139 180.305 268.521 181.034C269.942 181.764 271.037 182.743 271.805 183.972C272.573 185.201 272.957 186.775 272.957 188.695C272.957 190.846 272.304 192.689 270.998 194.225C269.693 195.761 267.945 196.913 265.757 197.681C263.568 198.449 261.149 198.833 258.499 198.833C255.658 198.833 253.085 198.43 250.781 197.623C248.477 196.817 246.518 195.684 244.906 194.225L249.456 189.098C252.221 191.249 255.216 192.324 258.442 192.324ZM333.737 166.98C333.737 168.439 333.218 169.668 332.182 170.667C331.145 171.665 329.858 172.164 328.322 172.164C326.786 172.164 325.5 171.665 324.463 170.667C323.426 169.668 322.908 168.439 322.908 166.98C322.908 166.135 323.042 165.271 323.311 164.388C323.58 163.467 324.06 162.334 324.751 160.99L328.841 152.407H334.025L331.548 162.603C333.007 163.639 333.737 165.099 333.737 166.98ZM361.65 156.9C364.568 156.9 367.064 157.419 369.138 158.455C371.211 159.492 372.767 160.894 373.803 162.66C374.879 164.388 375.416 166.289 375.416 168.363C375.416 170.551 374.917 172.663 373.919 174.699C372.92 176.734 371.269 179.018 368.965 181.553C366.7 184.049 363.474 187.159 359.288 190.884H376.338L375.359 197.854H348.863V191.402C353.586 186.833 357.119 183.281 359.461 180.746C361.804 178.174 363.493 176.004 364.53 174.238C365.605 172.433 366.143 170.743 366.143 169.169C366.143 167.518 365.682 166.231 364.76 165.31C363.839 164.388 362.514 163.927 360.786 163.927C359.288 163.927 357.983 164.254 356.869 164.907C355.756 165.521 354.661 166.539 353.586 167.959L348.056 163.755C349.631 161.566 351.512 159.876 353.701 158.686C355.928 157.495 358.578 156.9 361.65 156.9ZM395.957 156.9C398.722 156.9 401.122 157.361 403.157 158.283C405.23 159.204 406.805 160.452 407.88 162.027C408.993 163.563 409.55 165.271 409.55 167.153C409.55 169.611 408.821 171.627 407.361 173.201C405.941 174.775 403.944 175.946 401.371 176.714C407.669 177.559 410.817 180.862 410.817 186.622C410.817 188.887 410.184 190.961 408.917 192.842C407.688 194.686 405.902 196.145 403.56 197.22C401.218 198.295 398.491 198.833 395.381 198.833C392.462 198.833 389.813 198.314 387.432 197.278C385.051 196.241 383.016 194.762 381.326 192.842L386.453 188.062C388.642 190.596 391.406 191.863 394.747 191.863C396.782 191.863 398.414 191.345 399.643 190.308C400.872 189.271 401.486 187.831 401.486 185.988C401.486 181.994 399.24 179.998 394.747 179.998H391.118L392.155 173.777H394.69C396.533 173.777 397.992 173.335 399.067 172.452C400.181 171.531 400.738 170.225 400.738 168.535C400.738 167.038 400.2 165.867 399.125 165.022C398.05 164.139 396.648 163.697 394.92 163.697C392.04 163.697 389.39 164.849 386.971 167.153L382.306 162.315C386.03 158.705 390.581 156.9 395.957 156.9Z" fill="#41E22E"/>
<defs>
<linearGradient id="paint0_linear_559_18380" x1="18.8744" y1="-43.3602" x2="613.674" y2="390.752" gradientUnits="userSpaceOnUse">
<stop stop-color="white"/>
<stop offset="0.5" stop-color="#CCCCCC"/>
<stop offset="1" stop-color="#41E22E"/>
</linearGradient>
<linearGradient id="paint1_linear_559_18380" x1="562.838" y1="325.738" x2="562.838" y2="345.315" gradientUnits="userSpaceOnUse">
<stop stop-color="white"/>
<stop offset="1" stop-color="#41E22E"/>
</linearGradient>
<clipPath id="clip0_559_18380">
<rect width="19.577" height="19.577" fill="white" transform="translate(283.867 284.953)"/>
</clipPath>
<clipPath id="clip1_559_18380">
<rect width="19.577" height="19.577" fill="white" transform="translate(14.6824 14.6816)"/>
</clipPath>
<clipPath id="clip2_559_18380">
<rect width="19.577" height="19.577" fill="white" transform="translate(14.6821 325.738)"/>
</clipPath>
<clipPath id="clip3_559_18380">
<rect width="19.577" height="19.577" fill="white" transform="translate(553.05 14.6816)"/>
</clipPath>
<clipPath id="clip4_559_18380">
<rect width="19.577" height="19.577" fill="white" transform="translate(553.05 325.738)"/>
</clipPath>
</defs>
</svg>
