<svg width="588" height="360" viewBox="0 0 588 360" fill="none" xmlns="http://www.w3.org/2000/svg">
<rect x="1.02024" y="1.02024" width="585.271" height="357.96" rx="23.4655" stroke="url(#paint0_linear_559_18083)" stroke-width="2.04048"/>
<path d="M68.7912 148.457C63.1144 193.46 41.0233 300.648 46.767 335.255M63.6251 349.394C101.42 349.937 519.607 349.394 523.686 349.394M445.105 140.844C464.359 169.376 526.309 283.469 540.244 327.913" stroke="white" stroke-width="0.543807"/>
<path d="M63.6245 314.863C73.2353 314.863 81.0268 322.654 81.0269 332.265C81.0269 341.875 73.2353 349.666 63.6245 349.666C54.014 349.666 46.2231 341.875 46.2231 332.265C46.2232 322.654 54.014 314.864 63.6245 314.863ZM63.6245 324.939C59.5781 324.94 56.2975 328.22 56.2974 332.267C56.2974 336.313 59.578 339.594 63.6245 339.594C67.6711 339.594 70.9517 336.313 70.9517 332.267C70.9516 328.22 67.6711 324.939 63.6245 324.939Z" fill="white"/>
<path d="M523.686 314.863C533.297 314.863 541.087 322.654 541.087 332.265C541.087 341.875 533.297 349.666 523.686 349.666C514.075 349.666 506.284 341.875 506.284 332.265C506.284 322.654 514.075 314.863 523.686 314.863ZM523.686 324.939C519.639 324.939 516.359 328.22 516.359 332.267C516.359 336.313 519.639 339.594 523.686 339.594C527.733 339.594 531.013 336.313 531.013 332.267C531.013 328.22 527.732 324.94 523.686 324.939Z" fill="white"/>
<path d="M132.353 278.698H459.3C466.88 278.698 473.496 283.838 475.371 291.183L492.726 359.182H95.1855L116.51 290.375C118.662 283.432 125.084 278.698 132.353 278.698Z" stroke="white" stroke-width="1.63142"/>
<circle cx="154.985" cy="334.438" r="14.4109" stroke="white" stroke-width="1.63142"/>
<circle cx="432.87" cy="334.438" r="14.4109" stroke="white" stroke-width="1.63142"/>
<rect x="201.481" y="320.027" width="19.0332" height="19.0332" rx="2.44713" stroke="white" stroke-width="1.63142"/>
<path d="M283.323 339.876C283.323 338.074 284.784 336.613 286.586 336.613H300.725C302.527 336.613 303.988 338.074 303.988 339.876V349.665H283.323V339.876Z" fill="white"/>
<rect x="367.342" y="320.027" width="19.0332" height="19.0332" rx="2.44713" stroke="white" stroke-width="1.63142"/>
<g clip-path="url(#clip0_559_18083)">
<path d="M293.655 284.953C299.06 284.953 303.443 289.335 303.444 294.741C303.444 300.147 299.061 304.53 293.655 304.53C288.249 304.53 283.866 300.147 283.866 294.741C283.867 289.336 288.249 284.953 293.655 284.953ZM294.454 288.884C294.277 288.013 293.033 288.013 292.856 288.884L292.109 292.559C292.043 292.879 291.793 293.13 291.472 293.195L287.797 293.942C286.926 294.119 286.926 295.364 287.797 295.541L291.472 296.288C291.793 296.353 292.043 296.604 292.109 296.925L292.856 300.6C293.033 301.47 294.277 301.47 294.454 300.6L295.201 296.925C295.267 296.604 295.517 296.353 295.838 296.288L299.513 295.541C300.384 295.364 300.384 294.12 299.513 293.942L295.838 293.195C295.518 293.13 295.267 292.879 295.201 292.559L294.454 288.884Z" fill="white"/>
</g>
<g clip-path="url(#clip1_559_18083)">
<path d="M24.4705 14.6816C29.8764 14.6816 34.2593 19.0639 34.2595 24.4697C34.2595 29.8758 29.8765 34.2588 24.4705 34.2588C19.0646 34.2586 14.6824 29.8756 14.6824 24.4697C14.6826 19.064 19.0648 14.6819 24.4705 14.6816ZM25.2703 18.6123C25.0932 17.7414 23.8487 17.7414 23.6716 18.6123L22.9246 22.2871C22.8592 22.6077 22.6084 22.8585 22.2878 22.9238L18.613 23.6709C17.7422 23.848 17.7422 25.0924 18.613 25.2695L22.2878 26.0166C22.6084 26.0819 22.8593 26.3327 22.9246 26.6533L23.6716 30.3281C23.8488 31.199 25.0932 31.199 25.2703 30.3281L26.0173 26.6533C26.0826 26.3327 26.3334 26.0819 26.6541 26.0166L30.3289 25.2695C31.1997 25.0924 31.1997 23.848 30.3289 23.6709L26.6541 22.9238C26.3334 22.8585 26.0827 22.6077 26.0173 22.2871L25.2703 18.6123Z" fill="white"/>
</g>
<g clip-path="url(#clip2_559_18083)">
<path d="M24.4702 325.738C29.8761 325.738 34.259 330.121 34.2593 335.526C34.2593 340.932 29.8763 345.315 24.4702 345.315C19.0644 345.315 14.6821 340.932 14.6821 335.526C14.6824 330.121 19.0645 325.739 24.4702 325.738ZM25.27 329.669C25.0929 328.798 23.8485 328.798 23.6714 329.669L22.9243 333.344C22.859 333.664 22.6082 333.915 22.2876 333.98L18.6128 334.728C17.7419 334.905 17.7419 336.149 18.6128 336.326L22.2876 337.073C22.6082 337.139 22.859 337.389 22.9243 337.71L23.6714 341.385C23.8485 342.256 25.0929 342.256 25.27 341.385L26.0171 337.71C26.0824 337.389 26.3332 337.139 26.6538 337.073L30.3286 336.326C31.1995 336.149 31.1995 334.905 30.3286 334.728L26.6538 333.98C26.3332 333.915 26.0824 333.664 26.0171 333.344L25.27 329.669Z" fill="white"/>
</g>
<g clip-path="url(#clip3_559_18083)">
<path d="M562.838 14.6816C568.244 14.6816 572.627 19.0639 572.627 24.4697C572.627 29.8758 568.244 34.2588 562.838 34.2588C557.432 34.2586 553.05 29.8756 553.05 24.4697C553.05 19.064 557.432 14.6819 562.838 14.6816ZM563.638 18.6123C563.461 17.7414 562.216 17.7414 562.039 18.6123L561.292 22.2871C561.227 22.6077 560.976 22.8585 560.655 22.9238L556.98 23.6709C556.11 23.848 556.11 25.0924 556.98 25.2695L560.655 26.0166C560.976 26.0819 561.227 26.3327 561.292 26.6533L562.039 30.3281C562.216 31.199 563.461 31.199 563.638 30.3281L564.385 26.6533C564.45 26.3327 564.701 26.0819 565.021 26.0166L568.696 25.2695C569.567 25.0924 569.567 23.848 568.696 23.6709L565.021 22.9238C564.701 22.8585 564.45 22.6077 564.385 22.2871L563.638 18.6123Z" fill="white"/>
</g>
<g clip-path="url(#clip4_559_18083)">
<path d="M562.838 325.738C568.244 325.738 572.627 330.121 572.627 335.526C572.627 340.932 568.244 345.315 562.838 345.315C557.432 345.315 553.05 340.932 553.05 335.526C553.05 330.121 557.432 325.739 562.838 325.738ZM563.638 329.669C563.461 328.798 562.216 328.798 562.039 329.669L561.292 333.344C561.227 333.664 560.976 333.915 560.655 333.98L556.98 334.728C556.11 334.905 556.11 336.149 556.98 336.326L560.655 337.073C560.976 337.139 561.227 337.389 561.292 337.71L562.039 341.385C562.216 342.256 563.461 342.256 563.638 341.385L564.385 337.71C564.45 337.389 564.701 337.139 565.021 337.073L568.696 336.326C569.567 336.149 569.567 334.905 568.696 334.728L565.021 333.98C564.701 333.915 564.45 333.664 564.385 333.344L563.638 329.669Z" fill="url(#paint1_linear_559_18083)"/>
</g>
<path d="M150.276 205.538C151.577 205.538 152.838 205.33 154.061 204.914C155.31 204.498 156.415 203.912 157.378 203.158C158.34 202.43 159.108 201.571 159.68 200.582C160.279 199.568 160.591 198.475 160.617 197.305H167.446C167.42 199.178 166.926 200.973 165.963 202.69C165.026 204.381 163.765 205.864 162.178 207.138C160.591 208.439 158.77 209.48 156.715 210.26C154.659 211.015 152.513 211.392 150.276 211.392C147.076 211.392 144.279 210.819 141.886 209.675C139.492 208.53 137.502 206.982 135.915 205.031C134.302 203.106 133.093 200.882 132.286 198.358C131.48 195.809 131.077 193.129 131.077 190.319V188.681C131.077 185.897 131.48 183.23 132.286 180.681C133.093 178.131 134.302 175.881 135.915 173.93C137.502 172.005 139.492 170.47 141.886 169.325C144.279 168.181 147.076 167.608 150.276 167.608C152.773 167.608 155.063 168.011 157.144 168.818C159.251 169.598 161.072 170.665 162.607 172.018C164.116 173.397 165.3 175.023 166.158 176.896C167.017 178.769 167.446 180.772 167.446 182.905H160.617C160.591 181.63 160.305 180.434 159.758 179.315C159.238 178.17 158.523 177.169 157.612 176.31C156.702 175.452 155.609 174.775 154.334 174.281C153.085 173.787 151.733 173.54 150.276 173.54C148.038 173.54 146.152 173.995 144.617 174.905C143.109 175.79 141.886 176.948 140.949 178.378C140.013 179.835 139.336 181.461 138.92 183.256C138.53 185.051 138.335 186.859 138.335 188.681V190.319C138.335 192.167 138.53 194.001 138.92 195.822C139.336 197.617 140.013 199.23 140.949 200.661C141.86 202.117 143.07 203.301 144.578 204.212C146.113 205.096 148.012 205.538 150.276 205.538ZM181.416 150.672H202.996V204.368H216.771V210.611H181.416V204.368H195.776V156.955H181.416V150.672ZM229.414 168.389H250.994V204.368H264.769V210.611H229.414V204.368H243.774V174.671H229.414V168.389ZM242.838 157.306C242.838 156.682 242.929 156.096 243.111 155.55C243.319 155.004 243.631 154.536 244.048 154.145C244.386 153.807 244.815 153.547 245.335 153.365C245.882 153.157 246.493 153.053 247.169 153.053C247.846 153.053 248.444 153.157 248.964 153.365C249.485 153.547 249.914 153.807 250.252 154.145C250.668 154.51 250.981 154.965 251.189 155.511C251.397 156.057 251.501 156.656 251.501 157.306C251.501 158.477 251.137 159.452 250.408 160.233C249.68 161.013 248.6 161.404 247.169 161.404C245.713 161.404 244.62 161.013 243.892 160.233C243.189 159.452 242.838 158.477 242.838 157.306ZM307.85 188.72H277.997V182.788H307.85V188.72ZM341.37 158.165V168.389H357.448V173.969H341.37V196.914C341.37 198.553 341.579 199.906 341.995 200.973C342.411 202.039 342.983 202.885 343.712 203.509C344.44 204.16 345.273 204.615 346.209 204.875C347.172 205.135 348.186 205.265 349.253 205.265C350.034 205.265 350.84 205.226 351.673 205.148C352.505 205.044 353.324 204.927 354.131 204.797C354.911 204.667 355.64 204.537 356.316 204.407C357.019 204.251 357.591 204.121 358.033 204.016L359.048 209.128C358.449 209.493 357.721 209.818 356.863 210.104C356.004 210.364 355.067 210.585 354.053 210.767C353.038 210.976 351.959 211.132 350.814 211.236C349.695 211.34 348.577 211.392 347.458 211.392C345.585 211.392 343.829 211.132 342.19 210.611C340.577 210.065 339.172 209.207 337.976 208.036C336.779 206.891 335.829 205.408 335.127 203.587C334.45 201.74 334.112 199.516 334.112 196.914V173.969H323.03V168.389H334.112V158.165H341.37ZM370.247 189.11C370.247 186.066 370.69 183.243 371.574 180.642C372.459 178.014 373.733 175.738 375.398 173.813C377.037 171.888 379.041 170.379 381.408 169.286C383.775 168.168 386.442 167.608 389.408 167.608C392.399 167.608 395.079 168.168 397.446 169.286C399.84 170.379 401.869 171.888 403.534 173.813C405.173 175.738 406.435 178.014 407.319 180.642C408.204 183.243 408.646 186.066 408.646 189.11V189.968C408.646 193.012 408.204 195.835 407.319 198.436C406.435 201.038 405.173 203.301 403.534 205.226C401.869 207.151 399.853 208.66 397.485 209.753C395.118 210.845 392.451 211.392 389.486 211.392C386.494 211.392 383.801 210.845 381.408 209.753C379.041 208.66 377.037 207.151 375.398 205.226C373.733 203.301 372.459 201.038 371.574 198.436C370.69 195.835 370.247 193.012 370.247 189.968V189.11ZM377.467 189.968C377.467 192.049 377.714 194.04 378.208 195.939C378.702 197.812 379.457 199.464 380.471 200.895C381.46 202.325 382.709 203.457 384.218 204.29C385.726 205.122 387.482 205.538 389.486 205.538C391.463 205.538 393.193 205.122 394.676 204.29C396.185 203.457 397.446 202.325 398.461 200.895C399.449 199.464 400.191 197.812 400.685 195.939C401.179 194.04 401.427 192.049 401.427 189.968V189.11C401.427 187.055 401.166 185.09 400.646 183.217C400.152 181.318 399.41 179.653 398.422 178.222C397.407 176.792 396.146 175.66 394.637 174.827C393.154 173.969 391.411 173.54 389.408 173.54C387.404 173.54 385.661 173.969 384.179 174.827C382.696 175.66 381.46 176.792 380.471 178.222C379.457 179.653 378.702 181.318 378.208 183.217C377.714 185.09 377.467 187.055 377.467 189.11V189.968ZM420.236 226.845V168.389H426.83L427.182 172.993C427.754 172.265 428.378 171.615 429.055 171.042C429.731 170.444 430.46 169.937 431.24 169.52C432.333 168.896 433.542 168.428 434.869 168.115C436.222 167.777 437.666 167.608 439.201 167.608C441.906 167.608 444.3 168.142 446.381 169.208C448.462 170.275 450.205 171.758 451.61 173.657C453.015 175.556 454.081 177.832 454.81 180.486C455.538 183.113 455.902 186.001 455.902 189.149V189.968C455.902 192.986 455.538 195.809 454.81 198.436C454.081 201.038 453.015 203.301 451.61 205.226C450.205 207.151 448.462 208.66 446.381 209.753C444.326 210.845 441.971 211.392 439.318 211.392C437.705 211.392 436.196 211.223 434.791 210.884C433.412 210.546 432.164 210.065 431.045 209.441C430.368 209.05 429.731 208.621 429.133 208.153C428.534 207.659 427.975 207.125 427.455 206.553V226.845H420.236ZM448.683 189.149C448.683 187.094 448.449 185.142 447.981 183.295C447.539 181.422 446.849 179.77 445.913 178.339C444.95 176.935 443.74 175.816 442.283 174.984C440.827 174.151 439.084 173.735 437.054 173.735C435.936 173.735 434.895 173.865 433.933 174.125C432.996 174.385 432.151 174.762 431.396 175.257C430.564 175.751 429.822 176.362 429.172 177.091C428.521 177.819 427.949 178.626 427.455 179.51V199.841C427.897 200.621 428.404 201.35 428.977 202.026C429.549 202.703 430.199 203.275 430.928 203.743C431.76 204.29 432.684 204.719 433.698 205.031C434.739 205.343 435.884 205.499 437.132 205.499C439.136 205.499 440.866 205.083 442.322 204.251C443.779 203.392 444.976 202.247 445.913 200.817C446.849 199.386 447.539 197.734 447.981 195.861C448.449 193.988 448.683 192.023 448.683 189.968V189.149Z" fill="#EFEFEF"/>
<defs>
<linearGradient id="paint0_linear_559_18083" x1="18.8744" y1="-43.3602" x2="613.674" y2="390.752" gradientUnits="userSpaceOnUse">
<stop stop-color="white"/>
<stop offset="0.5" stop-color="#CCCCCC"/>
<stop offset="1" stop-color="#0AFF00"/>
</linearGradient>
<linearGradient id="paint1_linear_559_18083" x1="562.838" y1="325.738" x2="562.838" y2="345.315" gradientUnits="userSpaceOnUse">
<stop stop-color="white"/>
<stop offset="1" stop-color="#0AFF00"/>
</linearGradient>
<clipPath id="clip0_559_18083">
<rect width="19.577" height="19.577" fill="white" transform="translate(283.866 284.953)"/>
</clipPath>
<clipPath id="clip1_559_18083">
<rect width="19.577" height="19.577" fill="white" transform="translate(14.6824 14.6816)"/>
</clipPath>
<clipPath id="clip2_559_18083">
<rect width="19.577" height="19.577" fill="white" transform="translate(14.6821 325.738)"/>
</clipPath>
<clipPath id="clip3_559_18083">
<rect width="19.577" height="19.577" fill="white" transform="translate(553.05 14.6816)"/>
</clipPath>
<clipPath id="clip4_559_18083">
<rect width="19.577" height="19.577" fill="white" transform="translate(553.05 325.738)"/>
</clipPath>
</defs>
</svg>
