<svg width="588" height="360" viewBox="0 0 588 360" fill="none" xmlns="http://www.w3.org/2000/svg">
<rect x="1.02024" y="1.02024" width="585.271" height="357.96" rx="23.4655" stroke="url(#paint0_linear_559_17814)" stroke-width="2.04048"/>
<path d="M68.7913 148.457C63.1144 193.46 41.0233 300.648 46.767 335.255M63.6252 349.394C101.42 349.937 519.607 349.394 523.686 349.394M445.105 140.844C464.359 169.376 526.31 283.469 540.245 327.913" stroke="white" stroke-width="0.543807"/>
<path d="M63.6246 314.863C73.2354 314.863 81.027 322.654 81.027 332.265C81.027 341.875 73.2354 349.666 63.6246 349.666C54.0141 349.666 46.2233 341.875 46.2233 332.265C46.2233 322.654 54.0141 314.863 63.6246 314.863ZM63.6246 324.939C59.5782 324.94 56.2976 328.22 56.2975 332.267C56.2975 336.313 59.5782 339.594 63.6246 339.594C67.6713 339.594 70.9518 336.313 70.9518 332.267C70.9517 328.22 67.6712 324.939 63.6246 324.939Z" fill="white"/>
<path d="M523.686 314.863C533.297 314.863 541.087 322.654 541.087 332.265C541.087 341.875 533.297 349.666 523.686 349.666C514.075 349.666 506.284 341.875 506.284 332.265C506.284 322.654 514.075 314.863 523.686 314.863ZM523.686 324.939C519.639 324.939 516.359 328.22 516.359 332.267C516.359 336.313 519.639 339.594 523.686 339.594C527.733 339.594 531.013 336.313 531.013 332.267C531.013 328.22 527.732 324.94 523.686 324.939Z" fill="white"/>
<path d="M132.353 278.698H459.3C466.88 278.698 473.497 283.838 475.371 291.183L492.726 359.182H95.1857L116.51 290.375C118.662 283.432 125.084 278.698 132.353 278.698Z" stroke="white" stroke-width="1.63142"/>
<circle cx="154.985" cy="334.438" r="14.4109" stroke="white" stroke-width="1.63142"/>
<circle cx="432.87" cy="334.438" r="14.4109" stroke="white" stroke-width="1.63142"/>
<rect x="201.481" y="320.027" width="19.0332" height="19.0332" rx="2.44713" stroke="white" stroke-width="1.63142"/>
<path d="M283.324 339.876C283.324 338.074 284.784 336.613 286.586 336.613H300.725C302.527 336.613 303.988 338.074 303.988 339.876V349.665H283.324V339.876Z" fill="white"/>
<rect x="367.342" y="320.027" width="19.0332" height="19.0332" rx="2.44713" stroke="white" stroke-width="1.63142"/>
<g clip-path="url(#clip0_559_17814)">
<path d="M293.655 284.953C299.061 284.953 303.443 289.335 303.444 294.741C303.444 300.147 299.061 304.53 293.655 304.53C288.249 304.53 283.867 300.147 283.867 294.741C283.867 289.336 288.249 284.953 293.655 284.953ZM294.454 288.884C294.277 288.013 293.033 288.013 292.856 288.884L292.109 292.559C292.043 292.879 291.793 293.13 291.472 293.195L287.797 293.942C286.926 294.119 286.926 295.364 287.797 295.541L291.472 296.288C291.793 296.353 292.043 296.604 292.109 296.925L292.856 300.6C293.033 301.47 294.277 301.47 294.454 300.6L295.202 296.925C295.267 296.604 295.518 296.353 295.838 296.288L299.513 295.541C300.384 295.364 300.384 294.12 299.513 293.942L295.838 293.195C295.518 293.13 295.267 292.879 295.202 292.559L294.454 288.884Z" fill="white"/>
</g>
<g clip-path="url(#clip1_559_17814)">
<path d="M24.4706 14.6816C29.8765 14.6816 34.2594 19.0639 34.2596 24.4697C34.2596 29.8758 29.8766 34.2588 24.4706 34.2588C19.0647 34.2586 14.6825 29.8756 14.6825 24.4697C14.6827 19.064 19.0649 14.6819 24.4706 14.6816ZM25.2704 18.6123C25.0933 17.7414 23.8489 17.7414 23.6718 18.6123L22.9247 22.2871C22.8594 22.6077 22.6085 22.8585 22.288 22.9238L18.6132 23.6709C17.7423 23.848 17.7423 25.0924 18.6132 25.2695L22.288 26.0166C22.6086 26.0819 22.8594 26.3327 22.9247 26.6533L23.6718 30.3281C23.8489 31.199 25.0933 31.199 25.2704 30.3281L26.0175 26.6533C26.0828 26.3327 26.3335 26.0819 26.6542 26.0166L30.329 25.2695C31.1998 25.0924 31.1998 23.848 30.329 23.6709L26.6542 22.9238C26.3336 22.8585 26.0828 22.6077 26.0175 22.2871L25.2704 18.6123Z" fill="white"/>
</g>
<g clip-path="url(#clip2_559_17814)">
<path d="M24.4704 325.738C29.8763 325.738 34.2592 330.121 34.2595 335.526C34.2595 340.932 29.8764 345.315 24.4704 345.315C19.0645 345.315 14.6823 340.932 14.6823 335.526C14.6825 330.121 19.0647 325.739 24.4704 325.738ZM25.2702 329.669C25.0931 328.798 23.8487 328.798 23.6716 329.669L22.9245 333.344C22.8592 333.664 22.6084 333.915 22.2878 333.98L18.613 334.728C17.7421 334.905 17.7421 336.149 18.613 336.326L22.2878 337.073C22.6084 337.139 22.8592 337.389 22.9245 337.71L23.6716 341.385C23.8487 342.256 25.0931 342.256 25.2702 341.385L26.0173 337.71C26.0826 337.389 26.3333 337.139 26.654 337.073L30.3288 336.326C31.1997 336.149 31.1996 334.905 30.3288 334.728L26.654 333.98C26.3334 333.915 26.0826 333.664 26.0173 333.344L25.2702 329.669Z" fill="white"/>
</g>
<g clip-path="url(#clip3_559_17814)">
<path d="M562.838 14.6816C568.244 14.6816 572.627 19.0639 572.627 24.4697C572.627 29.8758 568.244 34.2588 562.838 34.2588C557.432 34.2586 553.05 29.8756 553.05 24.4697C553.05 19.064 557.432 14.6819 562.838 14.6816ZM563.638 18.6123C563.461 17.7414 562.216 17.7414 562.039 18.6123L561.292 22.2871C561.227 22.6077 560.976 22.8585 560.655 22.9238L556.981 23.6709C556.11 23.848 556.11 25.0924 556.981 25.2695L560.655 26.0166C560.976 26.0819 561.227 26.3327 561.292 26.6533L562.039 30.3281C562.216 31.199 563.461 31.199 563.638 30.3281L564.385 26.6533C564.45 26.3327 564.701 26.0819 565.022 26.0166L568.696 25.2695C569.567 25.0924 569.567 23.848 568.696 23.6709L565.022 22.9238C564.701 22.8585 564.45 22.6077 564.385 22.2871L563.638 18.6123Z" fill="white"/>
</g>
<g clip-path="url(#clip4_559_17814)">
<path d="M562.838 325.738C568.244 325.738 572.627 330.121 572.627 335.526C572.627 340.932 568.244 345.315 562.838 345.315C557.432 345.315 553.05 340.932 553.05 335.526C553.05 330.121 557.432 325.739 562.838 325.738ZM563.638 329.669C563.461 328.798 562.216 328.798 562.039 329.669L561.292 333.344C561.227 333.664 560.976 333.915 560.655 333.98L556.981 334.728C556.11 334.905 556.11 336.149 556.981 336.326L560.655 337.073C560.976 337.139 561.227 337.389 561.292 337.71L562.039 341.385C562.216 342.256 563.461 342.256 563.638 341.385L564.385 337.71C564.45 337.389 564.701 337.139 565.022 337.073L568.696 336.326C569.567 336.149 569.567 334.905 568.696 334.728L565.022 333.98C564.701 333.915 564.45 333.664 564.385 333.344L563.638 329.669Z" fill="url(#paint1_linear_559_17814)"/>
</g>
<path d="M246.548 161.4V165.175H231.092V177.162H243.641V180.937H231.092V196.955H226.45V161.4H246.548ZM268.275 197.312C264.976 197.312 261.966 196.547 259.246 195.017C256.525 193.452 254.365 191.293 252.767 188.538C251.203 185.749 250.42 182.621 250.42 179.152C250.42 175.683 251.203 172.571 252.767 169.817C254.365 167.028 256.525 164.869 259.246 163.338C261.966 161.774 264.976 160.992 268.275 160.992C271.607 160.992 274.634 161.774 277.355 163.338C280.075 164.869 282.218 167.011 283.782 169.766C285.347 172.52 286.129 175.649 286.129 179.152C286.129 182.655 285.347 185.783 283.782 188.538C282.218 191.293 280.075 193.452 277.355 195.017C274.634 196.547 271.607 197.312 268.275 197.312ZM268.275 193.282C270.757 193.282 272.985 192.704 274.957 191.548C276.964 190.392 278.528 188.742 279.65 186.6C280.807 184.457 281.385 181.975 281.385 179.152C281.385 176.295 280.807 173.813 279.65 171.704C278.528 169.562 276.981 167.912 275.008 166.756C273.036 165.6 270.791 165.022 268.275 165.022C265.758 165.022 263.514 165.6 261.541 166.756C259.569 167.912 258.004 169.562 256.848 171.704C255.726 173.813 255.165 176.295 255.165 179.152C255.165 181.975 255.726 184.457 256.848 186.6C258.004 188.742 259.569 190.392 261.541 191.548C263.548 192.704 265.792 193.282 268.275 193.282ZM310.978 196.955L302.51 182.417H296.899V196.955H292.257V161.4H303.735C306.421 161.4 308.683 161.859 310.519 162.777C312.39 163.695 313.784 164.937 314.702 166.501C315.621 168.065 316.08 169.851 316.08 171.857C316.08 174.306 315.365 176.465 313.937 178.336C312.543 180.206 310.434 181.447 307.612 182.06L316.539 196.955H310.978ZM296.899 178.693H303.735C306.251 178.693 308.139 178.081 309.397 176.856C310.655 175.598 311.285 173.932 311.285 171.857C311.285 169.749 310.655 168.116 309.397 166.96C308.173 165.804 306.285 165.226 303.735 165.226H296.899V178.693ZM359.358 161.655V196.955H354.716V170.633L342.983 196.955H339.718L327.935 170.582V196.955H323.293V161.655H328.292L341.351 190.834L354.41 161.655H359.358Z" fill="#EFEFEF"/>
<defs>
<linearGradient id="paint0_linear_559_17814" x1="18.8744" y1="-43.3602" x2="613.674" y2="390.752" gradientUnits="userSpaceOnUse">
<stop stop-color="white"/>
<stop offset="0.5" stop-color="#CCCCCC"/>
<stop offset="1" stop-color="#2664E4"/>
</linearGradient>
<linearGradient id="paint1_linear_559_17814" x1="562.838" y1="325.738" x2="562.838" y2="345.315" gradientUnits="userSpaceOnUse">
<stop stop-color="white"/>
<stop offset="1" stop-color="#2769E5"/>
</linearGradient>
<clipPath id="clip0_559_17814">
<rect width="19.577" height="19.577" fill="white" transform="translate(283.867 284.953)"/>
</clipPath>
<clipPath id="clip1_559_17814">
<rect width="19.577" height="19.577" fill="white" transform="translate(14.6825 14.6816)"/>
</clipPath>
<clipPath id="clip2_559_17814">
<rect width="19.577" height="19.577" fill="white" transform="translate(14.6823 325.738)"/>
</clipPath>
<clipPath id="clip3_559_17814">
<rect width="19.577" height="19.577" fill="white" transform="translate(553.05 14.6816)"/>
</clipPath>
<clipPath id="clip4_559_17814">
<rect width="19.577" height="19.577" fill="white" transform="translate(553.05 325.738)"/>
</clipPath>
</defs>
</svg>
