<svg width="588" height="360" viewBox="0 0 588 360" fill="none" xmlns="http://www.w3.org/2000/svg">
<rect x="1.02024" y="1.02024" width="585.271" height="357.96" rx="23.4655" stroke="url(#paint0_linear_559_17866)" stroke-width="2.04048"/>
<path d="M68.7912 148.457C63.1144 193.46 41.0233 300.648 46.767 335.255M63.6251 349.394C101.42 349.937 519.607 349.394 523.686 349.394M445.105 140.844C464.359 169.376 526.309 283.469 540.244 327.913" stroke="white" stroke-width="0.543807"/>
<path d="M63.6246 314.863C73.2354 314.863 81.027 322.654 81.027 332.265C81.027 341.875 73.2354 349.666 63.6246 349.666C54.0141 349.666 46.2233 341.875 46.2233 332.265C46.2233 322.654 54.0141 314.864 63.6246 314.863ZM63.6246 324.939C59.5782 324.94 56.2976 328.22 56.2975 332.267C56.2975 336.313 59.5781 339.594 63.6246 339.594C67.6713 339.594 70.9518 336.313 70.9518 332.267C70.9517 328.22 67.6712 324.939 63.6246 324.939Z" fill="white"/>
<path d="M523.686 314.863C533.297 314.863 541.087 322.654 541.087 332.265C541.087 341.875 533.297 349.666 523.686 349.666C514.075 349.666 506.284 341.875 506.284 332.265C506.284 322.654 514.075 314.863 523.686 314.863ZM523.686 324.939C519.639 324.939 516.359 328.22 516.359 332.267C516.359 336.313 519.639 339.594 523.686 339.594C527.733 339.594 531.013 336.313 531.013 332.267C531.013 328.22 527.732 324.94 523.686 324.939Z" fill="white"/>
<path d="M132.353 278.698H459.3C466.88 278.698 473.497 283.838 475.371 291.183L492.726 359.182H95.1857L116.51 290.375C118.662 283.432 125.084 278.698 132.353 278.698Z" stroke="white" stroke-width="1.63142"/>
<circle cx="154.985" cy="334.438" r="14.4109" stroke="white" stroke-width="1.63142"/>
<circle cx="432.87" cy="334.438" r="14.4109" stroke="white" stroke-width="1.63142"/>
<rect x="201.481" y="320.027" width="19.0332" height="19.0332" rx="2.44713" stroke="white" stroke-width="1.63142"/>
<path d="M283.324 339.876C283.324 338.074 284.784 336.613 286.586 336.613H300.725C302.527 336.613 303.988 338.074 303.988 339.876V349.665H283.324V339.876Z" fill="white"/>
<rect x="367.342" y="320.027" width="19.0332" height="19.0332" rx="2.44713" stroke="white" stroke-width="1.63142"/>
<g clip-path="url(#clip0_559_17866)">
<path d="M293.655 284.953C299.061 284.953 303.443 289.335 303.444 294.741C303.444 300.147 299.061 304.53 293.655 304.53C288.249 304.53 283.867 300.147 283.867 294.741C283.867 289.336 288.249 284.953 293.655 284.953ZM294.454 288.884C294.277 288.013 293.033 288.013 292.856 288.884L292.109 292.559C292.043 292.879 291.793 293.13 291.472 293.195L287.797 293.942C286.926 294.119 286.926 295.364 287.797 295.541L291.472 296.288C291.793 296.353 292.043 296.604 292.109 296.925L292.856 300.6C293.033 301.47 294.277 301.47 294.454 300.6L295.202 296.925C295.267 296.604 295.518 296.353 295.838 296.288L299.513 295.541C300.384 295.364 300.384 294.12 299.513 293.942L295.838 293.195C295.518 293.13 295.267 292.879 295.202 292.559L294.454 288.884Z" fill="white"/>
</g>
<g clip-path="url(#clip1_559_17866)">
<path d="M24.4705 14.6816C29.8764 14.6816 34.2593 19.0639 34.2595 24.4697C34.2595 29.8758 29.8765 34.2588 24.4705 34.2588C19.0646 34.2586 14.6824 29.8756 14.6824 24.4697C14.6826 19.064 19.0648 14.6819 24.4705 14.6816ZM25.2703 18.6123C25.0932 17.7414 23.8487 17.7414 23.6716 18.6123L22.9246 22.2871C22.8592 22.6077 22.6084 22.8585 22.2878 22.9238L18.613 23.6709C17.7422 23.848 17.7422 25.0924 18.613 25.2695L22.2878 26.0166C22.6084 26.0819 22.8593 26.3327 22.9246 26.6533L23.6716 30.3281C23.8488 31.199 25.0932 31.199 25.2703 30.3281L26.0173 26.6533C26.0826 26.3327 26.3334 26.0819 26.6541 26.0166L30.3289 25.2695C31.1997 25.0924 31.1997 23.848 30.3289 23.6709L26.6541 22.9238C26.3334 22.8585 26.0827 22.6077 26.0173 22.2871L25.2703 18.6123Z" fill="white"/>
</g>
<g clip-path="url(#clip2_559_17866)">
<path d="M24.4702 325.738C29.8761 325.738 34.259 330.121 34.2593 335.526C34.2593 340.932 29.8763 345.315 24.4702 345.315C19.0644 345.315 14.6821 340.932 14.6821 335.526C14.6824 330.121 19.0645 325.739 24.4702 325.738ZM25.27 329.669C25.0929 328.798 23.8485 328.798 23.6714 329.669L22.9243 333.344C22.859 333.664 22.6082 333.915 22.2876 333.98L18.6128 334.728C17.7419 334.905 17.7419 336.149 18.6128 336.326L22.2876 337.073C22.6082 337.139 22.859 337.389 22.9243 337.71L23.6714 341.385C23.8485 342.256 25.0929 342.256 25.27 341.385L26.0171 337.71C26.0824 337.389 26.3332 337.139 26.6538 337.073L30.3286 336.326C31.1995 336.149 31.1995 334.905 30.3286 334.728L26.6538 333.98C26.3332 333.915 26.0824 333.664 26.0171 333.344L25.27 329.669Z" fill="white"/>
</g>
<g clip-path="url(#clip3_559_17866)">
<path d="M562.838 14.6816C568.244 14.6816 572.627 19.0639 572.627 24.4697C572.627 29.8758 568.244 34.2588 562.838 34.2588C557.432 34.2586 553.05 29.8756 553.05 24.4697C553.05 19.064 557.432 14.6819 562.838 14.6816ZM563.638 18.6123C563.461 17.7414 562.216 17.7414 562.039 18.6123L561.292 22.2871C561.227 22.6077 560.976 22.8585 560.655 22.9238L556.98 23.6709C556.11 23.848 556.11 25.0924 556.98 25.2695L560.655 26.0166C560.976 26.0819 561.227 26.3327 561.292 26.6533L562.039 30.3281C562.216 31.199 563.461 31.199 563.638 30.3281L564.385 26.6533C564.45 26.3327 564.701 26.0819 565.021 26.0166L568.696 25.2695C569.567 25.0924 569.567 23.848 568.696 23.6709L565.021 22.9238C564.701 22.8585 564.45 22.6077 564.385 22.2871L563.638 18.6123Z" fill="white"/>
</g>
<g clip-path="url(#clip4_559_17866)">
<path d="M562.838 325.738C568.244 325.738 572.627 330.121 572.627 335.526C572.627 340.932 568.244 345.315 562.838 345.315C557.432 345.315 553.05 340.932 553.05 335.526C553.05 330.121 557.432 325.739 562.838 325.738ZM563.638 329.669C563.461 328.798 562.216 328.798 562.039 329.669L561.292 333.344C561.227 333.664 560.976 333.915 560.655 333.98L556.98 334.728C556.11 334.905 556.11 336.149 556.98 336.326L560.655 337.073C560.976 337.139 561.227 337.389 561.292 337.71L562.039 341.385C562.216 342.256 563.461 342.256 563.638 341.385L564.385 337.71C564.45 337.389 564.701 337.139 565.021 337.073L568.696 336.326C569.567 336.149 569.567 334.905 568.696 334.728L565.021 333.98C564.701 333.915 564.45 333.664 564.385 333.344L563.638 329.669Z" fill="url(#paint1_linear_559_17866)"/>
</g>
<g filter="url(#filter0_d_559_17866)">
<path d="M161.21 181.488C161.21 173.632 167.382 167.205 178.248 167.205C187.838 167.205 193.399 172.816 193.858 178.682L184.982 178.733C184.369 176.54 182.176 174.55 178.35 174.55C173.351 174.55 170.188 177.713 170.188 181.488C170.188 185.263 173.351 188.426 178.35 188.426C182.176 188.426 184.369 186.385 184.982 184.192L193.858 184.243C193.399 190.109 187.94 195.771 178.248 195.771C167.586 195.771 161.21 189.344 161.21 181.488ZM216.297 158.226C229.917 158.226 237.109 166.643 237.109 176.999C237.109 187.354 229.917 195.771 216.297 195.771C202.676 195.771 195.484 187.354 195.484 176.999C195.484 166.643 202.676 158.226 216.297 158.226ZM216.297 188.017C223.591 188.017 227.723 183.12 227.723 176.999C227.723 170.877 223.591 165.98 216.297 165.98C208.951 165.98 204.87 170.877 204.87 176.999C204.87 183.12 208.951 188.017 216.297 188.017ZM260.608 167.205C267.495 167.205 272.188 170.979 272.188 178.631V194.955H263.21V182.304C263.21 176.234 261.425 174.55 257.599 174.55C253.263 174.55 249.335 179.192 249.335 185.416V194.955H240.357V168.021H249.335V169.296C249.335 170.52 249.131 171.388 248.672 172.204C248.212 173.02 247.702 173.938 248.366 174.193C248.978 174.448 249.233 173.887 249.488 173.53C251.426 170.826 255.048 167.205 260.608 167.205ZM274.642 181.488C274.642 173.632 280.814 167.205 291.68 167.205C301.27 167.205 306.83 172.816 307.29 178.682L298.413 178.733C297.801 176.54 295.608 174.55 291.782 174.55C286.783 174.55 283.62 177.713 283.62 181.488C283.62 185.263 286.783 188.426 291.782 188.426C295.608 188.426 297.801 186.385 298.413 184.192L307.29 184.243C306.83 190.109 301.372 195.771 291.68 195.771C281.018 195.771 274.642 189.344 274.642 181.488ZM318.729 158.226V194.955H309.751V158.226H318.729ZM321.619 187.762C321.619 181.692 326.414 179.447 334.678 179.09C339.473 178.886 344.574 178.886 344.472 176.387C344.421 175.06 343.197 173.734 338.249 173.734C332.943 173.734 331.719 174.958 331.311 176.999H322.435C323.353 169.806 329.985 167.205 338.453 167.205C346.564 167.205 353.45 169.245 353.45 180.06V194.955H344.472V193.578C344.472 192.762 344.676 192.047 345.033 191.333C345.441 190.466 345.9 189.65 345.339 189.395C344.676 189.089 344.472 189.752 344.268 190.058C342.279 192.915 338.759 195.771 332.637 195.771C325.547 195.771 321.619 192.251 321.619 187.762ZM344.472 181.488C342.891 182.814 340.136 183.681 335.8 184.039C332.535 184.294 330.597 184.906 330.597 187.201C330.597 189.242 332.739 190.466 336.565 189.854C339.677 189.344 344.421 186.64 344.472 181.488ZM365.124 194.955L354.31 168.021H364.206L370.583 185.773C370.94 186.742 371.042 188.222 371.042 189.395C371.042 189.905 371.144 190.517 371.858 190.517C372.572 190.517 372.674 189.905 372.674 189.395C372.674 188.222 372.776 186.742 373.133 185.773L379.51 168.021H389.406L378.591 194.955H365.124ZM391.051 183.12H399.825C399.825 185.926 402.325 188.222 407.936 188.222C412.782 188.222 415.537 186.64 415.537 184.192C415.537 180.621 408.803 179.651 402.478 179.651V173.53C407.987 173.53 414.517 172.459 414.517 168.99C414.517 166.847 411.762 165.776 408.089 165.776C403.345 165.776 400.845 167.613 400.845 170.061H392.02C392.02 163.379 398.091 158.226 407.834 158.226C418.036 158.226 423.546 162.358 423.546 168.021C423.546 171.184 421.301 174.346 417.22 175.366C416.608 175.52 416.098 175.622 416.098 176.387C416.098 177.101 416.812 177.203 417.271 177.305C422.372 178.376 424.515 181.692 424.515 185.008C424.515 190.466 419.669 195.771 408.038 195.771C396.866 195.771 391.051 190.823 391.051 183.12Z" fill="#FEFCD9"/>
</g>
<defs>
<filter id="filter0_d_559_17866" x="157.129" y="158.227" width="271.467" height="45.7049" filterUnits="userSpaceOnUse" color-interpolation-filters="sRGB">
<feFlood flood-opacity="0" result="BackgroundImageFix"/>
<feColorMatrix in="SourceAlpha" type="matrix" values="0 0 0 0 0 0 0 0 0 0 0 0 0 0 0 0 0 0 127 0" result="hardAlpha"/>
<feOffset dy="4.08096"/>
<feGaussianBlur stdDeviation="2.04048"/>
<feComposite in2="hardAlpha" operator="out"/>
<feColorMatrix type="matrix" values="0 0 0 0 0.976471 0 0 0 0 0.372549 0 0 0 0 0.290196 0 0 0 1 0"/>
<feBlend mode="normal" in2="BackgroundImageFix" result="effect1_dropShadow_559_17866"/>
<feBlend mode="normal" in="SourceGraphic" in2="effect1_dropShadow_559_17866" result="shape"/>
</filter>
<linearGradient id="paint0_linear_559_17866" x1="18.8744" y1="-43.3602" x2="613.674" y2="390.752" gradientUnits="userSpaceOnUse">
<stop stop-color="white"/>
<stop offset="0.5" stop-color="#CCCCCC"/>
<stop offset="1" stop-color="#F95F4A"/>
</linearGradient>
<linearGradient id="paint1_linear_559_17866" x1="562.838" y1="325.738" x2="562.838" y2="345.315" gradientUnits="userSpaceOnUse">
<stop stop-color="white"/>
<stop offset="1" stop-color="#2769E5"/>
</linearGradient>
<clipPath id="clip0_559_17866">
<rect width="19.577" height="19.577" fill="white" transform="translate(283.867 284.953)"/>
</clipPath>
<clipPath id="clip1_559_17866">
<rect width="19.577" height="19.577" fill="white" transform="translate(14.6824 14.6816)"/>
</clipPath>
<clipPath id="clip2_559_17866">
<rect width="19.577" height="19.577" fill="white" transform="translate(14.6821 325.738)"/>
</clipPath>
<clipPath id="clip3_559_17866">
<rect width="19.577" height="19.577" fill="white" transform="translate(553.05 14.6816)"/>
</clipPath>
<clipPath id="clip4_559_17866">
<rect width="19.577" height="19.577" fill="white" transform="translate(553.05 325.738)"/>
</clipPath>
</defs>
</svg>
