<svg width="588" height="360" viewBox="0 0 588 360" fill="none" xmlns="http://www.w3.org/2000/svg">
<rect x="1.02024" y="1.02024" width="585.271" height="357.96" rx="23.4655" fill="white"/>
<rect x="1.02024" y="1.02024" width="585.271" height="357.96" rx="23.4655" stroke="url(#paint0_linear_559_18187)" stroke-width="2.04048"/>
<path d="M68.7913 148.457C63.1144 193.46 41.0233 300.648 46.767 335.255M63.6252 349.394C101.42 349.937 519.607 349.394 523.686 349.394M445.105 140.844C464.359 169.376 526.31 283.469 540.245 327.913" stroke="#1E1E1E" stroke-width="0.543807"/>
<mask id="path-3-inside-1_559_18187" fill="white">
<path d="M63.6246 314.863C73.2354 314.863 81.027 322.654 81.027 332.265C81.027 341.875 73.2354 349.666 63.6246 349.666C54.0141 349.666 46.2233 341.875 46.2233 332.265C46.2233 322.654 54.0141 314.863 63.6246 314.863ZM63.6246 324.939C59.5782 324.94 56.2976 328.22 56.2975 332.267C56.2975 336.313 59.5782 339.594 63.6246 339.594C67.6713 339.594 70.9518 336.313 70.9518 332.267C70.9517 328.22 67.6712 324.939 63.6246 324.939Z"/>
</mask>
<path d="M63.6246 314.863C73.2354 314.863 81.027 322.654 81.027 332.265C81.027 341.875 73.2354 349.666 63.6246 349.666C54.0141 349.666 46.2233 341.875 46.2233 332.265C46.2233 322.654 54.0141 314.863 63.6246 314.863ZM63.6246 324.939C59.5782 324.94 56.2976 328.22 56.2975 332.267C56.2975 336.313 59.5782 339.594 63.6246 339.594C67.6713 339.594 70.9518 336.313 70.9518 332.267C70.9517 328.22 67.6712 324.939 63.6246 324.939Z" fill="white"/>
<path d="M63.6246 314.863V314.319H63.6246L63.6246 314.863ZM81.027 332.265H81.5708V332.265H81.027ZM63.6246 349.666L63.6246 350.21H63.6246V349.666ZM46.2233 332.265H45.6795V332.265H46.2233ZM63.6246 324.939V324.396H63.6246L63.6246 324.939ZM56.2975 332.267L55.7537 332.267V332.267H56.2975ZM63.6246 339.594L63.6246 340.138H63.6246V339.594ZM70.9518 332.267H71.4956V332.267L70.9518 332.267ZM63.6246 314.863V315.407C72.9351 315.407 80.4832 322.954 80.4832 332.265H81.027H81.5708C81.5708 322.354 73.5357 314.319 63.6246 314.319V314.863ZM81.027 332.265H80.4832C80.4832 341.575 72.9351 349.122 63.6246 349.122V349.666V350.21C73.5357 350.21 81.5708 342.176 81.5708 332.265H81.027ZM63.6246 349.666L63.6246 349.122C54.3144 349.122 46.7671 341.575 46.7671 332.265H46.2233H45.6795C45.6795 342.176 53.7137 350.21 63.6246 350.21L63.6246 349.666ZM46.2233 332.265H46.7671C46.7671 322.954 54.3144 315.407 63.6246 315.407L63.6246 314.863L63.6246 314.319C53.7137 314.32 45.6795 322.354 45.6795 332.265H46.2233ZM63.6246 324.939L63.6246 324.396C59.2779 324.396 55.7538 327.92 55.7537 332.267L56.2975 332.267L56.8413 332.267C56.8414 328.521 59.8785 325.483 63.6247 325.483L63.6246 324.939ZM56.2975 332.267H55.7537C55.7537 336.613 59.2778 340.137 63.6246 340.138L63.6246 339.594L63.6247 339.05C59.8785 339.05 56.8413 336.013 56.8413 332.267H56.2975ZM63.6246 339.594V340.138C67.9716 340.138 71.4956 336.614 71.4956 332.267H70.9518H70.408C70.408 336.013 67.3709 339.05 63.6246 339.05V339.594ZM70.9518 332.267L71.4956 332.267C71.4955 327.92 67.9716 324.396 63.6246 324.396V324.939V325.483C67.3709 325.483 70.4079 328.52 70.408 332.267L70.9518 332.267Z" fill="#1E1E1E" mask="url(#path-3-inside-1_559_18187)"/>
<mask id="path-5-inside-2_559_18187" fill="white">
<path d="M523.686 314.863C533.297 314.863 541.087 322.654 541.087 332.265C541.087 341.875 533.297 349.666 523.686 349.666C514.075 349.666 506.284 341.875 506.284 332.265C506.284 322.654 514.075 314.863 523.686 314.863ZM523.686 324.939C519.639 324.939 516.359 328.22 516.359 332.267C516.359 336.313 519.639 339.594 523.686 339.594C527.733 339.594 531.013 336.313 531.013 332.267C531.013 328.22 527.732 324.94 523.686 324.939Z"/>
</mask>
<path d="M523.686 314.863C533.297 314.863 541.087 322.654 541.087 332.265C541.087 341.875 533.297 349.666 523.686 349.666C514.075 349.666 506.284 341.875 506.284 332.265C506.284 322.654 514.075 314.863 523.686 314.863ZM523.686 324.939C519.639 324.939 516.359 328.22 516.359 332.267C516.359 336.313 519.639 339.594 523.686 339.594C527.733 339.594 531.013 336.313 531.013 332.267C531.013 328.22 527.732 324.94 523.686 324.939Z" fill="white"/>
<path d="M523.686 314.863L523.686 314.319H523.686V314.863ZM541.087 332.265H541.631V332.265H541.087ZM523.686 349.666V350.21H523.686L523.686 349.666ZM506.284 332.265H505.74V332.265H506.284ZM523.686 324.939L523.686 324.396H523.686V324.939ZM516.359 332.267L515.815 332.267V332.267H516.359ZM523.686 339.594V340.138H523.686L523.686 339.594ZM531.013 332.267H531.557V332.267L531.013 332.267ZM523.686 314.863L523.686 315.407C532.996 315.407 540.544 322.954 540.544 332.265H541.087H541.631C541.631 322.354 533.597 314.32 523.686 314.319L523.686 314.863ZM541.087 332.265H540.544C540.544 341.575 532.996 349.122 523.686 349.122L523.686 349.666L523.686 350.21C533.597 350.21 541.631 342.176 541.631 332.265H541.087ZM523.686 349.666V349.122C514.376 349.122 506.827 341.575 506.827 332.265H506.284H505.74C505.74 342.176 513.775 350.21 523.686 350.21V349.666ZM506.284 332.265H506.827C506.827 322.954 514.376 315.407 523.686 315.407V314.863V314.319C513.775 314.319 505.74 322.354 505.74 332.265H506.284ZM523.686 324.939V324.396C519.339 324.396 515.815 327.92 515.815 332.267L516.359 332.267L516.903 332.267C516.903 328.52 519.94 325.483 523.686 325.483V324.939ZM516.359 332.267H515.815C515.815 336.614 519.339 340.138 523.686 340.138V339.594V339.05C519.94 339.05 516.903 336.013 516.903 332.267H516.359ZM523.686 339.594L523.686 340.138C528.033 340.137 531.557 336.614 531.557 332.267H531.013H530.469C530.469 336.013 527.432 339.05 523.686 339.05L523.686 339.594ZM531.013 332.267L531.557 332.267C531.557 327.92 528.033 324.396 523.686 324.396L523.686 324.939L523.686 325.483C527.432 325.483 530.469 328.52 530.469 332.267L531.013 332.267Z" fill="#1E1E1E" mask="url(#path-5-inside-2_559_18187)"/>
<path d="M132.353 278.698H459.3C466.88 278.698 473.497 283.838 475.371 291.183L492.726 359.182H95.1857L116.51 290.375C118.662 283.432 125.084 278.698 132.353 278.698Z" stroke="#1E1E1E" stroke-width="1.63142"/>
<circle cx="154.985" cy="334.438" r="14.4109" stroke="#1E1E1E" stroke-width="1.63142"/>
<circle cx="432.87" cy="334.438" r="14.4109" stroke="#1E1E1E" stroke-width="1.63142"/>
<rect x="201.481" y="320.027" width="19.0332" height="19.0332" rx="2.44713" stroke="#1E1E1E" stroke-width="1.63142"/>
<path d="M286.586 337.429H300.725C302.076 337.429 303.172 338.525 303.172 339.876V348.849H284.139V339.876C284.139 338.525 285.235 337.429 286.586 337.429Z" fill="white" stroke="#1E1E1E" stroke-width="1.63142"/>
<rect x="367.342" y="320.027" width="19.0332" height="19.0332" rx="2.44713" stroke="#1E1E1E" stroke-width="1.63142"/>
<g clip-path="url(#clip0_559_18187)">
<path d="M293.655 284.953C299.061 284.953 303.444 289.335 303.444 294.741C303.444 300.147 299.061 304.53 293.655 304.53C288.249 304.53 283.867 300.147 283.867 294.741C283.867 289.336 288.249 284.953 293.655 284.953ZM294.454 288.884C294.277 288.013 293.033 288.013 292.856 288.884L292.109 292.559C292.043 292.879 291.793 293.13 291.472 293.195L287.797 293.942C286.926 294.119 286.926 295.364 287.797 295.541L291.472 296.288C291.793 296.353 292.044 296.604 292.109 296.925L292.856 300.6C293.033 301.47 294.277 301.47 294.454 300.6L295.202 296.925C295.267 296.604 295.518 296.353 295.838 296.288L299.513 295.541C300.384 295.364 300.384 294.12 299.513 293.942L295.838 293.195C295.518 293.13 295.267 292.879 295.202 292.559L294.454 288.884Z" fill="white"/>
</g>
<rect x="284.071" y="285.157" width="19.1692" height="19.1692" stroke="#1E1E1E" stroke-width="0.407855"/>
<g clip-path="url(#clip1_559_18187)">
<path d="M24.4706 14.6816C29.8765 14.6816 34.2594 19.0639 34.2596 24.4697C34.2596 29.8758 29.8766 34.2588 24.4706 34.2588C19.0647 34.2586 14.6825 29.8756 14.6825 24.4697C14.6827 19.064 19.0649 14.6819 24.4706 14.6816ZM25.2704 18.6123C25.0933 17.7414 23.8489 17.7414 23.6718 18.6123L22.9247 22.2871C22.8594 22.6077 22.6085 22.8585 22.288 22.9238L18.6132 23.6709C17.7423 23.848 17.7423 25.0924 18.6132 25.2695L22.288 26.0166C22.6086 26.0819 22.8594 26.3327 22.9247 26.6533L23.6718 30.3281C23.8489 31.199 25.0933 31.199 25.2704 30.3281L26.0175 26.6533C26.0828 26.3327 26.3335 26.0819 26.6542 26.0166L30.329 25.2695C31.1998 25.0924 31.1998 23.848 30.329 23.6709L26.6542 22.9238C26.3336 22.8585 26.0828 22.6077 26.0175 22.2871L25.2704 18.6123Z" fill="#1E1E1E"/>
</g>
<g clip-path="url(#clip2_559_18187)">
<path d="M24.4704 325.738C29.8763 325.738 34.2592 330.121 34.2595 335.526C34.2595 340.932 29.8764 345.315 24.4704 345.315C19.0645 345.315 14.6823 340.932 14.6823 335.526C14.6825 330.121 19.0647 325.739 24.4704 325.738ZM25.2702 329.669C25.0931 328.798 23.8487 328.798 23.6716 329.669L22.9245 333.344C22.8592 333.664 22.6084 333.915 22.2878 333.98L18.613 334.728C17.7421 334.905 17.7421 336.149 18.613 336.326L22.2878 337.073C22.6084 337.139 22.8592 337.389 22.9245 337.71L23.6716 341.385C23.8487 342.256 25.0931 342.256 25.2702 341.385L26.0173 337.71C26.0826 337.389 26.3333 337.139 26.654 337.073L30.3288 336.326C31.1997 336.149 31.1996 334.905 30.3288 334.728L26.654 333.98C26.3334 333.915 26.0826 333.664 26.0173 333.344L25.2702 329.669Z" fill="#1E1E1E"/>
</g>
<g clip-path="url(#clip3_559_18187)">
<path d="M562.838 14.6816C568.244 14.6816 572.627 19.0639 572.627 24.4697C572.627 29.8758 568.244 34.2588 562.838 34.2588C557.432 34.2586 553.05 29.8756 553.05 24.4697C553.05 19.064 557.432 14.6819 562.838 14.6816ZM563.638 18.6123C563.461 17.7414 562.216 17.7414 562.039 18.6123L561.292 22.2871C561.227 22.6077 560.976 22.8585 560.655 22.9238L556.981 23.6709C556.11 23.848 556.11 25.0924 556.981 25.2695L560.655 26.0166C560.976 26.0819 561.227 26.3327 561.292 26.6533L562.039 30.3281C562.216 31.199 563.461 31.199 563.638 30.3281L564.385 26.6533C564.45 26.3327 564.701 26.0819 565.022 26.0166L568.696 25.2695C569.567 25.0924 569.567 23.848 568.696 23.6709L565.022 22.9238C564.701 22.8585 564.45 22.6077 564.385 22.2871L563.638 18.6123Z" fill="#1E1E1E"/>
</g>
<g clip-path="url(#clip4_559_18187)">
<path d="M562.838 325.738C568.244 325.738 572.627 330.121 572.627 335.526C572.627 340.932 568.244 345.315 562.838 345.315C557.432 345.315 553.05 340.932 553.05 335.526C553.05 330.121 557.432 325.739 562.838 325.738ZM563.638 329.669C563.461 328.798 562.216 328.798 562.039 329.669L561.292 333.344C561.227 333.664 560.976 333.915 560.655 333.98L556.981 334.728C556.11 334.905 556.11 336.149 556.981 336.326L560.655 337.073C560.976 337.139 561.227 337.389 561.292 337.71L562.039 341.385C562.216 342.256 563.461 342.256 563.638 341.385L564.385 337.71C564.45 337.389 564.701 337.139 565.022 337.073L568.696 336.326C569.567 336.149 569.567 334.905 568.696 334.728L565.022 333.98C564.701 333.915 564.45 333.664 564.385 333.344L563.638 329.669Z" fill="url(#paint1_linear_559_18187)"/>
</g>
<path d="M229.45 163.492C230.448 163.991 231.024 164.779 231.178 165.854C231.37 166.929 231.101 167.908 230.371 168.791C229.872 169.483 229.219 169.867 228.413 169.943C227.645 170.02 226.858 169.867 226.051 169.483C225.13 169.06 224.151 168.734 223.114 168.503C222.116 168.273 221.06 168.158 219.946 168.158C217.872 168.158 216.01 168.484 214.359 169.137C212.746 169.79 211.364 170.731 210.212 171.959C209.06 173.15 208.176 174.571 207.562 176.222C206.986 177.873 206.698 179.697 206.698 181.694C206.698 184.036 207.024 186.071 207.677 187.799C208.368 189.527 209.309 190.967 210.5 192.119C211.69 193.271 213.092 194.135 214.704 194.711C216.317 195.249 218.064 195.518 219.946 195.518C220.983 195.518 222.02 195.422 223.056 195.23C224.093 195.038 225.091 194.692 226.051 194.193C226.858 193.809 227.645 193.674 228.413 193.79C229.219 193.905 229.891 194.308 230.429 194.999C231.197 195.959 231.466 196.958 231.235 197.994C231.043 198.993 230.467 199.722 229.507 200.183C228.509 200.682 227.472 201.105 226.397 201.45C225.36 201.758 224.304 201.988 223.229 202.142C222.154 202.334 221.06 202.43 219.946 202.43C217.181 202.43 214.551 201.988 212.055 201.105C209.597 200.222 207.389 198.916 205.431 197.188C203.511 195.46 201.994 193.31 200.88 190.737C199.767 188.126 199.21 185.111 199.21 181.694C199.21 178.737 199.709 176.011 200.708 173.515C201.744 171.019 203.184 168.868 205.028 167.063C206.909 165.22 209.117 163.799 211.652 162.801C214.186 161.764 216.951 161.246 219.946 161.246C221.636 161.246 223.287 161.438 224.9 161.822C226.512 162.206 228.029 162.763 229.45 163.492ZM266.656 186.474C266.656 189.623 265.946 192.407 264.525 194.826C263.143 197.207 261.261 199.07 258.881 200.414C256.538 201.758 253.908 202.43 250.989 202.43C248.071 202.43 245.421 201.758 243.041 200.414C240.698 199.07 238.817 197.207 237.396 194.826C236.014 192.407 235.322 189.623 235.322 186.474C235.322 183.326 236.014 180.561 237.396 178.18C238.817 175.761 240.698 173.879 243.041 172.535C245.421 171.153 248.071 170.462 250.989 170.462C253.908 170.462 256.538 171.153 258.881 172.535C261.261 173.879 263.143 175.761 264.525 178.18C265.946 180.561 266.656 183.326 266.656 186.474ZM259.745 186.474C259.745 184.516 259.341 182.826 258.535 181.406C257.767 179.946 256.711 178.814 255.367 178.007C254.061 177.201 252.602 176.798 250.989 176.798C249.377 176.798 247.898 177.201 246.554 178.007C245.249 178.814 244.193 179.946 243.386 181.406C242.618 182.826 242.234 184.516 242.234 186.474C242.234 188.394 242.618 190.084 243.386 191.543C244.193 192.964 245.249 194.078 246.554 194.884C247.898 195.69 249.377 196.094 250.989 196.094C252.602 196.094 254.061 195.69 255.367 194.884C256.711 194.078 257.767 192.964 258.535 191.543C259.341 190.084 259.745 188.394 259.745 186.474ZM297.934 159.23C298.933 159.23 299.758 159.556 300.411 160.209C301.064 160.862 301.39 161.707 301.39 162.743V198.34C301.39 199.338 301.064 200.183 300.411 200.874C299.758 201.527 298.933 201.854 297.934 201.854C296.936 201.854 296.11 201.527 295.458 200.874C294.805 200.183 294.478 199.338 294.478 198.34V195.518L295.746 196.036C295.746 196.535 295.477 197.15 294.939 197.879C294.402 198.57 293.672 199.262 292.75 199.953C291.829 200.644 290.734 201.239 289.467 201.738C288.238 202.199 286.894 202.43 285.435 202.43C282.786 202.43 280.386 201.758 278.235 200.414C276.085 199.031 274.376 197.15 273.109 194.769C271.88 192.35 271.266 189.585 271.266 186.474C271.266 183.326 271.88 180.561 273.109 178.18C274.376 175.761 276.066 173.879 278.178 172.535C280.29 171.153 282.632 170.462 285.205 170.462C286.856 170.462 288.373 170.711 289.755 171.211C291.138 171.71 292.328 172.343 293.326 173.111C294.363 173.879 295.15 174.667 295.688 175.473C296.264 176.241 296.552 176.894 296.552 177.431L294.478 178.18V162.743C294.478 161.745 294.805 160.919 295.458 160.267C296.11 159.575 296.936 159.23 297.934 159.23ZM286.299 196.094C287.989 196.094 289.467 195.671 290.734 194.826C292.002 193.982 292.981 192.83 293.672 191.37C294.402 189.911 294.766 188.279 294.766 186.474C294.766 184.631 294.402 182.98 293.672 181.521C292.981 180.062 292.002 178.91 290.734 178.065C289.467 177.22 287.989 176.798 286.299 176.798C284.648 176.798 283.189 177.22 281.922 178.065C280.654 178.91 279.656 180.062 278.927 181.521C278.235 182.98 277.89 184.631 277.89 186.474C277.89 188.279 278.235 189.911 278.927 191.37C279.656 192.83 280.654 193.982 281.922 194.826C283.189 195.671 284.648 196.094 286.299 196.094ZM315.383 198.34C315.383 199.338 315.057 200.183 314.404 200.874C313.751 201.527 312.925 201.854 311.927 201.854C310.929 201.854 310.103 201.527 309.45 200.874C308.797 200.183 308.471 199.338 308.471 198.34V174.551C308.471 173.553 308.797 172.727 309.45 172.075C310.103 171.383 310.929 171.038 311.927 171.038C312.925 171.038 313.751 171.383 314.404 172.075C315.057 172.727 315.383 173.553 315.383 174.551V198.34ZM311.869 167.294C310.564 167.294 309.642 167.083 309.105 166.66C308.567 166.238 308.298 165.489 308.298 164.414V163.319C308.298 162.206 308.586 161.457 309.162 161.073C309.777 160.651 310.698 160.439 311.927 160.439C313.271 160.439 314.212 160.651 314.749 161.073C315.287 161.495 315.556 162.244 315.556 163.319V164.414C315.556 165.527 315.268 166.295 314.692 166.718C314.116 167.102 313.175 167.294 311.869 167.294ZM335.274 170.462C336.886 170.462 338.365 170.711 339.709 171.211C341.053 171.71 342.205 172.343 343.165 173.111C344.163 173.879 344.931 174.667 345.469 175.473C346.045 176.241 346.333 176.894 346.333 177.431L344.835 178.18V173.975C344.835 172.977 345.162 172.151 345.814 171.499C346.467 170.807 347.293 170.462 348.291 170.462C349.29 170.462 350.115 170.788 350.768 171.441C351.421 172.094 351.747 172.939 351.747 173.975V199.607C351.747 202.948 351.018 205.617 349.558 207.613C348.138 209.649 346.256 211.108 343.914 211.991C341.571 212.913 339.056 213.373 336.368 213.373C335.6 213.373 334.602 213.277 333.373 213.085C332.144 212.893 330.973 212.663 329.859 212.394C328.746 212.125 327.901 211.876 327.325 211.645C326.173 211.146 325.367 210.513 324.906 209.745C324.483 209.015 324.407 208.228 324.675 207.383C325.021 206.269 325.578 205.501 326.346 205.079C327.114 204.695 327.92 204.657 328.765 204.964C329.149 205.079 329.783 205.309 330.666 205.655C331.549 206.001 332.509 206.308 333.546 206.577C334.621 206.884 335.562 207.037 336.368 207.037C339.248 207.037 341.379 206.461 342.762 205.309C344.144 204.157 344.835 202.564 344.835 200.529V195.518L345.526 196.036C345.526 196.535 345.258 197.15 344.72 197.879C344.221 198.57 343.51 199.262 342.589 199.953C341.706 200.644 340.65 201.239 339.421 201.738C338.192 202.199 336.886 202.43 335.504 202.43C332.778 202.43 330.32 201.758 328.131 200.414C325.943 199.031 324.215 197.15 322.947 194.769C321.68 192.35 321.047 189.585 321.047 186.474C321.047 183.326 321.68 180.561 322.947 178.18C324.215 175.761 325.923 173.879 328.074 172.535C330.224 171.153 332.624 170.462 335.274 170.462ZM336.368 176.798C334.64 176.798 333.123 177.22 331.818 178.065C330.512 178.91 329.495 180.062 328.765 181.521C328.035 182.98 327.671 184.631 327.671 186.474C327.671 188.279 328.035 189.911 328.765 191.37C329.495 192.83 330.512 193.982 331.818 194.826C333.123 195.671 334.64 196.094 336.368 196.094C338.134 196.094 339.67 195.671 340.976 194.826C342.282 193.982 343.299 192.83 344.029 191.37C344.758 189.911 345.123 188.279 345.123 186.474C345.123 184.631 344.758 182.98 344.029 181.521C343.299 180.062 342.282 178.91 340.976 178.065C339.67 177.22 338.134 176.798 336.368 176.798ZM387.987 186.474C387.987 189.623 387.276 192.407 385.856 194.826C384.473 197.207 382.592 199.07 380.211 200.414C377.868 201.758 375.238 202.43 372.32 202.43C369.401 202.43 366.752 201.758 364.371 200.414C362.029 199.07 360.147 197.207 358.726 194.826C357.344 192.407 356.653 189.623 356.653 186.474C356.653 183.326 357.344 180.561 358.726 178.18C360.147 175.761 362.029 173.879 364.371 172.535C366.752 171.153 369.401 170.462 372.32 170.462C375.238 170.462 377.868 171.153 380.211 172.535C382.592 173.879 384.473 175.761 385.856 178.18C387.276 180.561 387.987 183.326 387.987 186.474ZM381.075 186.474C381.075 184.516 380.672 182.826 379.865 181.406C379.097 179.946 378.041 178.814 376.697 178.007C375.392 177.201 373.932 176.798 372.32 176.798C370.707 176.798 369.228 177.201 367.884 178.007C366.579 178.814 365.523 179.946 364.717 181.406C363.949 182.826 363.565 184.516 363.565 186.474C363.565 188.394 363.949 190.084 364.717 191.543C365.523 192.964 366.579 194.078 367.884 194.884C369.228 195.69 370.707 196.094 372.32 196.094C373.932 196.094 375.392 195.69 376.697 194.884C378.041 194.078 379.097 192.964 379.865 191.543C380.672 190.084 381.075 188.394 381.075 186.474Z" fill="#004F97"/>
<path d="M358.697 197.017L366.059 204.039L365.915 204.35L365.691 204.585L365.467 204.819L365.243 205.054L364.907 205.406L364.603 205.565L364.299 205.723L364.107 205.764L363.804 205.923L363.42 206.005L362.956 206.011L362.684 205.975L362.524 205.823L357.002 200.556L356.954 200.286L356.906 200.016L356.97 199.629L357.066 199.048L357.242 198.543L357.609 197.997L358.169 197.41L358.697 197.017Z" fill="#232325" stroke="#232325" stroke-width="0.216679"/>
<path d="M404.114 172.828L399.122 163.963L399.351 163.707L399.634 163.548L399.916 163.389L400.199 163.23L400.623 162.991L400.96 162.928L401.297 162.866L401.492 162.882L401.829 162.82L402.221 162.853L402.666 162.983L402.916 163.096L403.024 163.289L406.768 169.937L406.735 170.21L406.702 170.482L406.528 170.834L406.267 171.362L405.951 171.793L405.44 172.208L404.733 172.606L404.114 172.828Z" fill="#232325" stroke="#232325" stroke-width="0.216679"/>
<path d="M369.928 153.561L370.278 153.735L371.476 158.603L371.491 158.671L372.147 159.541L373.024 158.879L373.06 158.807L374.348 156.214L375 155.995L375.425 156.558L376.663 161.539L376.773 161.986L377.167 161.748C381.452 159.167 385.612 157.561 389.568 158.102C393.503 158.641 397.333 161.32 400.93 167.538C406.291 176.805 406.681 182.109 404.465 186.149C403.346 188.19 401.542 189.946 399.279 191.742C397.004 193.547 394.338 195.339 391.451 197.515C388.582 199.677 386.201 201.908 384.031 203.722C381.845 205.551 379.867 206.963 377.738 207.585C373.539 208.812 368.562 207.004 360.019 198.361L360.009 198.35L359.998 198.341L359.547 197.947C354.992 193.875 353.707 189.751 354.389 185.766C355.099 181.617 357.954 177.546 361.692 173.79L361.743 173.739L361.768 173.672L369.36 153.989L369.928 153.561Z" fill="#004F97" stroke="black" stroke-width="0.678927"/>
<path d="M395.789 171.053C403.666 184.67 397.164 187.02 388.779 193.338C380.394 199.656 377.946 206.602 365.425 193.934C355.902 185.809 363.846 177.697 372.231 171.378C380.616 165.06 388.769 158.916 395.789 171.053Z" fill="#DBCFCF"/>
<path d="M374.102 183.571C375.231 185.068 374.181 185.636 372.684 186.765C371.187 187.893 369.808 189.154 368.68 187.656C367.552 186.159 367.851 184.031 369.348 182.902C370.846 181.774 372.974 182.073 374.102 183.571Z" fill="#191111"/>
<path d="M387.844 172.364C389.115 173.742 388.127 174.412 386.749 175.683C385.371 176.954 384.125 178.346 382.854 176.968C381.583 175.59 381.669 173.442 383.047 172.171C384.425 170.9 386.573 170.986 387.844 172.364Z" fill="#191111"/>
<path d="M383.968 182.936C384.347 183.439 384.478 184.098 384.331 184.767C384.184 185.435 383.771 186.06 383.184 186.502C382.597 186.945 381.883 187.169 381.199 187.126C380.516 187.083 379.919 186.776 379.54 186.273L381.754 184.604L383.968 182.936Z" fill="#191111"/>
<defs>
<linearGradient id="paint0_linear_559_18187" x1="18.8744" y1="-43.3602" x2="613.674" y2="390.752" gradientUnits="userSpaceOnUse">
<stop stop-color="white"/>
<stop offset="0.5" stop-color="#CCCCCC"/>
<stop offset="1" stop-color="#004F97"/>
</linearGradient>
<linearGradient id="paint1_linear_559_18187" x1="562.838" y1="325.738" x2="562.838" y2="345.315" gradientUnits="userSpaceOnUse">
<stop stop-color="white"/>
<stop offset="1" stop-color="#004F97"/>
</linearGradient>
<clipPath id="clip0_559_18187">
<rect x="283.867" y="284.953" width="19.577" height="19.577" fill="white"/>
</clipPath>
<clipPath id="clip1_559_18187">
<rect width="19.577" height="19.577" fill="white" transform="translate(14.6825 14.6816)"/>
</clipPath>
<clipPath id="clip2_559_18187">
<rect width="19.577" height="19.577" fill="white" transform="translate(14.6823 325.738)"/>
</clipPath>
<clipPath id="clip3_559_18187">
<rect width="19.577" height="19.577" fill="white" transform="translate(553.05 14.6816)"/>
</clipPath>
<clipPath id="clip4_559_18187">
<rect width="19.577" height="19.577" fill="white" transform="translate(553.05 325.738)"/>
</clipPath>
</defs>
</svg>
