<svg width="588" height="360" viewBox="0 0 588 360" fill="none" xmlns="http://www.w3.org/2000/svg">
<rect x="1.02024" y="1.02024" width="585.271" height="357.96" rx="23.4655" stroke="url(#paint0_linear_559_18135)" stroke-width="2.04048"/>
<path d="M68.7912 148.457C63.1144 193.46 41.0233 300.648 46.767 335.255M63.6251 349.394C101.42 349.937 519.607 349.394 523.686 349.394M445.105 140.844C464.359 169.376 526.309 283.469 540.244 327.913" stroke="white" stroke-width="0.543807"/>
<path d="M63.6245 314.863C73.2353 314.863 81.0268 322.654 81.0269 332.265C81.0269 341.875 73.2353 349.666 63.6245 349.666C54.014 349.666 46.2231 341.875 46.2231 332.265C46.2232 322.654 54.014 314.864 63.6245 314.863ZM63.6245 324.939C59.5781 324.94 56.2975 328.22 56.2974 332.267C56.2974 336.313 59.578 339.594 63.6245 339.594C67.6711 339.594 70.9517 336.313 70.9517 332.267C70.9516 328.22 67.6711 324.939 63.6245 324.939Z" fill="white"/>
<path d="M523.686 314.863C533.297 314.863 541.087 322.654 541.087 332.265C541.087 341.875 533.297 349.666 523.686 349.666C514.075 349.666 506.284 341.875 506.284 332.265C506.284 322.654 514.075 314.863 523.686 314.863ZM523.686 324.939C519.639 324.939 516.359 328.22 516.359 332.267C516.359 336.313 519.639 339.594 523.686 339.594C527.733 339.594 531.013 336.313 531.013 332.267C531.013 328.22 527.732 324.94 523.686 324.939Z" fill="white"/>
<path d="M132.353 278.698H459.3C466.88 278.698 473.496 283.838 475.371 291.183L492.726 359.182H95.1855L116.51 290.375C118.662 283.432 125.084 278.698 132.353 278.698Z" stroke="white" stroke-width="1.63142"/>
<circle cx="154.985" cy="334.438" r="14.4109" stroke="white" stroke-width="1.63142"/>
<circle cx="432.87" cy="334.438" r="14.4109" stroke="white" stroke-width="1.63142"/>
<rect x="201.481" y="320.027" width="19.0332" height="19.0332" rx="2.44713" stroke="white" stroke-width="1.63142"/>
<path d="M283.323 339.876C283.323 338.074 284.784 336.613 286.586 336.613H300.725C302.527 336.613 303.988 338.074 303.988 339.876V349.665H283.323V339.876Z" fill="white"/>
<rect x="367.342" y="320.027" width="19.0332" height="19.0332" rx="2.44713" stroke="white" stroke-width="1.63142"/>
<g clip-path="url(#clip0_559_18135)">
<path d="M293.655 284.953C299.06 284.953 303.443 289.335 303.444 294.741C303.444 300.147 299.061 304.53 293.655 304.53C288.249 304.53 283.866 300.147 283.866 294.741C283.867 289.336 288.249 284.953 293.655 284.953ZM294.454 288.884C294.277 288.013 293.033 288.013 292.856 288.884L292.109 292.559C292.043 292.879 291.793 293.13 291.472 293.195L287.797 293.942C286.926 294.119 286.926 295.364 287.797 295.541L291.472 296.288C291.793 296.353 292.043 296.604 292.109 296.925L292.856 300.6C293.033 301.47 294.277 301.47 294.454 300.6L295.201 296.925C295.267 296.604 295.517 296.353 295.838 296.288L299.513 295.541C300.384 295.364 300.384 294.12 299.513 293.942L295.838 293.195C295.518 293.13 295.267 292.879 295.201 292.559L294.454 288.884Z" fill="white"/>
</g>
<g clip-path="url(#clip1_559_18135)">
<path d="M24.4705 14.6816C29.8764 14.6816 34.2593 19.0639 34.2595 24.4697C34.2595 29.8758 29.8765 34.2588 24.4705 34.2588C19.0646 34.2586 14.6824 29.8756 14.6824 24.4697C14.6826 19.064 19.0648 14.6819 24.4705 14.6816ZM25.2703 18.6123C25.0932 17.7414 23.8487 17.7414 23.6716 18.6123L22.9246 22.2871C22.8592 22.6077 22.6084 22.8585 22.2878 22.9238L18.613 23.6709C17.7422 23.848 17.7422 25.0924 18.613 25.2695L22.2878 26.0166C22.6084 26.0819 22.8593 26.3327 22.9246 26.6533L23.6716 30.3281C23.8488 31.199 25.0932 31.199 25.2703 30.3281L26.0173 26.6533C26.0826 26.3327 26.3334 26.0819 26.6541 26.0166L30.3289 25.2695C31.1997 25.0924 31.1997 23.848 30.3289 23.6709L26.6541 22.9238C26.3334 22.8585 26.0827 22.6077 26.0173 22.2871L25.2703 18.6123Z" fill="white"/>
</g>
<g clip-path="url(#clip2_559_18135)">
<path d="M24.4702 325.738C29.8761 325.738 34.259 330.121 34.2593 335.526C34.2593 340.932 29.8763 345.315 24.4702 345.315C19.0644 345.315 14.6821 340.932 14.6821 335.526C14.6824 330.121 19.0645 325.739 24.4702 325.738ZM25.27 329.669C25.0929 328.798 23.8485 328.798 23.6714 329.669L22.9243 333.344C22.859 333.664 22.6082 333.915 22.2876 333.98L18.6128 334.728C17.7419 334.905 17.7419 336.149 18.6128 336.326L22.2876 337.073C22.6082 337.139 22.859 337.389 22.9243 337.71L23.6714 341.385C23.8485 342.256 25.0929 342.256 25.27 341.385L26.0171 337.71C26.0824 337.389 26.3332 337.139 26.6538 337.073L30.3286 336.326C31.1995 336.149 31.1995 334.905 30.3286 334.728L26.6538 333.98C26.3332 333.915 26.0824 333.664 26.0171 333.344L25.27 329.669Z" fill="white"/>
</g>
<g clip-path="url(#clip3_559_18135)">
<path d="M562.838 14.6816C568.244 14.6816 572.627 19.0639 572.627 24.4697C572.627 29.8758 568.244 34.2588 562.838 34.2588C557.432 34.2586 553.05 29.8756 553.05 24.4697C553.05 19.064 557.432 14.6819 562.838 14.6816ZM563.638 18.6123C563.461 17.7414 562.216 17.7414 562.039 18.6123L561.292 22.2871C561.227 22.6077 560.976 22.8585 560.655 22.9238L556.98 23.6709C556.11 23.848 556.11 25.0924 556.98 25.2695L560.655 26.0166C560.976 26.0819 561.227 26.3327 561.292 26.6533L562.039 30.3281C562.216 31.199 563.461 31.199 563.638 30.3281L564.385 26.6533C564.45 26.3327 564.701 26.0819 565.021 26.0166L568.696 25.2695C569.567 25.0924 569.567 23.848 568.696 23.6709L565.021 22.9238C564.701 22.8585 564.45 22.6077 564.385 22.2871L563.638 18.6123Z" fill="white"/>
</g>
<g clip-path="url(#clip4_559_18135)">
<path d="M562.838 325.738C568.244 325.738 572.627 330.121 572.627 335.526C572.627 340.932 568.244 345.315 562.838 345.315C557.432 345.315 553.05 340.932 553.05 335.526C553.05 330.121 557.432 325.739 562.838 325.738ZM563.638 329.669C563.461 328.798 562.216 328.798 562.039 329.669L561.292 333.344C561.227 333.664 560.976 333.915 560.655 333.98L556.98 334.728C556.11 334.905 556.11 336.149 556.98 336.326L560.655 337.073C560.976 337.139 561.227 337.389 561.292 337.71L562.039 341.385C562.216 342.256 563.461 342.256 563.638 341.385L564.385 337.71C564.45 337.389 564.701 337.139 565.021 337.073L568.696 336.326C569.567 336.149 569.567 334.905 568.696 334.728L565.021 333.98C564.701 333.915 564.45 333.664 564.385 333.344L563.638 329.669Z" fill="url(#paint1_linear_559_18135)"/>
</g>
<path d="M198.685 199.611C182.542 199.611 176.148 192.818 176.148 177.634V151.34H183.741V160.131H198.685V166.925H183.741V178.753C183.741 188.583 187.417 192.339 198.685 192.339V199.611ZM202.762 180.111C202.762 167.164 211.073 158.853 223.78 158.853C236.408 158.853 244.799 167.164 244.799 179.632V199.611H237.207V191.699L236.408 191.779V192.499C236.408 195.695 231.613 200.411 222.182 200.411C210.674 200.411 202.762 192.339 202.762 180.111ZM210.354 179.632C210.354 188.023 215.309 193.298 223.541 193.298C233.451 193.298 237.127 187.703 237.127 179.632C237.127 171.24 232.012 165.966 223.78 165.966C215.709 165.966 210.354 171.48 210.354 179.632ZM283.43 155.656C283.43 152.859 285.428 150.941 288.545 150.941C291.661 150.941 293.739 152.859 293.739 155.656C293.739 158.533 291.661 160.371 288.545 160.371C285.428 160.371 283.43 158.533 283.43 155.656ZM251.462 177.234C251.462 166.205 259.374 158.853 271.282 158.853C283.19 158.853 291.102 166.205 291.102 176.755C291.102 186.984 285.028 191.619 280.793 191.619V192.339C285.268 192.339 291.502 195.056 291.502 203.447C291.502 214.077 283.989 220.39 271.682 220.39C258.975 220.39 251.862 213.597 251.862 201.609H259.454C259.454 209.281 263.69 213.277 271.682 213.277C279.594 213.277 283.909 209.761 283.909 203.128C283.909 195.615 275.917 195.615 271.282 195.615C259.374 195.615 251.462 188.263 251.462 177.234ZM259.055 177.234C259.055 184.107 263.77 188.503 271.282 188.503C279.114 188.503 283.51 185.386 283.51 177.234C283.51 170.201 278.795 165.966 271.282 165.966C263.77 165.966 259.055 170.281 259.055 177.234Z" fill="white"/>
<path d="M305.648 179.072V199.611H298.056V180.031C298.056 167.084 306.287 159.013 318.994 159.013V166.365C311.002 166.365 305.648 171.24 305.648 179.072ZM363.254 180.511H329.608C329.768 188.103 335.042 193.458 343.194 193.458C349.667 193.458 354.063 189.941 355.502 184.507H363.254C361.495 194.497 354.063 200.411 343.034 200.411C330.407 200.411 322.016 192.099 322.016 179.632C322.016 167.164 330.407 158.853 343.034 158.853C355.102 158.853 363.334 166.205 363.254 178.273V180.511ZM330.167 174.677H355.342C354.143 168.843 349.667 165.326 343.114 165.326C336.561 165.326 331.766 169.242 330.167 174.677ZM369.545 179.072C369.545 166.925 377.457 158.853 388.966 158.853C398.396 158.853 403.191 163.488 403.191 166.765V167.484H403.99V139.672H411.583V179.632C411.583 192.099 403.191 200.411 390.564 200.411C377.857 200.411 369.545 192.099 369.545 179.072ZM377.138 179.632C377.138 187.783 382.492 193.298 390.564 193.298C398.796 193.298 403.91 188.023 403.91 179.632C403.91 171.48 400.234 165.966 390.324 165.966C382.093 165.966 377.138 171.16 377.138 179.632Z" fill="#FF3939"/>
<defs>
<linearGradient id="paint0_linear_559_18135" x1="18.8744" y1="-43.3602" x2="613.674" y2="390.752" gradientUnits="userSpaceOnUse">
<stop stop-color="white"/>
<stop offset="0.5" stop-color="#CCCCCC"/>
<stop offset="1" stop-color="#FF3939"/>
</linearGradient>
<linearGradient id="paint1_linear_559_18135" x1="562.838" y1="325.738" x2="562.838" y2="345.315" gradientUnits="userSpaceOnUse">
<stop stop-color="white"/>
<stop offset="1" stop-color="#FF3939"/>
</linearGradient>
<clipPath id="clip0_559_18135">
<rect width="19.577" height="19.577" fill="white" transform="translate(283.866 284.953)"/>
</clipPath>
<clipPath id="clip1_559_18135">
<rect width="19.577" height="19.577" fill="white" transform="translate(14.6824 14.6816)"/>
</clipPath>
<clipPath id="clip2_559_18135">
<rect width="19.577" height="19.577" fill="white" transform="translate(14.6821 325.738)"/>
</clipPath>
<clipPath id="clip3_559_18135">
<rect width="19.577" height="19.577" fill="white" transform="translate(553.05 14.6816)"/>
</clipPath>
<clipPath id="clip4_559_18135">
<rect width="19.577" height="19.577" fill="white" transform="translate(553.05 325.738)"/>
</clipPath>
</defs>
</svg>
