<svg width="588" height="360" viewBox="0 0 588 360" fill="none" xmlns="http://www.w3.org/2000/svg">
<g clip-path="url(#clip0_559_17919)">
<path fill-rule="evenodd" clip-rule="evenodd" d="M468.537 246.076C470.099 245.717 470.223 243.149 468.717 242.334C467.171 241.497 465.758 242.703 466.274 244.418C466.739 245.965 467.284 246.364 468.537 246.076ZM502.597 264.598C502.306 259.973 499.713 253.533 495.031 245.806C490.081 237.638 486.371 233.963 473.694 224.668C464.136 217.661 463.121 216.534 459.397 208.781C457.528 204.889 455.375 198.227 455.573 196.941C455.607 196.72 458.678 198.68 462.398 201.295C473.881 209.371 480.747 212.011 496.229 214.307L501.851 215.14L506.517 218.542C512.111 222.62 516.968 226.848 522.434 232.399C527.673 237.72 536.254 243.461 541.912 245.431C546.987 247.197 552.56 248.047 557.465 247.802L561.629 247.593L563.861 244.789L566.093 241.985L564.568 240.448C562.699 238.564 562.56 236.597 564.203 235.284C565.152 234.525 565.204 234.283 564.522 233.801C564.074 233.485 563.512 232.574 563.275 231.777C562.519 229.237 561.71 228.575 558.168 227.589L554.826 226.658L554.845 225.225C554.866 223.59 558.289 219.223 560.192 218.403C561.991 217.627 561.353 217.131 558.924 217.416C555.899 217.772 554.469 217.523 552.806 216.351C550.048 214.405 552.108 210.529 556.481 209.436C557.818 209.101 558.898 208.684 558.881 208.507C558.863 208.331 557.38 208.147 555.585 208.098C552.391 208.011 547.797 206.524 547.045 205.334C546.751 204.869 547.538 204.283 550.783 202.553C559.914 197.685 568.484 191.862 576.583 185.022C579.783 182.319 588.35 172.941 590.879 169.371C599.185 157.649 605.609 144.22 608.559 132.409C609.069 130.364 609.847 125.964 610.286 122.631L611.086 116.571L613.777 116.151C619.761 115.218 625.385 111.968 629.63 106.989C636.286 99.1803 637.44 93.035 634.55 80.781C632.23 70.9414 632.325 67.0638 635.044 60.6319C636.521 57.1386 635.812 57.5789 633.731 61.4478C631.139 66.2701 630.825 67.6747 631.184 72.8822C631.711 80.5447 630.588 82.4878 623.442 86.2668C617.247 89.544 614.418 91.5156 612.168 94.1257C611.117 95.3451 610.117 96.2441 609.945 96.1229C609.774 96.002 609.516 94.5794 609.372 92.9618C609.229 91.3442 608.839 89.8266 608.506 89.5895C608.174 89.352 607.323 87.1462 606.615 84.6878C604.928 78.828 602.026 71.4669 599.543 66.7534C596.242 60.4841 589.41 51.1316 582.9 43.97C580.974 41.8522 580.934 41.6857 579.687 30.433C578.992 24.167 577.936 17.3813 577.339 15.3541C575.456 8.95635 570.772 1.03755 567.617 -1.08278C567.057 -1.45926 567.578 -0.565031 568.774 0.903886C571.546 4.30525 573.895 8.62497 575.158 12.6449C576.485 16.8657 578.545 27.3482 578.14 27.818C577.961 28.0265 577.715 27.9032 577.588 27.541C577.461 27.1823 576.45 24.1403 575.341 20.7807C571.285 8.49893 566.958 0.930647 560.665 -4.88931C557.816 -7.52333 556.561 -8.35843 551.849 -10.7527C546.197 -13.626 543.826 -14.4339 547.914 -12.0942C550.026 -10.8852 550.114 -10.7728 548.962 -10.7389C547.729 -10.703 547.725 -10.6978 548.754 -10.4497C551.903 -9.69063 563.452 -0.825804 563.223 0.657006C563.187 0.891361 562.53 0.415225 561.763 -0.401429C560.996 -1.21755 559.56 -2.43441 558.571 -3.10535C556.823 -4.29043 556.83 -4.26943 558.819 -2.35287C564.459 3.08086 567.763 8.55608 570.487 16.9852C571.596 20.4137 572.502 23.626 572.5 24.1236C572.498 25.1614 570.328 20.2013 569.206 16.5913C568.147 13.187 564.721 6.37815 562.392 3.05295C560.629 0.533998 559.707 -0.261022 553.34 -4.75033C546.969 -9.24268 545.862 -9.87459 542.404 -10.991C540.288 -11.6739 538.568 -12.1174 538.582 -11.9764C538.596 -11.8354 540.414 -11.0463 542.622 -10.2235C550.737 -7.19792 559.569 0.355378 563.65 7.76006C564.632 9.54266 565.333 11.0157 565.208 11.034C565.083 11.0515 563.965 9.61483 562.722 7.8407C560.737 5.00462 559.846 4.17913 555.344 1.00576C549.526 -3.09564 546.539 -4.22572 536.753 -6.03224C533.859 -6.56633 529.737 -7.51919 527.594 -8.1492C523.099 -9.47087 514.446 -10.7326 503.783 -11.6202C499.684 -11.9615 493.507 -12.5637 490.056 -12.9578C486.606 -13.3523 483.939 -13.5633 484.129 -13.4268C484.855 -12.9057 494.876 -11.3635 502.119 -10.658C512.726 -9.62493 517.684 -8.98977 522.04 -8.10633L525.813 -7.34108L522.459 -6.94589C520.538 -6.71939 516.72 -6.92364 513.522 -7.4233C510.451 -7.90357 504.887 -8.46874 501.155 -8.67973C487.528 -9.45015 479.282 -11.843 471.659 -17.2385C469.28 -18.9228 466.225 -21.4902 464.87 -22.9447C463.516 -24.3988 462.309 -25.574 462.189 -25.5567C461.578 -25.4694 464.514 -21.5925 467.403 -18.6725C471.415 -14.6154 476.996 -11.3548 483.478 -9.28007C488.831 -7.56689 490.303 -6.9138 489.891 -6.43561C489.232 -5.67113 481.857 -7.36166 475.88 -9.6474C472.107 -11.0905 469.645 -12.4291 464.024 -16.0941C458.937 -19.4102 457.363 -20.2871 458.462 -19.1921C461.923 -15.7452 471.08 -10.1882 477.326 -7.74575C478.353 -7.34449 478.876 -6.98816 478.517 -6.93666C478.163 -6.88602 475.312 -7.81923 472.181 -9.01111C465.075 -11.7153 451.904 -18.739 448.094 -21.8548C445.911 -23.64 445.539 -23.844 446.373 -22.7961C446.958 -22.0606 450.166 -19.5023 453.503 -17.1113C460.035 -12.4313 465.435 -9.71408 474.093 -6.75253C476.423 -5.95561 478.466 -5.10913 478.634 -4.87115C479.116 -4.18398 471.084 -6.14288 467.054 -7.69521C457.541 -11.3597 445.67 -20.0871 436.931 -29.8405C435.073 -31.9141 436.47 -29.4358 438.559 -26.9536C449.194 -14.313 457.698 -7.78791 467.644 -4.63606C471.338 -3.46565 470.542 -3.21461 465.855 -4.07223C456.968 -5.69905 448.354 -9.50263 441.449 -14.8499C438.522 -17.1166 437.734 -17.5921 438.516 -16.6189C439.104 -15.8873 442.394 -13.4234 445.828 -11.1444C451.825 -7.16281 451.967 -7.03878 449.438 -7.98677C446.467 -9.10087 434.648 -17.0686 431.237 -20.2577C428.152 -23.1418 428.766 -22.0237 432.22 -18.4669C436.123 -14.4494 443.559 -9.20159 448.738 -6.81059C454.123 -4.32544 460.777 -2.37705 466.689 -1.55519C470.177 -1.07017 470.944 -0.85161 469.485 -0.758055C466.11 -0.541665 452.216 -2.93573 446.642 -4.6943C439.222 -7.03486 435.405 -8.95521 430.491 -12.8186C427.134 -15.4584 426.574 -15.7928 427.564 -14.5651C429.641 -11.9905 441.237 -4.01617 444.858 -2.67234C450.325 -0.643374 450.496 -0.544898 448.048 -0.83193C444.654 -1.23042 439.125 -2.95632 434.864 -4.94818C427.971 -8.16957 417.931 -15.9578 415.305 -20.1199C414.705 -21.071 413.498 -23.9716 412.622 -26.5649C411.122 -31.0097 410.492 -30.5384 411.881 -26.0102C412.236 -24.8527 412.409 -23.889 412.265 -23.8684C412.122 -23.8479 411.454 -24.6463 410.782 -25.6431C410.109 -26.6396 409.59 -27.163 409.628 -26.8062C409.735 -25.7796 416.634 -15.0406 419.629 -11.2357C421.999 -8.22618 423.161 -7.20523 428.636 -3.31996C434.299 0.697403 435.401 1.31137 439.734 2.86166C444.968 4.73349 452.683 6.27326 458.9 6.6862L462.843 6.94817L460.241 7.39496C456.999 7.95178 450.722 7.93112 446.119 7.3485C441.794 6.80052 442.035 7.17465 446.44 7.84646C452.7 8.8007 460.518 8.25581 479.058 5.57208C489.298 4.08948 500.049 2.85584 502.949 2.83065C505.849 2.80512 511.195 3.2644 514.828 3.8514C521.141 4.87051 523.745 5.81942 523.559 7.03265C523.506 7.37766 523.887 7.53016 524.562 7.43362C525.715 7.26872 527.573 8.25105 526.708 8.56791C526.241 8.73861 528.19 9.99117 530.304 10.8787C532.092 11.6295 529.804 11.3887 525.721 10.3969C518.004 8.52219 506.937 7.16602 502.352 7.53318C500.573 7.67544 500.783 7.73897 503.511 7.88246C507.953 8.11625 522.069 10.3921 523.802 11.1542C524.56 11.4871 521.607 11.277 517.24 10.6874C507.713 9.40041 501.414 8.94218 489.833 8.69218C475.768 8.38872 476.61 8.6697 494.014 10.0855C511.865 11.5377 523.696 13.6252 524.481 15.4621C524.781 16.1618 523.005 16.0214 515.093 14.7192C509.725 13.8359 505.251 13.2103 505.148 13.3293C505.046 13.4481 505.922 13.6874 507.096 13.8617C509.6 14.233 523.123 17.1357 523.461 17.3742C523.589 17.4642 523.168 17.7305 522.527 17.9654C521.234 18.4405 512.119 17.5493 503.823 16.1371C500.856 15.6315 498.441 15.3496 498.457 15.5093C498.473 15.6694 499.703 16.3158 501.19 16.9459C502.677 17.5756 504.19 18.2431 504.552 18.4291C504.914 18.6149 505.596 18.8488 506.067 18.9491C506.538 19.0488 507.058 19.2724 507.223 19.4449C507.95 20.2084 508.638 20.3473 508.73 19.7487C508.797 19.3133 508.975 19.3337 509.277 19.8115C510.087 21.0934 514.573 21.4957 515.54 20.3726C515.868 19.9927 515.991 20.0826 516.139 20.809C516.3 21.5983 515.803 21.6957 512.519 21.5196C510.425 21.4074 506.65 21.0634 504.13 20.755C495.923 19.7518 501.817 21.3257 513.137 23.1609C519.095 24.1267 524.228 25.1141 524.543 25.3543C524.859 25.5941 525.467 25.8808 525.895 25.9908C526.322 26.1006 526.87 26.2912 527.112 26.4149C527.353 26.5393 528.51 26.9657 529.683 27.3631C530.856 27.7605 531.827 28.2085 531.842 28.3584C531.857 28.5084 529.215 28.3169 525.972 27.9326C522.728 27.5482 520.201 27.3244 520.356 27.4356C520.664 27.6555 533.724 30.4359 535.353 30.6279C535.976 30.7017 536.241 30.8837 536.048 31.1067C535.647 31.572 525.396 31.192 521.366 30.5622C517.684 29.9866 514.362 29.0058 510.227 27.2724L507.203 26.0051L509.954 28.0066C513.041 30.2521 516.043 31.3909 521.483 32.3794C527.406 33.4561 527.361 33.4434 526.245 33.7C524.67 34.0617 515.888 33.4467 511.05 32.6358C508.585 32.2224 507.195 32.1494 507.961 32.4724C510.044 33.3525 518.719 34.7222 523.566 34.937L527.835 35.1262L524.011 35.5228C519.447 35.9964 510.853 35.836 506.562 35.1972C504.865 34.9444 501.05 34.0812 498.085 33.279C494.756 32.3785 493.371 32.1591 494.464 32.7053C499.966 35.4533 507.795 37.4529 515.559 38.0921C518.195 38.309 520.426 38.6879 520.517 38.9347C520.609 39.1806 520.915 39.115 521.196 38.7881C521.489 38.4483 522.045 38.4314 522.496 38.7497C523.629 39.548 523.109 39.8708 520.113 40.2285C516.183 40.6976 511.012 40.6424 506.154 40.0787C503.779 39.8035 502.379 39.7757 503.041 40.0174C504.546 40.5666 510.201 41.2458 514.513 41.3944C519.265 41.559 519.398 41.6597 515.472 42.1241C511.081 42.643 503.359 42.3075 498.014 41.3646C495.779 40.9702 494.182 40.8176 494.465 41.0258C495.126 41.5103 500.886 42.8887 505.814 43.741C508.514 44.2086 509.613 44.5924 509.544 45.0446C509.472 45.5106 509.868 45.7049 510.997 45.7571C515.12 45.9467 512.004 46.7254 506.574 46.8624C501.26 46.9966 496.09 46.4191 490.461 45.0623C485.179 43.7894 485.198 44.5317 490.493 46.2671C496.647 48.2835 502.949 48.782 515.003 48.2042C517.172 48.1004 517.541 48.1837 516.636 48.5734C513.784 49.8031 507.244 50.8598 502.059 50.9281C492.455 51.055 485.413 49.6936 476.658 46.017C472.205 44.1472 471.9 44.0737 474.295 45.4529C480.157 48.8279 487.665 51.1511 494.878 51.8226C497.063 52.0261 498.489 52.3607 498.106 52.5795C497.012 53.2059 484.385 53.5704 479.278 53.1239C472.902 52.5662 467.696 51.2344 461.996 48.7035C455.039 45.6136 455.197 45.6728 456.482 46.6525C458.791 48.4138 465.465 51.7826 468.568 52.7535C476.604 55.2667 487.092 55.7608 499.34 54.2017C504.048 53.6026 510.401 52.5009 513.456 51.7539C516.513 51.0067 519.024 50.5086 519.037 50.6476C519.12 51.4768 510.709 54.8878 504.946 56.3628L501.406 57.2687L505.568 56.5277C510.666 55.621 514.601 54.1503 522.257 50.2908C532.583 45.0866 545.995 41.2552 554.294 41.1403C558.908 41.076 561.593 41.4371 563.743 42.4103C565.196 43.0687 565.456 43.541 566.432 47.293C567.86 52.7855 568.979 63.435 569.302 74.6133C569.446 79.6014 569.506 83.9816 569.434 84.3466C569.334 84.8575 568.545 84.4183 566.011 82.4412C561.588 78.9905 560.427 77.4749 560.162 74.8041C559.997 73.1405 560.395 71.5298 561.684 68.6479C563.57 64.4309 563.865 60.7163 562.565 57.5411C561.913 55.9512 561.887 56.0396 562.022 59.3031C562.2 63.557 561.293 66.7355 558.537 71.5144C554.552 78.4262 552.434 82.825 551.709 85.6928C550.788 89.337 551.603 96.2012 553.339 99.4239C555.976 104.322 560.892 108.124 565.465 108.803L567.566 109.114L566.815 112.134C564.546 121.254 557.502 132.619 550.39 138.633C545.642 142.648 537.376 147.332 533.013 148.48C531.441 148.894 531.436 148.89 532.155 148.04C533.053 146.978 536.603 144.932 538.113 144.607C540.093 144.179 539.8 143.279 537.752 143.5C534.36 143.867 532.181 142.374 532.49 139.896C532.681 138.378 534.608 136.992 537.771 136.1C538.857 135.793 539.815 135.463 539.898 135.367C539.982 135.27 539.256 134.871 538.287 134.481C535.981 133.554 533.044 131.475 532.706 130.532C532.482 129.907 532.789 129.521 534.598 128.153C537.705 125.804 538.498 124.722 538.745 122.49C538.866 121.402 539.215 120.358 539.521 120.17C539.914 119.929 539.622 119.608 538.527 119.08C537.185 118.432 537.003 118.119 537.173 116.754C537.423 114.759 540.407 111.283 542.775 110.228C543.704 109.815 545.818 109.406 547.475 109.32C549.13 109.233 550.472 109.036 550.457 108.881C550.382 108.125 544.996 107.942 540.318 108.535C532.774 109.492 525.849 112.065 520.056 116.063C517.818 117.608 516.111 119.312 512.144 123.962C507.814 129.036 506.696 130.633 504.389 135.036C500.441 142.572 498.48 145.762 493.962 152.004L489.908 157.603L486.474 159.163C484.584 160.021 481.679 161.565 480.018 162.594C477.13 164.383 473.406 165.805 464.875 168.374C462.734 169.018 460.46 169.965 459.82 170.476C459.179 170.988 458.521 171.312 458.357 171.196C457.775 170.786 457.85 165.936 458.48 163.187C459.073 160.602 459.385 160.097 462.771 156.235C465.964 152.593 466.974 151.729 470.815 149.347C473.232 147.85 475.495 146.414 475.845 146.155C476.195 145.897 479.48 143.871 483.145 141.654C492.632 135.914 497.209 132.2 502.637 125.836C505.512 122.466 507.462 119.796 508.249 118.152C508.912 116.767 509.093 116.205 508.65 116.903C508.207 117.602 506.253 120.237 504.307 122.761C498.047 130.876 492.936 134.821 477.699 143.297C465.891 149.864 461.907 152.776 458.797 157.109C455.12 162.231 453.881 166.324 454.273 172.051C454.386 173.713 454.018 175.143 452.968 177.124C450.106 182.517 449.806 186.919 452.046 190.638C453.051 192.304 453.389 193.567 453.187 194.887C452.569 198.899 456.554 210.152 460.566 215.723C464.199 220.767 466.659 222.973 476.07 229.625C481.701 233.605 485.273 236.429 487.287 238.489C492.7 244.031 497.981 252.887 500.611 260.835C502.726 267.228 502.767 267.306 502.597 264.598ZM472.04 203.646L471.896 202.185L473.431 201.965C476.276 201.558 482.88 206.44 484.742 210.326L485.291 211.472L484.073 211.314C481.668 211.003 477.294 209.012 474.763 207.077C472.689 205.491 472.157 204.821 472.04 203.646ZM472.455 199.062C474.323 197.549 480.437 200.606 483.703 204.686C485.663 207.133 486.391 209.296 484.555 207.217C480.381 202.489 476.792 200.124 473.712 200.072C471.984 200.043 471.613 199.744 472.455 199.062ZM495.369 211.538C495.792 211.246 496.841 210.398 497.701 209.651C498.919 208.595 499.752 208.308 501.473 208.354C502.687 208.386 504.205 208.15 504.845 207.83C506.114 207.194 506.865 207.469 506.979 208.612C507.079 209.614 508.197 209.615 509.06 208.613L509.77 207.788L509.654 209.068C509.589 209.771 509.769 210.51 510.052 210.71C510.444 210.987 510.16 211.41 508.867 212.478C506.883 214.115 503.71 214.552 499.255 213.8C495.83 213.223 494.254 212.305 495.369 211.538ZM479.564 195.404C479.846 195.3 479.889 194.921 479.662 194.56C479.425 194.185 479.212 194.138 479.164 194.451C479.024 195.359 478.717 194.834 477.895 192.281C477.245 190.261 477.287 189.64 478.142 188.626C478.709 187.955 479.288 186.797 479.431 186.055C480.021 182.973 486.458 177.542 489.921 177.205C490.673 177.132 491.482 176.848 491.719 176.573C492.318 175.877 494.174 176.199 495.412 177.212C495.983 177.68 497.1 178.466 497.894 178.959C498.992 179.641 499.272 179.668 499.065 179.069C498.853 178.458 499.037 178.453 499.891 179.048C501.514 180.18 504.387 186.346 503.521 186.841C503.105 187.079 503.067 187.405 503.427 187.659C504.217 188.216 503.06 192.029 501.569 193.779C500.908 194.556 499.946 195.193 499.387 195.225C498.837 195.257 498.226 195.481 498.03 195.722C497.832 195.963 498.165 196.026 498.769 195.863C500.488 195.396 500.431 195.757 498.576 197.102C494.669 199.934 487.147 199.983 482.175 197.209C480.643 196.354 479.313 195.64 479.22 195.623C479.128 195.605 479.282 195.506 479.564 195.404ZM536.65 235.083C536.716 234.652 540.797 236.428 545.089 238.755C546.14 239.326 547.309 239.788 547.686 239.782C548.779 239.767 555.921 242.315 556.302 242.857C556.81 243.581 550.88 242.42 547.399 241.114C542.015 239.093 536.509 236.004 536.65 235.083ZM544.025 232.694C544.166 232.53 544.469 232.528 544.697 232.688C544.926 232.85 546.136 233.181 547.387 233.425C548.638 233.669 550.098 234.022 550.633 234.21C551.168 234.397 550.533 233.894 549.222 233.091C545.452 230.781 546.576 230.582 550.883 232.798C554.643 234.731 556.549 235.265 560.209 235.411L561.899 235.478L561.314 236.941C560.897 237.982 561 238.706 561.67 239.459C562.187 240.04 562.482 240.665 562.325 240.847C562.085 241.125 553.487 238.697 550.358 237.467C548.855 236.876 543.741 233.023 544.025 232.694ZM480.583 186.614C480.76 186.589 481.515 185.74 482.261 184.727C483.769 182.682 483.144 182.107 481.502 184.029C480.478 185.229 479.953 186.704 480.583 186.614ZM540.956 226.841C541.245 226.348 541.915 226.205 542.89 226.428C545.409 227.005 550.786 227.912 554.675 228.418C559.239 229.011 561.192 230.208 561.593 232.656C561.872 234.37 561.861 234.389 560.559 234.447C558.132 234.554 554.922 233.687 550.799 231.811C548.549 230.786 546.145 229.775 545.456 229.564C544.214 229.184 544.213 229.188 545.312 230.098C546.323 230.934 546.261 230.942 544.604 230.186C541.738 228.878 540.453 227.7 540.956 226.841ZM552.917 235.003C552.728 234.692 552.376 234.467 552.136 234.501C551.897 234.535 552.051 234.789 552.481 235.065C552.956 235.37 553.127 235.346 552.917 235.003ZM482.874 178.345C483.559 177.785 485.058 177.059 486.207 176.732C488.865 175.976 488.52 176.372 485.212 177.879C483.552 178.634 481.953 179.777 480.802 181.029L478.999 182.994L480.314 181.178C481.037 180.18 482.189 178.905 482.874 178.345ZM542.368 224.331C542.668 223.982 547.741 225.432 547.786 225.879C547.823 226.249 543.523 225.623 542.77 225.15C542.376 224.901 542.195 224.532 542.368 224.331ZM499.664 193.992C501.525 192.967 502.836 190.897 502.672 189.243C502.584 188.354 502.326 187.496 502.1 187.336C501.873 187.176 501.745 187.622 501.815 188.326C501.932 189.502 501.393 190.688 499.482 193.454C498.872 194.338 498.898 194.414 499.664 193.992ZM540.639 219.858C540.983 219.271 542.065 219.277 545.223 219.881C547.558 220.328 550.846 220.506 552.773 220.289L556.187 219.906L554.779 221.85C554.004 222.919 553.25 224.194 553.103 224.682C552.886 225.403 552.359 225.474 550.315 225.061C547.38 224.466 542.432 222.495 541.108 221.392C540.558 220.934 540.37 220.318 540.639 219.858ZM475.383 171.283C475.465 171.189 476.402 171.264 477.465 171.451C480.569 171.998 485.799 170.741 488.984 168.682C490.748 167.542 491.47 167.244 490.953 167.87C490.504 168.414 488.834 169.67 487.242 170.661C484.754 172.211 483.832 172.48 480.677 172.585C478.658 172.651 476.608 172.424 476.121 172.08C475.633 171.737 475.301 171.378 475.383 171.283ZM543.336 217.331C543.876 217.207 544.563 217.278 544.861 217.488C545.16 217.698 545.547 217.704 545.722 217.501C545.897 217.298 545.647 217.009 545.167 216.859C544.688 216.709 545.525 216.647 547.028 216.721C548.656 216.8 550.643 217.319 551.938 218.002L554.115 219.151L551.137 219.442C548.301 219.72 544.765 219.105 543.116 218.047C542.483 217.641 542.52 217.518 543.336 217.331ZM476.201 168.131C477.763 166.317 484.046 164.886 487.973 165.447C489.683 165.692 489.691 165.703 488.846 166.682C488.144 167.497 487.893 167.53 487.416 166.873C487.083 166.416 486.687 166.249 486.486 166.483C486.293 166.706 486.401 167.077 486.726 167.306C487.051 167.535 487.219 167.836 487.099 167.975C486.479 168.694 480.867 170.223 479.29 170.103C477.056 169.933 475.502 168.941 476.201 168.131ZM546.706 214.348C547.319 213.765 547.333 213.363 546.757 212.811C545.739 211.834 546.15 211.43 548.838 210.763C551.544 210.092 551.931 210.297 550.684 211.744C550.142 212.373 549.727 213.644 549.733 214.663L549.741 216.468L548.514 216.26C546.421 215.905 545.78 215.228 546.706 214.348ZM542.098 207.012C543.153 205.789 543.98 205.84 545.92 207.248C547.681 208.526 547.763 208.666 546.599 208.402C545.87 208.238 544.628 208.026 543.84 207.931C542.14 207.727 541.688 207.488 542.098 207.012ZM547.672 209.361C548.633 209.196 549.605 209.201 549.831 209.371C550.253 209.688 546.615 210.147 546.17 209.833C546.036 209.739 546.712 209.526 547.672 209.361ZM484.563 148.511C488.03 148.856 490.129 147.315 488.871 145.35C488.389 144.597 488.298 143.81 488.646 143.406C488.968 143.033 489.157 142.676 489.066 142.611C488.976 142.548 488.727 142.218 488.513 141.879C487.977 141.032 485.939 141.404 484.973 142.525C484.394 143.197 484.391 143.604 484.963 144.007C485.836 144.622 485.635 145.113 484.441 145.284C483.356 145.439 482.264 147.266 482.885 147.886C483.166 148.166 483.921 148.447 484.563 148.511ZM498.356 157.852C498.504 157.681 499.636 157.652 500.872 157.788C503.587 158.086 507.624 160.688 508.066 162.425C508.319 163.423 508.14 163.349 506.172 161.641C504.502 160.192 503.342 159.579 501.17 158.996C499.615 158.578 498.286 158.219 498.216 158.2C498.145 158.179 498.209 158.023 498.356 157.852ZM540.76 182.584C545.016 181.88 548.894 181.107 551.09 180.525C554.62 179.589 565.829 177.442 566.722 177.531C567.464 177.605 567.408 177.767 566.383 178.517C564.231 180.091 556.973 183.446 555.141 183.713C554.167 183.855 552.812 184.129 552.13 184.322C551.446 184.513 550.457 184.643 549.931 184.609C549.405 184.575 548.223 184.537 547.303 184.524C544.485 184.485 545.369 184.005 550.205 182.948C552.749 182.392 556.045 181.553 557.528 181.082L560.225 180.227L557.603 180.829C551.028 182.339 538.828 183.826 537.971 183.222C537.86 183.143 539.115 182.856 540.76 182.584ZM505.616 156.618C506.738 156.457 511.619 159.361 511.148 159.908C510.815 160.294 509.246 159.578 506.174 157.635C505.084 156.946 504.957 156.712 505.616 156.618ZM544.504 180.629C545.936 180.025 551.233 179.429 551.277 179.867C551.314 180.245 544.215 181.498 543.779 181.19C543.654 181.102 543.981 180.85 544.504 180.629ZM565.953 188.102C566.686 187.655 567.599 186.739 567.984 186.068C568.422 185.301 569.552 184.409 571.018 183.675C572.301 183.032 573.498 182.336 573.675 182.13C574.179 181.546 576.261 181.374 576.457 181.901C576.879 183.036 569.998 189.018 565.776 191.187L563.513 192.348L564.067 190.631C564.478 189.36 564.967 188.704 565.953 188.102ZM550.877 175.32C551.336 175.055 553.421 174.388 555.51 173.839C560.031 172.651 567.523 169.666 573.729 166.579C576.2 165.351 578.295 164.542 578.385 164.784C578.475 165.026 577.909 166.538 577.128 168.145C575.374 171.751 573.726 173.036 568.739 174.685C565.343 175.808 561.404 176.532 561.914 175.94C562.057 175.775 561.44 175.606 560.544 175.565L558.914 175.49L561.599 174.388L564.283 173.286L561.671 173.895C558.804 174.563 550.358 176.027 550.164 175.89C550.096 175.842 550.418 175.586 550.877 175.32ZM563.224 175.476C563.906 175.083 563.899 175.008 563.187 175.107C562.695 175.175 562.309 175.398 562.33 175.6C562.35 175.803 562.752 175.747 563.224 175.476ZM529.592 151.735C529.728 151.578 531.339 150.883 533.172 150.191C538.709 148.101 541.698 146.609 546.108 143.735C548.421 142.228 550.445 141.18 550.604 141.407C550.763 141.634 550.762 141.936 550.6 142.079C550.205 142.428 550.371 143.823 550.964 145.133C551.581 146.495 550.76 147.443 548.06 148.487C546.539 149.075 545.344 149.962 543.908 151.567C539.611 156.372 540.003 156.133 537.747 155.311C536.621 154.899 534.503 154.133 533.041 153.608C529.928 152.489 529.254 152.123 529.592 151.735ZM566.218 174.635C566.767 174.509 567.204 174.278 567.188 174.122C567.173 173.966 566.655 174.021 566.038 174.245C564.702 174.727 564.809 174.959 566.218 174.635ZM567.217 172.138C568.428 171.728 570.171 171.097 571.091 170.734C572.739 170.086 572.741 170.083 571.232 170.512C570.389 170.752 568.493 171.275 567.018 171.676C565.544 172.077 564.489 172.512 564.676 172.644C564.862 172.775 566.006 172.547 567.217 172.138ZM518.05 125.829C519.741 124.147 521.202 122.997 521.437 123.163C521.859 123.461 517.382 128.246 513.321 131.838L511.394 133.542L513.236 131.165C514.249 129.857 516.415 127.457 518.05 125.829ZM529.296 142.525C529.95 141.767 530.862 141.907 531.565 142.876C532.038 143.526 531.97 143.734 531.229 143.904C530.02 144.182 528.687 143.231 529.296 142.525ZM529.585 137.835C531.64 136.832 532.555 136.802 531.856 137.759C531.748 137.908 531.317 138.682 530.898 139.479C530.334 140.554 529.842 140.972 528.997 141.093C527.963 141.241 527.905 141.2 528.373 140.657C529.218 139.678 528.282 139.499 526.968 140.388L525.748 141.213L526.474 140.106C526.873 139.497 528.273 138.475 529.585 137.835ZM522.223 131.835C526.685 127.146 531.772 123.058 534.608 121.881C536.982 120.896 537.159 120.95 537.237 122.691C537.322 124.617 535.568 126.204 530.545 128.752C526.359 130.875 522.717 133.129 520.084 135.228C517.661 137.158 518.652 135.586 522.223 131.835ZM593.9 186.28C594.959 185.674 594.885 184.932 593.782 185.09C593.13 185.183 592.945 185.396 593.003 185.981C593.062 186.567 593.275 186.639 593.9 186.28ZM596.893 187.061C597.872 186.5 598.012 185.735 597.236 185.187C596.849 184.915 596.436 185.089 596.053 185.684C595.326 186.82 595.84 187.664 596.893 187.061ZM565.474 164.17C566.586 163.331 567.35 162.99 570.774 161.804C571.643 161.503 572.018 161.233 571.608 161.204C570.606 161.131 570.592 161.142 575.482 158.09C578.676 156.096 580.564 154.562 582.874 152.086C585.937 148.803 585.953 148.774 584.084 149.876C582.214 150.979 582.225 150.959 585.045 148.102C588.166 144.94 590.003 143.786 589.816 145.104C589.756 145.529 589.092 146.594 588.341 147.472C586.254 149.91 582.797 155.334 581.589 158.062L580.507 160.506L576.567 162.297C574.4 163.282 572.014 164.148 571.266 164.22C569.938 164.349 569.936 164.331 571.157 163.412C572.089 162.71 571.717 162.765 569.697 163.625C567.191 164.691 564.805 165.383 564.463 165.142C564.384 165.086 564.839 164.649 565.474 164.17ZM527.069 131.729C528.683 130.508 529.811 129.855 529.576 130.277C529.147 131.052 524.197 134.62 524.157 134.183C524.145 134.055 525.455 132.95 527.069 131.729ZM528.664 133.052L530.909 131.26L532.78 132.868C533.809 133.752 534.668 134.572 534.689 134.691C534.772 135.164 528.678 136.239 528.4 135.8C528.236 135.54 527.732 135.302 527.279 135.27C526.087 135.186 526.182 135.033 528.664 133.052ZM572.649 165.599C573.78 165.154 573.678 165.48 572.472 166.17C572.044 166.416 571.679 166.478 571.663 166.308C571.645 166.139 572.09 165.82 572.649 165.599ZM597.121 183.028C598.508 183.002 600.63 180.684 600.381 179.464C599.895 177.084 594.95 178.815 595.062 181.325C595.121 182.668 595.59 183.056 597.121 183.028ZM600.931 185.035C601.202 184.721 601.157 184.276 600.833 184.047C600.508 183.818 600.02 183.888 599.749 184.203C599.478 184.517 599.523 184.961 599.848 185.191C600.172 185.42 600.66 185.35 600.931 185.035ZM523.594 128.819C523.929 128.634 523.834 128.911 523.382 129.436C522.93 129.96 522.656 130.111 522.773 129.772C522.889 129.432 523.259 129.004 523.594 128.819ZM520.857 127.737C521.646 125.918 530.945 117.826 534.717 115.678L536.159 114.857L535.69 116.671C535.288 118.221 534.975 118.636 533.529 119.535C532.599 120.113 529.949 122.242 527.64 124.266C523.238 128.124 521.48 129.319 520.853 128.878C520.646 128.732 520.648 128.219 520.857 127.737ZM583.952 166.162C583.867 165.854 584.776 164.423 585.972 162.981C587.795 160.782 588.173 160.492 588.314 161.185C588.446 161.831 588.595 161.881 588.997 161.414C589.28 161.086 590.132 160.828 590.891 160.841C591.649 160.855 592.819 160.63 593.49 160.342L594.709 159.819L594.209 161.189C593.934 161.942 592.561 164.107 591.158 166.001C588.74 169.264 588.578 169.404 588.054 168.685C587.75 168.268 586.836 167.706 586.024 167.436C584.107 166.799 584.133 166.815 583.952 166.162ZM523.126 120.414C524.432 118.782 530.565 114.465 532.504 113.812C533.877 113.349 532.927 114.285 527.957 118.292C524.446 121.123 522.539 122.317 521.784 122.158C521.757 122.153 522.362 121.368 523.126 120.414ZM530.132 122.708C530.552 122.415 531.883 121.422 533.088 120.503C534.789 119.206 535.447 118.951 536.028 119.36C536.968 120.023 536.995 119.999 534.106 121.159C532.781 121.691 531.362 122.51 530.953 122.98C530.543 123.45 530.02 123.701 529.789 123.538C529.558 123.375 529.712 123.001 530.132 122.708ZM551.594 126.95C553.417 126.164 554.197 124.159 553.334 122.479C552.82 121.478 552.466 121.211 551.711 121.255C550.244 121.34 548.878 123.261 548.984 125.094C549.101 127.153 549.864 127.696 551.594 126.95ZM548.781 120.329C549.597 120.03 549.405 118.108 548.553 118.047C548.092 118.015 547.829 118.306 547.669 119.028C547.414 120.177 547.839 120.674 548.781 120.329ZM559.743 125.319C560.785 124.723 560.622 123.357 559.528 123.513C558.604 123.646 557.935 125.004 558.573 125.454C558.803 125.617 559.329 125.555 559.743 125.319ZM557.792 119.604C558.07 119.113 557.925 118.608 557.424 118.321C556.97 118.06 556.644 117.557 556.698 117.201C556.764 116.77 556.557 116.589 556.076 116.658C554.981 116.815 555.055 117.868 556.257 119.21C557.197 120.261 557.393 120.311 557.792 119.604ZM612.528 156.372C612.806 156.332 613.316 155.973 613.659 155.575C614.12 155.041 614.023 154.717 613.294 154.346C612.645 154.017 612.076 154.106 611.65 154.6C610.998 155.356 611.57 156.509 612.528 156.372ZM613.23 152.661C614.131 152.532 614.469 152.246 614.642 151.469C614.937 150.142 614.415 149.81 612.996 150.422C612.1 150.808 611.875 151.121 611.95 151.872C612.033 152.711 612.192 152.809 613.23 152.661ZM597.828 131.537C598.502 130.917 598.093 131.525 596.919 132.888C595.745 134.25 595.193 134.757 595.693 134.014C596.193 133.271 597.153 132.157 597.828 131.537ZM557.303 101.552C555.002 98.7384 553.939 96.121 553.263 91.6012C552.637 87.4211 553.356 84.0369 555.778 79.7554C556.749 78.0392 557.734 76.2176 557.967 75.7075C558.386 74.7896 558.392 74.7937 558.607 76.1187C558.727 76.8551 558.697 78.2856 558.541 79.2987C558.297 80.8883 559.46 87.9181 560.674 92.1846L561.062 93.5483L560.485 92.4295C559.585 90.6833 558.283 86.0794 557.82 83.0048C557.588 81.4667 557.389 80.8713 557.378 81.681C557.342 84.2003 557.8 86.8319 559.063 91.3568C559.83 94.1022 560.009 95.6004 559.547 95.3977C558.59 94.9788 556.77 90.8424 556.2 87.7902C555.569 84.4093 555.046 85.4695 555.549 89.1078C556.56 96.4037 558.374 100.92 561.493 103.897C562.404 104.767 562.909 105.567 562.615 105.675C561.809 105.971 559.367 104.074 557.303 101.552ZM600.552 125.34C601.39 124.366 601.489 124.344 601.218 125.197C601.042 125.747 600.077 127.134 599.071 128.279L597.243 130.359L598.406 128.422C599.045 127.356 600.011 125.97 600.552 125.34ZM600.272 121.906C600.498 121.633 600.969 120.251 601.319 118.835C602.067 115.804 602.03 115.865 602.789 116.4C603.655 117.011 602.229 121.698 600.384 124.303L598.792 126.55L599.327 124.476C599.62 123.335 600.046 122.179 600.272 121.906ZM522.53 68.8301C523.321 67.912 523.013 66.9372 521.979 67.0854C521.43 67.1637 521.205 67.4692 521.204 68.1394C521.201 69.4271 521.763 69.7201 522.53 68.8301ZM563.355 94.5917C561.175 90.6768 558.574 80.8878 559.083 78.5097C559.264 77.6623 559.358 77.7176 560.428 79.305C561.061 80.2438 562.02 81.3227 562.559 81.7025C563.208 82.1603 563.834 84.0514 564.411 87.306C564.891 90.0073 565.842 93.3294 566.524 94.6877C567.206 96.0462 567.712 97.2193 567.647 97.2943C567.285 97.7142 563.748 90.6492 562.529 87.0703L561.722 84.7011L562.194 87.8261C562.454 89.5452 563.528 92.679 564.582 94.7901C565.635 96.9018 566.44 98.6947 566.371 98.7748C566.167 99.0115 564.626 96.8738 563.355 94.5917ZM522.185 65.1378C522.81 65.0479 523.473 64.7975 523.66 64.5807C523.847 64.3632 524.177 64.466 524.394 64.8078C524.964 65.7107 525.805 65.2309 525.69 64.0693C525.635 63.5223 525.726 62.9179 525.892 62.7259C526.506 62.0135 525.801 60.073 524.629 59.2463C523.654 58.5593 523.162 58.5493 522.102 59.1965C521.001 59.8682 520.732 60.3799 520.467 62.307C520.12 64.8264 520.459 65.3847 522.185 65.1378ZM423.482 -9.39981C423.457 -9.53998 424.58 -8.8584 425.975 -7.88487C437.478 0.140044 449.493 2.91462 471.003 2.51293C474.843 2.44102 477.998 2.50439 478.013 2.65351C478.059 3.11835 465.84 4.46859 461.138 4.51851C451.334 4.62218 438.896 1.37282 431.422 -3.24552C429.303 -4.55449 423.548 -9.01517 423.482 -9.39981ZM564.651 85.4753L563.875 82.9371L565.55 83.9192C566.866 84.6907 567.219 85.1842 567.203 86.2253C567.18 87.7035 566.491 88.7635 565.848 88.3105C565.617 88.1474 565.077 86.8715 564.651 85.4753ZM513.683 46.0355C513.858 45.8336 514.574 45.7468 515.274 45.8432C516.541 46.0168 516.54 46.0192 515.093 46.3061C513.477 46.6271 513.217 46.5773 513.683 46.0355ZM445.624 -3.92883C452.149 -2.03848 461.844 -0.084714 466.243 0.226708C470.054 0.495701 467.741 0.820152 463.547 0.604235C456.287 0.230929 447.822 -1.72995 445.086 -3.67214C444.164 -4.3266 444.197 -4.34235 445.624 -3.92883ZM491.751 22.1255C492.638 20.8327 491.583 19.279 490.313 20.0065C489.103 20.6988 488.966 21.8461 490.004 22.5784C490.829 23.1594 491.089 23.0924 491.751 22.1255ZM483.151 15.0289C484.608 13.9676 484.947 12.8853 484.026 12.2364C482.128 10.8981 479.398 13.4241 481.09 14.9529C481.874 15.6615 482.264 15.6755 483.151 15.0289ZM487.69 17.8298C488.643 17.4804 488.359 16.1084 487.362 16.251C486.529 16.3701 486.113 17.3835 486.721 17.8126C486.912 17.9472 487.348 17.9551 487.69 17.8298ZM494.689 22.1787C495.435 21.9055 495.475 20.3088 494.748 19.7967C494.098 19.3384 493.906 19.5187 493.606 20.8695C493.354 22.0032 493.775 22.5129 494.689 22.1787ZM570.683 66.4267C570.6 64.0817 570.658 62.145 570.813 62.1226C570.969 62.1007 571.936 63.0893 572.962 64.3189C573.989 65.5493 575.136 66.917 575.511 67.3582C576.335 68.3259 575.732 70.2006 573.925 72.2889C573.191 73.1371 572.483 74.0166 572.352 74.2433C571.366 75.9466 570.954 74.0186 570.683 66.4267ZM625.708 107.85C628.972 104.86 631.317 101.261 632.105 98.0282C632.625 95.8975 633.421 90.0073 633.209 89.858C633.145 89.8127 632.667 91.2139 632.148 92.9705C631.155 96.3289 627.406 102.308 626.634 101.764C626.414 101.609 626.793 100.566 627.476 99.4477L628.719 97.4136L627.189 98.7796C625.71 100.1 625.733 99.9746 627.877 95.0502C629.098 92.2482 630.543 88.1743 631.089 85.9979C631.635 83.8214 632.202 81.9016 632.348 81.7313C633.002 80.9729 634.343 89.7908 634.056 92.9609C633.563 98.3987 632.492 100.877 628.698 105.363C625.798 108.792 622.982 111.384 622.914 110.689C622.899 110.549 624.157 109.271 625.708 107.85ZM493.222 18.1026C495.466 18.6403 497.6 16.0986 496.257 14.4875C495.029 13.0152 493.13 12.8064 491.78 13.9954C490.108 15.4692 490.831 17.5302 493.222 18.1026ZM624.206 103.893C624.626 103.593 624.532 103.866 623.998 104.5C623.464 105.134 623.121 105.38 623.235 105.046C623.35 104.712 623.787 104.193 624.206 103.893ZM619.369 92.7086C620.332 91.2734 620.497 90.7497 619.922 90.9544C618.266 91.5426 620.71 89.3435 622.434 88.6931C623.368 88.3413 625.075 87.3985 626.226 86.5974L628.319 85.1421L628.042 86.8607C627.752 88.6523 624.144 95.9387 623.277 96.4821C623.003 96.6543 623.4 95.6497 624.159 94.2506C626.098 90.6733 625.229 91.1741 622.766 95.0539C621.632 96.8392 620.534 98.3243 620.327 98.3538C620.119 98.3833 620.526 97.1991 621.231 95.7222C623.413 91.1479 623.61 90.3717 622.001 92.6771C618.181 98.1527 615.225 100.608 617.022 96.8154C617.558 95.6822 618.615 93.834 619.369 92.7086ZM626.131 93.7614C626.833 92.2409 627.84 89.5352 628.367 87.7488C629.734 83.1293 630.959 82.0692 629.911 86.414C628.793 91.0515 626.344 96.0668 623.835 98.859L621.806 101.117L623.33 98.8215C624.168 97.559 625.428 95.2821 626.131 93.7614ZM599.656 78.7668C599.085 78.1496 598.508 77.0332 598.373 76.2853C598.21 75.3732 597.546 74.5141 596.354 73.6737C595.181 72.8463 594.251 71.6575 593.613 70.1706C593.083 68.9326 592.76 68.4271 592.897 69.047C593.239 70.5941 592.657 70.5375 591.358 68.8971C590.146 67.3659 590.292 65.7235 591.561 66.6177C592.214 67.0783 592.377 66.9889 592.66 66.0143C593.057 64.6517 589.554 59.2189 589.093 60.4838C588.927 60.9425 588.7 60.9864 588.445 60.6079C588.23 60.2887 588.412 59.6903 588.85 59.2783C589.288 58.8659 589.49 58.4189 589.299 58.2839C589.109 58.1498 589.066 57.7268 589.205 57.3451C590.252 54.467 600.353 70.5911 602.272 78.2053C602.781 80.2238 602.119 81.7098 601.222 80.5626C600.932 80.1924 600.227 79.384 599.656 78.7668ZM523.962 18.6828C524.042 18.5901 524.375 18.5333 524.704 18.5566C525.032 18.5799 525.144 18.7806 524.953 19.0026C524.761 19.2241 524.427 19.2812 524.211 19.1283C523.994 18.9754 523.882 18.7751 523.962 18.6828ZM501.938 -5.71965C502.237 -6.06682 510.421 -5.91188 510.935 -5.54947C511.481 -5.164 508.387 -4.51741 505.758 -4.46713C503.11 -4.41682 501.32 -5.00321 501.938 -5.71965ZM513.157 -3.62264C515.634 -4.44846 516.949 -4.55987 519.022 -4.11945C524.611 -2.93103 528.859 -1.03511 535.066 3.0426C544.635 9.32847 545.161 11.073 535.927 5.90232C529.932 2.54532 525.096 0.374801 520.861 -0.860702C517.783 -1.75869 512.634 -2.70255 512.386 -2.41447C512.311 -2.32799 514.106 -1.75599 516.375 -1.14397C521.238 0.168405 523.585 1.51688 519.751 0.795259C517.117 0.299558 511.885 -1.37866 510.693 -2.11072C510.101 -2.47394 510.562 -2.75792 513.157 -3.62264ZM594.606 48.8535C595.707 48.223 595.944 47.0398 595.09 46.4379C594.17 45.7891 593.231 46.2584 592.928 47.5173C592.658 48.6406 593.628 49.4133 594.606 48.8535ZM592.947 43.9224C593.524 43.8401 593.681 42.9938 593.185 42.6437C592.981 42.4997 592.592 42.6397 592.321 42.954C591.814 43.5431 592.133 44.0389 592.947 43.9224ZM526.559 -5.26806C531.641 -5.64961 532.503 -5.32594 539.238 -0.510257C542.772 2.01692 546.345 4.93344 547.786 6.46831L550.263 9.10471L545.006 5.46959C539.742 1.82924 531.128 -2.62347 526.5 -4.09777C525.271 -4.48934 524.172 -4.8673 524.058 -4.93711C523.944 -5.00739 525.07 -5.15653 526.559 -5.26806ZM613.037 56.3861C613.323 56.0541 613.276 55.5854 612.933 55.3433C612.237 54.8527 611.651 55.7585 612.178 56.509C612.365 56.7737 612.75 56.7181 613.037 56.3861ZM602.725 45.542C603.559 45.075 603.765 44.6585 603.604 43.7678C603.22 41.6525 600.829 41.5352 599.812 43.5822C599.128 44.9579 601.236 46.3766 602.725 45.542ZM556.171 7.03213C554.093 4.39651 551.941 1.93475 551.388 1.56184C550.836 1.18865 551.894 2.86724 553.739 5.29203C555.584 7.71682 557.105 9.91901 557.119 10.1864C557.132 10.4534 556.796 10.2483 556.372 9.72998C554.205 7.08331 549.071 1.808 546.802 -0.103146C545.389 -1.2927 544.074 -2.41132 543.878 -2.58847C543.007 -3.37916 546.207 -2.00575 547.916 -0.855273C548.96 -0.153126 550.765 0.768806 551.927 1.1927C555.317 2.42942 559.37 6.60436 561.773 11.3325C563.869 15.4579 563.615 16.8079 561.327 13.6967C560.569 12.6667 558.249 9.66753 556.171 7.03213ZM540.779 -3.07754C541.921 -2.57448 543.83 -1.23791 545.123 -0.0365823L547.429 2.10698L543.326 -0.478333C538.747 -3.36376 537.697 -4.43487 540.779 -3.07754ZM511.599 -23.4973C512.619 -23.6432 513.377 -24.1193 514.012 -25.0119C515.357 -26.9021 514.042 -27.9782 510.885 -27.5719C508.143 -27.2192 507.624 -26.8764 508.692 -26.1235C509.102 -25.8344 509.318 -25.2687 509.171 -24.8663C508.798 -23.8389 509.848 -23.2466 511.599 -23.4973ZM606.963 42.863C607.234 42.5483 607.19 42.1038 606.865 41.8746C606.54 41.6455 606.053 41.7154 605.781 42.0297C605.51 42.3443 605.555 42.7888 605.88 43.018C606.205 43.2472 606.692 43.1772 606.963 42.863ZM602.969 37.947C603.439 37.4015 603.397 36.9785 602.833 36.5814C602.27 36.1839 601.88 36.2397 601.577 36.7611C600.919 37.8935 602.127 38.9238 602.969 37.947Z" fill="#FFC1C1"/>
<path d="M68.7912 148.457C63.1144 193.46 41.0233 300.648 46.767 335.255M63.6251 349.394C101.42 349.937 519.607 349.394 523.686 349.394M445.105 140.844C464.359 169.376 526.309 283.469 540.244 327.913" stroke="white" stroke-width="0.543807"/>
<path d="M63.6246 314.863C73.2354 314.863 81.027 322.654 81.027 332.265C81.027 341.875 73.2354 349.666 63.6246 349.666C54.0141 349.666 46.2233 341.875 46.2233 332.265C46.2233 322.654 54.0141 314.863 63.6246 314.863ZM63.6246 324.939C59.5782 324.94 56.2976 328.22 56.2975 332.267C56.2975 336.313 59.5782 339.594 63.6246 339.594C67.6713 339.594 70.9518 336.313 70.9518 332.267C70.9517 328.22 67.6712 324.939 63.6246 324.939Z" fill="white"/>
<path d="M523.686 314.863C533.297 314.863 541.087 322.654 541.087 332.265C541.087 341.875 533.297 349.666 523.686 349.666C514.075 349.666 506.284 341.875 506.284 332.265C506.284 322.654 514.075 314.863 523.686 314.863ZM523.686 324.939C519.639 324.939 516.359 328.22 516.359 332.267C516.359 336.313 519.639 339.594 523.686 339.594C527.732 339.594 531.013 336.313 531.013 332.267C531.013 328.22 527.732 324.94 523.686 324.939Z" fill="white"/>
<path d="M132.353 278.698H459.3C466.88 278.698 473.496 283.838 475.371 291.183L492.726 359.182H95.1855L116.51 290.375C118.662 283.432 125.084 278.698 132.353 278.698Z" stroke="white" stroke-width="1.63142"/>
<circle cx="154.985" cy="334.438" r="14.4109" stroke="white" stroke-width="1.63142"/>
<circle cx="432.87" cy="334.438" r="14.4109" stroke="white" stroke-width="1.63142"/>
<rect x="201.481" y="320.027" width="19.0332" height="19.0332" rx="2.44713" stroke="white" stroke-width="1.63142"/>
<path d="M283.323 339.876C283.323 338.074 284.784 336.613 286.586 336.613H300.725C302.527 336.613 303.988 338.074 303.988 339.876V349.665H283.323V339.876Z" fill="white"/>
<rect x="367.342" y="320.027" width="19.0332" height="19.0332" rx="2.44713" stroke="white" stroke-width="1.63142"/>
<g clip-path="url(#clip1_559_17919)">
<path d="M293.655 284.953C299.06 284.953 303.443 289.335 303.444 294.741C303.444 300.147 299.061 304.53 293.655 304.53C288.249 304.53 283.866 300.147 283.866 294.741C283.867 289.336 288.249 284.953 293.655 284.953ZM294.454 288.884C294.277 288.013 293.033 288.013 292.856 288.884L292.109 292.559C292.043 292.879 291.793 293.13 291.472 293.195L287.797 293.942C286.926 294.119 286.926 295.364 287.797 295.541L291.472 296.288C291.793 296.353 292.043 296.604 292.109 296.925L292.856 300.6C293.033 301.47 294.277 301.47 294.454 300.6L295.201 296.925C295.267 296.604 295.517 296.353 295.838 296.288L299.513 295.541C300.384 295.364 300.384 294.12 299.513 293.942L295.838 293.195C295.518 293.13 295.267 292.879 295.201 292.559L294.454 288.884Z" fill="white"/>
</g>
<g clip-path="url(#clip2_559_17919)">
<path d="M24.4705 14.6816C29.8764 14.6816 34.2593 19.0639 34.2595 24.4697C34.2595 29.8758 29.8765 34.2588 24.4705 34.2588C19.0646 34.2586 14.6824 29.8756 14.6824 24.4697C14.6826 19.064 19.0648 14.6819 24.4705 14.6816ZM25.2703 18.6123C25.0932 17.7414 23.8487 17.7414 23.6716 18.6123L22.9246 22.2871C22.8592 22.6077 22.6084 22.8585 22.2878 22.9238L18.613 23.6709C17.7422 23.848 17.7422 25.0924 18.613 25.2695L22.2878 26.0166C22.6084 26.0819 22.8593 26.3327 22.9246 26.6533L23.6716 30.3281C23.8488 31.199 25.0932 31.199 25.2703 30.3281L26.0173 26.6533C26.0826 26.3327 26.3334 26.0819 26.6541 26.0166L30.3289 25.2695C31.1997 25.0924 31.1997 23.848 30.3289 23.6709L26.6541 22.9238C26.3334 22.8585 26.0827 22.6077 26.0173 22.2871L25.2703 18.6123Z" fill="white"/>
</g>
<g clip-path="url(#clip3_559_17919)">
<path d="M24.4702 325.738C29.8761 325.738 34.259 330.121 34.2593 335.526C34.2593 340.932 29.8763 345.315 24.4702 345.315C19.0644 345.315 14.6821 340.932 14.6821 335.526C14.6824 330.121 19.0645 325.739 24.4702 325.738ZM25.27 329.669C25.0929 328.798 23.8485 328.798 23.6714 329.669L22.9243 333.344C22.859 333.664 22.6082 333.915 22.2876 333.98L18.6128 334.728C17.7419 334.905 17.7419 336.149 18.6128 336.326L22.2876 337.073C22.6082 337.139 22.859 337.389 22.9243 337.71L23.6714 341.385C23.8485 342.256 25.0929 342.256 25.27 341.385L26.0171 337.71C26.0824 337.389 26.3332 337.139 26.6538 337.073L30.3286 336.326C31.1995 336.149 31.1995 334.905 30.3286 334.728L26.6538 333.98C26.3332 333.915 26.0824 333.664 26.0171 333.344L25.27 329.669Z" fill="white"/>
</g>
<g clip-path="url(#clip4_559_17919)">
<path d="M562.838 14.6816C568.244 14.6816 572.627 19.0639 572.627 24.4697C572.627 29.8758 568.244 34.2588 562.838 34.2588C557.432 34.2586 553.05 29.8756 553.05 24.4697C553.05 19.064 557.432 14.6819 562.838 14.6816ZM563.638 18.6123C563.461 17.7414 562.216 17.7414 562.039 18.6123L561.292 22.2871C561.227 22.6077 560.976 22.8585 560.655 22.9238L556.98 23.6709C556.11 23.848 556.11 25.0924 556.98 25.2695L560.655 26.0166C560.976 26.0819 561.227 26.3327 561.292 26.6533L562.039 30.3281C562.216 31.199 563.461 31.199 563.638 30.3281L564.385 26.6533C564.45 26.3327 564.701 26.0819 565.021 26.0166L568.696 25.2695C569.567 25.0924 569.567 23.848 568.696 23.6709L565.021 22.9238C564.701 22.8585 564.45 22.6077 564.385 22.2871L563.638 18.6123Z" fill="white"/>
</g>
<g clip-path="url(#clip5_559_17919)">
<path d="M562.838 325.738C568.244 325.738 572.627 330.121 572.627 335.526C572.627 340.932 568.244 345.315 562.838 345.315C557.432 345.315 553.05 340.932 553.05 335.526C553.05 330.121 557.432 325.739 562.838 325.738ZM563.638 329.669C563.461 328.798 562.216 328.798 562.039 329.669L561.292 333.344C561.227 333.664 560.976 333.915 560.655 333.98L556.98 334.728C556.11 334.905 556.11 336.149 556.98 336.326L560.655 337.073C560.976 337.139 561.227 337.389 561.292 337.71L562.039 341.385C562.216 342.256 563.461 342.256 563.638 341.385L564.385 337.71C564.45 337.389 564.701 337.139 565.021 337.073L568.696 336.326C569.567 336.149 569.567 334.905 568.696 334.728L565.021 333.98C564.701 333.915 564.45 333.664 564.385 333.344L563.638 329.669Z" fill="url(#paint0_linear_559_17919)"/>
</g>
<path d="M98.3478 250.375L86.3192 103.461H106.336L110.376 164.706L113.682 232.745H118.181L120.018 164.706L128.924 104.379H157.022L166.02 164.706L167.581 232.745H171.989L175.478 164.706L179.518 103.461H199.443L187.415 250.375H153.9L148.391 205.75L145.269 121.366H140.586L137.372 205.75L131.863 250.375H98.3478ZM212.489 250.375V103.461H264.919V121.09H232.323V167.185H263.083V184.814H232.323V232.745H264.919V250.375H212.489ZM277.589 250.375V103.461H307.89L317.44 150.106L328.734 232.745H333.233L329.56 160.941L328.091 103.461H347.373V250.375H315.695L305.595 199.965L296.596 120.998H291.821L295.219 194.731L296.78 250.375H277.589ZM377.52 250.375L359.063 103.461H379.632L389.089 181.233L391.752 232.745H396.802L399.465 181.233L408.923 103.461H429.582L411.126 250.375H377.52ZM459.139 250.375V213.646V213.463L435.357 103.461H455.65L463.087 142.026L466.944 184.631H471.167L474.932 142.026L482.462 103.461H502.846L478.972 213.555V213.738V250.375H459.139Z" fill="#F03104"/>
</g>
<rect x="1.02024" y="1.02024" width="585.271" height="357.96" rx="23.4655" stroke="url(#paint1_linear_559_17919)" stroke-width="2.04048"/>
<defs>
<linearGradient id="paint0_linear_559_17919" x1="562.838" y1="325.738" x2="562.838" y2="345.315" gradientUnits="userSpaceOnUse">
<stop stop-color="white"/>
<stop offset="1" stop-color="#F03104"/>
</linearGradient>
<linearGradient id="paint1_linear_559_17919" x1="18.8744" y1="-43.3602" x2="613.674" y2="390.752" gradientUnits="userSpaceOnUse">
<stop stop-color="white"/>
<stop offset="0.5" stop-color="#CCCCCC"/>
<stop offset="1" stop-color="#F03104"/>
</linearGradient>
<clipPath id="clip0_559_17919">
<rect width="587.311" height="360" rx="24.4857" fill="white"/>
</clipPath>
<clipPath id="clip1_559_17919">
<rect width="19.577" height="19.577" fill="white" transform="translate(283.866 284.953)"/>
</clipPath>
<clipPath id="clip2_559_17919">
<rect width="19.577" height="19.577" fill="white" transform="translate(14.6824 14.6816)"/>
</clipPath>
<clipPath id="clip3_559_17919">
<rect width="19.577" height="19.577" fill="white" transform="translate(14.6821 325.738)"/>
</clipPath>
<clipPath id="clip4_559_17919">
<rect width="19.577" height="19.577" fill="white" transform="translate(553.05 14.6816)"/>
</clipPath>
<clipPath id="clip5_559_17919">
<rect width="19.577" height="19.577" fill="white" transform="translate(553.05 325.738)"/>
</clipPath>
</defs>
</svg>
