<svg width="104" height="108" viewBox="0 0 104 108" fill="none" xmlns="http://www.w3.org/2000/svg">
<path d="M51.7421 67.543C51.3549 67.9682 51.3702 67.8329 51.2675 68.3356C50.7852 68.0589 50.5088 68.4026 49.9434 68.0884C50.1672 67.8019 51.3722 67.5784 51.7421 67.543Z" fill="#F95F4A"/>
<path d="M32.0527 1.72266C32.6407 1.85012 32.87 2.06585 33.2422 2.53516C33.7485 3.17427 33.8789 5.87272 33.7315 6.56836L33.4297 6.61621C33.4786 6.89997 33.8279 6.76545 34.1768 7.28613C36.6094 10.9188 36.3436 13.4537 36.5986 17.2441C36.6998 18.7496 39.0097 27.5278 39.7461 28.7842L41.1025 28.7793C41.7028 29.3043 42.2915 29.8434 42.8672 30.3955C41.6302 30.9109 40.4016 30.7431 39.5654 31.3799C39.3994 32.3068 40.8671 35.7836 41.085 37.3193C41.1278 37.2652 41.1712 37.2115 41.2149 37.1582C42.4551 35.6525 46.6284 32.4718 48.2979 32.3164L48.7217 33.0947L48.8037 33.0996L48.7344 32.1641C52.5133 30.8437 56.1265 29.7064 60.169 30.1934C65.4576 30.8306 70.4009 32.3983 74.2666 36.2529C75.4499 37.4328 76.1592 38.6634 77.2149 39.8799C77.5625 39.7431 77.9409 39.5902 78.3067 39.5117C86.1278 37.8356 94.2236 36.0939 102.221 35.5664C98.9838 37.8369 92.745 39.7984 88.957 41.1025C86.7462 41.723 84.5294 42.3639 82.3106 42.9502C81.3486 43.2044 78.8964 43.4421 78.2217 44.0225C78.0878 44.5231 78.4344 44.998 78.3887 45.291C78.1204 47.0091 77.8036 49.8551 77.1445 51.375C75.2291 55.7915 71.5481 61.2184 68.2442 64.7139C67.285 66.2622 63.2339 67.9293 62.3945 68.6924C60.9296 70.0249 50.4584 72.389 50.294 72.541L50.3486 72.8975C50.6857 73.0744 50.719 72.4133 51.5068 72.4629C51.7108 72.6043 51.9033 72.8266 51.9746 73.0723C52.832 76.0265 53.8856 79.2421 55.1524 82.0381C55.9054 83.8339 56.853 86.5895 57.54 88.4492C59.0395 92.5079 62.6448 101.654 62.7861 105.807C60.4098 103.261 59.2144 100.728 57.5547 97.7656C56.0191 95.0247 55.0383 92.9531 53.8115 90.0791C52.5251 87.1186 51.3268 84.1198 50.2188 81.0879C49.1456 78.0891 48.518 75.5757 47.3477 72.5107C46.5564 72.6256 44.9417 72.8298 44.0498 72.7959C36.0905 72.3884 25.633 72.5489 19.0684 67.582C17.7482 66.5823 15.9985 60.7148 15.3252 58.9551C15.1548 58.5075 15.162 55.5571 15.1563 54.8779C14.5402 54.9482 12.3763 55.0159 12.0713 55.1035C8.65412 56.0855 8.76095 56.8007 5.18946 55.7314C4.40883 56.0437 3.34915 56.4326 2.65333 55.7676C1.91931 55.0656 2.80475 54.2293 3.28419 53.7949C6.90005 53.9428 7.34807 53.3812 10.501 51.9111C11.5155 51.4383 14.735 51.5951 15.8955 51.7441C16.6044 51.0635 17.6959 48.9997 18.3721 48.1152C19.811 46.233 21.3982 44.5604 22.8965 42.7314C24.2277 41.1064 26.1339 37.6198 28.21 36.958C28.3404 37.0766 28.4644 37.182 28.5996 37.2949L28.8262 37.1738L28.8457 36.999L28.5176 36.7998C28.5477 36.6417 32.292 32.7435 32.7471 32.2988C32.9715 32.0796 33.6838 31.4714 33.8359 31.209C34.7028 29.712 32.5545 27.6372 33.6836 26.3584C33.7127 25.6802 33.18 25.7692 33.1797 24.8936C33.1796 24.2378 33.6723 23.844 33.6289 23.3525C33.5113 22.021 33.6171 20.5417 33.4111 19.2344C33.2292 18.0792 32.9312 16.897 32.7422 15.7354C32.6802 15.3543 33.0307 15.1857 33.0313 15.0898C33.0365 14.0918 32.8938 12.4732 32.8272 11.5381C31.6656 10.1877 30.4756 7.32702 32.2031 6.0293C32.2526 5.97782 30.5126 2.53467 32.0527 1.72266ZM73.7686 44.6865C71.9068 45.0423 66.3712 46.1143 64.8994 46.8145C60.7327 48.7969 59.7629 48.9833 55.0977 49.5449C51.6775 49.9568 48.4237 50.9349 44.7402 50.9941C45.2289 52.7667 45.7839 54.9431 46.3223 56.6982C46.9069 58.6037 50.3673 66.193 49.9131 67.7041C49.3929 67.9651 49.2725 67.4562 49.0449 67.8301C49.1613 68.355 49.4909 68.5038 49.6973 69.0107C50.1019 68.9464 50.9645 68.6212 51.2676 68.3359C51.3703 67.8332 51.3551 67.968 51.7422 67.543C52.8729 67.1303 54.7201 66.8341 55.6416 66.4131C63.4918 62.8259 71.6806 56.4966 73.9336 47.8027C74.0842 47.2206 73.8356 46.0838 74.041 45.666C74.3055 45.5898 74.4772 45.5409 74.7344 45.4287C74.709 44.9564 74.1652 44.9165 73.7686 44.6865ZM40.0215 51.6025C38.2973 52.3518 33.5593 53.917 31.8252 54.2627C30.7036 53.3698 30.4147 53.0566 29.5547 54.3721C28.4633 54.7214 26.9677 55.2272 25.8848 55.4883C25.5839 55.5605 25.1877 54.7459 23.8252 55.6035C23.3841 55.4026 21.9313 54.6834 21.5313 54.6777C19.5214 55.4593 20.8225 62.3487 22.2764 63.6201C23.4009 64.6029 25.7533 65.7632 27.1016 66.3994C27.5582 66.5901 28.0286 66.7945 28.4893 66.9707C28.4449 67.5136 28.365 67.4905 28.5703 67.917L28.7754 68.0361C29.2143 67.7107 29.0106 67.3995 28.8565 66.9199C31.7608 67.4872 34.7902 68.0388 37.7578 68.1562C40.2325 68.2541 42.9899 67.6315 45.4766 68.1855C44.4751 66.3727 43.3368 64.1094 42.833 62.1152C41.9932 58.7912 41.0348 55.5183 40.418 52.1445C40.3734 51.9008 40.2629 51.6942 40.0215 51.6025ZM33.291 34.1201C33.2106 34.4206 33.1854 34.4973 33.3106 34.7949C33.7651 35.2117 34.4846 34.745 34.6016 35.1289C33.7644 36.521 30.8275 38.6103 29.627 39.7939C26.7508 42.6296 23.7701 47.0109 22.3301 50.751C23.7569 50.2234 24.6044 49.95 26.0899 49.6572C29.18 49.1811 32.1097 49.2581 35.1758 48.4287C36.4343 48.0884 38.0091 48.0475 39.3057 47.6943C39.1181 45.5395 36.4796 36.5951 34.7422 34.707C34.5343 34.481 33.6687 34.1579 33.3145 34.0352L33.291 34.1201ZM70.3535 38.4053C66.5146 35.3617 60.9721 33.6049 56.0957 34.0098C52.2878 34.201 48.5435 35.0658 45.0371 36.5635C43.8054 37.0809 42.2468 37.9282 41.0527 38.3203C41.8888 40.6737 42.7789 42.8895 43.2715 45.3477C43.3255 45.6175 43.5659 46.1378 43.6758 46.4053C48.2123 45.4963 51.6081 45.7566 56.2705 44.4414C58.7599 43.6811 60.8305 43.2154 63.4121 42.7734C65.5875 42.401 70.6126 40.6416 72.6914 41.2656L72.8076 41.1611C72.7248 40.3933 70.9778 38.9002 70.3535 38.4053Z" fill="#F95F4A"/>
<path d="M42.2944 47.5117C43.0784 47.5949 43.0975 48.7565 43.2014 49.3921C42.5997 49.7587 42.1004 50.1746 41.5809 50.489C41.3155 49.7467 40.6368 49.4633 40.6506 48.8548C40.8489 48.3687 41.8247 47.8025 42.2944 47.5117Z" fill="#161616"/>
<path d="M42.1398 48.1484C42.4129 48.3647 42.5507 48.4352 42.6293 48.7823C42.4019 49.2167 41.9723 49.3394 41.5027 49.5554C41.3374 49.5864 41.3598 49.5609 41.1774 49.4859C41.0613 48.9224 41.7291 48.4113 42.1398 48.1484Z" fill="#F95F4A"/>
<path d="M72.3984 41.9092C72.7401 41.9275 73.1855 41.9357 73.3697 42.2543C73.6519 42.7422 73.9085 43.0269 73.7978 43.6029L73.5728 43.7042C73.1169 43.6144 73.264 43.6674 72.9294 43.217C72.6461 43.1603 71.8876 43.523 71.4996 43.6618L71.3459 43.996L71.3906 44.2643L71.2193 44.2016C70.9697 43.7216 70.6485 43.5014 70.6986 43.1504C71.3353 42.6021 71.4828 42.7672 72.2234 43.0479L72.393 42.9583C72.5904 42.4617 72.5056 42.5246 72.3984 41.9092Z" fill="#161616"/>
<path d="M62.6609 44.501C63.0307 44.545 63.1782 44.6346 63.3283 44.9496C63.2111 45.4764 61.8715 46.132 61.3859 46.1863L61.233 46.0211C60.7254 45.561 60.5321 45.369 60.857 44.7519L61.0926 44.6833C61.443 44.7905 61.5687 44.9622 61.8162 45.2239C62.1622 45.1362 62.4102 44.7826 62.6609 44.501Z" fill="#161616"/>
<path d="M46.8623 47.1876C47.4129 47.1119 48.3944 47.2628 48.4097 47.9736C48.2619 48.2467 48.1852 48.4551 47.9083 48.6018C47.6543 48.4337 47.671 48.0824 47.3623 47.6905C46.9193 47.6561 47.0555 47.6606 46.6227 47.8602C46.3183 48.6114 46.6719 48.4508 46.5292 49.0691C46.2083 49.1221 45.644 48.8438 45.3086 48.7096C45.8793 48.0873 46.2207 47.7306 46.8623 47.1876Z" fill="#161616"/>
<path d="M52.1375 46.6033L52.2175 46.5576C53.0409 46.9623 52.6684 48.0527 51.594 48.3791C51.3076 48.0232 50.8455 47.5727 50.8597 47.1548C51.2616 46.7885 51.5992 47.0015 52.1375 46.6033Z" fill="#161616"/>
<path d="M56.99 45.3096C57.5903 45.3622 58.4579 45.5205 58.4416 46.2772C58.2575 46.4903 57.8155 46.6363 57.5448 46.5539C57.5293 46.2406 57.514 46.1467 57.438 45.8421C57.1086 45.6266 57.2394 45.6788 56.7932 45.7237C56.6585 46.3517 56.8714 47.0655 56.5345 47.3888L56.3045 47.2843C55.7071 46.4357 56.2477 45.7833 56.99 45.3096Z" fill="#161616"/>
<path d="M65.1098 31.9424C65.6133 32.3352 65.1258 32.9265 65.4868 33.1441C65.8005 33.3331 66.3454 33.403 66.6071 33.7892C66.5567 34.1367 66.6118 34.004 66.2731 34.302C65.7349 34.1305 64.8645 33.9479 64.6019 33.4673C64.4879 32.9335 64.8442 32.4593 65.1098 31.9424Z" fill="#161616"/>
<path d="M42.5028 52.6963L42.7415 52.7242C43.0592 52.9793 43.3124 53.4855 43.5256 53.85C43.2977 54.2391 43.0661 54.7329 42.6928 54.9613C42.3332 55.0724 42.2079 55.0155 41.8532 54.9241C41.9891 54.2453 42.4444 54.6114 42.8585 54.0365C42.6226 53.496 42.0113 53.7562 41.7852 53.2834C41.9458 52.9684 42.1963 52.8674 42.5028 52.6963Z" fill="#161616"/>
<path d="M37.4409 28.0547L37.5605 28.1237C37.7755 28.4773 37.6704 28.6631 37.5801 29.1151C37.7682 29.4667 38.0622 29.4479 38.5466 29.6329L38.6206 29.8252C38.3744 30.1089 37.7919 30.2185 37.4013 30.3329C37.1304 30.3192 36.8158 30.4892 36.5518 30.6005L36.4453 30.4272L36.5273 30.1616C37.4765 29.4261 36.6919 29.3785 37.4409 28.0547Z" fill="#161616"/>
<path d="M35.6195 49.2054C36.0782 49.1968 36.1965 49.1637 36.4994 49.4196C36.552 49.7138 36.5232 49.8556 36.4898 50.1448L36.6518 50.3183L36.8622 50.3227C36.9376 50.0654 36.9421 50.0214 37.0858 49.7996C37.4 49.8401 37.279 49.7926 37.5431 50.0124L37.5732 50.4214C36.8307 50.7214 36.5312 50.9833 35.7589 50.3037C35.5589 50.1277 35.2798 49.605 35.2676 49.336L35.6195 49.2054Z" fill="#161616"/>
<path d="M44.2159 57.1611C44.6121 57.3045 44.5741 57.2181 44.7292 57.5115C44.5069 57.8996 44.4084 57.9818 44.5445 58.3886C44.7663 58.4349 44.8544 58.4551 45.0662 58.5339C45.1327 58.8553 44.9439 59.0906 44.7754 59.3745C44.6862 59.4353 44.6258 59.4298 44.508 59.4516C43.666 58.8994 43.3032 57.8755 44.2159 57.1611Z" fill="#161616"/>
<path d="M19.9667 47.0677C20.5015 47.0454 20.9733 46.919 21.3212 47.3638C21.3716 47.7648 21.1568 48.1105 20.9799 48.4829C20.8309 48.5825 20.7826 48.5772 20.6073 48.6251C19.913 48.3594 19.8593 47.7286 19.9667 47.0677Z" fill="#161616"/>
<path d="M66.8079 43.5799C67.2989 43.5379 67.5479 43.4687 67.906 43.8421L67.8636 44.0977C67.651 44.4537 67.277 44.5271 66.8757 44.6703L66.3237 44.8484C66.0513 44.7357 66.1438 44.8137 66.002 44.4775C66.1142 43.8593 66.2468 43.7392 66.8079 43.5799Z" fill="#161616"/>
<path d="M39.5668 37.667L39.7744 37.8273C39.7268 38.2758 39.4252 38.0154 39.1979 38.6306C39.6437 39.7694 39.7121 38.9047 40.2242 39.2271L40.1919 39.783L40.102 40.038L39.851 40.1566C38.5106 39.9508 38.4998 38.4889 39.5668 37.667Z" fill="#161616"/>
<path d="M21.5056 51.6787C21.7842 52.0183 22.2577 52.4176 22.3452 52.7747C21.7279 53.1851 21.7225 52.5656 20.8998 53.3604C20.6245 53.4758 20.5022 53.5499 20.198 53.5206L20.1426 53.3747C20.5107 52.7152 21.1058 52.4598 21.5056 51.6787Z" fill="#161616"/>
<path d="M83.0844 40.001C83.5625 40.3179 83.7213 40.9743 83.2648 41.3931C82.8254 41.5256 81.927 41.3301 81.4328 41.255C81.2582 40.9545 81.2913 41.0928 81.3283 40.724C81.8769 40.253 82.0871 40.9041 82.8663 40.9521C82.936 40.6344 83.0087 40.3174 83.0844 40.001Z" fill="#161616"/>
<path d="M38.0587 32.6875C38.4267 32.9273 39.2276 34.1647 39.2263 34.6568C39.226 34.8094 39.0911 34.8858 38.9826 34.9902C38.5224 34.6135 37.8379 33.8344 37.6621 33.2435C37.7435 32.8793 37.7315 32.9787 38.0587 32.6875Z" fill="#161616"/>
<path d="M23.1153 66.5576C23.1924 66.576 24.8093 67.5621 24.8799 67.6276L24.878 68.0854C23.6583 68.4465 23.109 67.7022 23.1153 66.5576Z" fill="#161616"/>
<path d="M55.111 66.9428C55.6156 66.9166 56.2539 66.9983 56.4749 67.4968C56.3394 67.8606 56.3338 67.7826 55.989 68.0567C55.8904 68.0558 55.7917 68.0526 55.6932 68.0473C55.2548 68.0221 55.0539 67.944 54.7812 67.6434C54.7965 67.2209 54.8025 67.3362 55.111 66.9428Z" fill="#161616"/>
<path d="M40.8891 42.5273C41.1786 42.6429 41.0823 42.5927 41.2867 42.8873C41.2162 43.8585 40.7548 43.4075 40.1384 44.34L40.079 44.4315C39.9319 44.4161 39.8328 44.3103 39.7115 44.2145L39.6816 43.9446C39.8792 43.4729 40.5067 42.9257 40.8891 42.5273Z" fill="#161616"/>
<path d="M33.9492 69.5978C34.9041 69.5264 35.123 69.7874 35.9914 70.0845L36.0183 70.3721C35.1209 70.7134 34.1933 70.6748 33.9492 69.5978Z" fill="#161616"/>
<path d="M66.132 63.7404C66.2169 63.7375 66.3832 63.7781 66.4745 63.7961C66.6568 64.3775 65.6526 64.9124 65.2096 65.1075C64.8536 65.02 64.9753 65.092 64.7266 64.8525L64.776 64.6138C65.1377 64.2168 65.6525 63.9915 66.132 63.7404Z" fill="#161616"/>
<path d="M77.5894 41.5003C77.9038 41.4929 77.9444 41.4977 78.2393 41.6064C78.2758 41.9743 77.3914 42.0526 77.0459 42.7061L76.89 42.719C76.6409 42.3222 76.4544 42.2103 76.5704 41.7693C76.8015 41.5396 77.2357 41.5424 77.5894 41.5003Z" fill="#161616"/>
<path d="M70.0298 58.1572C70.1128 58.1823 70.1457 58.234 70.2207 58.3031C70.1975 58.6973 70.1389 59.5331 69.8201 59.7546L69.664 59.6281C69.446 59.0375 69.1203 59.0187 69.0586 58.4913C69.3074 58.2481 69.6686 58.2285 70.0298 58.1572Z" fill="#161616"/>
<path d="M39.6895 69.4727C40.1729 69.5488 40.6653 69.4767 41.0496 69.6929C41.1929 70.0337 41.124 70.0021 41.0195 70.441C40.6383 70.4812 40.2221 70.4958 39.8969 70.2883C39.6394 69.8815 39.7146 69.999 39.6895 69.4727Z" fill="#161616"/>
<path d="M17.9336 61.9375L18.2043 62.0172C18.5509 62.3981 19.2668 63.216 19.2482 63.7415C18.9811 63.816 18.9274 63.8559 18.6793 63.7701C18.2424 63.2694 17.9978 62.594 17.9336 61.9375Z" fill="#161616"/>
<path d="M15.4258 53.2909C16.4568 53.201 17.0717 53.4821 16.8429 54.6377L16.4238 54.5942C16.3075 54.4555 15.4523 53.3687 15.4258 53.2909Z" fill="#161616"/>
<path d="M52.0156 76.7178C52.1601 76.7965 52.1524 76.8171 52.2572 76.9511C52.3265 77.5818 52.4974 78.3136 52.1566 78.7951C51.5017 77.9811 51.386 77.5328 52.0156 76.7178Z" fill="#161616"/>
<path d="M36.7125 23.8613C37.0133 24.1402 37.326 25.0999 36.9988 25.4652L36.6853 25.4157C36.4132 25.3177 36.3422 25.2828 36.0964 25.1303L36.0957 24.9094C36.4835 24.492 36.5215 24.4036 36.7125 23.8613Z" fill="#161616"/>
<path d="M59.916 65.248C59.9508 65.2576 59.9856 65.2674 60.0205 65.277C60.5239 65.7045 61.0218 65.2724 61.3835 65.5844L61.3879 65.9786C60.9276 66.2255 60.7602 66.4042 60.2684 66.1913C60.0396 65.8629 60.0093 65.6357 59.916 65.248Z" fill="#161616"/>
<path d="M25.6944 51.1963C26.1809 51.3146 26.124 51.3095 26.368 51.6536C26.4362 52.0463 26.4573 52.114 26.3024 52.4895C25.8625 52.514 25.7371 52.5569 25.4627 52.2361C25.4002 51.8808 25.568 51.544 25.6944 51.1963Z" fill="#161616"/>
<path d="M52.8951 82.0029C53.155 82.1284 53.9832 83.1407 53.9925 83.4505C53.4612 83.4648 53.2871 83.5491 52.9356 83.2434C52.8036 82.8673 52.8683 82.4083 52.8951 82.0029Z" fill="#161616"/>
<path d="M44.4424 62.4033L44.659 62.5554C44.9115 63.0231 45.2694 63.7897 45.1443 64.3226C44.3396 64.0302 44.2116 63.1308 44.4424 62.4033Z" fill="#161616"/>
<path d="M54.3789 86.2285C54.7188 86.3473 55.2352 87.1134 55.2628 87.4849C55.2884 87.8286 55.0497 87.9517 54.8215 88.1809C54.8043 88.2206 54.7374 88.2669 54.6977 88.301C54.7996 87.582 54.4131 87.0841 54.3789 86.2285Z" fill="#161616"/>
<path d="M71.6641 37.2236C72.4775 37.3938 72.8758 37.3281 72.9217 38.2096C72.1039 38.138 71.7809 38.0959 71.6641 37.2236Z" fill="#161616"/>
<path d="M10.0508 53.3398C10.5962 53.3393 11.2384 53.7201 11.4119 54.2456C11.1021 54.357 11.0103 54.4093 10.6769 54.3419C10.3325 54.1348 10.2115 53.7196 10.0508 53.3398Z" fill="#161616"/>
</svg>
