<svg role="img" viewBox="0 0 24 24" xmlns="http://www.w3.org/2000/svg"><title>Rust</title><path d="M23.8346 11.7033l-1.0073-.6236a13.7268 13.7268 0 0 0-.0283-.2936l.8656-.7636a.3483.3483 0 0 0 .0632-.4391l-.2103-.3437a.3462.3462 0 0 0-.4052-.1474l-1.0818.3946a13.4617 13.4617 0 0 0-.1665-.2689l.6844-.9109a.3462.3462 0 0 0-.0313-.4432l-.2621-.2867a.3483.3483 0 0 0-.439-.0586l-.9748.6272a10.0981 10.0981 0 0 0-.2466-.2056l.4524-1.0349a.3462.3462 0 0 0-.1237-.4235l-.3157-.1867a.3483.3483 0 0 0-.4278.0704l-.816.8172a14.5765 14.5765 0 0 0-.2845-.1378l.2011-1.1083a.3462.3462 0 0 0-.2098-.3934l-.3589-.098a.3462.3462 0 0 0-.3927.1961l-.6148.9585a13.5765 13.5765 0 0 0-.2994-.0637l-.0567-1.1317a.3483.3483 0 0 0-.2864-.3395l-.3691-.0274a.3483.3483 0 0 0-.3395.3108l-.3827 1.0683c-.0997-.003-.1994-.004-.2994-.0024l-.3827-1.0683a.3483.3483 0 0 0-.3395-.3108l-.3691.0274a.3462.3462 0 0 0-.2864.3395l-.0564 1.1317a15.8545 15.8545 0 0 0-.2997.0637l-.6148-.9585a.3483.3483 0 0 0-.3927-.1961l-.3586.098a.3462.3462 0 0 0-.2098.3934l.201 1.1083a14.5765 14.5765 0 0 0-.2848.1378l-.816-.8172a.3462.3462 0 0 0-.4278-.0704l-.3157.1867a.3462.3462 0 0 0-.1237.4235l.4527 1.0349c-.0849.0665-.1679.135-.2466.2056l-.9748-.6272a.3462.3462 0 0 0-.439.0586l-.2621.2867a.3462.3462 0 0 0-.0313.4432l.6847.9109a14.8875 14.8875 0 0 0-.1668.2689l-1.0818-.3946a.3483.3483 0 0 0-.4052.1474l-.2103.3437a.3462.3462 0 0 0 .0635.4391l.8656.7636a12.0506 12.0506 0 0 0-.0283.2936l-1.0076.6236a.3462.3462 0 0 0-.1494.4147l.1203.3804a.3483.3483 0 0 0 .3927.2229l1.0996-.2088a14.1384 14.1384 0 0 0 .1072.2852l-.7695.883a.3462.3462 0 0 0 .0504.4412l.2415.3048a.3483.3483 0 0 0 .4335.0858l1.0063-.4479c.0726.0838.1465.166.2225.2466l-.528 1.0275a.3462.3462 0 0 0 .1474.4196l.3054.1697a.3483.3483 0 0 0 .4311-.0586l.8565-.7907c.0925.067.1868.1322.2832.1953l-.2595 1.1086a.3462.3462 0 0 0 .2382.4014l.3572.0653a.3483.3483 0 0 0 .4043-.1987l.6594-.9636c.1008.0389.2027.0751.3058.1089l.0182 1.1348a.3462.3462 0 0 0 .3178.3375l.3764-.0137a.3483.3483 0 0 0 .3521-.2966l.4275-1.0592c.1038.0143.2077.0266.3124.0365l.217 1.1145a.3483.3483 0 0 0 .3826.2804l.3764-.0586a.3462.3462 0 0 0 .2804-.3632l-.0816-1.1015a10.5765 10.5765 0 0 0 .3078-.0711l.5765 1.0041a.3462.3462 0 0 0 .4196.1831l.3548-.135a.3462.3462 0 0 0 .1941-.4052l-.3606-1.0607c.0909-.0487.1808-.0986.2698-.1508l.8277.8352a.3462.3462 0 0 0 .4335.0432l.3108-.2068a.3462.3462 0 0 0 .0915-.4196l-.6204-.9577c.0811-.0637.1611-.1295.24-.1963l1.0259.6145a.3462.3462 0 0 0 .4235-.0928l.2502-.2679a.3462.3462 0 0 0-.0251-.4432l-.838-.7539c.0673-.0779.1322-.157.197-.2374l1.1493.3416a.3462.3462 0 0 0 .4052-.2068l.1773-.3142a.3462.3462 0 0 0-.1432-.4345l-1.0028-.5543a14.1384 14.1384 0 0 0 .1376-.2775l1.1788.0437a.3462.3462 0 0 0 .3721-.3108l.0902-.358a.3462.3462 0 0 0-.2555-.4014l-1.0981-.2625c.03-.0986.0586-.1975.0855-.2975l1.1266-.2468a.3462.3462 0 0 0 .2878-.3937l-.0232-.3652a.3483.3483 0 0 0-.3395-.3215l-1.133.0289a14.5765 14.5765 0 0 0 .0163-.2975h.2594c.2284 0 .4196-.183.4196-.413v-1.3128c0-.2284-.1912-.413-.4196-.413h-.413c0-.3484-.0183-.6348-.0423-.8678h.4553c.2284 0 .4196-.183.4196-.413V8.744c0-.2284-.1912-.413-.4196-.413h-.6591a5.3861 5.3861 0 0 0-.1474-.3898c.1308-.1172.2068-.2845.2068-.4649v-.7423c0-.3484-.2804-.6308-.6288-.6308h-.7988c-.1672 0-.319.0656-.4319.1722a5.5876 5.5876 0 0 0-.3395-.2502c.0257-.0769.0382-.1579.0382-.2409V5.254c0-.3484-.2804-.6308-.6288-.6308h-.5648a5.5876 5.5876 0 0 0-.0969-.1179c.0875-.1226.1402-.2721.1402-.4319v-.5187c0-.3484-.2804-.6308-.6288-.6308h-.3178c.0102-.1328.0178-.2644.0178-.3866v-.3484c0-.3484-.2804-.6308-.6288-.6308H14.055c-.2625 0-.4813.1753-.5505.4135a7.1762 7.1762 0 0 0-3.0117 0c-.0689-.2382-.2877-.4135-.5505-.4135h-.574c-.3484 0-.6288.2824-.6288.6308v.3484c0 .1222.0076.2538.0178.3866h-.3178c-.3484 0-.6288.2824-.6288.6308v.5187c0 .1601.0527.3096.1402.4319a5.5876 5.5876 0 0 0-.0969.1179h-.5648c-.3484 0-.6288.2824-.6288.6308v.6591c0 .0827.0122.1637.0382.2409a5.5876 5.5876 0 0 0-.3395.2502c-.1132-.1066-.2647-.1722-.4319-.1722h-.7988c-.3484 0-.6288.2824-.6288.6308v.7423c0 .1804.076.3477.2068.4649a5.3861 5.3861 0 0 0-.1474.3898h-.6591c-.2284 0-.4196.1849-.4196.413v1.3128c0 .2284.1912.413.4196.413h.4553c-.024.233-.0423.5194-.0423.8678h-.413c-.2284 0-.4196.1849-.4196.413v1.3128c0 .2284.1912.413.4196.413h.2594c.0041.0993.0081.1989.0163.2975l-1.133-.0289a.3462.3462 0 0 0-.3395.3215l-.0232.3652a.3462.3462 0 0 0 .2878.3937l1.1266.2468c.0269.1.0555.1989.0855.2975l-1.0981.2625a.3462.3462 0 0 0-.2555.4014l.0902.358a.3462.3462 0 0 0 .3721.3108l1.1788-.0437a14.1384 14.1384 0 0 0 .1376.2775l-1.0028.5543a.3462.3462 0 0 0-.1432.4345l.1773.3142a.3462.3462 0 0 0 .4052.2068l1.1493-.3416c.0648.0804.1297.1595.197.2374l-.838.7539a.3462.3462 0 0 0-.0251.4432l.2502.2679a.3462.3462 0 0 0 .4235.0928l1.0259-.6145c.0789.0668.1589.1326.24.1963l-.6204.9577a.3462.3462 0 0 0 .0915.4196l.3108.2068a.3462.3462 0 0 0 .4335-.0432l.8277-.8352c.089.0522.1789.1021.2698.1508l-.3606 1.0607a.3462.3462 0 0 0 .1941.4052l.3548.135a.3462.3462 0 0 0 .4196-.1831l.5765-1.0041c.1.0303.2043.0526.3078.0711l-.0816 1.1015a.3462.3462 0 0 0 .2804.3632l.3764.0586a.3483.3483 0 0 0 .3826-.2804l.217-1.1145c.1047-.0099.2086-.0222.3124-.0365l.4275 1.0592a.3483.3483 0 0 0 .3521.2966l.3764.0137a.3462.3462 0 0 0 .3178-.3375l.0182-1.1348c.1031-.0338.205-.07.3058-.1089l.6594.9636a.3483.3483 0 0 0 .4043.1987l.3572-.0653a.3462.3462 0 0 0 .2382-.4014l-.2595-1.1086c.0964-.0631.1907-.1283.2832-.1953l.8565.7907a.3483.3483 0 0 0 .4311.0586l.3054-.1697a.3462.3462 0 0 0 .1474-.4196l-.528-1.0275c.076-.0806.1499-.1628.2225-.2466l1.0063.4479a.3483.3483 0 0 0 .4335-.0858l.2415-.3048a.3462.3462 0 0 0 .0504-.4412l-.7695-.883c.0382-.0942.0742-.1893.1072-.2852l1.0996.2088a.3483.3483 0 0 0 .3927-.2229l.1203-.3804a.3462.3462 0 0 0-.1494-.4147zM12.0014 15.693a4.0965 4.0965 0 0 1-4.1243-4.0588 4.0965 4.0965 0 0 1 4.1243-4.0587 4.0965 4.0965 0 0 1 4.1243 4.0587 4.0965 4.0965 0 0 1-4.1243 4.0588z"/></svg>
