<svg width="358" height="358" viewBox="0 0 358 358" fill="none" xmlns="http://www.w3.org/2000/svg">
<mask id="mask0_481_35228" style="mask-type:alpha" maskUnits="userSpaceOnUse" x="-1" y="0" width="158" height="358">
<mask id="mask1_481_35228" style="mask-type:alpha" maskUnits="userSpaceOnUse" x="-1" y="0" width="359" height="358">
<g opacity="0.99">
<path fill-rule="evenodd" clip-rule="evenodd" d="M134.758 25.1158C131.846 26.7773 127.612 29.1534 123.896 28.6889C123.437 28.6088 123.003 28.4243 122.627 28.1496C122.251 27.8749 121.943 27.5173 121.727 27.1045C121.511 26.6918 121.393 26.2349 121.382 25.7693C121.371 25.3036 121.467 24.8416 121.663 24.4191C122.698 22.2436 124.258 20.3591 126.201 18.9344V18.4878C122.628 17.3623 117.75 15.4686 119.358 12.092C119.786 11.1273 120.538 10.3432 121.484 9.87673C125.415 7.96515 130.774 9.37651 134.705 10.4127C138.099 11.3238 141.279 11.7883 142.369 14.5396C144.459 19.524 139.886 22.1859 134.758 25.1158ZM121.109 11.5382C118.072 14.3431 123.182 16.2011 125.093 16.8978C125.396 17.0004 125.707 17.078 126.022 17.13C125.955 15.9386 126.248 14.7546 126.863 13.7319C127.478 12.7093 128.387 11.8951 129.47 11.3953C130.48 11.2011 131.5 11.064 132.525 10.9844C129.434 10.3591 123.432 9.37651 121.109 11.5382ZM131.918 24.2762C130.699 24.2894 129.51 23.8962 128.539 23.1585C127.569 22.4209 126.872 21.3809 126.558 20.2029C124.996 21.3728 123.719 22.8815 122.824 24.6156C122.342 25.5803 122.556 27.4919 123.95 27.5455C127.808 27.3876 131.534 26.1018 134.669 23.8474C133.765 24.0644 132.845 24.2078 131.918 24.2762ZM168.613 92.0571C167.367 92.4221 166.168 92.9318 165.04 93.5757C165.007 93.6062 164.969 93.6299 164.927 93.6455C164.884 93.6611 164.84 93.6683 164.795 93.6667C164.75 93.665 164.706 93.6545 164.665 93.6359C164.625 93.6172 164.588 93.5907 164.558 93.5578C164.527 93.525 164.503 93.4865 164.488 93.4444C164.472 93.4024 164.465 93.3577 164.467 93.313C164.468 93.2682 164.479 93.2241 164.497 93.1834C164.516 93.1426 164.543 93.106 164.575 93.0755C165.284 91.9878 166.305 91.1405 167.505 90.6458C168.522 90.1995 169.62 89.9691 170.73 89.9691C171.84 89.9691 172.938 90.1995 173.955 90.6458L174.419 90.9138C175.973 92.1286 171.864 91.1103 168.613 92.0571ZM208.738 142.777C207.567 141.97 206.754 140.74 206.47 139.347C206.457 139.087 206.531 138.831 206.68 138.617C206.829 138.404 207.044 138.246 207.291 138.167C208.381 137.935 209.935 139.257 210.382 140.919C210.668 142.044 210.096 143.706 208.738 142.777ZM220.422 161.017C219.157 160.363 218.196 159.241 217.743 157.891C217.699 157.636 217.739 157.374 217.859 157.145C217.978 156.916 218.17 156.732 218.404 156.622C219.458 156.247 221.173 157.355 221.816 158.963C222.262 160.053 221.905 161.785 220.422 161.017ZM135.973 149.208C136.153 149.068 136.381 149.006 136.607 149.034C136.834 149.063 137.039 149.18 137.179 149.36C137.319 149.54 137.381 149.768 137.353 149.995C137.324 150.221 137.207 150.426 137.027 150.566C136.525 150.974 135.973 151.316 135.383 151.584C135.279 151.627 135.167 151.648 135.055 151.647C134.942 151.646 134.831 151.623 134.727 151.579C134.623 151.535 134.529 151.471 134.451 151.391C134.372 151.31 134.309 151.215 134.267 151.111C134.225 151.007 134.203 150.895 134.204 150.782C134.205 150.67 134.228 150.558 134.272 150.455C134.316 150.351 134.38 150.257 134.461 150.178C134.541 150.099 134.636 150.037 134.74 149.994C135.183 149.785 135.597 149.521 135.973 149.208ZM142.012 142.419C142.112 142.469 142.202 142.538 142.276 142.622C142.349 142.707 142.405 142.805 142.44 142.912C142.475 143.019 142.489 143.131 142.479 143.243C142.47 143.355 142.439 143.463 142.387 143.563C142.119 144.117 141.833 144.617 141.565 145.099C141.441 145.27 141.259 145.388 141.053 145.433C140.847 145.478 140.632 145.445 140.449 145.341C140.265 145.237 140.127 145.07 140.059 144.87C139.992 144.671 140 144.453 140.082 144.26C140.35 143.795 140.618 143.313 140.868 142.795C140.971 142.594 141.149 142.443 141.363 142.373C141.577 142.303 141.81 142.319 142.012 142.419ZM144.852 137.042C144.774 137.237 144.626 137.396 144.438 137.489C144.25 137.583 144.034 137.604 143.832 137.549C143.629 137.494 143.454 137.366 143.339 137.191C143.224 137.015 143.178 136.803 143.209 136.595C143.369 136.059 143.512 135.523 143.637 134.97C143.658 134.854 143.702 134.744 143.767 134.647C143.832 134.549 143.916 134.466 144.015 134.402C144.113 134.338 144.224 134.295 144.339 134.276C144.455 134.256 144.573 134.261 144.687 134.289C144.801 134.317 144.908 134.368 145.001 134.44C145.094 134.511 145.172 134.6 145.229 134.702C145.287 134.805 145.322 134.918 145.334 135.034C145.346 135.151 145.334 135.269 145.299 135.381C145.156 135.952 145.013 136.506 144.852 137.042ZM147.621 125.93C147.846 125.952 148.052 126.063 148.196 126.236C148.34 126.41 148.409 126.634 148.389 126.859C148.389 127.27 148.247 128.163 148.193 128.645C148.182 128.758 148.148 128.866 148.094 128.965C148.04 129.064 147.967 129.151 147.879 129.221C147.79 129.291 147.689 129.343 147.58 129.373C147.471 129.403 147.358 129.411 147.246 129.396C147.025 129.364 146.824 129.248 146.687 129.071C146.55 128.894 146.488 128.671 146.514 128.449C146.514 128.02 146.657 127.216 146.692 126.787C146.694 126.669 146.721 126.553 146.769 126.445C146.817 126.337 146.887 126.24 146.974 126.16C147.061 126.08 147.163 126.018 147.274 125.979C147.385 125.939 147.503 125.923 147.621 125.93ZM146.835 120.409C146.674 119.891 146.514 119.409 146.335 118.909C146.295 118.809 146.275 118.703 146.277 118.595C146.278 118.488 146.301 118.382 146.345 118.284C146.388 118.185 146.451 118.097 146.529 118.023C146.607 117.949 146.699 117.892 146.799 117.855C147.001 117.778 147.224 117.784 147.421 117.871C147.619 117.958 147.774 118.119 147.853 118.319C148.068 118.855 148.247 119.391 148.407 119.945C148.452 120.148 148.418 120.36 148.312 120.539C148.206 120.717 148.036 120.85 147.837 120.908C147.638 120.967 147.424 120.949 147.238 120.856C147.052 120.763 146.908 120.604 146.835 120.409ZM161.503 101.829C161.303 101.913 161.079 101.915 160.879 101.835C160.678 101.755 160.517 101.599 160.431 101.401C160.216 100.918 160.002 100.436 159.752 99.9715C159.651 99.7794 159.63 99.5552 159.693 99.3477C159.757 99.1402 159.9 98.9662 160.091 98.8638C160.284 98.7673 160.507 98.7487 160.713 98.8119C160.919 98.8751 161.093 99.0153 161.199 99.2033C161.467 99.7214 161.717 100.222 161.931 100.758C162.015 100.957 162.017 101.181 161.937 101.381C161.857 101.582 161.701 101.743 161.503 101.829ZM171.061 97.0594C170.86 96.5713 170.633 96.0943 170.382 95.6302C170.321 95.5346 170.28 95.4273 170.262 95.3152C170.245 95.2032 170.251 95.0886 170.28 94.9789C170.309 94.8692 170.36 94.7667 170.43 94.6778C170.501 94.5888 170.589 94.5155 170.689 94.4623C170.789 94.4091 170.899 94.3772 171.013 94.3687C171.126 94.3601 171.239 94.3751 171.346 94.4126C171.453 94.4502 171.552 94.5095 171.635 94.5868C171.718 94.6642 171.784 94.7579 171.829 94.862C172.097 95.3801 172.347 95.8803 172.561 96.3984C172.613 96.4982 172.645 96.6076 172.653 96.7199C172.661 96.8322 172.646 96.945 172.609 97.0513C172.572 97.1577 172.513 97.2552 172.437 97.3379C172.36 97.4206 172.268 97.4867 172.165 97.5321C172.062 97.5775 171.95 97.6012 171.838 97.6018C171.725 97.6024 171.613 97.5798 171.51 97.5355C171.406 97.4912 171.313 97.426 171.236 97.3441C171.158 97.2622 171.099 97.1653 171.061 97.0594ZM139.796 110.476C139.882 110.404 139.982 110.351 140.089 110.318C140.197 110.285 140.31 110.274 140.421 110.286C140.533 110.298 140.641 110.332 140.739 110.386C140.837 110.44 140.924 110.513 140.993 110.601C141.351 111.066 141.708 111.512 142.047 111.995C142.15 112.18 142.18 112.396 142.133 112.602C142.086 112.808 141.964 112.99 141.791 113.111C141.619 113.233 141.407 113.287 141.197 113.262C140.987 113.238 140.794 113.136 140.654 112.977C140.332 112.549 140.011 112.102 139.653 111.655C139.585 111.569 139.535 111.469 139.505 111.363C139.476 111.257 139.467 111.146 139.48 111.036C139.494 110.927 139.528 110.821 139.583 110.725C139.637 110.629 139.709 110.544 139.796 110.476ZM133.722 104.509C133.8 104.43 133.893 104.367 133.996 104.324C134.099 104.281 134.209 104.259 134.321 104.259C134.432 104.259 134.542 104.281 134.645 104.324C134.748 104.367 134.841 104.43 134.919 104.509L136.223 105.653C136.303 105.731 136.366 105.824 136.409 105.927C136.452 106.029 136.474 106.14 136.474 106.251C136.474 106.363 136.452 106.473 136.409 106.576C136.366 106.678 136.303 106.771 136.223 106.85C136.145 106.929 136.052 106.992 135.949 107.035C135.846 107.078 135.736 107.1 135.625 107.1C135.513 107.1 135.403 107.078 135.3 107.035C135.197 106.992 135.104 106.929 135.026 106.85L133.758 105.742C133.67 105.666 133.6 105.572 133.55 105.468C133.501 105.363 133.474 105.249 133.47 105.133C133.467 105.018 133.488 104.902 133.531 104.795C133.574 104.688 133.639 104.59 133.722 104.509ZM128.041 99.2569C128.505 99.5606 128.988 99.8821 129.452 100.222C129.637 100.35 129.763 100.546 129.804 100.767C129.844 100.988 129.795 101.216 129.667 101.401C129.539 101.585 129.343 101.712 129.121 101.752C128.9 101.792 128.672 101.743 128.487 101.615L127.094 100.668C126.984 100.614 126.887 100.538 126.809 100.443C126.732 100.349 126.675 100.239 126.644 100.12C126.612 100.002 126.606 99.8786 126.626 99.7579C126.646 99.6373 126.692 99.5223 126.76 99.4207C126.828 99.3191 126.917 99.2333 127.021 99.1689C127.125 99.1046 127.242 99.0633 127.363 99.0478C127.484 99.0323 127.608 99.0429 127.725 99.079C127.842 99.115 127.949 99.1757 128.041 99.2569ZM120.662 94.862L122.163 95.6838C122.274 95.7311 122.374 95.8013 122.456 95.8898C122.539 95.9784 122.601 96.0833 122.64 96.1977C122.679 96.3121 122.693 96.4334 122.682 96.5537C122.67 96.674 122.634 96.7905 122.574 96.8956C122.514 97.0007 122.433 97.092 122.336 97.1637C122.239 97.2353 122.127 97.2855 122.009 97.3111C121.891 97.3367 121.769 97.337 121.651 97.3122C121.533 97.2873 121.421 97.2377 121.324 97.1666C120.841 96.8808 120.341 96.6128 119.859 96.3627C119.759 96.3101 119.67 96.2382 119.598 96.1513C119.526 96.0644 119.472 95.9641 119.439 95.8563C119.406 95.7484 119.394 95.635 119.405 95.5226C119.415 95.4102 119.448 95.3011 119.501 95.2014C119.554 95.1014 119.626 95.0129 119.713 94.9413C119.8 94.8697 119.901 94.8164 120.01 94.7847C120.118 94.753 120.232 94.7435 120.344 94.7568C120.456 94.7701 120.564 94.8059 120.662 94.862ZM113.802 93.3792L112.248 92.7003C112.052 92.6024 111.901 92.4331 111.825 92.2272C111.75 92.0212 111.757 91.7943 111.844 91.593C111.93 91.3917 112.091 91.2314 112.293 91.1449C112.494 91.0585 112.721 91.0525 112.927 91.1282L114.499 91.8249C114.679 91.9327 114.814 92.1028 114.877 92.3032C114.94 92.5035 114.928 92.7201 114.842 92.9118C114.756 93.1035 114.602 93.257 114.411 93.3431C114.219 93.4293 114.003 93.4421 113.802 93.3792ZM107.192 89.4667C107.086 89.6637 106.907 89.8113 106.693 89.8781C106.479 89.9448 106.248 89.9254 106.049 89.824L104.53 89.02C104.332 88.9107 104.184 88.7271 104.121 88.5095C104.057 88.2919 104.082 88.0579 104.191 87.8588C104.303 87.6636 104.487 87.5194 104.703 87.4562C104.92 87.393 105.152 87.4156 105.352 87.5194L106.835 88.3233C107.032 88.4296 107.179 88.6086 107.246 88.8222C107.313 89.0359 107.293 89.2672 107.192 89.4667ZM99.5993 83.9642C99.7832 84.097 99.9083 84.2961 99.9482 84.5193C99.9882 84.7426 99.94 84.9727 99.8137 85.1611C99.6841 85.3438 99.4881 85.4684 99.2678 85.5085C99.0475 85.5486 98.8202 85.5008 98.6346 85.3755C98.1522 85.0539 97.6877 84.7145 97.2232 84.3751C97.0717 84.2319 96.9776 84.0385 96.9584 83.831C96.9391 83.6234 96.9961 83.416 97.1187 83.2474C97.2413 83.0789 97.4211 82.9607 97.6244 82.9151C97.8278 82.8695 98.0408 82.8994 98.2237 82.9994C98.6703 83.3567 99.1348 83.6783 99.5993 83.9642ZM91.7564 77.6577L92.9892 78.8011C93.1339 78.9582 93.2148 79.1638 93.216 79.3775C93.2172 79.5912 93.1385 79.7976 92.9954 79.9563C92.8524 80.115 92.6552 80.2146 92.4425 80.2356C92.2299 80.2565 92.0171 80.1973 91.8458 80.0695L90.5952 78.8904C90.5143 78.8142 90.4491 78.7227 90.4035 78.6213C90.3579 78.5199 90.3327 78.4105 90.3294 78.2993C90.3261 78.1882 90.3447 78.0775 90.3842 77.9735C90.4237 77.8695 90.4832 77.7744 90.5595 77.6934C90.6357 77.6125 90.7272 77.5474 90.8286 77.5018C90.93 77.4562 91.0394 77.431 91.1506 77.4277C91.2617 77.4244 91.3724 77.443 91.4764 77.4824C91.5803 77.5219 91.6755 77.5815 91.7564 77.6577ZM87.0757 73.9596C86.9896 74.0314 86.8899 74.0853 86.7825 74.1179C86.6752 74.1506 86.5624 74.1614 86.4509 74.1497C86.3393 74.1381 86.2311 74.1042 86.1329 74.05C86.0346 73.9959 85.9482 73.9226 85.8788 73.8345C85.5036 73.3879 85.1463 72.9413 84.789 72.4768C84.7219 72.3889 84.6728 72.2886 84.6446 72.1817C84.6163 72.0748 84.6095 71.9634 84.6244 71.8538C84.6393 71.7443 84.6758 71.6387 84.7316 71.5433C84.7875 71.4478 84.8616 71.3644 84.9498 71.2977C85.1296 71.1636 85.354 71.1037 85.5768 71.1303C85.7995 71.1569 86.0035 71.2679 86.1467 71.4406C86.4862 71.8872 86.8256 72.3338 87.1829 72.7626C87.3255 72.9364 87.3941 73.1592 87.3741 73.383C87.354 73.6069 87.2469 73.8139 87.0757 73.9596ZM82.1806 67.01C81.9815 67.1184 81.7476 67.1436 81.53 67.08C81.3123 67.0163 81.1288 66.8691 81.0194 66.6705C80.7514 66.1703 80.4834 65.6522 80.2333 65.1341C80.1819 65.0336 80.1513 64.9238 80.1434 64.8113C80.1354 64.6987 80.1502 64.5856 80.1869 64.4789C80.2236 64.3722 80.2814 64.2739 80.3569 64.1901C80.4324 64.1062 80.5241 64.0384 80.6264 63.9907C80.7255 63.9397 80.834 63.9093 80.9453 63.9016C81.0565 63.8938 81.1682 63.9087 81.2735 63.9455C81.3788 63.9823 81.4756 64.0401 81.5578 64.1154C81.64 64.1908 81.706 64.2821 81.7519 64.3838L82.5201 65.8666C82.5734 65.9639 82.6069 66.0707 82.6186 66.181C82.6304 66.2912 82.6202 66.4027 82.5886 66.509C82.5571 66.6153 82.5048 66.7143 82.4348 66.8003C82.3647 66.8863 82.2784 66.9576 82.1806 67.01ZM78.8398 59.2028C78.6198 59.2521 78.3893 59.2146 78.1963 59.0981C78.0032 58.9816 77.8626 58.7952 77.8036 58.5776C77.6786 58.0059 77.5535 57.4342 77.4463 56.791C77.4091 56.569 77.4589 56.3411 77.5853 56.1548C77.7117 55.9685 77.9051 55.838 78.1252 55.7906C78.3498 55.7539 78.5799 55.8061 78.7667 55.9362C78.9534 56.0662 79.0822 56.2639 79.1257 56.4873C79.215 57.0233 79.34 57.5592 79.4651 58.0952C79.503 58.2089 79.5166 58.3293 79.5051 58.4486C79.4936 58.5679 79.4572 58.6834 79.3983 58.7878C79.3394 58.8922 79.2592 58.983 79.1631 59.0545C79.0669 59.126 78.9568 59.1765 78.8398 59.2028ZM78.7862 50.0201C78.7795 50.132 78.7504 50.2415 78.7006 50.3421C78.6509 50.4426 78.5815 50.5321 78.4966 50.6054C78.4116 50.6787 78.3129 50.7342 78.2061 50.7687C78.0994 50.8032 77.9868 50.8159 77.8751 50.8062C77.6507 50.7879 77.4425 50.6821 77.2954 50.5116C77.1483 50.3411 77.0742 50.1197 77.089 49.895C77.089 49.3055 77.2141 48.7159 77.2855 48.1085C77.3008 47.9977 77.338 47.8911 77.395 47.7949C77.4521 47.6987 77.5277 47.6148 77.6176 47.5482C77.7075 47.4817 77.8097 47.4337 77.9184 47.4072C78.027 47.3807 78.1398 47.3762 78.2503 47.3939C78.4732 47.4292 78.6738 47.5493 78.8103 47.7291C78.9468 47.9089 79.0086 48.1344 78.9828 48.3586C78.8934 48.8946 78.8398 49.4305 78.7862 50.0201ZM80.8229 42.07C80.7257 42.2763 80.5518 42.4366 80.3383 42.5167C80.1247 42.5968 79.8884 42.5903 79.6795 42.4988C79.4776 42.4019 79.3216 42.23 79.2449 42.0197C79.1681 41.8094 79.1766 41.5774 79.2686 41.3733C79.5187 40.8373 79.7867 40.3014 80.0725 39.7833C80.1815 39.5866 80.3641 39.4413 80.5802 39.3794C80.7963 39.3174 81.0282 39.3438 81.2248 39.4527C81.4215 39.5617 81.5668 39.7444 81.6287 39.9605C81.6907 40.1766 81.6643 40.4084 81.5553 40.6051C81.2874 41.0874 81.0551 41.5877 80.8229 42.07ZM85.4678 35.3348C85.3904 35.4146 85.2981 35.4783 85.196 35.5224C85.094 35.5664 84.9842 35.59 84.873 35.5916C84.7619 35.5933 84.6515 35.573 84.5482 35.532C84.4449 35.491 84.3506 35.4301 84.2709 35.3527C84.1911 35.2752 84.1274 35.1829 84.0833 35.0808C84.0392 34.9788 84.0157 34.869 84.0141 34.7579C84.0124 34.6467 84.0326 34.5363 84.0736 34.433C84.1146 34.3297 84.1756 34.2355 84.253 34.1557C84.6461 33.7448 85.057 33.3339 85.5036 32.9408C85.5857 32.8658 85.6818 32.8076 85.7864 32.7697C85.891 32.7317 86.002 32.7148 86.1132 32.7197C86.2243 32.7247 86.3334 32.7515 86.4342 32.7987C86.535 32.8458 86.6255 32.9123 86.7006 32.9944C86.7756 33.0766 86.8338 33.1727 86.8717 33.2772C86.9097 33.3818 86.9266 33.4929 86.9217 33.604C86.9167 33.7152 86.8898 33.8243 86.8427 33.925C86.7956 34.0258 86.7291 34.1163 86.647 34.1914L85.4678 35.3348ZM93.3643 29.2785C92.8819 29.5643 92.3996 29.8501 91.9351 30.1539C91.8402 30.2243 91.7318 30.2743 91.6167 30.3009C91.5016 30.3274 91.3822 30.3299 91.2661 30.3082C91.15 30.2864 91.0396 30.2409 90.9419 30.1745C90.8442 30.1081 90.7613 30.0222 90.6983 29.9222C90.6354 29.8222 90.5937 29.7103 90.5761 29.5935C90.5584 29.4767 90.5651 29.3575 90.5957 29.2434C90.6262 29.1292 90.6801 29.0227 90.7538 28.9303C90.8275 28.838 90.9195 28.7619 91.024 28.7068L92.5068 27.8135C92.7016 27.7021 92.9323 27.6715 93.1494 27.7283C93.3665 27.7851 93.5527 27.9247 93.668 28.1172C93.7794 28.312 93.81 28.5427 93.7532 28.7598C93.6964 28.9769 93.5568 29.1631 93.3643 29.2785ZM100.903 25.6161L99.3492 26.2771C99.1434 26.3528 98.9165 26.3468 98.715 26.2603C98.5135 26.1739 98.3528 26.0135 98.2659 25.8122C98.179 25.6109 98.1724 25.384 98.2477 25.1781C98.3229 24.9721 98.4741 24.8028 98.6703 24.7049L100.26 24.0439C100.366 23.9823 100.484 23.944 100.606 23.9318C100.728 23.9196 100.852 23.9338 100.968 23.9732C101.084 24.0127 101.19 24.0766 101.279 24.1607C101.369 24.2447 101.439 24.3469 101.485 24.4604C101.532 24.5739 101.553 24.6961 101.548 24.8186C101.544 24.9411 101.513 25.0612 101.458 25.1707C101.402 25.2803 101.324 25.3767 101.229 25.4535C101.133 25.5303 101.022 25.5858 100.903 25.6161ZM108.871 22.8827L107.246 23.3829C107.03 23.4442 106.799 23.4188 106.602 23.3119C106.405 23.2051 106.258 23.0253 106.192 22.8112C106.156 22.7057 106.142 22.5941 106.151 22.4831C106.159 22.3721 106.191 22.264 106.243 22.1654C106.294 22.0669 106.366 21.9798 106.452 21.9097C106.539 21.8395 106.638 21.7876 106.745 21.7572L108.389 21.2569C108.496 21.2241 108.608 21.2129 108.719 21.224C108.83 21.2351 108.938 21.2682 109.036 21.3214C109.134 21.3747 109.221 21.4469 109.291 21.534C109.361 21.6211 109.412 21.7213 109.443 21.8286C109.476 21.9354 109.487 22.0476 109.476 22.1587C109.465 22.2698 109.432 22.3776 109.379 22.4757C109.325 22.5739 109.253 22.6604 109.166 22.7303C109.079 22.8002 108.979 22.852 108.871 22.8827ZM117.072 20.8282L115.41 21.2033C115.19 21.2515 114.96 21.211 114.769 21.0906C114.578 20.9703 114.443 20.7797 114.392 20.5602C114.365 20.451 114.361 20.3377 114.38 20.2269C114.398 20.1161 114.438 20.0101 114.498 19.9151C114.558 19.8202 114.637 19.7382 114.729 19.6741C114.821 19.61 114.925 19.565 115.035 19.5419L116.714 19.1667C116.921 19.1508 117.127 19.2104 117.293 19.3344C117.459 19.4585 117.575 19.6386 117.618 19.8414C117.662 20.0442 117.631 20.2559 117.53 20.4374C117.43 20.6188 117.267 20.7577 117.072 20.8282Z" fill="#2023F8"/>
<path fill-rule="evenodd" clip-rule="evenodd" d="M35.7291 124.448C36.9866 121.946 38.8762 119.815 41.2107 118.267C43.5453 116.719 46.2437 115.807 49.0387 115.623C55.0772 115.248 57.2032 115.319 73.3713 115.248V110.585C73.3713 110.585 63.4024 109.549 61.7945 109.424C61.8879 106.465 62.1864 103.516 62.6878 100.598C62.6878 100.491 63.2595 100.384 63.6347 100.384C63.0272 100.384 71.6383 99.8837 81.5 99.848C81.6205 99.8339 81.7427 99.844 81.8593 99.8777C81.9758 99.9115 82.0845 99.9682 82.1789 100.044C82.5004 100.384 82.4647 99.312 82.3932 115.248C92.9726 114.892 103.564 115.202 114.104 116.177C117.525 116.38 120.73 117.912 123.037 120.447C126.393 124.372 128.475 129.226 129.004 134.364C129.844 139.58 132.809 166.968 132.273 170.237C141.825 177.729 149.506 187.337 154.712 198.304C156.677 202.484 157.445 206.254 156.499 209.541C158.192 208.743 160.001 208.218 161.858 207.987C161.858 207.987 162.055 207.469 162.144 207.093C162.573 205.307 159.303 205.414 157.803 206.647C157.642 206.825 157.374 206.647 157.535 206.397C159.661 203.306 164.806 205.307 162.233 207.969C164.502 207.862 165.145 209.148 164.216 210.738C165.556 211.345 165.253 212.864 164.216 213.989C162.43 215.776 160.393 215.776 160.643 215.061C160.668 214.981 160.722 214.912 160.795 214.869C160.868 214.826 160.954 214.812 161.036 214.829C162.198 215.115 164.502 212.739 164.002 211.917C163.502 211.095 156.856 212.042 157.32 216.776C157.606 220.921 169.058 218.134 170.487 208.344C170.487 208.13 170.594 208.058 170.934 207.719C171.273 207.379 172.309 206.325 173.596 205.075C171.246 202.458 168.609 200.115 165.735 198.089C165.223 199.529 164.282 200.776 163.037 201.662C162.851 201.749 162.652 201.804 162.448 201.823C160.639 202.154 158.798 202.262 156.963 202.145C156.921 202.152 156.878 202.15 156.836 202.141C156.794 202.131 156.755 202.113 156.72 202.088C156.685 202.064 156.656 202.032 156.633 201.996C156.61 201.959 156.595 201.919 156.588 201.877C156.581 201.834 156.582 201.791 156.592 201.75C156.602 201.708 156.619 201.668 156.644 201.634C156.669 201.599 156.701 201.569 156.737 201.547C156.773 201.524 156.814 201.509 156.856 201.502C158.61 200.817 160.449 200.373 162.323 200.18C163.269 199.365 164.147 198.474 164.949 197.518C164.038 196.874 162.608 195.731 163.341 194.856C171.865 184.905 178.522 173.496 182.993 161.18C182.242 150.46 182.993 134.382 187.906 124.556C186.262 124.824 183.332 125.252 181.903 124.556C181.573 124.403 181.304 124.143 181.139 123.82C180.974 123.496 180.922 123.126 180.992 122.769C178.354 123.564 175.523 123.432 172.97 122.394C163.645 117.57 154.73 99.1691 152.711 86.0559C151.854 85.9666 150.925 85.5736 151.335 84.5195C151.532 84.0372 152.479 84.1086 152.39 83.5369C152.3 82.9653 150.049 82.6437 150.978 81.5539C151.45 81.2215 151.985 80.9904 152.55 80.875C153.587 80.2855 152.675 79.6959 152.55 79.6602C152.425 79.6244 152.014 79.5351 151.854 79.2314C151.774 78.9572 151.774 78.6659 151.854 78.3917C151.979 77.427 153.64 78.1059 154.069 77.5342C155.051 76.3908 151.532 76.0157 153.033 74.8544C153.837 74.2291 155.695 75.4261 156.213 74.4971C156.731 73.5681 154.015 72.514 155.712 71.3171C156.909 70.4953 158.571 72.8535 159.286 71.4421C159.625 70.8168 158.642 70.3345 158.464 69.8878C158.404 69.6679 158.4 69.4365 158.453 69.2148C158.506 68.9931 158.614 68.7884 158.767 68.6194C158.946 68.3872 159.571 68.4765 159.804 68.6194C160.393 68.941 161.322 70.0665 162.108 69.4591C163.287 68.548 161.144 67.9048 162.233 66.9043C162.362 66.7456 162.52 66.6123 162.698 66.5113C163.484 66.1183 164.073 66.6364 164.699 66.9937C164.234 67.1366 165.181 67.2438 164.699 66.9937C165.145 66.8329 164.538 66.4577 164.449 66.2076C164.403 65.9856 164.442 65.7546 164.558 65.5597C164.673 65.3648 164.857 65.22 165.074 65.1535C166.003 64.832 166.45 66.422 167.575 65.761C168.004 65.5109 167.575 65.1178 167.414 64.8856C167.336 64.7583 167.287 64.6155 167.27 64.4671C167.253 64.3187 167.269 64.1685 167.317 64.027C167.365 63.8855 167.443 63.7562 167.546 63.6483C167.65 63.5405 167.775 63.4566 167.914 63.4027C169.701 62.9025 170.237 65.3679 171.934 64.6712C173.203 64.1352 170.773 62.2951 172.399 61.8306C173.113 61.6162 173.488 61.9378 173.971 62.4916C174.453 63.0454 174.507 63.6707 175.329 63.7779C176.972 64.0102 176.007 62.4023 176.222 61.8485C176.436 61.2946 176.901 61.2768 177.419 61.3482C178.92 61.5626 178.223 63.4742 179.384 63.635C180.545 63.7958 179.866 62.0093 180.903 62.2236C182.207 62.4916 180.331 64.0102 181.724 64.3139C183.118 64.6176 182.01 62.313 183.511 62.6524C185.012 62.9918 184.172 64.832 185.297 65.2071C186.423 65.5823 185.583 64.0638 186.494 64.1888C188.281 64.4211 187.656 65.9753 188.102 66.2791C189.049 66.7436 188.87 64.9392 189.889 65.0642C191.925 65.3501 191.068 67.1366 191.675 68.2978C192.104 69.1196 193.14 67.6547 193.694 68.4229C194.248 69.1911 193.301 69.8521 193.694 70.6203C193.908 71.067 194.659 70.0486 195.641 71.0134C196.624 71.9781 196.285 72.925 196.142 73.9611C195.945 75.5154 197.928 74.0862 198.232 75.0152C198.464 75.5869 197.089 76.6588 197.607 77.0518C198.125 77.4449 198.268 76.7303 199.214 77.3377C200.161 77.9451 200.179 78.6419 199.5 79.4458C199.197 79.8031 198.571 80.0353 198.929 80.75C199.286 81.4646 200.09 80.5534 200.715 81.3038C201.501 82.4114 199.107 82.1613 199.643 83.2154C200.179 84.2694 201.537 84.1801 201.537 84.1801C202.609 85.6986 200.483 86.3597 199.75 87.1457C199.018 87.9318 200.84 88.3784 200.876 89.0395C200.876 90.433 199.804 90.3794 199.5 90.7367C199.197 91.094 200.34 91.1833 200.126 92.1123C199.999 92.436 199.774 92.7117 199.482 92.9008C199.191 93.0899 198.847 93.1828 198.5 93.1663C198.632 93.2954 198.73 93.4549 198.786 93.6308L228.567 85.0912C254.579 77.3734 291.006 94.0239 293.74 118.142C306.246 127.771 320.538 150.961 322.985 162.966C327.863 181.153 327.041 195.695 322.235 208.523C316.875 222.994 302.583 256.384 302.583 256.384C302.583 256.384 326.487 312.642 324.879 332.615C324.879 333.794 326.201 345.907 326.219 346.085C323.468 346.479 310.676 348.14 305.674 348.337C302.976 348.626 300.248 348.258 297.724 347.265C295.669 346.139 298.188 342.119 298.724 341.423C302.619 336.313 307.514 336.849 312.731 337.064V336.742C307.64 336.754 302.559 336.318 297.545 335.438C295.866 334.777 264.316 306.442 253.757 275.803C250.184 265.245 255.776 223.78 254.543 223.512C252.757 223.136 245.236 264.084 251.131 277.215C252.137 279.307 253.302 281.32 254.615 283.235C254.615 283.235 256.687 285.504 258.974 317.376C258.974 317.555 261.797 334.616 261.832 334.795C261.868 334.973 234.391 341.012 232.926 337.278C232.572 335.722 232.741 334.093 233.406 332.643C234.071 331.193 235.196 330.003 236.607 329.256C240.18 326.452 243.378 326.791 247.433 326.648C247.236 325.898 246.933 324.862 246.575 323.522C242.152 323.579 237.744 322.977 233.498 321.735C228.567 313.321 217.83 287.148 217.419 257.241C217.098 234.677 232.122 201.752 234.427 196.839C226.619 189.167 220.082 180.303 215.061 170.577C207.915 191.765 192.586 204.932 177.544 208.469C177.432 208.496 177.316 208.501 177.202 208.483C177.089 208.464 176.98 208.423 176.883 208.362C176.222 207.629 175.096 206.254 174.257 205.432C173.631 206.147 172.309 207.701 171.72 208.433C170.719 219.724 156.767 223.351 155.891 217.027C154.969 216.243 154.298 215.205 153.962 214.043C151.394 216.415 148.255 218.081 144.852 218.879C141.449 219.677 137.897 219.581 134.542 218.599C129.219 217.047 124.38 214.163 120.482 210.22C116.677 206.647 99.2938 184.494 97.5252 180.26L77.0694 179.045V329.328C79.6057 323.182 83.0636 317.459 87.3241 312.356C87.3884 312.285 87.4744 312.238 87.5685 312.222C87.6625 312.206 87.7592 312.222 87.8433 312.267C87.9273 312.312 87.9939 312.384 88.0326 312.471C88.0712 312.559 88.0796 312.656 88.0565 312.749C88.0565 312.749 85.3767 321.02 83.7331 326.291C85.786 323.751 88.019 321.363 90.4148 319.145C90.4865 319.086 90.5753 319.052 90.6678 319.048C90.7602 319.045 90.8515 319.071 90.9279 319.123C91.0043 319.175 91.0617 319.251 91.0916 319.338C91.1215 319.426 91.1222 319.521 91.0937 319.609C91.0937 319.609 88.396 326.541 87.3777 329.506C88.5211 328.56 94.7203 323.504 95.7922 324.486C95.8664 324.563 95.9079 324.665 95.9079 324.772C95.9079 324.879 95.8664 324.981 95.7922 325.058C94.0599 326.827 92.5262 328.78 91.2187 330.882C88.3602 335.67 89.8788 336.956 88.8426 336.938C88.7273 336.934 88.6182 336.885 88.5383 336.801C88.4583 336.718 88.4138 336.607 88.4139 336.492C88.5923 334.333 89.3044 332.251 90.4862 330.435C93.0231 326.184 95.2384 324.969 93.0946 326.291C90.895 327.764 88.7778 329.356 86.7524 331.061C86.6992 331.091 86.6403 331.109 86.5795 331.114C86.5188 331.119 86.4577 331.111 86.4002 331.091C86.3427 331.071 86.2902 331.038 86.2462 330.996C86.2022 330.954 86.1677 330.903 86.145 330.846C86.0849 330.642 86.0849 330.425 86.145 330.221C86.538 328.863 88.4675 323.807 89.5036 321.074C81.2677 329.06 83.2151 330.489 82.0717 330.829C82.0104 330.844 81.9465 330.847 81.8842 330.836C81.8219 330.825 81.7626 330.801 81.7103 330.766C81.6579 330.73 81.6137 330.684 81.5805 330.63C81.5474 330.576 81.526 330.516 81.5179 330.453C81.5179 329.935 85.5018 317.501 86.3951 314.75C82.822 319.502 78.4093 326.487 77.123 332.276V339.172H69.6732V335.331C66.4588 328.778 60.8595 323.702 54.0232 321.146C54.2018 321.342 63.7597 331.114 62.7771 334.723C62.7513 334.84 62.6811 334.943 62.5812 335.01C62.4812 335.076 62.3594 335.102 62.2412 335.08C61.0263 334.83 57.9714 328.738 46.1624 325.487C47.6988 326.809 50.3072 329.06 51.0039 329.506C53.0584 331.007 56.4886 335.08 56.5421 336.367C56.5494 336.444 56.5328 336.521 56.4944 336.588C56.456 336.655 56.3978 336.709 56.3278 336.742C56.0598 336.903 55.899 336.742 55.631 336.563C54.041 335.438 48.0025 331.204 46.0552 331.472C46.9127 332.74 49.2531 335.384 49.2174 337.725C49.1974 337.821 49.1447 337.908 49.0682 337.97C48.9917 338.032 48.8961 338.066 48.7975 338.066C48.6989 338.066 48.6033 338.032 48.5269 337.97C48.4504 337.908 48.3977 337.821 48.3777 337.725C48.3777 335.241 45.1262 332.115 45.0726 331.382C45.019 330.65 45.7694 330.65 46.2875 330.65C48.5028 330.65 53.2192 333.883 55.0236 335.134C52.2009 330.846 49.2889 329.56 44.5903 325.255C44.1079 324.808 44.3938 324.433 44.6975 324.397C45.4835 324.308 53.3443 325.665 61.6874 333.562C59.0254 325.719 53.0406 322.307 52.4867 320.627C52.3795 320.288 52.6297 319.984 53.2907 320.074C59.9366 320.913 65.5463 327.059 68.9943 332.829V178.652C67.3864 178.652 33.8175 176.008 33.8175 176.008C33.5624 175.991 33.3221 175.882 33.1413 175.701C32.9606 175.521 32.8517 175.28 32.8349 175.025L31.0484 147.977C31.0484 140.009 31.8702 131.291 35.7291 124.448ZM311.337 338.582L312.641 344.942L324.736 343.638C324.164 340.065 323.968 338.278 323.771 335.634C320.615 336.295 317.402 336.654 314.178 336.706C314.392 337.51 314.607 337.957 314.178 338.35C313.749 338.743 313.713 338.582 311.337 338.582ZM183.654 120.286C184.148 120.313 184.643 120.313 185.137 120.286C185.315 120.286 191.175 119.571 191.354 119.571C192.247 119.571 192.64 120.947 191.229 121.197C187.656 121.822 184.511 121.84 184.083 121.965C181.724 122.59 181.564 123.752 185.297 123.627C189.031 123.502 194.462 122.09 195.141 122.412C196.702 123.098 198.192 123.935 199.59 124.913C200.272 121.744 201.604 118.751 203.502 116.123C202.448 115.766 198.679 115.123 198.679 115.123C198.586 115.112 198.499 115.072 198.431 115.007C198.363 114.943 198.318 114.858 198.303 114.765C198.032 113.158 197.595 111.584 196.999 110.067C196.695 109.388 196.052 108.102 195.213 108.102C194.963 108.102 195.016 108.906 195.034 109.156C195.403 111.004 195.899 112.824 196.517 114.605C196.539 114.707 196.537 114.812 196.512 114.913C196.487 115.014 196.439 115.108 196.371 115.187C196.304 115.267 196.219 115.33 196.124 115.371C196.028 115.413 195.924 115.432 195.82 115.427C192.854 115.091 189.872 114.918 186.887 114.908C185.869 114.908 182.475 115.123 182.26 116.123C182.153 116.606 182.368 116.677 182.868 116.784C185.628 117.01 188.405 116.968 191.157 116.659C191.34 116.632 191.527 116.667 191.689 116.757C191.85 116.848 191.978 116.989 192.051 117.159C192.051 117.159 192.176 118.124 191.336 118.231C187.602 118.696 185.655 118.231 183.582 118.857C183.1 119 182.046 119.375 182.082 119.804C182.117 120.232 183.243 120.25 183.654 120.286ZM172.095 113.819C172.109 113.829 172.125 113.837 172.142 113.841C172.159 113.846 172.177 113.847 172.194 113.844C172.212 113.842 172.228 113.836 172.244 113.827C172.259 113.818 172.272 113.806 172.283 113.792C172.293 113.778 172.301 113.762 172.305 113.745C172.31 113.728 172.31 113.71 172.308 113.692C172.306 113.675 172.3 113.658 172.291 113.643C172.282 113.628 172.27 113.615 172.256 113.604C172.021 113.393 171.822 113.146 171.666 112.872C170.719 111.085 175.4 111.264 177.383 111.264C177.41 111.254 177.434 111.235 177.451 111.212C177.467 111.188 177.476 111.159 177.476 111.13C177.476 111.101 177.467 111.072 177.451 111.048C177.434 111.024 177.41 111.006 177.383 110.996C171.077 109.799 169.612 112.3 172.095 113.819ZM198.786 94.1668C198.723 94.2657 198.635 94.3471 198.532 94.4033C198.429 94.4595 198.314 94.4888 198.196 94.4884C197.214 94.4884 197.357 95.0779 197.339 95.1851C197.178 95.7211 197.767 96.1141 197.214 96.5786C196.66 97.0431 195.999 96.3285 195.427 96.5786C195.32 96.5786 195.123 97.6505 194.73 97.7577C194.337 97.8649 190.193 99.9016 191.783 97.3826C195.999 90.7724 188.799 87.1279 185.029 94.81C184.708 95.4174 182.028 79.0885 182.028 79.0885C162.251 76.4444 154.551 83.2154 153.569 85.1984C154.301 88.7846 155.311 92.3087 156.588 95.7389C157.062 95.3397 157.619 95.0508 158.218 94.8932C158.818 94.7356 159.445 94.7133 160.054 94.8278C160.684 94.9475 161.289 95.1773 161.84 95.5067C161.923 95.5304 161.993 95.586 162.035 95.6614C162.077 95.7368 162.087 95.8258 162.064 95.9087C162.04 95.9916 161.984 96.0617 161.909 96.1036C161.833 96.1455 161.745 96.1557 161.662 96.132C161.108 96.132 160.179 96.2392 160 96.257C158.892 96.257 157.517 96.5072 157.285 97.5791C159.584 103.864 162.858 109.748 166.985 115.016C166.86 114.48 166.753 113.926 166.664 113.372C166.342 111.389 166.985 108.513 170.916 106.637C168.54 107.476 167.111 107.977 165.842 106.101C163.877 103.189 162.591 95.3816 162.537 95.0958C162.523 95.0559 162.517 95.0136 162.519 94.9714C162.521 94.9292 162.532 94.8878 162.55 94.8496C162.568 94.8115 162.594 94.7773 162.625 94.749C162.657 94.7208 162.694 94.699 162.734 94.6849C162.773 94.6708 162.816 94.6647 162.858 94.667C162.9 94.6692 162.942 94.6798 162.98 94.6981C163.018 94.7163 163.052 94.7419 163.08 94.7733C163.109 94.8048 163.13 94.8415 163.144 94.8814C165.038 98.8475 165.914 103.207 167.182 105.208C167.611 105.886 167.843 105.922 168.969 105.744C172.702 105.208 172.988 105.065 173.078 105.493C173.076 105.635 173.018 105.77 172.917 105.869L173.238 105.761C183.046 102.992 190.157 110.907 189.978 113.497C192.051 113.622 193.98 113.854 195.07 113.979C194.373 111.585 192.872 106.833 195.391 106.958C197.91 107.083 198.804 111.943 199.143 114.337C200.735 114.686 202.3 115.152 203.824 115.73C204.735 114.337 204.538 114.426 205.449 114.48C207.98 110.35 209.178 105.54 208.88 100.705C208.578 97.8424 207.448 95.1294 205.628 92.8984L198.786 94.1668ZM206.307 92.5232C207.773 93.947 208.895 95.6861 209.589 97.6084C210.282 99.5308 210.528 101.586 210.309 103.618C210.111 107.533 208.679 111.285 206.218 114.337H207.683C211.631 111.443 213.042 98.4187 207.843 91.9336L206.307 92.5232ZM228.871 86.1453L208.504 91.9694C214.882 98.2758 213.435 110.907 208.665 114.623C218.688 115.069 226.102 115.212 234.481 117.07C227.906 112.997 226.334 105.172 226.959 97.4183C226.959 97.333 226.993 97.2512 227.053 97.1909C227.114 97.1306 227.196 97.0967 227.281 97.0967C227.366 97.0967 227.448 97.1306 227.508 97.1909C227.569 97.2512 227.602 97.333 227.602 97.4183C228.121 105.279 229.639 112.121 235.821 116.677C237.875 118.196 236.857 117.481 242.842 119.321C242.924 119.347 242.994 119.405 243.034 119.482C243.074 119.559 243.082 119.649 243.056 119.732C243.03 119.815 242.972 119.884 242.895 119.924C242.818 119.965 242.728 119.972 242.645 119.946C228.978 115.962 222.993 116.213 205.217 115.605C202.001 120.607 200.876 122.448 200.09 129.576C203.288 133.024 214.507 140.295 220.331 143.529C240.608 154.677 264.423 160.483 280.752 144.297C315.625 109.799 263.19 76.3551 228.871 86.1453ZM203.056 133.864C203.985 136.383 209.594 149.496 211.792 152.622C221.957 167.075 224.905 167.933 225.101 168.147C226.856 168.278 228.612 167.919 230.175 167.111C225.405 160.787 217.955 155.427 211.506 139.92C208.29 137.83 205.253 135.614 203.056 133.864ZM246.397 328.256L248.183 334.562L259.867 332.508C259.084 329.095 258.487 325.642 258.081 322.164C254.774 322.866 251.417 323.308 248.04 323.486C249.309 327.381 249.434 327.398 249.13 327.827C248.826 328.256 248.326 328.095 246.397 328.256ZM177.455 206.879C182.224 205.589 186.759 203.551 190.889 200.841C202.032 193.463 210.36 182.542 214.525 169.844C211.162 163.261 208.359 156.406 206.146 149.353C206.113 149.253 206.121 149.145 206.168 149.051C206.215 148.957 206.297 148.886 206.396 148.853C206.496 148.819 206.604 148.827 206.698 148.874C206.792 148.921 206.863 149.003 206.897 149.103C213.598 167.041 223.609 183.561 236.41 197.803C253.382 210.827 301.154 199.733 322.414 163.859C320.091 154.444 305.281 129.915 293.829 119.196C294.419 127.414 291.024 136.418 281.895 145.458C263.119 164.02 234.802 154.945 212.596 140.599C219.438 154.891 227.049 160.108 231.979 166.843C232.039 166.92 232.083 167.008 232.108 167.102C232.133 167.196 232.139 167.294 232.126 167.391C232.112 167.487 232.08 167.58 232.03 167.664C231.981 167.748 231.915 167.821 231.837 167.879C230.1 169.102 227.984 169.665 225.87 169.469C225.112 169.311 224.398 168.988 223.779 168.522C219.674 165.171 216.118 161.198 213.239 156.749C208.43 149.458 204.716 141.5 202.216 133.131C201.043 132.231 199.95 131.233 198.947 130.148C198.854 130.011 198.816 129.846 198.839 129.683C199.018 128.111 199.214 126.789 199.447 125.61C197.936 124.711 196.359 123.929 194.73 123.269C193.873 123.269 191.157 123.984 188.71 124.413C188.87 124.02 182.314 136.329 184.458 161.197C184.458 162.091 177.919 180.581 164.985 195.445C169.654 198.656 173.852 202.505 177.455 206.879ZM80.7318 101.599C77.6232 101.17 64.0277 101.188 63.7061 101.206C63.5096 103.171 62.9379 108.441 62.9379 108.441L74.9791 109.424V134.096C75.9682 133.64 77.0523 133.428 78.1404 133.477C79.2284 133.527 80.2887 133.837 81.232 134.382C80.8747 119.696 80.7139 102.135 80.7318 101.599ZM81.893 139.991C81.7768 138.638 81.1813 137.371 80.2137 136.418C80.1576 136.367 80.0843 136.338 80.0082 136.338C79.9321 136.338 79.8588 136.367 79.8028 136.418C80.2873 137.51 80.6816 138.639 80.9819 139.795C80.9819 140.76 80.3387 144.475 81.2141 143.046C81.8223 142.152 82.0652 141.059 81.893 139.991ZM114.497 159.643L113.014 159.768C112.836 159.807 112.678 159.909 112.57 160.056C112.462 160.202 112.411 160.383 112.426 160.565C112.441 160.746 112.522 160.916 112.653 161.042C112.785 161.168 112.957 161.243 113.139 161.251L114.64 161.126C114.806 161.076 114.95 160.969 115.047 160.825C115.143 160.681 115.187 160.508 115.17 160.335C115.153 160.162 115.077 160 114.954 159.878C114.831 159.755 114.67 159.678 114.497 159.661V159.643ZM126.61 132.738C124.68 122.769 115.051 120 116.141 120.804C122.412 125.538 123.537 127.861 125.306 133.31C126.056 135.596 127.235 149.746 127.986 149.746C128.45 149.764 127.807 138.991 126.61 132.738ZM120.571 160.304L122.054 160.018C122.149 159.998 122.239 159.96 122.32 159.905C122.4 159.85 122.468 159.78 122.521 159.699C122.574 159.618 122.611 159.527 122.629 159.431C122.647 159.336 122.646 159.238 122.626 159.143C122.606 159.048 122.568 158.958 122.513 158.878C122.458 158.797 122.388 158.729 122.307 158.676C122.225 158.623 122.134 158.586 122.039 158.568C121.944 158.55 121.846 158.551 121.751 158.571L120.303 158.857C120.112 158.893 119.942 159.003 119.831 159.164C119.721 159.325 119.678 159.523 119.714 159.715C119.749 159.907 119.86 160.076 120.021 160.187C120.181 160.298 120.38 160.34 120.571 160.304ZM128.736 156.499L127.378 157.017C127.193 157.083 127.042 157.22 126.959 157.398C126.875 157.575 126.865 157.779 126.931 157.964C126.998 158.149 127.135 158.299 127.312 158.383C127.49 158.467 127.694 158.477 127.878 158.41L129.29 157.892C129.467 157.814 129.607 157.669 129.68 157.49C129.753 157.31 129.754 157.11 129.683 156.929C129.611 156.749 129.472 156.604 129.296 156.524C129.119 156.443 128.919 156.434 128.736 156.499ZM155.677 216.473C155.658 215.425 155.934 214.394 156.475 213.497C157.015 212.599 157.797 211.872 158.732 211.399C160.296 210.509 162.124 210.199 163.895 210.524C164.042 210.216 164.127 209.882 164.145 209.541C164.145 208.862 163.663 208.683 162.966 208.666C160.545 208.849 158.196 209.569 156.088 210.774C155.683 211.736 155.128 212.629 154.444 213.418C154.506 214.544 154.94 215.618 155.677 216.473ZM121.483 209.023C129.611 216.633 140.116 220.617 149.674 214.99C156.195 211.167 156.356 205.682 153.247 198.911C148.084 187.531 139.205 176.294 132.077 170.72C131.969 170.72 97.9004 179.652 97.9004 179.652C100.33 184.726 118.571 206.379 121.483 209.023ZM107.19 160H105.725C105.548 160.028 105.387 160.118 105.271 160.254C105.154 160.39 105.09 160.563 105.09 160.742C105.09 160.921 105.154 161.094 105.271 161.23C105.387 161.366 105.548 161.456 105.725 161.483H107.19C107.342 161.435 107.474 161.339 107.568 161.211C107.661 161.083 107.712 160.928 107.712 160.769C107.712 160.61 107.661 160.455 107.568 160.326C107.474 160.198 107.342 160.103 107.19 160.054V160ZM98.2577 161.162L99.7405 161.287C99.9214 161.275 100.092 161.198 100.221 161.071C100.349 160.943 100.427 160.773 100.44 160.592C100.454 160.411 100.401 160.232 100.292 160.087C100.183 159.942 100.025 159.842 99.8477 159.804L98.3827 159.679C98.179 159.662 97.977 159.727 97.8212 159.86C97.6654 159.992 97.5685 160.181 97.552 160.385C97.5354 160.588 97.6004 160.79 97.7328 160.946C97.8651 161.102 98.0539 161.199 98.2577 161.215V161.162ZM33.2458 147.763L34.9072 173.882C37.7836 174.096 97.4358 179.42 97.4358 179.42C97.2393 178.205 94.1308 121.233 109.191 116.749C105.1 116.749 93.4519 116.534 82.5362 115.873C82.5362 122.019 82.1074 134.685 82.1074 134.864C83.196 135.728 83.9916 136.906 84.3857 138.239C84.7797 139.572 84.7531 140.993 84.3093 142.31C83.8656 143.627 83.0263 144.775 81.9061 145.598C80.7859 146.42 79.4392 146.877 78.0498 146.906C76.6605 146.934 75.296 146.534 74.1426 145.759C72.9893 144.983 72.1032 143.871 71.6052 142.574C71.1072 141.277 71.0216 139.857 71.36 138.509C71.6985 137.161 72.4445 135.951 73.4963 135.043V116.123C70.5664 116.23 54.97 116.82 49.2888 117.338C46.7919 117.546 44.3925 118.402 42.3277 119.822C40.263 121.241 38.6043 123.174 37.5156 125.431C32.4954 134.542 33.1743 147.816 33.1743 147.816L33.2458 147.763Z" fill="#2023F8"/>
</g>
</mask>
<g mask="url(#mask1_481_35228)">
<rect width="202.768" height="365.915" transform="matrix(-1 0 0 1 156.869 0)" fill="#2023FE"/>
</g>
</mask>
<g mask="url(#mask0_481_35228)">
<path d="M154.539 214.422C154.927 215.976 155.704 219.317 155.704 220.249H158.035L156.869 347.27H3.04503V-5.82617H155.704L156.869 66.4246L151.043 67.59L148.712 88.566L156.869 101.385V199.273V209.761L154.539 214.422Z" fill="#2023FE" stroke="black" stroke-width="1.16534"/>
</g>
</svg>
