<svg width="158" height="156" viewBox="0 0 158 156" fill="none" xmlns="http://www.w3.org/2000/svg">
<g clip-path="url(#clip0_1070_967)">
<path d="M82.2708 0.409321C100.881 0.409321 119.491 0.409321 138.1 0.409321C139.539 0.409321 140.979 0.361027 142.418 0.344844C150.136 0.263284 155.178 4.74632 155.984 12.4492C156.1 13.5496 156.101 14.6604 156.114 15.7666C156.283 28.0485 156.421 40.3317 156.614 52.613C156.881 69.6633 157.218 86.7126 157.468 103.763C157.652 116.307 155.969 128.722 154.615 141.151C154.106 145.824 150.899 148.79 147.26 151.304C146.45 151.887 145.554 152.341 144.605 152.65C139.224 154.259 133.947 156.081 128.142 155.985C96.7945 155.46 65.4451 155.041 34.0939 154.729C30.2352 154.727 26.3789 154.924 22.5405 155.32C14.4378 156.068 7.71958 153.577 2.57229 147.182C1.08364 145.361 0.290285 143.071 0.333725 140.72C0.477479 127.882 0.644536 115.046 0.83491 102.211C1.14443 83.3893 1.52521 64.5687 1.8425 45.7471C1.99403 36.7794 1.67286 27.7826 2.29579 18.8498C2.87405 10.5644 7.4651 5.38603 14.6457 3.47389C20.6639 1.87052 26.7191 1.99849 32.7626 1.81012C49.26 1.29228 65.7676 1.08648 82.2708 0.75636V0.409321ZM81.8512 43.9761C81.8842 44.2231 81.9315 44.4676 81.9936 44.7088C86.4125 58.0284 90.876 71.334 95.2074 84.6826C95.7409 86.3261 96.812 86.8569 98.1401 87.4803C106.956 91.6198 115.748 95.8124 124.549 99.9842C125.233 100.308 125.931 100.606 126.46 100.843C126.793 100.72 126.926 100.714 126.993 100.641C133.274 94.0873 139.572 87.5502 145.79 80.9373C146.428 80.1968 146.786 79.2569 146.802 78.2802C146.737 71.6382 146.851 64.9723 146.318 58.3613C145.624 48.4177 145.597 38.4387 146.238 28.4915C146.424 24.0822 146.182 19.6653 145.515 15.3027C144.972 11.3975 144.428 10.5986 140.685 10.2633C138.933 10.1067 137.188 9.75259 135.44 9.71052C131.564 9.6173 127.68 9.77512 123.809 9.60682C122.991 9.56953 122.173 9.70307 121.408 9.99908C120.644 10.2951 119.949 10.7472 119.369 11.3262C106.947 22.1789 94.4892 32.9882 81.8486 43.9761H81.8512ZM45.8682 9.73388C40.8607 9.73388 36.0035 9.71492 31.1457 9.74146C28.6015 9.7557 26.0398 9.67692 23.5163 9.93584C14.5447 10.8505 10.2864 15.6613 10.864 25.3352C11.6806 39.0179 11.9351 52.7515 11.9092 66.4623C11.8846 79.6253 11.1917 92.7862 10.8084 105.948C10.785 106.745 10.9035 107.546 10.9592 108.399L66.259 72.3709C60.3407 51.2526 53.2968 30.6826 45.8682 9.73071V9.73388ZM68.8155 82.2365C68.3435 82.4604 68.2379 82.4986 68.1447 82.5569C49.2255 94.4194 30.3032 106.277 11.3782 118.129C10.9476 118.37 10.5951 118.728 10.3626 119.164C10.1301 119.599 10.0276 120.091 10.0669 120.583C10.0851 125.782 9.88432 130.991 10.1356 136.179C10.3764 141.153 13.2036 144.918 17.4094 145.727C21.9454 146.712 26.5623 147.281 31.202 147.424C49.576 147.538 67.9511 147.344 86.325 147.252C87.2556 147.248 88.1854 147.128 89.3245 147.048C80.8307 125.836 75.8148 103.853 68.8155 82.2332V82.2365ZM100.032 97.4746L99.2066 98.0404C104.792 114.407 110.378 130.774 116.076 147.472C121.808 147.472 127.46 147.682 133.085 147.384C135.945 147.143 138.755 146.488 141.425 145.437C144.367 144.368 146.587 142.249 146.778 138.876C147.065 133.81 147.212 128.74 147.219 123.665C147.219 122.984 146.183 122.084 145.417 121.658C141.263 119.344 137.047 117.142 132.847 114.91C121.91 109.093 110.972 103.28 100.032 97.4714V97.4746ZM54.0894 10.0329C54.3794 10.9689 54.5556 11.6879 54.8211 12.3727C57.2597 18.6593 59.8279 24.8982 62.1383 31.2302C67.6344 46.2806 72.2799 61.5945 76.5983 77.0283C80.9427 92.5551 85.7986 107.942 90.5988 123.337C93.0912 131.331 95.9481 139.211 98.6044 147.035H105.813C88.2333 101.996 75.787 55.5299 60.0597 10.0329H54.0894ZM78.8958 35.5056L109.956 9.83408H69.1613C72.4955 18.6251 75.6905 27.0493 78.8958 35.5024V35.5056ZM147.395 112.016V91.1408L146.765 90.9388L134.544 105.227L147.395 112.016Z" fill="black"/>
<path d="M118.21 58.1926C118.94 58.4806 119.649 58.8194 120.332 59.2069C126.624 63.0967 132.905 67.0056 139.175 70.9322C141.765 72.5452 142.375 74.7461 140.897 77.4052C140.454 78.1703 139.937 78.8901 139.354 79.5549C136.426 83.0082 133.5 86.4629 130.51 89.8625C129.792 90.6794 128.789 91.2387 127.998 91.9986C125.899 94.0221 123.659 93.8713 121.332 92.5107C118.091 90.6121 114.859 88.6987 111.639 86.771C109.555 85.5204 107.448 84.299 105.445 82.928C102.192 80.6993 101.465 77.5683 103.672 74.3732C106.999 69.5579 110.523 64.8786 113.994 60.1636C114.447 59.479 115.08 58.9329 115.824 58.5852C116.568 58.2374 117.394 58.1015 118.21 58.1926ZM118.086 65.7524L109.15 76.8375L123.697 84.9171L132.866 74.5338L118.086 65.7524Z" fill="black"/>
<path d="M49.337 51.2256C50.691 52.058 52.3616 52.6322 53.3485 53.7889C55.2095 55.9667 56.8401 58.3311 58.2141 60.8444C59.1351 62.619 59.4044 64.6601 58.9753 66.6128C58.5461 68.5651 57.4457 70.3057 55.8655 71.5304C52.5115 74.0445 49.0171 76.3664 45.3993 78.4837C41.784 80.5894 38.76 79.454 37.0609 75.5773C35.7774 72.6509 34.6967 69.6759 32.3338 67.3326C31.1741 66.1817 31.3748 64.6512 32.7716 63.1896C34.1717 61.7841 35.6773 60.4876 37.2752 59.3115C40.0752 57.1659 42.917 55.0757 45.8007 53.0411C46.9379 52.3582 48.1193 51.7518 49.337 51.2256ZM43.0506 70.2384L50.9675 65.1596L47.8593 60.8871L39.7501 66.0251L43.0506 70.2384Z" fill="black"/>
<path d="M38.8682 105.253C41.3613 105.086 42.9025 105.853 43.7896 107.329C45.7122 110.54 47.7254 113.757 49.115 117.208C50.4852 120.612 48.4855 123.669 46.1155 125.733C42.6381 128.642 38.9153 131.246 34.9888 133.513C31.924 135.361 29.4847 134.599 27.6289 131.585C25.718 128.478 23.9457 125.281 22.251 122.051C20.7954 119.276 21.3005 116.648 23.6426 114.558C24.9005 113.477 26.246 112.501 27.6652 111.641C30.5666 109.813 33.5002 108.037 36.4659 106.312C37.2395 105.9 38.0425 105.546 38.8682 105.253ZM38.3826 114.056L28.7569 119.13L33.5688 124.92L41.1074 120.015L38.3826 114.056Z" fill="black"/>
</g>
<defs>
<clipPath id="clip0_1070_967">
<rect width="158" height="156" fill="white"/>
</clipPath>
</defs>
</svg>
