<svg width="183" height="134" viewBox="0 0 183 134" fill="none" xmlns="http://www.w3.org/2000/svg">
<path d="M37.9038 114.717C37.9038 118.663 38.1397 122.037 37.8453 125.362C37.4655 129.653 35.3541 132.065 31.0986 132.565C26.0148 133.212 20.8863 133.439 15.7653 133.243C11.4282 133.031 9.4884 130.393 9.32543 126.018C9.19401 122.521 9.07243 119.019 9.07769 115.52C9.07769 113.52 8.47644 112.122 6.35064 111.813C1.66271 111.135 0.483814 107.814 0.355018 103.792C0.22885 99.8563 0.238686 95.9149 0.201887 91.9761C0.136174 84.9744 0.136182 77.972 0.00475708 70.9717C-0.126668 64.4116 2.46372 59.3557 7.94677 55.7455C9.01 55.0456 9.95824 54.1716 10.9755 53.3653C10.7126 53.0887 10.6509 52.9776 10.5589 52.9342C3.53223 49.6637 2.68714 44.09 8.50796 38.6024C12.6334 34.7129 17.7524 33.2231 23.2933 33.4669C25.4007 33.5596 26.1814 32.8663 26.7235 30.9928C28.0292 26.4797 29.7048 22.0678 30.9015 17.5283C33.3755 8.14 39.6833 4.29259 49.0211 3.45607C75.5288 1.08056 102.051 -0.365168 128.68 0.0803627C133.268 0.156589 136.708 1.46691 139.086 5.49771C143.635 13.211 148.366 20.818 152.852 28.5674C153.804 30.2103 154.571 30.7866 156.583 30.6893C160.172 30.5332 163.767 30.7236 167.32 31.2577C168.901 31.5041 170.402 32.1132 171.708 33.0374C173.014 33.9615 174.088 35.1756 174.845 36.5843C177.389 40.9352 176.357 45.5278 172.193 48.3653C171.484 48.8476 170.747 49.2853 169.708 49.9477C171.776 51.2619 173.503 52.607 175.431 53.5355C180.096 55.7816 181.932 59.6468 182.375 64.5299C183.39 75.6964 183.29 86.811 181.162 97.8639C180.204 102.838 178.128 106.938 173.261 109.217C172.681 109.488 172.175 110.692 172.233 111.416C172.476 114.463 173.068 117.482 173.31 120.53C173.894 127.89 170.767 131.382 163.482 131.69C158.999 131.879 154.517 132.105 150.032 132.221C142.923 132.404 140.575 130.162 140.306 123.006C140.167 121.04 140.169 119.067 140.313 117.102C140.57 114.711 139.998 113.868 137.352 114.019C129.815 114.448 122.26 114.717 114.711 114.738C90.1919 114.803 65.6726 114.734 41.1533 114.716C39.9665 114.716 38.7811 114.717 37.9038 114.717ZM79.7627 106.493C79.7653 106.631 79.7682 106.769 79.7712 106.908C99.1268 106.579 118.494 106.536 137.833 105.798C147.188 105.441 156.53 104.029 165.803 102.612C170.995 101.818 171.98 100.438 172.347 95.165C172.959 86.3484 173.21 77.5075 173.701 68.6829C173.973 63.8018 172.473 60.4925 167.7 58.0461C161.928 55.089 156.201 51.6062 152.989 45.4213C151.075 41.7414 149.083 38.0971 147.058 34.4743C142.744 26.7577 138.272 19.1265 134.096 11.3369C132.191 7.77596 129.504 6.71207 125.626 6.6825C100.139 6.58364 74.6646 7.85967 49.3148 10.505C43.2035 11.1188 39.0117 13.5594 37.5871 19.829C37.2092 21.3118 36.7416 22.7702 36.1867 24.1963C33.4511 31.7979 30.7674 39.4192 27.8807 46.963C27.2312 48.4468 26.2133 49.7399 24.9236 50.7197C20.6444 54.119 16.3652 57.5539 11.8107 60.5589C7.20554 63.5955 5.47601 67.3727 6.08714 72.9162C7.15234 82.5812 7.73584 92.3013 8.299 102.015C8.43042 104.249 9.18677 105.235 11.2679 105.344C18.7874 105.738 26.3049 106.359 33.8277 106.443C49.1341 106.612 64.449 106.493 79.7614 106.493H79.7627ZM155.183 123.607C157.14 123.455 159.095 123.207 161.054 123.179C162.661 123.156 163.486 122.639 163.442 120.914C163.381 118.626 163.417 116.336 163.457 114.047C163.484 112.566 163.002 111.863 161.347 112.068C157.238 112.577 153.1 112.871 149.009 113.48C148.318 113.583 147.35 114.777 147.267 115.548C146.418 123.388 147.123 124.091 154.857 123.636C154.965 123.632 155.074 123.622 155.182 123.607H155.183ZM14.2729 114.81C14.7329 117.664 15.1587 120.89 15.85 124.058C16.0056 124.472 16.2616 124.842 16.5952 125.134C16.9289 125.426 17.3296 125.63 17.7616 125.729C21.0339 125.832 24.3095 125.721 27.5672 125.396C28.3663 125.31 29.4972 124.035 29.6575 123.157C29.9962 121 30.1087 118.813 29.9933 116.632C29.9756 116.014 29.1962 114.902 28.7448 114.89C23.9767 114.761 19.2099 114.81 14.2716 114.81H14.2729ZM157.231 35.4916L156.83 36.2978C157.784 37.9873 158.695 39.7031 159.7 41.3577C162.06 45.2486 162.634 45.3616 166.606 42.9105C169.3 41.2467 169.431 39.0334 166.53 37.8407C163.601 36.6435 160.345 36.2427 157.231 35.4916ZM23.474 38.9086C19.1876 39.5335 15.7442 40.7617 13.075 43.6734C12.0177 44.8266 11.9263 45.7762 13.8136 46.5214C18.748 48.4665 20.1411 47.9139 22.0382 42.7843C22.4443 41.6837 22.8491 40.5862 23.474 38.9059V38.9086Z" fill="black"/>
<path d="M82.4502 57.6005C72.9403 57.8805 63.4311 58.2688 53.9192 58.389C49.6755 58.4436 45.418 58.05 41.1789 57.705C35.6945 57.2588 32.0777 51.1107 34.1246 45.7867C37.1316 37.9669 39.356 29.8442 41.9096 21.8496C42.3237 20.417 43.1148 19.1218 44.2001 18.0991C45.2854 17.0765 46.6253 16.3637 48.08 16.0354C52.1854 14.9128 56.3699 14.1025 60.5975 13.6112C73.4371 12.4363 86.2912 11.3231 99.1662 10.666C106.792 10.2776 114.464 10.8197 122.116 10.8986C127.052 10.9492 130.834 13.1434 133.177 17.3529C137.632 25.3554 142.157 33.3618 143.631 42.618C143.789 43.3534 144.081 44.0536 144.491 44.6841C147.797 50.2742 146.105 54.1618 139.751 54.8531C131.931 55.704 124.087 56.4715 116.233 56.8297C104.983 57.3429 93.7147 57.4527 82.4568 57.7346L82.4502 57.6005ZM135.875 47.2298C132.601 38.8291 129.757 31.2866 126.724 23.8216C124.379 18.0494 124.019 17.9509 117.853 18.2643C100.17 19.1646 82.4818 19.9801 64.8045 20.9842C60.0147 21.2569 55.2532 22.0566 50.4844 22.6632C49.3855 22.7402 48.3428 23.1784 47.5189 23.9096C46.6949 24.6407 46.1357 25.6238 45.9285 26.7058C44.3606 32.6133 42.5194 38.4506 41.052 44.3825C39.4138 51.0037 40.0006 50.2552 45.5527 50.1257C66.1056 49.6454 86.6539 48.9895 107.203 48.3436C116.481 48.0505 125.75 47.6267 135.875 47.2298Z" fill="black"/>
<path d="M88.2764 88.2516C79.4223 88.6038 70.5695 88.9685 61.7147 89.2971C60.296 89.3497 58.6998 89.6342 57.4973 89.1039C56.1883 88.5269 54.6769 87.306 54.2774 86.041C53.6945 84.2089 55.294 82.9276 57.0268 82.6509C60.0489 82.1696 63.0962 81.8625 66.1536 81.7309C82.4345 81.03 98.7179 80.3819 115.004 79.7865C117.628 79.7935 120.25 79.9484 122.856 80.2505C124.881 80.4082 126.191 81.5509 126.248 83.5716C126.307 85.6146 124.924 86.8289 123.024 87.1141C120.434 87.5331 117.818 87.7713 115.195 87.8271C106.224 87.9112 97.2554 87.8593 88.281 87.8593C88.277 87.9914 88.2764 88.1215 88.2764 88.2516Z" fill="black"/>
<path d="M65.6121 78.8159C64.3077 78.8159 62.8876 79.1373 61.735 78.7207C60.6974 78.3455 59.347 77.2276 59.2452 76.3142C59.14 75.3634 60.1316 73.7981 61.0602 73.3342C62.7463 72.5589 64.5586 72.0947 66.4098 71.964C78.5752 70.8055 90.7504 69.7489 102.923 68.6679C103.358 68.6185 103.798 68.6292 104.23 68.6995C106.395 69.1174 108.708 69.419 109.008 72.2742C109.232 74.3981 107.514 76.217 104.515 76.5515C100.614 76.9891 96.675 77.1206 92.7487 77.3105C83.7007 77.7481 74.6502 78.1424 65.6002 78.5537L65.6121 78.8159Z" fill="black"/>
<path d="M149.076 85.3541C144.179 85.3041 140.935 82.9581 139.774 78.627C138.663 74.4871 140.979 68.5073 144.571 66.5773C145.549 66.1009 146.616 65.8325 147.703 65.7888C151.725 65.5194 155.251 67.0123 158.348 69.3872C161.271 71.6293 161.82 75.7489 159.967 79.2139C157.971 82.945 153.617 85.4007 149.076 85.3541Z" fill="black"/>
<path d="M39.8417 78.0805C39.8522 84.0932 34.749 89.2115 28.8217 89.134C27.6193 89.1259 26.4307 88.877 25.3261 88.402C24.2215 87.927 23.2232 87.2355 22.3902 86.3684C21.5571 85.5013 20.9063 84.4761 20.476 83.3533C20.0457 82.2305 19.8447 81.0328 19.8848 79.8311C19.9682 73.292 24.4407 69.022 31.2399 68.9885C36.3064 68.9655 39.8325 72.6934 39.8417 78.0805Z" fill="black"/>
</svg>
