<svg width="37" height="141" viewBox="0 0 37 141" fill="none" xmlns="http://www.w3.org/2000/svg">
<g clip-path="url(#clip0_1070_943)">
<path d="M15.8218 33.4326C14.7741 33.1077 14.0238 32.9245 13.3091 32.647C11.4166 32.0309 9.57233 31.2751 7.79153 30.3858C1.26654 26.6484 -1.10667 20.063 1.35481 12.9779C4.52253 3.86093 12.495 -0.875189 21.9969 0.751834C23.743 1.05073 25.4691 1.47419 27.2003 1.85625C31.3599 2.77503 34.016 5.33598 35.385 9.33338C36.9408 13.7686 37.0183 18.5888 35.6058 23.0718C35.054 25.0627 34.0163 26.885 32.5861 28.3747C31.1559 29.8643 29.378 30.9746 27.4125 31.6054C25.9604 32.1187 24.4733 32.532 22.7226 33.0785C22.7226 33.7932 22.7187 34.5378 22.7226 35.2876C22.9095 65.7297 23.0878 96.1727 23.2575 126.616C23.2717 129.715 22.9258 132.82 22.6733 135.916C22.5837 136.794 22.3704 137.655 22.0397 138.473C21.7991 139.225 21.3022 139.868 20.6361 140.289C19.97 140.711 19.1769 140.885 18.3955 140.781C17.6635 140.773 16.9553 140.519 16.385 140.059C15.8148 139.599 15.4156 138.961 15.2518 138.247C14.8862 136.97 14.6877 135.651 14.6612 134.323C14.7819 106.324 14.9377 78.3255 15.1286 50.3272C15.1662 45.4468 15.5829 40.5688 15.8166 35.689C15.849 35.0314 15.8218 34.3721 15.8218 33.4326ZM28.5018 17.0291C28.5018 16.4748 28.5368 15.9185 28.4959 15.3675C28.2214 11.6755 26.6395 9.0493 22.7447 8.28127C20.2514 7.79005 17.7834 7.13618 15.272 6.78661C14.3048 6.72248 13.3437 6.98258 12.5404 7.52553C9.91864 9.24872 8.50095 11.8661 7.64736 14.8174C6.48545 18.8368 7.62594 21.7827 11.2584 23.8002C12.8953 24.7389 14.7012 25.3451 16.5724 25.5842C18.4437 25.8234 20.3437 25.6909 22.1638 25.194C27.1023 23.9302 28.5563 22.1863 28.5018 17.0291Z" fill="black"/>
</g>
<defs>
<clipPath id="clip0_1070_943">
<rect width="37" height="141" fill="white"/>
</clipPath>
</defs>
</svg>
