<svg width="155" height="154" viewBox="0 0 155 154" fill="none" xmlns="http://www.w3.org/2000/svg">
<g clip-path="url(#clip0_1070_1278)">
<path d="M99.2894 130.831C98.2011 138.089 96.0551 144.768 89.6333 149.127C85.2674 152.182 80.0065 153.699 74.68 153.439C62.4811 152.864 54.8248 146.127 52.2157 133.403C51.1658 133.403 50.0236 133.37 48.8834 133.409C36.1572 133.845 23.4328 134.315 10.7053 134.703C8.87333 134.754 7.04206 134.583 5.25135 134.194C3.99937 133.896 2.8294 133.324 1.82691 132.519C1.4429 132.255 1.13044 131.902 0.917438 131.487C0.704433 131.074 0.597599 130.614 0.606467 130.149C0.615335 129.684 0.739797 129.229 0.968419 128.823C1.19703 128.418 1.52275 128.076 1.91652 127.827C11.6906 121.039 15.627 110.718 18.8795 100.022C21.4691 91.5037 22.0094 82.6804 22.2922 73.8442C22.6482 62.6878 24.4545 51.8676 28.6258 41.4033C34.058 27.7743 43.9099 19.0196 57.4857 14.1453C59.4274 13.4485 60.3709 12.6035 60.7743 10.4895C62.0791 3.65142 66.3107 0.330891 73.2487 0.290774C80.0207 0.254539 85.2648 4.21564 86.569 10.6383C86.6565 11.4129 86.9717 12.1445 87.475 12.7406C87.9783 13.3368 88.6475 13.771 89.3972 13.9883C99.8471 17.98 107.778 24.9041 113.583 34.4683C121.352 47.2671 125.986 61.127 128.522 75.7905C129.347 80.558 130.492 85.2699 131.453 90.0142C133.734 101.273 139.744 109.905 149.488 116.069C151.262 117.24 152.722 118.826 153.74 120.689C155.15 123.282 154.059 126.008 151.238 126.955C148.592 127.827 145.841 128.341 143.058 128.486C129.481 129.225 115.895 129.786 102.313 130.427C101.365 130.476 100.423 130.677 99.2894 130.831ZM117.828 83.6555C118.062 83.0673 118.228 82.8583 118.203 82.6765C117.954 80.8647 117.666 79.0614 117.401 77.2529C115.433 63.8248 111.492 51.0964 104.53 39.3225C96.3476 25.4839 82.2199 18.654 66.465 21.7347C54.9406 23.9878 45.4703 29.6989 40.0699 40.5067C37.6891 45.2736 35.53 50.3912 34.6052 55.5865C33.1038 64.0235 32.6643 72.651 31.8562 81.2057C31.5871 84.0528 31.5629 86.9231 31.4021 90.3157C60.5071 88.0646 89.3194 86.6792 117.828 83.6555ZM18.5267 125.036C56.9278 122.324 94.5946 121.53 132.687 117.405C125.883 110.409 122.901 102.153 120.473 93.7457L30.5332 97.2399C29.3704 107.199 25.4991 116.387 18.5267 125.036ZM59.2302 132.846C60.8191 140.46 67.9203 145.118 76.1302 144.264C83.6104 143.488 87.975 138.898 88.0457 131.262L59.2302 132.846ZM67.1421 11.142H78.0576C76.5459 8.14089 74.1709 7.73195 71.6793 7.81413C69.543 7.8853 67.7161 8.64107 67.1441 11.142H67.1421Z" fill="black"/>
</g>
<defs>
<clipPath id="clip0_1070_1278">
<rect width="155" height="154" fill="white"/>
</clipPath>
</defs>
</svg>
