<svg width="157" height="160" viewBox="0 0 157 160" fill="none" xmlns="http://www.w3.org/2000/svg">
<g clip-path="url(#clip0_1070_915)">
<path d="M151.109 66.6515C150.172 65.8042 149.203 64.9277 148.278 64.0429C140.553 56.6493 132.83 49.2525 125.108 41.8532C111.885 29.1867 98.6567 16.5271 85.4241 3.87434C80.656 -0.681452 78.5807 -0.64129 73.7383 4.10365L70.314 7.45858C53.475 23.9548 36.0629 41.0132 18.8782 57.7297C15.2277 61.2801 11.4113 64.7904 7.72017 68.1815C5.93393 69.8223 4.15136 71.4683 2.37245 73.1188C1.60554 73.8314 -0.72879 76.0066 1.27991 78.3451C2.62507 79.9114 4.41992 79.8162 6.61406 78.0633C8.04386 76.9193 9.47237 75.7313 10.8544 74.5783C11.746 73.8346 12.6395 73.0949 13.535 72.3571C13.9265 72.0332 14.3342 71.7404 14.9532 71.2934L15.156 71.1464C15.156 72.5268 15.1651 73.867 15.1715 75.1729C15.1883 78.746 15.2038 82.1216 15.1399 85.4758C15.0171 91.8557 14.8789 98.2349 14.7251 104.615C14.5351 112.937 14.3374 121.543 14.1985 130.008C14.1094 135.384 14.0583 141.095 14.4893 146.655C14.9544 152.657 17.25 154.832 23.5875 155.271C27.4369 155.539 31.3509 155.842 35.1364 156.137C42.6239 156.72 50.366 157.32 57.997 157.671C76.2238 158.509 94.7382 159.145 113.026 159.562C113.672 159.576 114.326 159.584 114.987 159.584C120.335 159.543 125.675 159.157 130.973 158.427C138.915 157.395 141.79 154.615 142.807 146.983C144.084 137.412 144.944 127.332 145.437 116.166C145.872 106.29 146.036 96.5948 146.208 86.3315C146.274 82.4532 146.345 78.5433 146.421 74.6016C147.095 75.2383 147.677 75.7883 148.289 76.3188C150.721 78.4254 153.336 78.6068 155.112 76.7917C155.513 76.3946 155.829 75.9205 156.042 75.3984C156.256 74.8756 156.362 74.3153 156.355 73.7511C156.26 72.1828 155.549 70.7169 154.377 69.6746C153.309 68.6427 152.19 67.6277 151.109 66.6515ZM61.367 96.701L91.8288 93.8158L92.7844 151.767L60.1769 150.51L61.367 96.701ZM100.843 102.118C100.835 99.1814 100.677 96.2048 100.525 93.3268C100.486 92.5928 100.448 91.8583 100.411 91.1243C100.309 89.0625 99.7428 87.6102 98.6813 86.6832C97.6016 85.7407 96.0375 85.3702 93.9002 85.5639C81.5347 86.6592 70.199 87.5953 59.2459 88.4244C54.6012 88.7762 53.0357 90.4675 53.0395 95.1282C53.0589 115.043 53.0538 130.32 53.0215 144.664C52.995 145.92 52.9044 147.174 52.7501 148.421C52.7023 148.879 52.6525 149.348 52.6067 149.832L21.8224 147.912C21.7668 147.435 21.7061 146.97 21.6454 146.514C21.4557 145.3 21.3478 144.075 21.3223 142.846C21.3533 137.491 21.416 132.047 21.4767 126.781C21.5484 120.498 21.6227 114.001 21.6447 107.611C21.666 101.591 21.6499 95.4715 21.635 89.5535C21.6169 82.3982 21.5982 74.9993 21.6434 67.7235C21.6413 66.417 22.1017 65.1525 22.9426 64.1542C36.8407 50.7745 51.0476 37.2502 64.788 24.1717L71.1998 18.0672C73.2524 16.1128 75.3186 14.1741 77.4288 12.1932L80.039 9.74069C81.8945 11.5234 83.7449 13.2968 85.5895 15.0614C89.8576 19.1475 94.271 23.3738 98.5546 27.5513C104.009 32.8716 109.455 38.1994 114.893 43.535C121.825 50.3262 128.991 57.3473 136.067 64.2273C137.523 65.6435 138.187 66.7758 137.779 69.0366C137.538 70.8581 137.544 72.7036 137.798 74.5238C137.931 75.7002 137.996 76.8837 137.991 78.0678L137.922 80.7885C137.641 91.7624 137.351 103.109 136.819 114.254C136.502 120.91 135.979 127.673 135.48 134.213C135.253 137.162 135.028 140.112 134.816 143.061L134.807 143.195C134.787 143.47 134.768 143.746 134.733 144.019C133.993 149.882 133.481 150.408 127.895 151.052C118.924 152.092 109.881 152.374 100.862 151.894L100.866 139.013C100.872 126.899 100.877 114.374 100.844 102.118H100.843Z" fill="black"/>
</g>
<defs>
<clipPath id="clip0_1070_915">
<rect width="157" height="160" fill="white"/>
</clipPath>
</defs>
</svg>
