<svg width="257" height="158" viewBox="0 0 257 158" fill="none" xmlns="http://www.w3.org/2000/svg">
<g filter="url(#filter0_n_632_13003)">
<g clip-path="url(#clip0_632_13003)">
<path d="M30.0956 64.9489C27.612 84.6375 17.9474 131.531 20.4602 146.671M27.8355 152.857C44.3703 153.095 227.324 152.857 229.108 152.857M194.73 61.6182C203.153 74.1009 230.256 124.016 236.353 143.46" stroke="white" stroke-width="0.237911"/>
<path d="M27.834 137.748C32.0385 137.748 35.447 141.156 35.4473 145.36C35.4473 149.565 32.0386 152.974 27.834 152.974C23.6294 152.974 20.2207 149.565 20.2207 145.36C20.2209 141.156 23.6296 137.748 27.834 137.748ZM27.834 142.157C26.0636 142.157 24.6289 143.592 24.6289 145.362C24.6289 147.133 26.0637 148.567 27.834 148.567C29.6043 148.567 31.04 147.133 31.04 145.362C31.04 143.592 29.6044 142.157 27.834 142.157Z" fill="white"/>
<path d="M229.109 137.748C233.314 137.748 236.722 141.156 236.723 145.36C236.723 149.565 233.314 152.973 229.109 152.974C224.905 152.974 221.496 149.565 221.496 145.36C221.496 141.156 224.905 137.748 229.109 137.748ZM229.109 142.157C227.339 142.157 225.903 143.592 225.903 145.362C225.903 147.133 227.339 148.567 229.109 148.567C230.88 148.567 232.314 147.133 232.314 145.362C232.314 143.592 230.88 142.157 229.109 142.157Z" fill="white"/>
<path d="M57.9033 121.929H200.939C204.256 121.929 207.15 124.178 207.971 127.391L215.563 157.14H41.6426L50.9717 127.038C51.9131 124 54.7233 121.929 57.9033 121.929Z" stroke="white" stroke-width="0.713734"/>
<circle cx="67.8041" cy="146.315" r="6.30465" stroke="white" stroke-width="0.713734"/>
<circle cx="189.378" cy="146.315" r="6.30465" stroke="white" stroke-width="0.713734"/>
<rect x="88.1469" y="140.011" width="8.32689" height="8.32689" rx="1.0706" stroke="white" stroke-width="0.713734"/>
<path d="M123.951 148.694C123.951 147.905 124.59 147.266 125.379 147.266H131.564C132.353 147.266 132.992 147.905 132.992 148.694V152.976H123.951V148.694Z" fill="white"/>
<rect x="160.71" y="140.011" width="8.32689" height="8.32689" rx="1.0706" stroke="white" stroke-width="0.713734"/>
<g clip-path="url(#clip1_632_13003)">
<path d="M128.472 124.666C130.837 124.666 132.754 126.583 132.754 128.948C132.754 131.313 130.837 133.23 128.472 133.23C126.107 133.23 124.189 131.313 124.189 128.948C124.19 126.583 126.107 124.666 128.472 124.666ZM128.821 126.385C128.744 126.004 128.2 126.004 128.122 126.385L127.795 127.993C127.766 128.133 127.657 128.242 127.517 128.271L125.909 128.598C125.528 128.676 125.528 129.22 125.909 129.297L127.517 129.625C127.657 129.653 127.766 129.763 127.795 129.903L128.122 131.51C128.2 131.891 128.743 131.892 128.821 131.511L129.148 129.903C129.177 129.763 129.287 129.653 129.427 129.625L131.034 129.297C131.415 129.22 131.416 128.676 131.035 128.598L129.427 128.271C129.287 128.242 129.177 128.133 129.148 127.993L128.821 126.385Z" fill="white"/>
</g>
<g clip-path="url(#clip2_632_13003)">
<path d="M10.7061 6.42285C13.0711 6.42285 14.9882 8.34005 14.9883 10.7051C14.9883 13.0702 13.0712 14.9873 10.7061 14.9873C8.34103 14.9872 6.42383 13.0701 6.42383 10.7051C6.42392 8.34011 8.34109 6.42295 10.7061 6.42285ZM11.0557 8.14258C10.9782 7.76158 10.4339 7.76158 10.3564 8.14258L10.0293 9.75C10.0007 9.89033 9.89131 9.99977 9.75098 10.0283L8.14355 10.3555C7.76256 10.433 7.76256 10.9772 8.14355 11.0547L9.75098 11.3818C9.89121 11.4104 10.0006 11.52 10.0293 11.6602L10.3564 13.2676C10.4339 13.6484 10.9778 13.649 11.0557 13.2686L11.3828 11.6602C11.4114 11.52 11.521 11.4105 11.6611 11.3818L13.2686 11.0547C13.6494 10.9772 13.6501 10.4333 13.2695 10.3555L11.6611 10.0283C11.521 9.99966 11.4113 9.89023 11.3828 9.75L11.0557 8.14258Z" fill="white"/>
</g>
<g clip-path="url(#clip3_632_13003)">
<path d="M10.7061 142.509C13.0711 142.509 14.9882 144.426 14.9883 146.791C14.9883 149.156 13.0712 151.073 10.7061 151.073C8.34103 151.073 6.42383 149.156 6.42383 146.791C6.42392 144.426 8.34109 142.509 10.7061 142.509ZM11.0557 144.229C10.9782 143.848 10.4339 143.848 10.3564 144.229L10.0293 145.836C10.0007 145.976 9.89131 146.086 9.75098 146.114L8.14355 146.441C7.76256 146.519 7.76256 147.063 8.14355 147.141L9.75098 147.468C9.89121 147.496 10.0006 147.606 10.0293 147.746L10.3564 149.354C10.4339 149.734 10.9778 149.735 11.0557 149.354L11.3828 147.746C11.4114 147.606 11.521 147.496 11.6611 147.468L13.2686 147.141C13.6494 147.063 13.6501 146.519 13.2695 146.441L11.6611 146.114C11.521 146.086 11.4113 145.976 11.3828 145.836L11.0557 144.229Z" fill="white"/>
</g>
<g clip-path="url(#clip4_632_13003)">
<path d="M246.239 6.42285C248.604 6.42285 250.521 8.34005 250.521 10.7051C250.521 13.0702 248.604 14.9873 246.239 14.9873C243.874 14.9872 241.957 13.0701 241.957 10.7051C241.957 8.34011 243.874 6.42295 246.239 6.42285ZM246.589 8.14258C246.511 7.76158 245.967 7.76158 245.89 8.14258L245.562 9.75C245.534 9.89033 245.425 9.99977 245.284 10.0283L243.677 10.3555C243.296 10.433 243.296 10.9772 243.677 11.0547L245.284 11.3818C245.424 11.4104 245.534 11.52 245.562 11.6602L245.89 13.2676C245.967 13.6484 246.511 13.649 246.589 13.2686L246.916 11.6602C246.945 11.52 247.054 11.4105 247.194 11.3818L248.802 11.0547C249.183 10.9772 249.183 10.4333 248.803 10.3555L247.194 10.0283C247.054 9.99966 246.945 9.89023 246.916 9.75L246.589 8.14258Z" fill="white"/>
</g>
<g clip-path="url(#clip5_632_13003)">
<path d="M246.239 142.509C248.604 142.509 250.521 144.426 250.521 146.791C250.521 149.156 248.604 151.073 246.239 151.073C243.874 151.073 241.957 149.156 241.957 146.791C241.957 144.426 243.874 142.509 246.239 142.509ZM246.589 144.229C246.511 143.848 245.967 143.848 245.89 144.229L245.562 145.836C245.534 145.976 245.425 146.086 245.284 146.114L243.677 146.441C243.296 146.519 243.296 147.063 243.677 147.141L245.284 147.468C245.424 147.496 245.534 147.606 245.562 147.746L245.89 149.354C245.967 149.734 246.511 149.735 246.589 149.354L246.916 147.746C246.945 147.606 247.054 147.496 247.194 147.468L248.802 147.141C249.183 147.063 249.183 146.519 248.803 146.441L247.194 146.114C247.054 146.086 246.945 145.976 246.916 145.836L246.589 144.229Z" fill="url(#paint0_linear_632_13003)"/>
</g>
</g>
<rect x="0.446347" y="0.446347" width="256.052" height="156.605" rx="10.266" stroke="url(#paint1_linear_632_13003)" stroke-width="0.892694"/>
</g>
<defs>
<filter id="filter0_n_632_13003" x="0" y="0" width="256.944" height="157.497" filterUnits="userSpaceOnUse" color-interpolation-filters="sRGB">
<feFlood flood-opacity="0" result="BackgroundImageFix"/>
<feBlend mode="normal" in="SourceGraphic" in2="BackgroundImageFix" result="shape"/>
<feTurbulence type="fractalNoise" baseFrequency="4.4808201789855957 4.4808201789855957" stitchTiles="stitch" numOctaves="3" result="noise" seed="8462" />
<feColorMatrix in="noise" type="luminanceToAlpha" result="alphaNoise" />
<feComponentTransfer in="alphaNoise" result="coloredNoise1">
<feFuncA type="discrete" tableValues="1 1 1 1 1 1 1 1 1 1 1 1 1 1 1 1 1 1 1 1 1 1 1 1 1 1 1 1 1 1 1 1 1 1 1 1 1 1 1 1 1 1 1 1 1 1 1 1 1 1 1 0 0 0 0 0 0 0 0 0 0 0 0 0 0 0 0 0 0 0 0 0 0 0 0 0 0 0 0 0 0 0 0 0 0 0 0 0 0 0 0 0 0 0 0 0 0 0 0 0 "/>
</feComponentTransfer>
<feComposite operator="in" in2="shape" in="coloredNoise1" result="noise1Clipped" />
<feFlood flood-color="rgba(0, 0, 0, 0.25)" result="color1Flood" />
<feComposite operator="in" in2="noise1Clipped" in="color1Flood" result="color1" />
<feMerge result="effect1_noise_632_13003">
<feMergeNode in="shape" />
<feMergeNode in="color1" />
</feMerge>
</filter>
<linearGradient id="paint0_linear_632_13003" x1="246.239" y1="142.509" x2="246.239" y2="151.073" gradientUnits="userSpaceOnUse">
<stop stop-color="white"/>
<stop stop-color="#EB5757"/>
<stop offset="1" stop-color="#EB5757"/>
</linearGradient>
<linearGradient id="paint1_linear_632_13003" x1="8.25742" y1="-18.9697" x2="268.478" y2="170.951" gradientUnits="userSpaceOnUse">
<stop stop-color="white"/>
<stop offset="0.5" stop-color="#CCCCCC"/>
<stop offset="1" stop-color="#EB5757"/>
</linearGradient>
<clipPath id="clip0_632_13003">
<rect width="256.944" height="157.497" rx="10.7123" fill="white"/>
</clipPath>
<clipPath id="clip1_632_13003">
<rect width="8.56481" height="8.56481" fill="white" transform="translate(124.189 124.666)"/>
</clipPath>
<clipPath id="clip2_632_13003">
<rect width="8.56481" height="8.56481" fill="white" transform="translate(6.42383 6.42285)"/>
</clipPath>
<clipPath id="clip3_632_13003">
<rect width="8.56481" height="8.56481" fill="white" transform="translate(6.42383 142.509)"/>
</clipPath>
<clipPath id="clip4_632_13003">
<rect width="8.56481" height="8.56481" fill="white" transform="translate(241.957 6.42285)"/>
</clipPath>
<clipPath id="clip5_632_13003">
<rect width="8.56481" height="8.56481" fill="white" transform="translate(241.957 142.509)"/>
</clipPath>
</defs>
</svg>
