<svg width="511" height="228" viewBox="0 0 511 228" fill="none" xmlns="http://www.w3.org/2000/svg">
<g clip-path="url(#clip0_2490_23319)">
<g clip-path="url(#clip1_2490_23319)">
<rect width="511" height="25.5732" transform="matrix(1 0 0 -1 0.266602 227.267)" fill="#F95F4A"/>
<rect width="511" height="17.5816" transform="matrix(1 0 0 -1 0.266602 195.3)" fill="#F95F4A"/>
<rect width="511" height="3.19665" transform="matrix(1 0 0 -1 0.266602 100.999)" fill="#F95F4A"/>
<rect width="511" height="1.59832" transform="matrix(1 0 0 -1 0.266602 85.0156)" fill="#F95F4A"/>
<rect width="511" height="12.7866" transform="matrix(1 0 0 -1 0.266602 171.325)" fill="#F95F4A"/>
<rect width="511" height="6.39329" transform="matrix(1 0 0 -1 0.266602 132.965)" fill="#F95F4A"/>
<rect width="511" height="9.58994" transform="matrix(1 0 0 -1 0.266602 150.547)" fill="#F95F4A"/>
<rect width="511" height="4.79497" transform="matrix(1 0 0 -1 0.266602 116.982)" fill="#F95F4A"/>
</g>
</g>
<defs>
<clipPath id="clip0_2490_23319">
<rect width="510.632" height="227.066" fill="white"/>
</clipPath>
<clipPath id="clip1_2490_23319">
<rect width="511" height="143.849" fill="white" transform="matrix(1 0 0 -1 0.266602 227.267)"/>
</clipPath>
</defs>
</svg>
